%TF.GenerationSoftware,Altium Limited,Altium Designer,25.7.1 (20)*%
G04 Layer_Color=8421504*
%FSLAX45Y45*%
%MOMM*%
%TF.SameCoordinates,C331EA04-0F80-4B25-860E-1567A5D6E8FC*%
%TF.FilePolarity,Positive*%
%TF.FileFunction,Paste,Top*%
%TF.Part,Single*%
G01*
G75*
%TA.AperFunction,SMDPad,CuDef*%
%ADD11R,0.90000X0.80000*%
G04:AMPARAMS|DCode=12|XSize=3.2mm|YSize=1.6mm|CornerRadius=0.4mm|HoleSize=0mm|Usage=FLASHONLY|Rotation=90.000|XOffset=0mm|YOffset=0mm|HoleType=Round|Shape=RoundedRectangle|*
%AMROUNDEDRECTD12*
21,1,3.20000,0.80000,0,0,90.0*
21,1,2.40000,1.60000,0,0,90.0*
1,1,0.80000,0.40000,1.20000*
1,1,0.80000,0.40000,-1.20000*
1,1,0.80000,-0.40000,-1.20000*
1,1,0.80000,-0.40000,1.20000*
%
%ADD12ROUNDEDRECTD12*%
G04:AMPARAMS|DCode=13|XSize=3.2mm|YSize=1.6mm|CornerRadius=0.4mm|HoleSize=0mm|Usage=FLASHONLY|Rotation=180.000|XOffset=0mm|YOffset=0mm|HoleType=Round|Shape=RoundedRectangle|*
%AMROUNDEDRECTD13*
21,1,3.20000,0.80000,0,0,180.0*
21,1,2.40000,1.60000,0,0,180.0*
1,1,0.80000,-1.20000,0.40000*
1,1,0.80000,1.20000,0.40000*
1,1,0.80000,1.20000,-0.40000*
1,1,0.80000,-1.20000,-0.40000*
%
%ADD13ROUNDEDRECTD13*%
G04:AMPARAMS|DCode=14|XSize=3.2mm|YSize=1.6mm|CornerRadius=0.096mm|HoleSize=0mm|Usage=FLASHONLY|Rotation=180.000|XOffset=0mm|YOffset=0mm|HoleType=Round|Shape=RoundedRectangle|*
%AMROUNDEDRECTD14*
21,1,3.20000,1.40800,0,0,180.0*
21,1,3.00800,1.60000,0,0,180.0*
1,1,0.19200,-1.50400,0.70400*
1,1,0.19200,1.50400,0.70400*
1,1,0.19200,1.50400,-0.70400*
1,1,0.19200,-1.50400,-0.70400*
%
%ADD14ROUNDEDRECTD14*%
%ADD15R,0.80000X1.00000*%
%ADD16R,0.67248X0.71535*%
%ADD17R,0.90000X0.75000*%
%ADD18R,0.24000X0.60000*%
%ADD19R,0.45000X0.50000*%
%ADD20R,2.10000X2.10000*%
%ADD21R,0.25000X0.25000*%
%ADD22R,0.60000X0.24000*%
%ADD23R,0.80000X0.90000*%
%ADD24R,1.35000X0.95000*%
%ADD25R,0.90000X0.80000*%
%ADD26R,0.40000X0.50000*%
%ADD27R,0.95000X1.35000*%
%ADD28R,1.98120X0.55880*%
%ADD29R,1.00620X1.10506*%
%ADD30R,0.80000X0.95000*%
%ADD31R,0.52000X0.52000*%
%TA.AperFunction,SMDPad,SMDef*%
G04:AMPARAMS|DCode=32|XSize=0.25mm|YSize=0.6mm|CornerRadius=0.05mm|HoleSize=0mm|Usage=FLASHONLY|Rotation=90.000|XOffset=0mm|YOffset=0mm|HoleType=Round|Shape=RoundedRectangle|*
%AMROUNDEDRECTD32*
21,1,0.25000,0.50000,0,0,90.0*
21,1,0.15000,0.60000,0,0,90.0*
1,1,0.10000,0.25000,0.07500*
1,1,0.10000,0.25000,-0.07500*
1,1,0.10000,-0.25000,-0.07500*
1,1,0.10000,-0.25000,0.07500*
%
%ADD32ROUNDEDRECTD32*%
G04:AMPARAMS|DCode=33|XSize=0.6mm|YSize=0.25mm|CornerRadius=0.05mm|HoleSize=0mm|Usage=FLASHONLY|Rotation=90.000|XOffset=0mm|YOffset=0mm|HoleType=Round|Shape=RoundedRectangle|*
%AMROUNDEDRECTD33*
21,1,0.60000,0.15000,0,0,90.0*
21,1,0.50000,0.25000,0,0,90.0*
1,1,0.10000,0.07500,0.25000*
1,1,0.10000,0.07500,-0.25000*
1,1,0.10000,-0.07500,-0.25000*
1,1,0.10000,-0.07500,0.25000*
%
%ADD33ROUNDEDRECTD33*%
%TA.AperFunction,SMDPad,CuDef*%
%ADD35R,0.52000X0.52000*%
%ADD36R,0.70000X0.65000*%
G04:AMPARAMS|DCode=37|XSize=1.35872mm|YSize=0.58684mm|CornerRadius=0.29342mm|HoleSize=0mm|Usage=FLASHONLY|Rotation=90.000|XOffset=0mm|YOffset=0mm|HoleType=Round|Shape=RoundedRectangle|*
%AMROUNDEDRECTD37*
21,1,1.35872,0.00000,0,0,90.0*
21,1,0.77188,0.58684,0,0,90.0*
1,1,0.58684,0.00000,0.38594*
1,1,0.58684,0.00000,-0.38594*
1,1,0.58684,0.00000,-0.38594*
1,1,0.58684,0.00000,0.38594*
%
%ADD37ROUNDEDRECTD37*%
%ADD38R,0.58684X1.35872*%
%ADD39R,0.66040X0.50800*%
%ADD40R,0.60000X0.50000*%
%ADD41R,0.98000X3.40000*%
%ADD44R,0.50800X0.66040*%
%ADD45R,1.00000X1.40000*%
G36*
X1877832Y3884238D02*
X1879239Y3882832D01*
X1880000Y3880994D01*
X1880000Y3880000D01*
X1880000Y3865000D01*
X1880000Y3864005D01*
X1879239Y3862167D01*
X1877832Y3860761D01*
X1875994Y3859999D01*
X1875000Y3860000D01*
X1845000D01*
Y3834999D01*
X1875000Y3834999D01*
Y3834999D01*
X1875994D01*
X1877832Y3834238D01*
X1879238Y3832832D01*
X1880000Y3830994D01*
Y3829999D01*
X1880000Y3814999D01*
Y3814999D01*
X1880000Y3814005D01*
X1879239Y3812167D01*
X1877832Y3810760D01*
X1875994Y3809999D01*
X1875000Y3809999D01*
X1825000Y3810000D01*
X1825000D01*
X1824005Y3809999D01*
X1822167Y3810760D01*
X1820761Y3812167D01*
X1820000Y3814005D01*
X1820000Y3814999D01*
X1820000Y3879999D01*
X1819999Y3880994D01*
X1820761Y3882832D01*
X1822167Y3884238D01*
X1824005Y3885000D01*
X1825000Y3884999D01*
X1875000Y3885000D01*
Y3884999D01*
X1875994Y3885000D01*
X1877832Y3884238D01*
D02*
G37*
G36*
X1770332Y3939289D02*
X1771739Y3937882D01*
X1772500Y3936044D01*
Y3935050D01*
Y3887550D01*
Y3886555D01*
X1771739Y3884717D01*
X1770332Y3883311D01*
X1768494Y3882550D01*
X1751505D01*
X1749668Y3883311D01*
X1748261Y3884717D01*
X1747500Y3886555D01*
Y3887550D01*
Y3935050D01*
Y3936044D01*
X1748261Y3937882D01*
X1749668Y3939289D01*
X1751505Y3940050D01*
X1768494D01*
X1770332Y3939289D01*
D02*
G37*
G36*
X1670332D02*
X1671739Y3937882D01*
X1672500Y3936044D01*
Y3935050D01*
Y3887550D01*
Y3886555D01*
X1671739Y3884717D01*
X1670332Y3883311D01*
X1668494Y3882550D01*
X1651505D01*
X1649668Y3883311D01*
X1648261Y3884717D01*
X1647500Y3886555D01*
Y3887550D01*
Y3935050D01*
Y3936044D01*
X1648261Y3937882D01*
X1649668Y3939289D01*
X1651505Y3940050D01*
X1668494D01*
X1670332Y3939289D01*
D02*
G37*
G36*
X1720332Y3936239D02*
X1721739Y3934832D01*
X1722500Y3932994D01*
Y3932000D01*
Y3870000D01*
Y3869005D01*
X1721739Y3867168D01*
X1720332Y3865761D01*
X1718494Y3865000D01*
X1701505D01*
X1699667Y3865761D01*
X1698261Y3867168D01*
X1697500Y3869005D01*
Y3870000D01*
Y3932000D01*
Y3932994D01*
X1698261Y3934832D01*
X1699667Y3936239D01*
X1701505Y3937000D01*
X1718494D01*
X1720332Y3936239D01*
D02*
G37*
G36*
X1595000Y3884999D02*
X1595994D01*
X1597832Y3884238D01*
X1599238Y3882831D01*
X1600000Y3880994D01*
Y3879999D01*
X1600000Y3880000D01*
X1600000Y3814999D01*
X1600000Y3814005D01*
X1599239Y3812167D01*
X1597832Y3810760D01*
X1595994Y3809999D01*
X1595000Y3810000D01*
X1545000Y3809999D01*
X1544005Y3809999D01*
X1542167Y3810760D01*
X1540761Y3812167D01*
X1539999Y3814005D01*
X1540000Y3814999D01*
X1540000D01*
Y3829999D01*
Y3830994D01*
X1540761Y3832832D01*
X1542168Y3834238D01*
X1544005Y3834999D01*
X1545000D01*
X1545000Y3834999D01*
X1575000D01*
Y3860000D01*
X1545000D01*
X1544005Y3859999D01*
X1542167Y3860761D01*
X1540761Y3862167D01*
X1539999Y3864005D01*
X1540000Y3865000D01*
X1540000D01*
Y3879999D01*
Y3880994D01*
X1540761Y3882831D01*
X1542168Y3884238D01*
X1544005Y3884999D01*
X1545000D01*
X1545000Y3885000D01*
X1595000Y3884999D01*
D02*
G37*
G36*
X1770332Y3861789D02*
X1771739Y3860382D01*
X1772500Y3858544D01*
Y3857550D01*
Y3810050D01*
Y3809055D01*
X1771739Y3807217D01*
X1770332Y3805811D01*
X1768494Y3805050D01*
X1751505D01*
X1749668Y3805811D01*
X1748261Y3807217D01*
X1747500Y3809055D01*
Y3810050D01*
Y3857550D01*
Y3858544D01*
X1748261Y3860382D01*
X1749668Y3861789D01*
X1751505Y3862550D01*
X1768494D01*
X1770332Y3861789D01*
D02*
G37*
G36*
X1670332D02*
X1671739Y3860382D01*
X1672500Y3858544D01*
Y3857550D01*
Y3810050D01*
Y3809055D01*
X1671739Y3807217D01*
X1670332Y3805811D01*
X1668494Y3805050D01*
X1651505D01*
X1649668Y3805811D01*
X1648261Y3807217D01*
X1647500Y3809055D01*
Y3810050D01*
Y3857550D01*
Y3858544D01*
X1648261Y3860382D01*
X1649668Y3861789D01*
X1651505Y3862550D01*
X1668494D01*
X1670332Y3861789D01*
D02*
G37*
G36*
X1720332Y3844238D02*
X1721739Y3842832D01*
X1722500Y3840994D01*
Y3840000D01*
Y3778000D01*
Y3777005D01*
X1721739Y3775167D01*
X1720332Y3773761D01*
X1718494Y3773000D01*
X1701505D01*
X1699667Y3773761D01*
X1698261Y3775167D01*
X1697500Y3777005D01*
Y3778000D01*
Y3840000D01*
Y3840994D01*
X1698261Y3842832D01*
X1699667Y3844238D01*
X1701505Y3845000D01*
X1718494D01*
X1720332Y3844238D01*
D02*
G37*
D11*
X407500Y2892500D02*
D03*
Y2742500D02*
D03*
D12*
X604000Y552000D02*
D03*
X2636000D02*
D03*
X2890000D02*
D03*
X3144000D02*
D03*
X3398000D02*
D03*
X4160000D02*
D03*
X4414000D02*
D03*
X4668000D02*
D03*
X5176000D02*
D03*
X5430000D02*
D03*
Y2490000D02*
D03*
X5176000D02*
D03*
X4668000D02*
D03*
X4414000D02*
D03*
X4160000D02*
D03*
X3906000D02*
D03*
X3398000D02*
D03*
X3144000D02*
D03*
X2890000D02*
D03*
X2636000D02*
D03*
X2128000D02*
D03*
X1874000D02*
D03*
X1366000D02*
D03*
X858000D02*
D03*
X604000D02*
D03*
X3906000Y552000D02*
D03*
X2128000D02*
D03*
X1620000D02*
D03*
X1366000D02*
D03*
X1874000D02*
D03*
X858000D02*
D03*
X1620000Y2490000D02*
D03*
X1112000Y552000D02*
D03*
X2382000D02*
D03*
X1112000Y2490000D02*
D03*
X2382000D02*
D03*
X3652000Y552000D02*
D03*
X4922000D02*
D03*
X3652000Y2490000D02*
D03*
X4922000D02*
D03*
D13*
X5487000Y1267000D02*
D03*
Y1775000D02*
D03*
D14*
Y1521000D02*
D03*
D15*
X2205000Y3710000D02*
D03*
X2055000D02*
D03*
X4175000Y310000D02*
D03*
X4325000D02*
D03*
D16*
X1950000Y3717856D02*
D03*
Y3622144D02*
D03*
X1640000Y3462143D02*
D03*
Y3557856D02*
D03*
D17*
X2010000Y3845000D02*
D03*
Y3965000D02*
D03*
X1360000Y3725000D02*
D03*
Y3845000D02*
D03*
D18*
X4565418Y3097917D02*
D03*
X4815418Y3477917D02*
D03*
X4665418D02*
D03*
X4565418D02*
D03*
X4615418D02*
D03*
X4715418D02*
D03*
X4765418D02*
D03*
X4815418Y3097917D02*
D03*
X4765418D02*
D03*
X4715418D02*
D03*
X4665418D02*
D03*
X4615418D02*
D03*
D19*
X3940000Y3452500D02*
D03*
X4250000D02*
D03*
X3940000Y3527500D02*
D03*
X4250000D02*
D03*
D20*
X4690418Y3287917D02*
D03*
D21*
X4865417Y3462917D02*
D03*
Y3112917D02*
D03*
X4515418D02*
D03*
Y3462917D02*
D03*
D22*
X4500418Y3412917D02*
D03*
Y3262917D02*
D03*
Y3162917D02*
D03*
Y3212917D02*
D03*
Y3312917D02*
D03*
Y3362917D02*
D03*
X4880418Y3412917D02*
D03*
Y3362917D02*
D03*
Y3312917D02*
D03*
Y3262917D02*
D03*
Y3212917D02*
D03*
Y3162917D02*
D03*
D23*
X5035000Y3627500D02*
D03*
X852500Y3220000D02*
D03*
X727500D02*
D03*
X4910000Y3627500D02*
D03*
D24*
X3700000Y3915000D02*
D03*
X2530000D02*
D03*
Y3765000D02*
D03*
X3700000D02*
D03*
D25*
X4340000Y3007500D02*
D03*
X3510000Y3892500D02*
D03*
X2530000Y3377500D02*
D03*
X2370000Y3892500D02*
D03*
X4340000Y3132500D02*
D03*
X2370000Y3767500D02*
D03*
X2530000Y3502500D02*
D03*
X3510000Y3767500D02*
D03*
D26*
X4060000Y3050000D02*
D03*
X4140000D02*
D03*
D27*
X4065000Y3172500D02*
D03*
X4215000D02*
D03*
D28*
X3261300Y4017500D02*
D03*
X2778700D02*
D03*
X3261300Y3509500D02*
D03*
Y4144500D02*
D03*
Y3890500D02*
D03*
Y3763500D02*
D03*
Y3382500D02*
D03*
X2778700Y3255500D02*
D03*
Y3382500D02*
D03*
Y3509500D02*
D03*
Y3890500D02*
D03*
Y4144500D02*
D03*
Y3636500D02*
D03*
X3261300D02*
D03*
Y3255500D02*
D03*
X2778700Y3763500D02*
D03*
D29*
X2177500Y3990114D02*
D03*
X1360000Y4240057D02*
D03*
Y4099943D02*
D03*
X2177500Y3850000D02*
D03*
D30*
X2735000Y3130000D02*
D03*
X2605000D02*
D03*
D31*
X2510000Y3260000D02*
D03*
X2590000D02*
D03*
D32*
X1850000Y3772500D02*
D03*
X1570000Y3722500D02*
D03*
Y3772500D02*
D03*
X1850000Y3722500D02*
D03*
D33*
X1785000Y3680000D02*
D03*
X1635000D02*
D03*
X1685000D02*
D03*
X1735000D02*
D03*
D35*
X1770000Y3470000D02*
D03*
X4050000Y3450000D02*
D03*
Y3530000D02*
D03*
X1770000Y3550000D02*
D03*
X4150000Y3450000D02*
D03*
Y3530000D02*
D03*
D36*
X850001Y3380000D02*
D03*
X720000D02*
D03*
D37*
X721500Y3557329D02*
D03*
X630000Y3742671D02*
D03*
D38*
X538500Y3557329D02*
D03*
D39*
X4053660Y3765000D02*
D03*
X3941900D02*
D03*
X4051900Y3970000D02*
D03*
X4163660D02*
D03*
D40*
X2410000Y3400000D02*
D03*
Y3500000D02*
D03*
D41*
X1838500Y4220000D02*
D03*
X1601500D02*
D03*
D44*
X1130000Y3815880D02*
D03*
Y3704120D02*
D03*
D45*
X3530000Y4530000D02*
D03*
X2500000D02*
D03*
X2760000D02*
D03*
X3270000D02*
D03*
Y4790000D02*
D03*
X3530000D02*
D03*
X2500000D02*
D03*
X2760000D02*
D03*
%TF.MD5,1b0be8d6005b98164298119fdae04101*%
M02*
