%TF.GenerationSoftware,Altium Limited,Altium Designer,25.7.1 (20)*%
G04 Layer_Color=65535*
%FSLAX45Y45*%
%MOMM*%
%TF.SameCoordinates,C331EA04-0F80-4B25-860E-1567A5D6E8FC*%
%TF.FilePolarity,Positive*%
%TF.FileFunction,Legend,Top*%
%TF.Part,Single*%
G01*
G75*
%TA.AperFunction,NonConductor*%
%ADD73C,0.25000*%
%ADD74C,0.25400*%
%ADD75C,0.20000*%
%ADD76C,0.12000*%
%ADD77C,0.15240*%
%ADD78C,0.17000*%
G36*
X3385760Y3401550D02*
X3411160D01*
Y3363450D01*
X3385760D01*
Y3401550D01*
D02*
G37*
D73*
X4462918Y3047917D02*
G03*
X4462918Y3047917I-12500J0D01*
G01*
X1902500Y4490000D02*
G03*
X1902500Y4490000I-12500J0D01*
G01*
X1502500Y3610000D02*
G03*
X1502500Y3610000I-12500J0D01*
G01*
D74*
X1937700Y3475000D02*
G03*
X1937700Y3475000I-12700J0D01*
G01*
D75*
X492500Y2732500D02*
Y2902500D01*
X322500Y2732500D02*
Y2902500D01*
X1876376Y3586376D02*
Y3753624D01*
X1927500Y3817500D02*
Y3992500D01*
X4030533Y3280766D02*
X4250533D01*
X4047500Y2987500D02*
X4152500D01*
X4940418Y3037917D02*
Y3070917D01*
X4907418Y3037917D02*
X4940418D01*
Y3504917D02*
Y3537917D01*
X4907418D02*
X4940418D01*
X4440418D02*
X4473418D01*
X4440418Y3504917D02*
Y3537917D01*
X485000Y3662765D02*
Y3715000D01*
X696842D02*
X775000D01*
X485000D02*
X563158D01*
X775000Y3662765D02*
Y3715000D01*
X620001Y3355000D02*
Y3405000D01*
X595001Y3380000D02*
X645000D01*
X695000Y3452500D02*
X875001D01*
X695000Y3307500D02*
X875001D01*
X2637500Y3730000D02*
Y3950000D01*
X1505000Y4005000D02*
X1935000D01*
X1505000D02*
Y4435000D01*
X1935000D01*
Y4005000D02*
Y4435000D01*
X1545000Y3655000D02*
Y3672500D01*
Y3927500D02*
Y3935000D01*
X1815000D02*
X1875000D01*
X1545000D02*
X1605000D01*
X1875000Y3655000D02*
Y3672500D01*
Y3927500D02*
Y3935000D01*
X1835000Y3655000D02*
X1875000D01*
X1545000D02*
X1585000D01*
X2267810Y3794747D02*
Y4045367D01*
X2087190Y3794747D02*
Y4045367D01*
X1833500Y3460000D02*
Y3560000D01*
X1706500Y3460000D02*
Y3560000D01*
X1566376Y3426376D02*
Y3593623D01*
X1450310Y4044690D02*
Y4295310D01*
X1269690Y4044690D02*
Y4295310D01*
X1442500Y3697500D02*
Y3872500D01*
X1276900Y3698300D02*
Y3873300D01*
X3591733Y3730533D02*
Y3950533D01*
X3807500Y3730000D02*
Y3950000D01*
D76*
X5537000Y2571000D02*
X5567000D01*
X467000Y471000D02*
Y2571000D01*
X5537000Y471000D02*
X5567000D01*
X467000D02*
X497000D01*
X467000Y2571000D02*
X497000D01*
X1484500D02*
X1509500D01*
X4278500D02*
X4303500D01*
X2754500Y471000D02*
X2779500D01*
X976500D02*
X1001500D01*
X5040500D02*
X5065500D01*
X2500500Y2571000D02*
X2525500D01*
X3770500D02*
X3795500D01*
X3516500D02*
X3541500D01*
X3770500Y471000D02*
X3795500D01*
X2754500Y2571000D02*
X2779500D01*
X4532500D02*
X4557500D01*
X3008500D02*
X3033500D01*
X1230500D02*
X1255500D01*
X3262500Y471000D02*
X3287500D01*
X4024500Y2571000D02*
X4049500D01*
X1738500D02*
X1763500D01*
X4024500Y471000D02*
X4049500D01*
X3262500Y2571000D02*
X3287500D01*
X4786500Y471000D02*
X4811500D01*
X2500500D02*
X2525500D01*
X1992500D02*
X2017500D01*
X1738500D02*
X1763500D01*
X5040500Y2571000D02*
X5065500D01*
X4278500Y471000D02*
X4303500D01*
X1484500D02*
X1509500D01*
X4532500D02*
X4557500D01*
X976500Y2571000D02*
X1001500D01*
X1230500Y471000D02*
X1255500D01*
X3516500D02*
X3541500D01*
X2246500D02*
X2271500D01*
X2246500Y2571000D02*
X2271500D01*
X4786500D02*
X4811500D01*
X1992500D02*
X2017500D01*
X5294500Y471000D02*
X5319500D01*
X722500Y2571000D02*
X747500D01*
X3008500Y471000D02*
X3033500D01*
X5294500Y2571000D02*
X5319500D01*
X722500Y471000D02*
X747500D01*
D77*
X2807910Y4213080D02*
X3232090D01*
X2807910Y3186920D02*
X3232090D01*
D78*
X221677Y3008355D02*
X205016Y2991694D01*
Y2958371D01*
X221677Y2941710D01*
X288323D01*
X304984Y2958371D01*
Y2991694D01*
X288323Y3008355D01*
X221677Y3041677D02*
X205016Y3058339D01*
Y3091661D01*
X221677Y3108322D01*
X238339D01*
X255000Y3091661D01*
Y3075000D01*
Y3091661D01*
X271661Y3108322D01*
X288323D01*
X304984Y3091661D01*
Y3058339D01*
X288323Y3041677D01*
X304984Y3208290D02*
Y3141645D01*
X238339Y3208290D01*
X221677D01*
X205016Y3191629D01*
Y3158307D01*
X221677Y3141645D01*
X292516Y2306694D02*
X375822D01*
X392484Y2323355D01*
Y2356678D01*
X375822Y2373339D01*
X292516D01*
Y2406662D02*
Y2473307D01*
X309177D01*
X375822Y2406662D01*
X392484D01*
X2186694Y3520016D02*
Y3619984D01*
X2236678D01*
X2253339Y3603322D01*
Y3570000D01*
X2236678Y3553339D01*
X2186694D01*
X2220016D02*
X2253339Y3520016D01*
X2286661Y3619984D02*
X2353306D01*
Y3603322D01*
X2286661Y3536677D01*
Y3520016D01*
X2119984Y3446693D02*
X2020016D01*
Y3496677D01*
X2036677Y3513338D01*
X2070000D01*
X2086661Y3496677D01*
Y3446693D01*
Y3480016D02*
X2119984Y3513338D01*
X2036677Y3546661D02*
X2020016Y3563323D01*
Y3596645D01*
X2036677Y3613306D01*
X2053339D01*
X2070000Y3596645D01*
X2086661Y3613306D01*
X2103322D01*
X2119984Y3596645D01*
Y3563323D01*
X2103322Y3546661D01*
X2086661D01*
X2070000Y3563323D01*
X2053339Y3546661D01*
X2036677D01*
X2070000Y3563323D02*
Y3596645D01*
X2006677Y4161685D02*
X1990016Y4145024D01*
Y4111701D01*
X2006677Y4095040D01*
X2073322D01*
X2089984Y4111701D01*
Y4145024D01*
X2073322Y4161685D01*
X2089984Y4195008D02*
Y4228330D01*
Y4211669D01*
X1990016D01*
X2006677Y4195008D01*
X1990016Y4344959D02*
X2006677Y4311637D01*
X2040000Y4278314D01*
X2073322D01*
X2089984Y4294976D01*
Y4328298D01*
X2073322Y4344959D01*
X2056661D01*
X2040000Y4328298D01*
Y4278314D01*
X4400016Y2903323D02*
X4383355Y2919984D01*
X4350032D01*
X4333371Y2903323D01*
Y2836678D01*
X4350032Y2820016D01*
X4383355D01*
X4400016Y2836678D01*
X4433339Y2903323D02*
X4450000Y2919984D01*
X4483323D01*
X4499984Y2903323D01*
Y2886661D01*
X4483323Y2870000D01*
X4466661D01*
X4483323D01*
X4499984Y2853339D01*
Y2836678D01*
X4483323Y2820016D01*
X4450000D01*
X4433339Y2836678D01*
X4533307Y2820016D02*
X4566629D01*
X4549968D01*
Y2919984D01*
X4533307Y2903323D01*
X3896677Y3218347D02*
X3880016Y3201686D01*
Y3168363D01*
X3896677Y3151702D01*
X3963323D01*
X3979984Y3168363D01*
Y3201686D01*
X3963323Y3218347D01*
X3979984Y3251670D02*
Y3284992D01*
Y3268331D01*
X3880016D01*
X3896677Y3251670D01*
X3979984Y3334976D02*
Y3368299D01*
Y3351637D01*
X3880016D01*
X3896677Y3334976D01*
X4073355Y2923323D02*
X4056694Y2939984D01*
X4023371D01*
X4006710Y2923323D01*
Y2856678D01*
X4023371Y2840016D01*
X4056694D01*
X4073355Y2856678D01*
X4106678Y2923323D02*
X4123339Y2939984D01*
X4156661D01*
X4173323Y2923323D01*
Y2906661D01*
X4156661Y2890000D01*
X4140000D01*
X4156661D01*
X4173323Y2873339D01*
Y2856678D01*
X4156661Y2840016D01*
X4123339D01*
X4106678Y2856678D01*
X4206645Y2923323D02*
X4223307Y2939984D01*
X4256629D01*
X4273290Y2923323D01*
Y2856678D01*
X4256629Y2840016D01*
X4223307D01*
X4206645Y2856678D01*
Y2923323D01*
X4073355Y2773323D02*
X4056694Y2789984D01*
X4023371D01*
X4006710Y2773323D01*
Y2706678D01*
X4023371Y2690016D01*
X4056694D01*
X4073355Y2706678D01*
X4173323Y2690016D02*
X4106678D01*
X4173323Y2756661D01*
Y2773323D01*
X4156661Y2789984D01*
X4123339D01*
X4106678Y2773323D01*
X4206645Y2706678D02*
X4223307Y2690016D01*
X4256629D01*
X4273290Y2706678D01*
Y2773323D01*
X4256629Y2789984D01*
X4223307D01*
X4206645Y2773323D01*
Y2756661D01*
X4223307Y2740000D01*
X4273290D01*
X534005Y3930801D02*
Y3997446D01*
X517344Y4014108D01*
X484021D01*
X467360Y3997446D01*
Y3930801D01*
X484021Y3914140D01*
X517344D01*
X500683Y3947463D02*
X534005Y3914140D01*
X517344D02*
X534005Y3930801D01*
X567328Y3997446D02*
X583989Y4014108D01*
X617312D01*
X633973Y3997446D01*
Y3980785D01*
X617312Y3964124D01*
X633973Y3947463D01*
Y3930801D01*
X617312Y3914140D01*
X583989D01*
X567328Y3930801D01*
Y3947463D01*
X583989Y3964124D01*
X567328Y3980785D01*
Y3997446D01*
X583989Y3964124D02*
X617312D01*
X989186Y3418322D02*
X972525Y3434984D01*
X939202D01*
X922541Y3418322D01*
Y3351677D01*
X939202Y3335016D01*
X972525D01*
X989186Y3351677D01*
X1022508Y3335016D02*
X1055831D01*
X1039170D01*
Y3434984D01*
X1022508Y3418322D01*
X1105815Y3351677D02*
X1122476Y3335016D01*
X1155799D01*
X1172460Y3351677D01*
Y3418322D01*
X1155799Y3434984D01*
X1122476D01*
X1105815Y3418322D01*
Y3401661D01*
X1122476Y3385000D01*
X1172460D01*
X4323306Y3819983D02*
Y3720016D01*
X4273322D01*
X4256661Y3736677D01*
Y3770000D01*
X4273322Y3786661D01*
X4323306D01*
X4289983D02*
X4256661Y3819983D01*
X4173354D02*
Y3720016D01*
X4223338Y3770000D01*
X4156693D01*
X4265040Y3920016D02*
Y4019984D01*
X4315024D01*
X4331686Y4003322D01*
Y3970000D01*
X4315024Y3953339D01*
X4265040D01*
X4298363D02*
X4331686Y3920016D01*
X4365008D02*
X4398331D01*
X4381670D01*
Y4019984D01*
X4365008Y4003322D01*
X4448315D02*
X4464976Y4019984D01*
X4498299D01*
X4514960Y4003322D01*
Y3936677D01*
X4498299Y3920016D01*
X4464976D01*
X4448315Y3936677D01*
Y4003322D01*
X3746710Y4729984D02*
X3813355D01*
X3780032D01*
Y4630016D01*
X3846678D02*
Y4729984D01*
X3896661D01*
X3913323Y4713323D01*
Y4680000D01*
X3896661Y4663339D01*
X3846678D01*
X3880000D02*
X3913323Y4630016D01*
X4013290Y4713323D02*
X3996629Y4729984D01*
X3963307D01*
X3946645Y4713323D01*
Y4696661D01*
X3963307Y4680000D01*
X3996629D01*
X4013290Y4663339D01*
Y4646678D01*
X3996629Y4630016D01*
X3963307D01*
X3946645Y4646678D01*
X2866694Y4389984D02*
Y4306677D01*
X2883355Y4290016D01*
X2916677D01*
X2933339Y4306677D01*
Y4389984D01*
X3033306Y4290016D02*
X2966661D01*
X3033306Y4356661D01*
Y4373322D01*
X3016645Y4389984D01*
X2983323D01*
X2966661Y4373322D01*
X2647500Y4305806D02*
X2714145Y4239161D01*
X2647500D02*
X2714145Y4305806D01*
X2647500Y4272484D02*
X2714145D01*
X2680822Y4239161D02*
Y4305806D01*
X4434840Y3695186D02*
X4501485Y3628541D01*
X4434840D02*
X4501485Y3695186D01*
X4434840Y3661864D02*
X4501485D01*
X4468163Y3628541D02*
Y3695186D01*
X4943445Y3839966D02*
X4926784Y3856628D01*
X4893461D01*
X4876800Y3839966D01*
Y3773321D01*
X4893461Y3756660D01*
X4926784D01*
X4943445Y3773321D01*
X5043413Y3756660D02*
X4976768D01*
X5043413Y3823305D01*
Y3839966D01*
X5026752Y3856628D01*
X4993429D01*
X4976768Y3839966D01*
X5143381Y3856628D02*
X5110058Y3839966D01*
X5076736Y3806644D01*
Y3773321D01*
X5093397Y3756660D01*
X5126719D01*
X5143381Y3773321D01*
Y3789983D01*
X5126719Y3806644D01*
X5076736D01*
X182177Y4082000D02*
Y4148645D01*
X148855Y4115322D02*
X215500D01*
X5428347Y3753242D02*
X5494992D01*
X5528314Y3719919D01*
X5494992Y3686597D01*
X5428347D01*
X5478330D01*
Y3753242D01*
X5428347Y3653274D02*
X5528314D01*
X5494992Y3619951D01*
X5528314Y3586629D01*
X5428347D01*
X5411685Y3553306D02*
Y3486661D01*
X5428347Y3453338D02*
X5494992D01*
X5528314Y3420016D01*
X5494992Y3386693D01*
X5428347D01*
X5478330D01*
Y3453338D01*
X5428347Y3353370D02*
X5528314D01*
X5428347Y3286725D01*
X5528314D01*
Y3253403D02*
Y3186758D01*
Y3220080D01*
X5428347D01*
X1256677Y3443355D02*
X1240016Y3426694D01*
Y3393371D01*
X1256677Y3376710D01*
X1323322D01*
X1339983Y3393371D01*
Y3426694D01*
X1323322Y3443355D01*
X1339983Y3543323D02*
Y3476678D01*
X1273338Y3543323D01*
X1256677D01*
X1240016Y3526661D01*
Y3493339D01*
X1256677Y3476678D01*
Y3576645D02*
X1240016Y3593307D01*
Y3626629D01*
X1256677Y3643290D01*
X1273338D01*
X1289999Y3626629D01*
Y3609968D01*
Y3626629D01*
X1306661Y3643290D01*
X1323322D01*
X1339983Y3626629D01*
Y3593307D01*
X1323322Y3576645D01*
X396694Y4369984D02*
Y4286677D01*
X413355Y4270016D01*
X446678D01*
X463339Y4286677D01*
Y4369984D01*
X546645Y4270016D02*
Y4369984D01*
X496661Y4320000D01*
X563306D01*
X5310855Y338322D02*
X5294194Y354984D01*
X5260871D01*
X5244210Y338322D01*
Y321661D01*
X5260871Y305000D01*
X5294194D01*
X5310855Y288339D01*
Y271677D01*
X5294194Y255016D01*
X5260871D01*
X5244210Y271677D01*
X5344178Y354984D02*
Y255016D01*
X5377500Y288339D01*
X5410823Y255016D01*
Y354984D01*
X5510790Y255016D02*
X5444145D01*
X5510790Y321661D01*
Y338322D01*
X5494129Y354984D01*
X5460807D01*
X5444145Y338322D01*
X5030016D02*
X5013355Y354984D01*
X4980032D01*
X4963371Y338322D01*
Y321661D01*
X4980032Y305000D01*
X5013355D01*
X5030016Y288339D01*
Y271677D01*
X5013355Y255016D01*
X4980032D01*
X4963371Y271677D01*
X5063339Y354984D02*
Y255016D01*
X5096661Y288339D01*
X5129984Y255016D01*
Y354984D01*
X5163307Y255016D02*
X5196629D01*
X5179968D01*
Y354984D01*
X5163307Y338322D01*
X3826710Y260016D02*
Y359984D01*
X3876694D01*
X3893355Y343322D01*
Y310000D01*
X3876694Y293339D01*
X3826710D01*
X3860032D02*
X3893355Y260016D01*
X3926677Y343322D02*
X3943339Y359984D01*
X3976661D01*
X3993322Y343322D01*
Y326661D01*
X3976661Y310000D01*
X3960000D01*
X3976661D01*
X3993322Y293339D01*
Y276677D01*
X3976661Y260016D01*
X3943339D01*
X3926677Y276677D01*
X4093290Y359984D02*
X4026645D01*
Y310000D01*
X4059968Y326661D01*
X4076629D01*
X4093290Y310000D01*
Y276677D01*
X4076629Y260016D01*
X4043307D01*
X4026645Y276677D01*
X2191710Y3015016D02*
Y3114984D01*
X2241694D01*
X2258355Y3098322D01*
Y3065000D01*
X2241694Y3048339D01*
X2191710D01*
X2225032D02*
X2258355Y3015016D01*
X2291677Y3098322D02*
X2308339Y3114984D01*
X2341661D01*
X2358322Y3098322D01*
Y3081661D01*
X2341661Y3065000D01*
X2325000D01*
X2341661D01*
X2358322Y3048339D01*
Y3031677D01*
X2341661Y3015016D01*
X2308339D01*
X2291677Y3031677D01*
X2441629Y3015016D02*
Y3114984D01*
X2391645Y3065000D01*
X2458290D01*
X1070016Y4136629D02*
X1169984D01*
Y4086645D01*
X1153323Y4069984D01*
X1120000D01*
X1103339Y4086645D01*
Y4136629D01*
Y4103306D02*
X1070016Y4069984D01*
X1153323Y4036661D02*
X1169984Y4020000D01*
Y3986677D01*
X1153323Y3970016D01*
X1136661D01*
X1120000Y3986677D01*
Y4003338D01*
Y3986677D01*
X1103339Y3970016D01*
X1086678D01*
X1070016Y3986677D01*
Y4020000D01*
X1086678Y4036661D01*
X1070016Y3936693D02*
Y3903371D01*
Y3920032D01*
X1169984D01*
X1153323Y3936693D01*
X1489984Y3266710D02*
X1390016D01*
Y3316694D01*
X1406677Y3333355D01*
X1440000D01*
X1456661Y3316694D01*
Y3266710D01*
Y3300032D02*
X1489984Y3333355D01*
Y3433323D02*
Y3366678D01*
X1423339Y3433323D01*
X1406677D01*
X1390016Y3416661D01*
Y3383339D01*
X1406677Y3366678D01*
X1473322Y3466645D02*
X1489984Y3483307D01*
Y3516629D01*
X1473322Y3533290D01*
X1406677D01*
X1390016Y3516629D01*
Y3483307D01*
X1406677Y3466645D01*
X1423339D01*
X1440000Y3483307D01*
Y3533290D01*
X3450016Y3573306D02*
X3549984D01*
Y3523322D01*
X3533323Y3506661D01*
X3500000D01*
X3483339Y3523322D01*
Y3573306D01*
Y3539983D02*
X3450016Y3506661D01*
X3549984Y3406693D02*
Y3473338D01*
X3500000D01*
X3516661Y3440015D01*
Y3423354D01*
X3500000Y3406693D01*
X3466678D01*
X3450016Y3423354D01*
Y3456677D01*
X3466678Y3473338D01*
X3600016Y3573306D02*
X3699984D01*
Y3523322D01*
X3683322Y3506661D01*
X3650000D01*
X3633338Y3523322D01*
Y3573306D01*
Y3539984D02*
X3600016Y3506661D01*
Y3406693D02*
Y3473338D01*
X3666661Y3406693D01*
X3683322D01*
X3699984Y3423354D01*
Y3456677D01*
X3683322Y3473338D01*
X2339984Y3333355D02*
X2240016D01*
Y3383339D01*
X2256677Y3400000D01*
X2290000D01*
X2306661Y3383339D01*
Y3333355D01*
Y3366678D02*
X2339984Y3400000D01*
Y3433323D02*
Y3466645D01*
Y3449984D01*
X2240016D01*
X2256677Y3433323D01*
X1646694Y4599984D02*
Y4500016D01*
X1713339D01*
X1796645D02*
Y4599984D01*
X1746661Y4550000D01*
X1813307D01*
X3048346Y4623387D02*
X3031685Y4606726D01*
Y4573403D01*
X3048346Y4556742D01*
X3065008D01*
X3081669Y4573403D01*
Y4606726D01*
X3098330Y4623387D01*
X3114991D01*
X3131653Y4606726D01*
Y4573403D01*
X3114991Y4556742D01*
X3131653Y4656710D02*
X3031685D01*
Y4706694D01*
X3048346Y4723355D01*
X3081669D01*
X3098330Y4706694D01*
Y4656710D01*
X3031685Y4756678D02*
X3131653D01*
X3098330D01*
X3031685Y4823323D01*
X3081669Y4773339D01*
X3131653Y4823323D01*
X3148314Y4856645D02*
Y4923290D01*
X3131653Y4956613D02*
X3031685D01*
Y5006597D01*
X3048346Y5023258D01*
X3081669D01*
X3098330Y5006597D01*
Y4956613D01*
Y4989936D02*
X3131653Y5023258D01*
X2258346Y4558387D02*
X2241685Y4541726D01*
Y4508403D01*
X2258346Y4491742D01*
X2275008D01*
X2291669Y4508403D01*
Y4541726D01*
X2308330Y4558387D01*
X2324991D01*
X2341653Y4541726D01*
Y4508403D01*
X2324991Y4491742D01*
X2341653Y4591710D02*
X2241685D01*
Y4641694D01*
X2258346Y4658355D01*
X2291669D01*
X2308330Y4641694D01*
Y4591710D01*
X2241685Y4691677D02*
X2341653D01*
X2308330D01*
X2241685Y4758322D01*
X2291669Y4708339D01*
X2341653Y4758322D01*
X2358314Y4791645D02*
Y4858290D01*
X2241685Y4891613D02*
X2341653D01*
Y4958258D01*
X4503355Y352484D02*
Y252516D01*
X4553339D01*
X4570000Y269178D01*
Y335823D01*
X4553339Y352484D01*
X4503355D01*
X4603323Y252516D02*
X4636645D01*
X4619984D01*
Y352484D01*
X4603323Y335823D01*
X1080855Y3273322D02*
X1064194Y3289984D01*
X1030871D01*
X1014210Y3273322D01*
Y3206677D01*
X1030871Y3190016D01*
X1064194D01*
X1080855Y3206677D01*
X1180823Y3190016D02*
X1114178D01*
X1180823Y3256661D01*
Y3273322D01*
X1164162Y3289984D01*
X1130839D01*
X1114178Y3273322D01*
X1214145D02*
X1230807Y3289984D01*
X1264129D01*
X1280790Y3273322D01*
Y3206677D01*
X1264129Y3190016D01*
X1230807D01*
X1214145Y3206677D01*
Y3273322D01*
X1566677Y3181686D02*
X1550016Y3165025D01*
Y3131702D01*
X1566677Y3115041D01*
X1633322D01*
X1649984Y3131702D01*
Y3165025D01*
X1633322Y3181686D01*
X1649984Y3215009D02*
Y3248331D01*
Y3231670D01*
X1550016D01*
X1566677Y3215009D01*
Y3298315D02*
X1550016Y3314976D01*
Y3348299D01*
X1566677Y3364960D01*
X1583339D01*
X1600000Y3348299D01*
X1616661Y3364960D01*
X1633322D01*
X1649984Y3348299D01*
Y3314976D01*
X1633322Y3298315D01*
X1616661D01*
X1600000Y3314976D01*
X1583339Y3298315D01*
X1566677D01*
X1600000Y3314976D02*
Y3348299D01*
X2174178Y4171742D02*
X2157516Y4155081D01*
Y4121759D01*
X2174178Y4105097D01*
X2240823D01*
X2257484Y4121759D01*
Y4155081D01*
X2240823Y4171742D01*
X2257484Y4205065D02*
Y4238388D01*
Y4221726D01*
X2157516D01*
X2174178Y4205065D01*
X2157516Y4288371D02*
Y4355016D01*
X2174178D01*
X2240823Y4288371D01*
X2257484D01*
X1316678Y4421685D02*
X1300016Y4405024D01*
Y4371702D01*
X1316678Y4355040D01*
X1383323D01*
X1399984Y4371702D01*
Y4405024D01*
X1383323Y4421685D01*
X1399984Y4455008D02*
Y4488331D01*
Y4471669D01*
X1300016D01*
X1316678Y4455008D01*
X1399984Y4604960D02*
Y4538315D01*
X1333339Y4604960D01*
X1316678D01*
X1300016Y4588298D01*
Y4554976D01*
X1316678Y4538315D01*
X2221685Y3253322D02*
X2205024Y3269984D01*
X2171702D01*
X2155040Y3253322D01*
Y3186677D01*
X2171702Y3170016D01*
X2205024D01*
X2221685Y3186677D01*
X2255008Y3170016D02*
X2288331D01*
X2271670D01*
Y3269984D01*
X2255008Y3253322D01*
X2338315D02*
X2354976Y3269984D01*
X2388298D01*
X2404960Y3253322D01*
Y3186677D01*
X2388298Y3170016D01*
X2354976D01*
X2338315Y3186677D01*
Y3253322D01*
X3833323Y3506661D02*
X3849984Y3523322D01*
Y3556644D01*
X3833323Y3573306D01*
X3766678D01*
X3750016Y3556644D01*
Y3523322D01*
X3766678Y3506661D01*
Y3473338D02*
X3750016Y3456677D01*
Y3423354D01*
X3766678Y3406693D01*
X3833323D01*
X3849984Y3423354D01*
Y3456677D01*
X3833323Y3473338D01*
X3816661D01*
X3800000Y3456677D01*
Y3406693D01*
X2523339Y3653323D02*
X2506677Y3669984D01*
X2473355D01*
X2456694Y3653323D01*
Y3586678D01*
X2473355Y3570016D01*
X2506677D01*
X2523339Y3586678D01*
X2623306Y3669984D02*
X2589984Y3653323D01*
X2556661Y3620000D01*
Y3586678D01*
X2573323Y3570016D01*
X2606645D01*
X2623306Y3586678D01*
Y3603339D01*
X2606645Y3620000D01*
X2556661D01*
X3743322Y4096661D02*
X3759984Y4113322D01*
Y4146645D01*
X3743322Y4163306D01*
X3676677D01*
X3660016Y4146645D01*
Y4113322D01*
X3676677Y4096661D01*
X3660016Y4013355D02*
X3759984D01*
X3710000Y4063339D01*
Y3996694D01*
X2496677Y4073338D02*
X2480016Y4056677D01*
Y4023355D01*
X2496677Y4006693D01*
X2563322D01*
X2579984Y4023355D01*
Y4056677D01*
X2563322Y4073338D01*
X2496677Y4106661D02*
X2480016Y4123322D01*
Y4156645D01*
X2496677Y4173306D01*
X2513339D01*
X2530000Y4156645D01*
Y4139984D01*
Y4156645D01*
X2546661Y4173306D01*
X2563322D01*
X2579984Y4156645D01*
Y4123322D01*
X2563322Y4106661D01*
X3553323D02*
X3569984Y4123322D01*
Y4156645D01*
X3553323Y4173306D01*
X3486678D01*
X3470016Y4156645D01*
Y4123322D01*
X3486678Y4106661D01*
X3470016Y4006693D02*
Y4073338D01*
X3536661Y4006693D01*
X3553323D01*
X3569984Y4023354D01*
Y4056677D01*
X3553323Y4073338D01*
X2336677Y4090000D02*
X2320016Y4073339D01*
Y4040016D01*
X2336677Y4023355D01*
X2403322D01*
X2419984Y4040016D01*
Y4073339D01*
X2403322Y4090000D01*
X2419984Y4123322D02*
Y4156645D01*
Y4139984D01*
X2320016D01*
X2336677Y4123322D01*
X3041661Y2999984D02*
X3008339D01*
X3025000D01*
Y2900016D01*
X3041661Y2916677D01*
X893532Y341653D02*
X876871Y358314D01*
X843548D01*
X826887Y341653D01*
Y324992D01*
X843548Y308331D01*
X876871D01*
X893532Y291669D01*
Y275008D01*
X876871Y258347D01*
X843548D01*
X826887Y275008D01*
X926855Y358314D02*
Y258347D01*
X976839D01*
X993500Y275008D01*
Y341653D01*
X976839Y358314D01*
X926855D01*
X1026822Y241685D02*
X1093467D01*
X1193435Y341653D02*
X1176774Y358314D01*
X1143452D01*
X1126790Y341653D01*
Y275008D01*
X1143452Y258347D01*
X1176774D01*
X1193435Y275008D01*
X1226758Y258347D02*
Y324992D01*
X1260081Y358314D01*
X1293403Y324992D01*
Y258347D01*
Y308331D01*
X1226758D01*
X1326726Y258347D02*
Y358314D01*
X1376710D01*
X1393371Y341653D01*
Y308331D01*
X1376710Y291669D01*
X1326726D01*
X1360048D02*
X1393371Y258347D01*
X1426694Y358314D02*
Y258347D01*
X1476678D01*
X1493339Y275008D01*
Y341653D01*
X1476678Y358314D01*
X1426694D01*
X1526661Y241685D02*
X1593306D01*
X1626629Y258347D02*
Y358314D01*
X1676613D01*
X1693274Y341653D01*
Y308331D01*
X1676613Y291669D01*
X1626629D01*
X1659952D02*
X1693274Y258347D01*
X1793242Y358314D02*
X1726597D01*
Y258347D01*
X1793242D01*
X1726597Y308331D02*
X1759920D01*
X1826565Y258347D02*
Y324992D01*
X1859887Y358314D01*
X1893210Y324992D01*
Y258347D01*
Y308331D01*
X1826565D01*
X1926533Y358314D02*
Y258347D01*
X1976516D01*
X1993178Y275008D01*
Y341653D01*
X1976516Y358314D01*
X1926533D01*
X2093145D02*
X2026500D01*
Y258347D01*
X2093145D01*
X2026500Y308331D02*
X2059823D01*
X2126468Y258347D02*
Y358314D01*
X2176452D01*
X2193113Y341653D01*
Y308331D01*
X2176452Y291669D01*
X2126468D01*
X2159791D02*
X2193113Y258347D01*
%TF.MD5,60a0b4440e6ccc6b474671f22d6bcff2*%
M02*
