%TF.GenerationSoftware,Altium Limited,Altium Designer,25.7.1 (20)*%
G04 Layer_Color=128*
%FSLAX45Y45*%
%MOMM*%
%TF.SameCoordinates,3376FABF-9249-4748-A69B-BDD9C5401F70*%
%TF.FilePolarity,Positive*%
%TF.FileFunction,Paste,Bot*%
%TF.Part,Single*%
G01*
G75*
%TA.AperFunction,SMDPad,CuDef*%
%ADD13R,0.80000X0.90000*%
%ADD16R,0.90000X0.80000*%
%ADD25R,0.80000X0.95000*%
%ADD27R,0.66040X0.50800*%
%ADD36R,0.80000X1.00000*%
%ADD43R,0.65872X0.81213*%
%ADD44R,0.70000X0.65000*%
%ADD56R,2.00000X1.50000*%
%ADD57R,0.50000X0.60000*%
%TA.AperFunction,ConnectorPad*%
%ADD58R,1.90000X0.60000*%
%ADD59R,2.80000X2.10000*%
%TA.AperFunction,SMDPad,CuDef*%
G04:AMPARAMS|DCode=60|XSize=1.95543mm|YSize=0.42077mm|CornerRadius=0.21038mm|HoleSize=0mm|Usage=FLASHONLY|Rotation=0.000|XOffset=0mm|YOffset=0mm|HoleType=Round|Shape=RoundedRectangle|*
%AMROUNDEDRECTD60*
21,1,1.95543,0.00000,0,0,0.0*
21,1,1.53467,0.42077,0,0,0.0*
1,1,0.42077,0.76733,0.00000*
1,1,0.42077,-0.76733,0.00000*
1,1,0.42077,-0.76733,0.00000*
1,1,0.42077,0.76733,0.00000*
%
%ADD60ROUNDEDRECTD60*%
%ADD61R,0.66000X0.62000*%
%ADD62R,1.39700X0.55880*%
%ADD63R,0.50000X0.40000*%
%ADD64R,0.80000X0.90000*%
%ADD65R,0.95000X0.80000*%
%ADD66R,1.00000X0.80000*%
%ADD67R,1.00000X1.80000*%
%ADD68R,0.57247X0.61535*%
%ADD69R,0.61535X0.57247*%
%ADD70R,2.00000X2.00000*%
%ADD71R,1.95543X0.42077*%
D13*
X790000Y2720000D02*
D03*
X690000Y2500000D02*
D03*
X2150000Y3060000D02*
D03*
Y2890000D02*
D03*
X890000Y2500000D02*
D03*
D16*
X2325000Y2735000D02*
D03*
X2155000D02*
D03*
D25*
X2905000Y1720000D02*
D03*
X2870000Y1030000D02*
D03*
X3155000Y1270000D02*
D03*
X3135000Y1638000D02*
D03*
X3155000Y1078000D02*
D03*
X2740000Y1030000D02*
D03*
X2775000Y1720000D02*
D03*
X3285000Y1078000D02*
D03*
Y1270000D02*
D03*
X3265000Y1638000D02*
D03*
D27*
X3804120Y4580000D02*
D03*
X3915880D02*
D03*
Y4670000D02*
D03*
X3804120D02*
D03*
D36*
X2915000Y1520000D02*
D03*
X2890000Y850001D02*
D03*
X2740000D02*
D03*
X2765000Y1520000D02*
D03*
D43*
X5287671Y4020000D02*
D03*
X5152329D02*
D03*
D44*
X4615000Y4430000D02*
D03*
X4710000D02*
D03*
D56*
X2580000Y1250001D02*
D03*
X2240000D02*
D03*
X2260000Y1930000D02*
D03*
X2600000D02*
D03*
D57*
X4770000Y2990000D02*
D03*
X4870000D02*
D03*
X4540000D02*
D03*
X4440000D02*
D03*
D58*
X397500Y2500002D02*
D03*
Y1800002D02*
D03*
Y1700002D02*
D03*
Y1000002D02*
D03*
Y800002D02*
D03*
Y900002D02*
D03*
Y700002D02*
D03*
Y1300002D02*
D03*
Y1100002D02*
D03*
Y1200002D02*
D03*
Y2000002D02*
D03*
Y2400002D02*
D03*
Y2300002D02*
D03*
Y2200002D02*
D03*
Y2100002D02*
D03*
Y1900002D02*
D03*
Y600002D02*
D03*
Y1400002D02*
D03*
Y1600002D02*
D03*
Y1500002D02*
D03*
D59*
X162500Y2814998D02*
D03*
Y285002D02*
D03*
D60*
X1072461Y1797500D02*
D03*
X1647538Y1732500D02*
D03*
Y1797500D02*
D03*
X1072461Y1667500D02*
D03*
Y1992500D02*
D03*
Y1862500D02*
D03*
Y1927500D02*
D03*
X1647538Y1862500D02*
D03*
X1072461Y2057500D02*
D03*
X1647538Y1667500D02*
D03*
Y1602500D02*
D03*
Y1927500D02*
D03*
X1072461Y1732500D02*
D03*
X1647538Y2057500D02*
D03*
Y1992500D02*
D03*
D61*
X4964000Y4430000D02*
D03*
X4350000D02*
D03*
X4438000D02*
D03*
X4876000D02*
D03*
D62*
X4925430Y3897500D02*
D03*
X4394570Y3389500D02*
D03*
X4925430Y3262500D02*
D03*
Y3389500D02*
D03*
X4394570Y3516500D02*
D03*
X4925430Y3135500D02*
D03*
Y3516500D02*
D03*
Y3643500D02*
D03*
Y3770500D02*
D03*
Y4024500D02*
D03*
X4394570D02*
D03*
Y3897500D02*
D03*
Y3770500D02*
D03*
Y3643500D02*
D03*
Y3262500D02*
D03*
Y3135500D02*
D03*
D63*
X5110000Y3300000D02*
D03*
Y3380000D02*
D03*
D64*
X3120000Y1840000D02*
D03*
X3135000Y870000D02*
D03*
Y1460000D02*
D03*
X3285000Y870000D02*
D03*
Y1460000D02*
D03*
X3270000Y1840000D02*
D03*
D65*
X2200000Y1485000D02*
D03*
X2170000Y815001D02*
D03*
Y945001D02*
D03*
X2200000Y1615000D02*
D03*
D66*
X2320000Y940001D02*
D03*
X2580000Y845001D02*
D03*
Y1035001D02*
D03*
X2340000Y1620000D02*
D03*
X2600000Y1525000D02*
D03*
Y1715000D02*
D03*
D67*
X4540000Y4250000D02*
D03*
X4790000D02*
D03*
D68*
X4390000Y4275713D02*
D03*
Y4190000D02*
D03*
D69*
X4232856Y3770000D02*
D03*
X4147144D02*
D03*
D70*
X3660000D02*
D03*
D71*
X1072461Y1602500D02*
D03*
%TF.MD5,4396692d0d0dc7bff9565bd7e9231f88*%
M02*
