%TF.GenerationSoftware,Altium Limited,Altium Designer,25.7.1 (20)*%
G04 Layer_Color=16711935*
%FSLAX45Y45*%
%MOMM*%
%TF.SameCoordinates,C331EA04-0F80-4B25-860E-1567A5D6E8FC*%
%TF.FilePolarity,Negative*%
%TF.FileFunction,Soldermask,Bot*%
%TF.Part,Single*%
G01*
G75*
%TA.AperFunction,SMDPad,CuDef*%
%ADD23R,0.80000X0.90000*%
%ADD24R,1.35000X0.95000*%
%ADD25R,0.90000X0.80000*%
%ADD26R,0.40000X0.50000*%
%ADD27R,0.95000X1.35000*%
%ADD39R,0.66040X0.50800*%
%ADD55R,0.50000X0.40000*%
%ADD57R,1.39700X0.55880*%
%ADD58R,0.81213X0.65872*%
G04:AMPARAMS|DCode=59|XSize=1.35872mm|YSize=0.58684mm|CornerRadius=0.29342mm|HoleSize=0mm|Usage=FLASHONLY|Rotation=180.000|XOffset=0mm|YOffset=0mm|HoleType=Round|Shape=RoundedRectangle|*
%AMROUNDEDRECTD59*
21,1,1.35872,0.00000,0,0,180.0*
21,1,0.77188,0.58684,0,0,180.0*
1,1,0.58684,-0.38594,0.00000*
1,1,0.58684,0.38594,0.00000*
1,1,0.58684,0.38594,0.00000*
1,1,0.58684,-0.38594,0.00000*
%
%ADD59ROUNDEDRECTD59*%
%ADD60R,0.80000X0.90000*%
G04:AMPARAMS|DCode=63|XSize=1.95543mm|YSize=0.42077mm|CornerRadius=0.21038mm|HoleSize=0mm|Usage=FLASHONLY|Rotation=0.000|XOffset=0mm|YOffset=0mm|HoleType=Round|Shape=RoundedRectangle|*
%AMROUNDEDRECTD63*
21,1,1.95543,0.00000,0,0,0.0*
21,1,1.53467,0.42077,0,0,0.0*
1,1,0.42077,0.76733,0.00000*
1,1,0.42077,-0.76733,0.00000*
1,1,0.42077,-0.76733,0.00000*
1,1,0.42077,0.76733,0.00000*
%
%ADD63ROUNDEDRECTD63*%
%ADD66R,0.61535X0.57247*%
%ADD68R,2.00000X1.50000*%
%ADD70R,1.35872X0.58684*%
%ADD72R,1.95543X0.42077*%
%TA.AperFunction,NonConductor*%
%ADD81C,0.75000*%
%TA.AperFunction,SMDPad,CuDef*%
%ADD85R,1.00320X1.20320*%
%ADD93R,1.00320X1.15320*%
%TA.AperFunction,ComponentPad*%
%ADD95R,1.75320X1.75320*%
%ADD96C,1.75320*%
%ADD97R,1.75320X1.75320*%
%TA.AperFunction,ViaPad*%
%ADD98C,5.20320*%
%TA.AperFunction,SMDPad,CuDef*%
%ADD99R,2.60000X2.60000*%
%ADD100R,0.70000X0.74000*%
%ADD101R,2.05240X0.75240*%
%ADD102R,2.95240X2.25240*%
%ADD103R,1.95240X1.15240*%
%ADD104R,0.73000X0.78000*%
%ADD105R,1.00320X0.80320*%
%ADD106R,1.15320X1.00320*%
%ADD107R,1.20320X1.00320*%
D23*
X790000Y2720000D02*
D03*
X690000Y2500000D02*
D03*
X2150000Y3060000D02*
D03*
Y2890000D02*
D03*
X890000Y2500000D02*
D03*
D24*
X4810000Y2775000D02*
D03*
Y2925000D02*
D03*
D25*
X2325000Y2735000D02*
D03*
X2155000D02*
D03*
D26*
X4480000Y3010000D02*
D03*
X4400000D02*
D03*
D27*
X4335000Y2880000D02*
D03*
X4485000D02*
D03*
D39*
X3085880Y3635000D02*
D03*
X2974120D02*
D03*
D55*
X4940000Y2950000D02*
D03*
Y2870000D02*
D03*
X4267918Y4232917D02*
D03*
Y4152918D02*
D03*
D57*
X4955848Y4125918D02*
D03*
X4424988Y3617918D02*
D03*
Y4252918D02*
D03*
X4955848Y4379918D02*
D03*
Y4252918D02*
D03*
Y3871918D02*
D03*
Y3744918D02*
D03*
Y3617918D02*
D03*
Y3490918D02*
D03*
X4424988D02*
D03*
Y3744918D02*
D03*
Y3871918D02*
D03*
Y3998918D02*
D03*
Y4379918D02*
D03*
X4955848Y3998918D02*
D03*
X4424988Y4125918D02*
D03*
D58*
X4255418Y3355247D02*
D03*
Y3490588D02*
D03*
D59*
X2784829Y3870000D02*
D03*
X2970171Y3778500D02*
D03*
D60*
X3120000Y1840000D02*
D03*
X3135000Y1460000D02*
D03*
Y870000D02*
D03*
X3285000D02*
D03*
Y1460000D02*
D03*
X3270000Y1840000D02*
D03*
D63*
X1647538Y1732500D02*
D03*
Y1797500D02*
D03*
X1072461Y1667500D02*
D03*
Y1797500D02*
D03*
Y1992500D02*
D03*
Y1862500D02*
D03*
Y1927500D02*
D03*
X1647538Y1862500D02*
D03*
X1072461Y2057500D02*
D03*
X1647538Y1667500D02*
D03*
Y1602500D02*
D03*
Y1927500D02*
D03*
X1072461Y1732500D02*
D03*
X1647538Y2057500D02*
D03*
Y1992500D02*
D03*
D66*
X5210774Y3742918D02*
D03*
X5125061D02*
D03*
X5335061Y3485417D02*
D03*
X5420774D02*
D03*
D68*
X2260000Y1930000D02*
D03*
X2240000Y1250001D02*
D03*
X2580000D02*
D03*
X2600000Y1930000D02*
D03*
D70*
X2970171Y3961500D02*
D03*
D72*
X1072461Y1602500D02*
D03*
D81*
X5875000Y4700000D02*
G03*
X5875000Y4300000I0J-200000D01*
G01*
Y800000D02*
G03*
X5875000Y400000I0J-200000D01*
G01*
X2775000Y0D02*
G03*
X2375000Y0I-200000J0D01*
G01*
X0Y4300000D02*
G03*
X0Y4700000I0J200000D01*
G01*
D85*
X2915000Y1520000D02*
D03*
X2890000Y850001D02*
D03*
X2740000D02*
D03*
X2765000Y1520000D02*
D03*
D93*
X2905000Y1720000D02*
D03*
X2870000Y1030000D02*
D03*
X3135000Y1638000D02*
D03*
X3155000Y1270000D02*
D03*
Y1078000D02*
D03*
X2740000Y1030000D02*
D03*
X2775000Y1720000D02*
D03*
X3285000Y1078000D02*
D03*
Y1270000D02*
D03*
X3265000Y1638000D02*
D03*
D95*
X3783000Y4925000D02*
D03*
X4574000Y140000D02*
D03*
X2854000Y2940000D02*
D03*
X872000Y140000D02*
D03*
X4084000Y150000D02*
D03*
X5360000Y140000D02*
D03*
X5083999D02*
D03*
X3276000Y4920000D02*
D03*
X2754000D02*
D03*
D96*
X5614000Y140000D02*
D03*
X4829999D02*
D03*
X340000Y3700000D02*
D03*
X3068000Y150000D02*
D03*
X1126000Y140000D02*
D03*
X4037000Y4925000D02*
D03*
X4291000D02*
D03*
X4545000D02*
D03*
X4799000D02*
D03*
X1634000Y140000D02*
D03*
X1380000D02*
D03*
X1888000D02*
D03*
X3576000Y150000D02*
D03*
X3322000D02*
D03*
X3830000D02*
D03*
X5680000Y3346000D02*
D03*
X2600000Y2940000D02*
D03*
X2142000Y140000D02*
D03*
X2500000Y4920000D02*
D03*
X3530000D02*
D03*
X4320000Y140000D02*
D03*
D97*
X5680000Y3600000D02*
D03*
X340000Y3954000D02*
D03*
D98*
X2575000Y0D02*
D03*
X5875000Y600000D02*
D03*
Y4500000D02*
D03*
X0D02*
D03*
D99*
X5740000Y3860000D02*
D03*
D100*
X5482917Y4462918D02*
D03*
X5627918Y4189417D02*
D03*
X5482917Y4374918D02*
D03*
X5627918Y4101417D02*
D03*
D101*
X397500Y2300002D02*
D03*
Y2400002D02*
D03*
Y2200002D02*
D03*
Y2100002D02*
D03*
Y1900002D02*
D03*
Y600002D02*
D03*
Y2000002D02*
D03*
Y1200002D02*
D03*
Y1100002D02*
D03*
Y2500002D02*
D03*
Y1800002D02*
D03*
Y1700002D02*
D03*
Y1000002D02*
D03*
Y800002D02*
D03*
Y900002D02*
D03*
Y700002D02*
D03*
Y1300002D02*
D03*
Y1400002D02*
D03*
Y1600002D02*
D03*
Y1500002D02*
D03*
D102*
X162500Y2814998D02*
D03*
Y285002D02*
D03*
D103*
X5237918Y4040418D02*
D03*
Y4290418D02*
D03*
D104*
X5480000Y4207500D02*
D03*
Y4112500D02*
D03*
D105*
X2985000Y4335000D02*
D03*
Y4205000D02*
D03*
D106*
X2200000Y1485000D02*
D03*
X2170000Y815001D02*
D03*
Y945001D02*
D03*
X2200000Y1615000D02*
D03*
D107*
X2320000Y940001D02*
D03*
X2580000Y845001D02*
D03*
Y1035001D02*
D03*
X2340000Y1620000D02*
D03*
X2600000Y1525000D02*
D03*
Y1715000D02*
D03*
%TF.MD5,06bbc8ed149e263742d822e94e2f6d4d*%
M02*
