%TF.GenerationSoftware,Altium Limited,Altium Designer,25.7.1 (20)*%
G04 Layer_Physical_Order=3*
G04 Layer_Color=16440176*
%FSLAX45Y45*%
%MOMM*%
%TF.SameCoordinates,C331EA04-0F80-4B25-860E-1567A5D6E8FC*%
%TF.FilePolarity,Positive*%
%TF.FileFunction,Copper,L3,Inr,Signal*%
%TF.Part,Single*%
G01*
G75*
%TA.AperFunction,ComponentPad*%
%ADD48R,1.55000X1.55000*%
%ADD49C,1.55000*%
%ADD50R,1.55000X1.55000*%
%TA.AperFunction,ViaPad*%
%ADD51C,0.50800*%
%ADD52C,5.00000*%
%ADD53C,0.50000*%
G36*
X5783304Y5084789D02*
X5804083Y5076182D01*
X5822784Y5063687D01*
X5838688Y5047783D01*
X5851182Y5029083D01*
X5859789Y5008304D01*
X5864177Y4986245D01*
Y4775400D01*
X5853325D01*
X5810510Y4768619D01*
X5769283Y4755223D01*
X5730659Y4735543D01*
X5695589Y4710063D01*
X5664937Y4679411D01*
X5639457Y4644341D01*
X5619777Y4605717D01*
X5606381Y4564489D01*
X5599600Y4521674D01*
Y4478325D01*
X5606381Y4435510D01*
X5619777Y4394283D01*
X5639457Y4355659D01*
X5655091Y4334140D01*
X5638753Y4313415D01*
X5638022Y4313717D01*
X5617813D01*
X5599141Y4305984D01*
X5584851Y4291693D01*
X5577117Y4273022D01*
Y4252813D01*
X5584851Y4234141D01*
X5599141Y4219851D01*
X5617813Y4212117D01*
X5638022D01*
X5652278Y4218022D01*
X5652908Y4217601D01*
X5660641Y4198930D01*
X5674932Y4184640D01*
X5693603Y4176906D01*
X5713812D01*
X5732484Y4184640D01*
X5746774Y4198930D01*
X5754508Y4217601D01*
Y4223798D01*
X5758048Y4228824D01*
X5778226Y4241871D01*
X5810510Y4231381D01*
X5853325Y4224600D01*
X5864177D01*
Y875400D01*
X5853325D01*
X5810510Y868619D01*
X5769283Y855223D01*
X5761261Y851136D01*
X5746774Y856480D01*
X5732484Y870770D01*
X5713812Y878504D01*
X5693603D01*
X5674932Y870770D01*
X5660641Y856480D01*
X5652908Y837809D01*
Y817600D01*
X5660641Y798928D01*
X5672547Y787022D01*
X5664937Y779411D01*
X5639457Y744341D01*
X5619777Y705717D01*
X5606381Y664490D01*
X5599600Y621675D01*
Y578325D01*
X5606381Y535510D01*
X5619777Y494283D01*
X5639457Y455659D01*
X5664937Y420589D01*
X5695589Y389937D01*
X5730659Y364457D01*
X5769283Y344777D01*
X5810510Y331381D01*
X5853325Y324600D01*
X5864177D01*
Y113754D01*
X5859789Y91695D01*
X5851182Y70916D01*
X5838687Y52216D01*
X5822783Y36312D01*
X5804083Y23817D01*
X5783304Y15210D01*
X5761246Y10823D01*
X2850400D01*
Y21675D01*
X2843619Y64490D01*
X2830223Y105717D01*
X2810543Y144341D01*
X2785063Y179411D01*
X2754411Y210063D01*
X2752085Y211753D01*
X2754506Y217599D01*
Y237809D01*
X2746772Y256480D01*
X2732482Y270770D01*
X2713811Y278504D01*
X2693601D01*
X2674930Y270770D01*
X2664615Y260455D01*
X2639490Y268619D01*
X2596675Y275400D01*
X2553325D01*
X2510510Y268619D01*
X2469283Y255223D01*
X2430659Y235543D01*
X2395589Y210063D01*
X2364937Y179411D01*
X2339457Y144341D01*
X2319777Y105717D01*
X2306381Y64490D01*
X2299600Y21675D01*
Y10823D01*
X113754D01*
X91696Y15210D01*
X70916Y23817D01*
X52216Y36312D01*
X36312Y52217D01*
X23817Y70916D01*
X15210Y91696D01*
X12447Y105587D01*
X10434Y4213354D01*
X12500Y4215421D01*
Y4224600D01*
X21675D01*
X41107Y4227678D01*
X52905Y4217601D01*
X60638Y4198930D01*
X74929Y4184640D01*
X93600Y4176906D01*
X113809D01*
X132481Y4184640D01*
X146771Y4198930D01*
X154505Y4217601D01*
Y4237811D01*
X146771Y4256482D01*
X161935Y4277239D01*
X179411Y4289937D01*
X210063Y4320589D01*
X235543Y4355659D01*
X246495Y4377153D01*
X274929Y4384640D01*
X293600Y4376906D01*
X313809D01*
X332481Y4384640D01*
X346771Y4398930D01*
X354505Y4417602D01*
Y4437811D01*
X346771Y4456482D01*
X332481Y4470772D01*
X313809Y4478506D01*
X293600D01*
X275400Y4498460D01*
Y4521674D01*
X269420Y4559429D01*
X279307Y4570966D01*
X290933Y4578011D01*
X293600Y4576906D01*
X313809D01*
X332481Y4584640D01*
X346771Y4598930D01*
X354505Y4617602D01*
Y4637811D01*
X346771Y4656482D01*
X332481Y4670772D01*
X313809Y4678506D01*
X293600D01*
X274929Y4670772D01*
X260639Y4656482D01*
X259394Y4653479D01*
X251944Y4650624D01*
X230813Y4650851D01*
X210063Y4679411D01*
X179411Y4710063D01*
X144341Y4735543D01*
X113012Y4751506D01*
X113543Y4768436D01*
X116282Y4777931D01*
X132481Y4784640D01*
X146771Y4798930D01*
X154505Y4817602D01*
Y4837811D01*
X146771Y4856482D01*
X132481Y4870773D01*
X113809Y4878506D01*
X93600D01*
X74929Y4870773D01*
X60638Y4856482D01*
X52905Y4837811D01*
Y4817602D01*
X60638Y4798930D01*
X65374Y4794195D01*
X53249Y4770399D01*
X21675Y4775400D01*
X10159D01*
X10057Y4984364D01*
X10615Y4985200D01*
X15210Y5008304D01*
X23817Y5029083D01*
X36312Y5047784D01*
X52217Y5063688D01*
X70916Y5076182D01*
X91696Y5084789D01*
X113754Y5089177D01*
X5761245D01*
X5783304Y5084789D01*
D02*
G37*
%LPC*%
G36*
X3378900Y5022900D02*
X3173100D01*
Y4859295D01*
X3147700Y4854243D01*
X3146772Y4856482D01*
X3132482Y4870773D01*
X3113811Y4878506D01*
X3093602D01*
X3074930Y4870773D01*
X3060640Y4856482D01*
X3052906Y4837811D01*
Y4817602D01*
X3060640Y4798930D01*
X3074930Y4784640D01*
X3093602Y4776906D01*
X3113811D01*
X3132482Y4784640D01*
X3146772Y4798930D01*
X3150999Y4809135D01*
X3173100Y4817100D01*
X3179698Y4817100D01*
X3378900D01*
Y5022900D01*
D02*
G37*
G36*
X4558547Y5027900D02*
X4531453D01*
X4505282Y5020888D01*
X4481818Y5007341D01*
X4462660Y4988182D01*
X4449113Y4964718D01*
X4442100Y4938547D01*
Y4911453D01*
X4449113Y4885282D01*
X4462660Y4861818D01*
X4481818Y4842660D01*
X4505282Y4829113D01*
X4531453Y4822100D01*
X4558547D01*
X4584718Y4829113D01*
X4608182Y4842660D01*
X4627341Y4861818D01*
X4640888Y4885282D01*
X4647900Y4911453D01*
Y4938547D01*
X4640888Y4964718D01*
X4627341Y4988182D01*
X4608182Y5007341D01*
X4584718Y5020888D01*
X4558547Y5027900D01*
D02*
G37*
G36*
X4304547D02*
X4277453D01*
X4251282Y5020888D01*
X4227818Y5007341D01*
X4208660Y4988182D01*
X4195113Y4964718D01*
X4188100Y4938547D01*
Y4911453D01*
X4195113Y4885282D01*
X4208660Y4861818D01*
X4227818Y4842660D01*
X4251282Y4829113D01*
X4277453Y4822100D01*
X4304547D01*
X4330718Y4829113D01*
X4354182Y4842660D01*
X4373341Y4861818D01*
X4386888Y4885282D01*
X4393900Y4911453D01*
Y4938547D01*
X4386888Y4964718D01*
X4373341Y4988182D01*
X4354182Y5007341D01*
X4330718Y5020888D01*
X4304547Y5027900D01*
D02*
G37*
G36*
X4050547D02*
X4023453D01*
X3997282Y5020888D01*
X3973818Y5007341D01*
X3954660Y4988182D01*
X3941113Y4964718D01*
X3934100Y4938547D01*
Y4911453D01*
X3941113Y4885282D01*
X3954660Y4861818D01*
X3973818Y4842660D01*
X3997282Y4829113D01*
X4023453Y4822100D01*
X4050547D01*
X4076718Y4829113D01*
X4100182Y4842660D01*
X4119341Y4861818D01*
X4132888Y4885282D01*
X4139900Y4911453D01*
Y4938547D01*
X4132888Y4964718D01*
X4119341Y4988182D01*
X4100182Y5007341D01*
X4076718Y5020888D01*
X4050547Y5027900D01*
D02*
G37*
G36*
X3885900D02*
X3680100D01*
Y4822100D01*
X3885900D01*
Y5027900D01*
D02*
G37*
G36*
X3543547Y5022900D02*
X3516453D01*
X3490282Y5015888D01*
X3466818Y5002341D01*
X3447660Y4983182D01*
X3434113Y4959718D01*
X3427100Y4933547D01*
Y4906453D01*
X3434113Y4880282D01*
X3447660Y4856818D01*
X3466818Y4837660D01*
X3490282Y4824113D01*
X3516453Y4817100D01*
X3543547D01*
X3569718Y4824113D01*
X3593182Y4837660D01*
X3612341Y4856818D01*
X3625888Y4880282D01*
X3632900Y4906453D01*
Y4933547D01*
X3625888Y4959718D01*
X3612341Y4983182D01*
X3593182Y5002341D01*
X3569718Y5015888D01*
X3543547Y5022900D01*
D02*
G37*
G36*
X2513547D02*
X2486453D01*
X2460282Y5015888D01*
X2436818Y5002341D01*
X2417660Y4983182D01*
X2404113Y4959718D01*
X2397100Y4933547D01*
Y4906453D01*
X2404113Y4880282D01*
X2417660Y4856818D01*
X2436818Y4837660D01*
X2460282Y4824113D01*
X2486453Y4817100D01*
X2513547D01*
X2539718Y4824113D01*
X2563182Y4837660D01*
X2582341Y4856818D01*
X2595888Y4880282D01*
X2602900Y4906453D01*
Y4933547D01*
X2595888Y4959718D01*
X2582341Y4983182D01*
X2563182Y5002341D01*
X2539718Y5015888D01*
X2513547Y5022900D01*
D02*
G37*
G36*
X5713812Y4878506D02*
X5693603D01*
X5674932Y4870773D01*
X5660641Y4856482D01*
X5652908Y4837811D01*
Y4817602D01*
X5660641Y4798930D01*
X5674932Y4784640D01*
X5693603Y4776906D01*
X5713812D01*
X5732484Y4784640D01*
X5746774Y4798930D01*
X5754508Y4817602D01*
Y4837811D01*
X5746774Y4856482D01*
X5732484Y4870773D01*
X5713812Y4878506D01*
D02*
G37*
G36*
X5513812D02*
X5493603D01*
X5474932Y4870773D01*
X5460641Y4856482D01*
X5452908Y4837811D01*
Y4817602D01*
X5460641Y4798930D01*
X5474932Y4784640D01*
X5493603Y4776906D01*
X5513812D01*
X5532483Y4784640D01*
X5546774Y4798930D01*
X5554508Y4817602D01*
Y4837811D01*
X5546774Y4856482D01*
X5532483Y4870773D01*
X5513812Y4878506D01*
D02*
G37*
G36*
X5313812D02*
X5293603D01*
X5274932Y4870773D01*
X5260641Y4856482D01*
X5252907Y4837811D01*
Y4817602D01*
X5260641Y4798930D01*
X5274932Y4784640D01*
X5293603Y4776906D01*
X5313812D01*
X5332483Y4784640D01*
X5346774Y4798930D01*
X5354507Y4817602D01*
Y4837811D01*
X5346774Y4856482D01*
X5332483Y4870773D01*
X5313812Y4878506D01*
D02*
G37*
G36*
X5113812D02*
X5093603D01*
X5074931Y4870773D01*
X5060641Y4856482D01*
X5052907Y4837811D01*
Y4817602D01*
X5060641Y4798930D01*
X5074931Y4784640D01*
X5093603Y4776906D01*
X5113812D01*
X5132483Y4784640D01*
X5146774Y4798930D01*
X5154507Y4817602D01*
Y4837811D01*
X5146774Y4856482D01*
X5132483Y4870773D01*
X5113812Y4878506D01*
D02*
G37*
G36*
X4812547Y5027900D02*
X4785453D01*
X4759282Y5020888D01*
X4735818Y5007341D01*
X4716660Y4988182D01*
X4703113Y4964718D01*
X4696100Y4938547D01*
Y4911453D01*
X4703113Y4885282D01*
X4716660Y4861818D01*
X4735818Y4842660D01*
X4759282Y4829113D01*
X4785453Y4822100D01*
X4812547D01*
X4827507Y4826108D01*
X4847465Y4819424D01*
X4856125Y4809833D01*
X4860641Y4798930D01*
X4874931Y4784640D01*
X4893603Y4776906D01*
X4913812D01*
X4932483Y4784640D01*
X4946773Y4798930D01*
X4954507Y4817602D01*
Y4837811D01*
X4946773Y4856482D01*
X4932483Y4870773D01*
X4913812Y4878506D01*
X4899878Y4903907D01*
X4901900Y4911453D01*
Y4938547D01*
X4894888Y4964718D01*
X4881341Y4988182D01*
X4862182Y5007341D01*
X4838718Y5020888D01*
X4812547Y5027900D01*
D02*
G37*
G36*
X2856900Y5022900D02*
X2651100D01*
Y4817100D01*
X2853114D01*
X2860640Y4798930D01*
X2874930Y4784640D01*
X2893602Y4776906D01*
X2913811D01*
X2932482Y4784640D01*
X2946772Y4798930D01*
X2954506Y4817602D01*
Y4837811D01*
X2946772Y4856482D01*
X2932482Y4870773D01*
X2913811Y4878506D01*
X2893602D01*
X2882300Y4873825D01*
X2862202Y4883403D01*
X2856900Y4888664D01*
Y5022900D01*
D02*
G37*
G36*
X2313810Y4878506D02*
X2293601D01*
X2274930Y4870773D01*
X2260640Y4856482D01*
X2252906Y4837811D01*
Y4817602D01*
X2260640Y4798930D01*
X2274930Y4784640D01*
X2293601Y4776906D01*
X2313810D01*
X2332482Y4784640D01*
X2346772Y4798930D01*
X2354506Y4817602D01*
Y4837811D01*
X2346772Y4856482D01*
X2332482Y4870773D01*
X2313810Y4878506D01*
D02*
G37*
G36*
X2113810D02*
X2093601D01*
X2074930Y4870773D01*
X2060640Y4856482D01*
X2052906Y4837811D01*
Y4817602D01*
X2060640Y4798930D01*
X2074930Y4784640D01*
X2093601Y4776906D01*
X2113810D01*
X2132482Y4784640D01*
X2146772Y4798930D01*
X2154506Y4817602D01*
Y4837811D01*
X2146772Y4856482D01*
X2132482Y4870773D01*
X2113810Y4878506D01*
D02*
G37*
G36*
X1913810D02*
X1893601D01*
X1874930Y4870773D01*
X1860639Y4856482D01*
X1852906Y4837811D01*
Y4817602D01*
X1860639Y4798930D01*
X1874930Y4784640D01*
X1893601Y4776906D01*
X1913810D01*
X1932482Y4784640D01*
X1946772Y4798930D01*
X1954506Y4817602D01*
Y4837811D01*
X1946772Y4856482D01*
X1932482Y4870773D01*
X1913810Y4878506D01*
D02*
G37*
G36*
X1713810D02*
X1693601D01*
X1674930Y4870773D01*
X1660639Y4856482D01*
X1652906Y4837811D01*
Y4817602D01*
X1660639Y4798930D01*
X1674930Y4784640D01*
X1693601Y4776906D01*
X1713810D01*
X1732481Y4784640D01*
X1746772Y4798930D01*
X1754506Y4817602D01*
Y4837811D01*
X1746772Y4856482D01*
X1732481Y4870773D01*
X1713810Y4878506D01*
D02*
G37*
G36*
X1513810D02*
X1493601D01*
X1474929Y4870773D01*
X1460639Y4856482D01*
X1452905Y4837811D01*
Y4817602D01*
X1460639Y4798930D01*
X1474929Y4784640D01*
X1493601Y4776906D01*
X1513810D01*
X1532481Y4784640D01*
X1546772Y4798930D01*
X1554505Y4817602D01*
Y4837811D01*
X1546772Y4856482D01*
X1532481Y4870773D01*
X1513810Y4878506D01*
D02*
G37*
G36*
X1313810D02*
X1293601D01*
X1274929Y4870773D01*
X1260639Y4856482D01*
X1252905Y4837811D01*
Y4817602D01*
X1260639Y4798930D01*
X1274929Y4784640D01*
X1293601Y4776906D01*
X1313810D01*
X1332481Y4784640D01*
X1346772Y4798930D01*
X1354505Y4817602D01*
Y4837811D01*
X1346772Y4856482D01*
X1332481Y4870773D01*
X1313810Y4878506D01*
D02*
G37*
G36*
X1113810D02*
X1093601D01*
X1074929Y4870773D01*
X1060639Y4856482D01*
X1052905Y4837811D01*
Y4817602D01*
X1060639Y4798930D01*
X1074929Y4784640D01*
X1093601Y4776906D01*
X1113810D01*
X1132481Y4784640D01*
X1146771Y4798930D01*
X1154505Y4817602D01*
Y4837811D01*
X1146771Y4856482D01*
X1132481Y4870773D01*
X1113810Y4878506D01*
D02*
G37*
G36*
X913810D02*
X893600D01*
X874929Y4870773D01*
X860639Y4856482D01*
X852905Y4837811D01*
Y4817602D01*
X860639Y4798930D01*
X874929Y4784640D01*
X893600Y4776906D01*
X913810D01*
X932481Y4784640D01*
X946771Y4798930D01*
X954505Y4817602D01*
Y4837811D01*
X946771Y4856482D01*
X932481Y4870773D01*
X913810Y4878506D01*
D02*
G37*
G36*
X713810D02*
X693600D01*
X674929Y4870773D01*
X660639Y4856482D01*
X652905Y4837811D01*
Y4817602D01*
X660639Y4798930D01*
X674929Y4784640D01*
X693600Y4776906D01*
X713810D01*
X732481Y4784640D01*
X746771Y4798930D01*
X754505Y4817602D01*
Y4837811D01*
X746771Y4856482D01*
X732481Y4870773D01*
X713810Y4878506D01*
D02*
G37*
G36*
X513809D02*
X493600D01*
X474929Y4870773D01*
X460639Y4856482D01*
X452905Y4837811D01*
Y4817602D01*
X460639Y4798930D01*
X474929Y4784640D01*
X493600Y4776906D01*
X513809D01*
X532481Y4784640D01*
X546771Y4798930D01*
X554505Y4817602D01*
Y4837811D01*
X546771Y4856482D01*
X532481Y4870773D01*
X513809Y4878506D01*
D02*
G37*
G36*
X313809D02*
X293600D01*
X274929Y4870773D01*
X260639Y4856482D01*
X252905Y4837811D01*
Y4817602D01*
X260639Y4798930D01*
X274929Y4784640D01*
X293600Y4776906D01*
X313809D01*
X332481Y4784640D01*
X346771Y4798930D01*
X354505Y4817602D01*
Y4837811D01*
X346771Y4856482D01*
X332481Y4870773D01*
X313809Y4878506D01*
D02*
G37*
G36*
X5313812Y4678506D02*
X5293603D01*
X5274932Y4670772D01*
X5260641Y4656482D01*
X5252907Y4637811D01*
Y4617602D01*
X5260641Y4598930D01*
X5274932Y4584640D01*
X5293603Y4576906D01*
X5313812D01*
X5332483Y4584640D01*
X5346774Y4598930D01*
X5354507Y4617602D01*
Y4637811D01*
X5346774Y4656482D01*
X5332483Y4670772D01*
X5313812Y4678506D01*
D02*
G37*
G36*
X5113812D02*
X5093603D01*
X5074931Y4670772D01*
X5060641Y4656482D01*
X5052907Y4637811D01*
Y4617602D01*
X5060641Y4598930D01*
X5074931Y4584640D01*
X5093603Y4576906D01*
X5113812D01*
X5132483Y4584640D01*
X5146774Y4598930D01*
X5154507Y4617602D01*
Y4637811D01*
X5146774Y4656482D01*
X5132483Y4670772D01*
X5113812Y4678506D01*
D02*
G37*
G36*
X4913812D02*
X4893603D01*
X4874931Y4670772D01*
X4860641Y4656482D01*
X4852907Y4637811D01*
Y4617602D01*
X4860641Y4598930D01*
X4874931Y4584640D01*
X4893603Y4576906D01*
X4913812D01*
X4932483Y4584640D01*
X4946773Y4598930D01*
X4954507Y4617602D01*
Y4637811D01*
X4946773Y4656482D01*
X4932483Y4670772D01*
X4913812Y4678506D01*
D02*
G37*
G36*
X4713812D02*
X4693603D01*
X4674931Y4670772D01*
X4660641Y4656482D01*
X4652907Y4637811D01*
Y4617602D01*
X4660641Y4598930D01*
X4674931Y4584640D01*
X4693603Y4576906D01*
X4713812D01*
X4732483Y4584640D01*
X4746773Y4598930D01*
X4754507Y4617602D01*
Y4637811D01*
X4746773Y4656482D01*
X4732483Y4670772D01*
X4713812Y4678506D01*
D02*
G37*
G36*
X4313812D02*
X4293602D01*
X4274931Y4670772D01*
X4260641Y4656482D01*
X4252907Y4637811D01*
Y4617602D01*
X4260641Y4598930D01*
X4274931Y4584640D01*
X4293602Y4576906D01*
X4313812D01*
X4332483Y4584640D01*
X4346773Y4598930D01*
X4354507Y4617602D01*
Y4637811D01*
X4346773Y4656482D01*
X4332483Y4670772D01*
X4313812Y4678506D01*
D02*
G37*
G36*
X3913811D02*
X3893602D01*
X3874931Y4670772D01*
X3860640Y4656482D01*
X3852907Y4637811D01*
Y4617602D01*
X3860640Y4598930D01*
X3874931Y4584640D01*
X3893602Y4576906D01*
X3913811D01*
X3932483Y4584640D01*
X3946773Y4598930D01*
X3954507Y4617602D01*
Y4637811D01*
X3946773Y4656482D01*
X3932483Y4670772D01*
X3913811Y4678506D01*
D02*
G37*
G36*
X3113811D02*
X3093602D01*
X3074930Y4670772D01*
X3060640Y4656482D01*
X3052906Y4637811D01*
Y4617602D01*
X3060640Y4598930D01*
X3074930Y4584640D01*
X3093602Y4576906D01*
X3113811D01*
X3132482Y4584640D01*
X3146772Y4598930D01*
X3154506Y4617602D01*
Y4637811D01*
X3146772Y4656482D01*
X3132482Y4670772D01*
X3113811Y4678506D01*
D02*
G37*
G36*
X2913811D02*
X2893602D01*
X2874930Y4670772D01*
X2860640Y4656482D01*
X2852906Y4637811D01*
Y4617602D01*
X2860640Y4598930D01*
X2874930Y4584640D01*
X2893602Y4576906D01*
X2913811D01*
X2932482Y4584640D01*
X2946772Y4598930D01*
X2954506Y4617602D01*
Y4637811D01*
X2946772Y4656482D01*
X2932482Y4670772D01*
X2913811Y4678506D01*
D02*
G37*
G36*
X2313810D02*
X2293601D01*
X2274930Y4670772D01*
X2260640Y4656482D01*
X2252906Y4637811D01*
Y4617602D01*
X2260640Y4598930D01*
X2274930Y4584640D01*
X2293601Y4576906D01*
X2313810D01*
X2332482Y4584640D01*
X2346772Y4598930D01*
X2354506Y4617602D01*
Y4637811D01*
X2346772Y4656482D01*
X2332482Y4670772D01*
X2313810Y4678506D01*
D02*
G37*
G36*
X2113810D02*
X2093601D01*
X2074930Y4670772D01*
X2060640Y4656482D01*
X2052906Y4637811D01*
Y4617602D01*
X2060640Y4598930D01*
X2074930Y4584640D01*
X2093601Y4576906D01*
X2113810D01*
X2132482Y4584640D01*
X2146772Y4598930D01*
X2154506Y4617602D01*
Y4637811D01*
X2146772Y4656482D01*
X2132482Y4670772D01*
X2113810Y4678506D01*
D02*
G37*
G36*
X1913810D02*
X1893601D01*
X1874930Y4670772D01*
X1860639Y4656482D01*
X1852906Y4637811D01*
Y4617602D01*
X1860639Y4598930D01*
X1874930Y4584640D01*
X1893601Y4576906D01*
X1913810D01*
X1932482Y4584640D01*
X1946772Y4598930D01*
X1954506Y4617602D01*
Y4637811D01*
X1946772Y4656482D01*
X1932482Y4670772D01*
X1913810Y4678506D01*
D02*
G37*
G36*
X1713810D02*
X1693601D01*
X1674930Y4670772D01*
X1660639Y4656482D01*
X1652906Y4637811D01*
Y4617602D01*
X1660639Y4598930D01*
X1674930Y4584640D01*
X1693601Y4576906D01*
X1713810D01*
X1732481Y4584640D01*
X1746772Y4598930D01*
X1754506Y4617602D01*
Y4637811D01*
X1746772Y4656482D01*
X1732481Y4670772D01*
X1713810Y4678506D01*
D02*
G37*
G36*
X1513810D02*
X1493601D01*
X1474929Y4670772D01*
X1460639Y4656482D01*
X1452905Y4637811D01*
Y4617602D01*
X1460639Y4598930D01*
X1474929Y4584640D01*
X1493601Y4576906D01*
X1513810D01*
X1532481Y4584640D01*
X1546772Y4598930D01*
X1554505Y4617602D01*
Y4637811D01*
X1546772Y4656482D01*
X1532481Y4670772D01*
X1513810Y4678506D01*
D02*
G37*
G36*
X1313810D02*
X1293601D01*
X1274929Y4670772D01*
X1260639Y4656482D01*
X1252905Y4637811D01*
Y4617602D01*
X1260639Y4598930D01*
X1274929Y4584640D01*
X1293601Y4576906D01*
X1313810D01*
X1332481Y4584640D01*
X1346772Y4598930D01*
X1354505Y4617602D01*
Y4637811D01*
X1346772Y4656482D01*
X1332481Y4670772D01*
X1313810Y4678506D01*
D02*
G37*
G36*
X1113810D02*
X1093601D01*
X1074929Y4670772D01*
X1060639Y4656482D01*
X1052905Y4637811D01*
Y4617602D01*
X1060639Y4598930D01*
X1074929Y4584640D01*
X1093601Y4576906D01*
X1113810D01*
X1132481Y4584640D01*
X1146771Y4598930D01*
X1154505Y4617602D01*
Y4637811D01*
X1146771Y4656482D01*
X1132481Y4670772D01*
X1113810Y4678506D01*
D02*
G37*
G36*
X913810D02*
X893600D01*
X874929Y4670772D01*
X860639Y4656482D01*
X852905Y4637811D01*
Y4617602D01*
X860639Y4598930D01*
X874929Y4584640D01*
X893600Y4576906D01*
X913810D01*
X932481Y4584640D01*
X946771Y4598930D01*
X954505Y4617602D01*
Y4637811D01*
X946771Y4656482D01*
X932481Y4670772D01*
X913810Y4678506D01*
D02*
G37*
G36*
X713810D02*
X693600D01*
X674929Y4670772D01*
X660639Y4656482D01*
X652905Y4637811D01*
Y4617602D01*
X660639Y4598930D01*
X674929Y4584640D01*
X693600Y4576906D01*
X713810D01*
X732481Y4584640D01*
X746771Y4598930D01*
X754505Y4617602D01*
Y4637811D01*
X746771Y4656482D01*
X732481Y4670772D01*
X713810Y4678506D01*
D02*
G37*
G36*
X513809D02*
X493600D01*
X474929Y4670772D01*
X460639Y4656482D01*
X452905Y4637811D01*
Y4617602D01*
X460639Y4598930D01*
X474929Y4584640D01*
X493600Y4576906D01*
X513809D01*
X532481Y4584640D01*
X546771Y4598930D01*
X554505Y4617602D01*
Y4637811D01*
X546771Y4656482D01*
X532481Y4670772D01*
X513809Y4678506D01*
D02*
G37*
G36*
X5513812D02*
X5493603D01*
X5474932Y4670772D01*
X5460641Y4656482D01*
X5452908Y4637811D01*
Y4617602D01*
X5460641Y4598931D01*
X5451641Y4578484D01*
X5437351Y4564194D01*
X5429617Y4545522D01*
Y4525313D01*
X5437351Y4506642D01*
X5451641Y4492351D01*
X5470313Y4484618D01*
X5490522D01*
X5509193Y4492351D01*
X5523483Y4506642D01*
X5531217Y4525313D01*
Y4545522D01*
X5523483Y4564193D01*
X5532484Y4584640D01*
X5546774Y4598930D01*
X5554508Y4617602D01*
Y4637811D01*
X5546774Y4656482D01*
X5532483Y4670772D01*
X5513812Y4678506D01*
D02*
G37*
G36*
X5313812Y4478506D02*
X5293603D01*
X5274932Y4470772D01*
X5260641Y4456482D01*
X5252907Y4437811D01*
Y4417602D01*
X5260641Y4398930D01*
X5274932Y4384640D01*
X5293603Y4376906D01*
X5313812D01*
X5332483Y4384640D01*
X5346774Y4398930D01*
X5354507Y4417602D01*
Y4437811D01*
X5346774Y4456482D01*
X5332483Y4470772D01*
X5313812Y4478506D01*
D02*
G37*
G36*
X5113812D02*
X5093603D01*
X5074931Y4470772D01*
X5060641Y4456482D01*
X5052907Y4437811D01*
Y4417602D01*
X5060641Y4398930D01*
X5074931Y4384640D01*
X5093603Y4376906D01*
X5113812D01*
X5132483Y4384640D01*
X5146774Y4398930D01*
X5154507Y4417602D01*
Y4437811D01*
X5146774Y4456482D01*
X5132483Y4470772D01*
X5113812Y4478506D01*
D02*
G37*
G36*
X4713812D02*
X4693603D01*
X4674931Y4470772D01*
X4660641Y4456482D01*
X4652907Y4437811D01*
Y4417602D01*
X4660641Y4398930D01*
X4674931Y4384640D01*
X4693603Y4376906D01*
X4713812D01*
X4732483Y4384640D01*
X4746773Y4398930D01*
X4754507Y4417602D01*
Y4437811D01*
X4746773Y4456482D01*
X4732483Y4470772D01*
X4713812Y4478506D01*
D02*
G37*
G36*
X3913811D02*
X3893602D01*
X3874931Y4470772D01*
X3860640Y4456482D01*
X3852907Y4437811D01*
Y4417602D01*
X3860640Y4398930D01*
X3874931Y4384640D01*
X3893602Y4376906D01*
X3913811D01*
X3932483Y4384640D01*
X3946773Y4398930D01*
X3954507Y4417602D01*
Y4437811D01*
X3946773Y4456482D01*
X3932483Y4470772D01*
X3913811Y4478506D01*
D02*
G37*
G36*
X3713811D02*
X3693602D01*
X3674931Y4470772D01*
X3660640Y4456482D01*
X3652907Y4437811D01*
Y4417602D01*
X3660640Y4398930D01*
X3674931Y4384640D01*
X3693602Y4376906D01*
X3713811D01*
X3732483Y4384640D01*
X3746773Y4398930D01*
X3754507Y4417602D01*
Y4437811D01*
X3746773Y4456482D01*
X3732483Y4470772D01*
X3713811Y4478506D01*
D02*
G37*
G36*
X3113811D02*
X3093602D01*
X3074930Y4470772D01*
X3060640Y4456482D01*
X3052906Y4437811D01*
Y4417602D01*
X3060640Y4398930D01*
X3074930Y4384640D01*
X3093602Y4376906D01*
X3113811D01*
X3132482Y4384640D01*
X3146772Y4398930D01*
X3154506Y4417602D01*
Y4437811D01*
X3146772Y4456482D01*
X3132482Y4470772D01*
X3113811Y4478506D01*
D02*
G37*
G36*
X2313810D02*
X2293601D01*
X2274930Y4470772D01*
X2260640Y4456482D01*
X2252906Y4437811D01*
Y4417602D01*
X2260640Y4398930D01*
X2274930Y4384640D01*
X2293601Y4376906D01*
X2313810D01*
X2332482Y4384640D01*
X2346772Y4398930D01*
X2354506Y4417602D01*
Y4437811D01*
X2346772Y4456482D01*
X2332482Y4470772D01*
X2313810Y4478506D01*
D02*
G37*
G36*
X2113810D02*
X2093601D01*
X2074930Y4470772D01*
X2060640Y4456482D01*
X2052906Y4437811D01*
Y4417602D01*
X2060640Y4398930D01*
X2074930Y4384640D01*
X2093601Y4376906D01*
X2113810D01*
X2132482Y4384640D01*
X2146772Y4398930D01*
X2154506Y4417602D01*
Y4437811D01*
X2146772Y4456482D01*
X2132482Y4470772D01*
X2113810Y4478506D01*
D02*
G37*
G36*
X1113810D02*
X1093601D01*
X1074929Y4470772D01*
X1060639Y4456482D01*
X1052905Y4437811D01*
Y4417602D01*
X1060639Y4398930D01*
X1074929Y4384640D01*
X1093601Y4376906D01*
X1113810D01*
X1132481Y4384640D01*
X1146771Y4398930D01*
X1154505Y4417602D01*
Y4437811D01*
X1146771Y4456482D01*
X1132481Y4470772D01*
X1113810Y4478506D01*
D02*
G37*
G36*
X913810D02*
X893600D01*
X874929Y4470772D01*
X860639Y4456482D01*
X852905Y4437811D01*
Y4417602D01*
X860639Y4398930D01*
X874929Y4384640D01*
X893600Y4376906D01*
X913810D01*
X932481Y4384640D01*
X946771Y4398930D01*
X954505Y4417602D01*
Y4437811D01*
X946771Y4456482D01*
X932481Y4470772D01*
X913810Y4478506D01*
D02*
G37*
G36*
X713810D02*
X693600D01*
X674929Y4470772D01*
X660639Y4456482D01*
X652905Y4437811D01*
Y4417602D01*
X660639Y4398930D01*
X674929Y4384640D01*
X693600Y4376906D01*
X713810D01*
X732481Y4384640D01*
X746771Y4398930D01*
X754505Y4417602D01*
Y4437811D01*
X746771Y4456482D01*
X732481Y4470772D01*
X713810Y4478506D01*
D02*
G37*
G36*
X513809D02*
X493600D01*
X474929Y4470772D01*
X460639Y4456482D01*
X452905Y4437811D01*
Y4417602D01*
X460639Y4398930D01*
X474929Y4384640D01*
X493600Y4376906D01*
X513809D01*
X532481Y4384640D01*
X546771Y4398930D01*
X554505Y4417602D01*
Y4437811D01*
X546771Y4456482D01*
X532481Y4470772D01*
X513809Y4478506D01*
D02*
G37*
G36*
X1313810D02*
X1293601D01*
X1274929Y4470772D01*
X1260639Y4456482D01*
X1252905Y4437811D01*
Y4417602D01*
X1260639Y4398930D01*
X1274929Y4384640D01*
X1285853Y4380115D01*
X1309200Y4370104D01*
Y4349895D01*
X1316933Y4331223D01*
X1331224Y4316933D01*
X1349895Y4309199D01*
X1370104D01*
X1388775Y4316933D01*
X1403066Y4331223D01*
X1410800Y4349895D01*
Y4370104D01*
X1403066Y4388775D01*
X1388775Y4403066D01*
X1377851Y4407590D01*
X1354505Y4417602D01*
Y4437811D01*
X1346772Y4456482D01*
X1332481Y4470772D01*
X1313810Y4478506D01*
D02*
G37*
G36*
X4543022Y4303718D02*
X4522813D01*
X4504142Y4295984D01*
X4489851Y4281693D01*
X4482118Y4263022D01*
Y4242813D01*
X4489851Y4224142D01*
X4504142Y4209851D01*
X4522813Y4202118D01*
X4543022D01*
X4561693Y4209851D01*
X4575984Y4224142D01*
X4583718Y4242813D01*
Y4263022D01*
X4575984Y4281693D01*
X4561693Y4295984D01*
X4543022Y4303718D01*
D02*
G37*
G36*
X3913811Y4278506D02*
X3893602D01*
X3874931Y4270772D01*
X3860640Y4256482D01*
X3852907Y4237811D01*
Y4217601D01*
X3860640Y4198930D01*
X3874931Y4184640D01*
X3893602Y4176906D01*
X3913811D01*
X3932483Y4184640D01*
X3946773Y4198930D01*
X3954507Y4217601D01*
Y4237811D01*
X3946773Y4256482D01*
X3932483Y4270772D01*
X3913811Y4278506D01*
D02*
G37*
G36*
X3713811D02*
X3693602D01*
X3674931Y4270772D01*
X3660640Y4256482D01*
X3652907Y4237811D01*
Y4217601D01*
X3660640Y4198930D01*
X3674931Y4184640D01*
X3693602Y4176906D01*
X3713811D01*
X3732483Y4184640D01*
X3746773Y4198930D01*
X3754507Y4217601D01*
Y4237811D01*
X3746773Y4256482D01*
X3732483Y4270772D01*
X3713811Y4278506D01*
D02*
G37*
G36*
X2313810D02*
X2293601D01*
X2274930Y4270772D01*
X2260640Y4256482D01*
X2252906Y4237811D01*
Y4217601D01*
X2260640Y4198930D01*
X2274930Y4184640D01*
X2293601Y4176906D01*
X2313810D01*
X2332482Y4184640D01*
X2346772Y4198930D01*
X2354506Y4217601D01*
Y4237811D01*
X2346772Y4256482D01*
X2332482Y4270772D01*
X2313810Y4278506D01*
D02*
G37*
G36*
X2113810D02*
X2093601D01*
X2074930Y4270772D01*
X2060640Y4256482D01*
X2052906Y4237811D01*
Y4217601D01*
X2060640Y4198930D01*
X2074930Y4184640D01*
X2093601Y4176906D01*
X2113810D01*
X2132482Y4184640D01*
X2146772Y4198930D01*
X2154506Y4217601D01*
Y4237811D01*
X2146772Y4256482D01*
X2132482Y4270772D01*
X2113810Y4278506D01*
D02*
G37*
G36*
X1113810D02*
X1093601D01*
X1074929Y4270772D01*
X1060639Y4256482D01*
X1052905Y4237811D01*
Y4217601D01*
X1060639Y4198930D01*
X1074929Y4184640D01*
X1093601Y4176906D01*
X1113810D01*
X1132481Y4184640D01*
X1146771Y4198930D01*
X1154505Y4217601D01*
Y4237811D01*
X1146771Y4256482D01*
X1132481Y4270772D01*
X1113810Y4278506D01*
D02*
G37*
G36*
X913810D02*
X893600D01*
X874929Y4270772D01*
X860639Y4256482D01*
X852905Y4237811D01*
Y4217601D01*
X860639Y4198930D01*
X874929Y4184640D01*
X893600Y4176906D01*
X913810D01*
X932481Y4184640D01*
X946771Y4198930D01*
X954505Y4217601D01*
Y4237811D01*
X946771Y4256482D01*
X932481Y4270772D01*
X913810Y4278506D01*
D02*
G37*
G36*
X713810D02*
X693600D01*
X674929Y4270772D01*
X660639Y4256482D01*
X652905Y4237811D01*
Y4217601D01*
X660639Y4198930D01*
X674929Y4184640D01*
X693600Y4176906D01*
X713810D01*
X732481Y4184640D01*
X746771Y4198930D01*
X754505Y4217601D01*
Y4237811D01*
X746771Y4256482D01*
X732481Y4270772D01*
X713810Y4278506D01*
D02*
G37*
G36*
X513809D02*
X493600D01*
X474929Y4270772D01*
X460639Y4256482D01*
X452905Y4237811D01*
Y4217601D01*
X460639Y4198930D01*
X474929Y4184640D01*
X493600Y4176906D01*
X513809D01*
X532481Y4184640D01*
X546771Y4198930D01*
X554505Y4217601D01*
Y4237811D01*
X546771Y4256482D01*
X532481Y4270772D01*
X513809Y4278506D01*
D02*
G37*
G36*
X313809D02*
X293600D01*
X274929Y4270772D01*
X260639Y4256482D01*
X252905Y4237811D01*
Y4217601D01*
X260639Y4198930D01*
X274929Y4184640D01*
X293600Y4176906D01*
X313809D01*
X332481Y4184640D01*
X346771Y4198930D01*
X354505Y4217601D01*
Y4237811D01*
X346771Y4256482D01*
X332481Y4270772D01*
X313809Y4278506D01*
D02*
G37*
G36*
X4700105Y4350800D02*
X4679895D01*
X4661224Y4343066D01*
X4646934Y4328776D01*
X4639200Y4310105D01*
Y4289895D01*
X4646934Y4271224D01*
X4659696Y4258462D01*
X4660302Y4247205D01*
X4658724Y4230566D01*
X4644434Y4216276D01*
X4636700Y4197605D01*
Y4177395D01*
X4644434Y4158724D01*
X4658724Y4144434D01*
X4677395Y4136700D01*
X4697605D01*
X4716276Y4144434D01*
X4730566Y4158724D01*
X4738300Y4177395D01*
Y4197605D01*
X4730566Y4216276D01*
X4717804Y4229038D01*
X4717198Y4240295D01*
X4718776Y4256934D01*
X4733066Y4271224D01*
X4740800Y4289895D01*
Y4310105D01*
X4733066Y4328776D01*
X4718776Y4343066D01*
X4700105Y4350800D01*
D02*
G37*
G36*
X4970105Y4210800D02*
X4949895D01*
X4931224Y4203066D01*
X4916934Y4188776D01*
X4909200Y4170105D01*
Y4149895D01*
X4916934Y4131224D01*
X4931224Y4116934D01*
X4949895Y4109200D01*
X4970105D01*
X4988776Y4116934D01*
X5003066Y4131224D01*
X5010800Y4149895D01*
Y4170105D01*
X5003066Y4188776D01*
X4988776Y4203066D01*
X4970105Y4210800D01*
D02*
G37*
G36*
X2663605Y4123802D02*
X2643395D01*
X2624724Y4116068D01*
X2610434Y4101778D01*
X2602700Y4083106D01*
Y4062897D01*
X2610434Y4044226D01*
X2624724Y4029936D01*
X2643395Y4022202D01*
X2663605D01*
X2682276Y4029936D01*
X2696566Y4044226D01*
X2704300Y4062897D01*
Y4083106D01*
X2696566Y4101778D01*
X2682276Y4116068D01*
X2663605Y4123802D01*
D02*
G37*
G36*
X2190105Y4120800D02*
X2169895D01*
X2151224Y4113066D01*
X2136934Y4098776D01*
X2129200Y4080105D01*
Y4059895D01*
X2136934Y4041224D01*
X2151224Y4026934D01*
X2169895Y4019200D01*
X2190105D01*
X2208776Y4026934D01*
X2223066Y4041224D01*
X2230800Y4059895D01*
Y4080105D01*
X2223066Y4098776D01*
X2208776Y4113066D01*
X2190105Y4120800D01*
D02*
G37*
G36*
X4173765Y4097140D02*
X4153555D01*
X4134884Y4089406D01*
X4120594Y4075116D01*
X4112860Y4056445D01*
Y4036236D01*
X4119253Y4020800D01*
X4113923Y4006817D01*
X4106837Y3995400D01*
X4090000D01*
Y3944600D01*
X4125560D01*
Y3979643D01*
X4150352Y3996867D01*
X4153555Y3995540D01*
X4173765D01*
X4192436Y4003274D01*
X4206726Y4017564D01*
X4214460Y4036236D01*
Y4056445D01*
X4206726Y4075116D01*
X4192436Y4089406D01*
X4173765Y4097140D01*
D02*
G37*
G36*
X2020104Y4090800D02*
X1999895D01*
X1981224Y4083066D01*
X1966934Y4068776D01*
X1959200Y4050104D01*
Y4029895D01*
X1966934Y4011224D01*
X1981224Y3996934D01*
X1999895Y3989200D01*
X2020104D01*
X2038776Y3996934D01*
X2053066Y4011224D01*
X2060800Y4029895D01*
Y4050104D01*
X2053066Y4068776D01*
X2038776Y4083066D01*
X2020104Y4090800D01*
D02*
G37*
G36*
X3913811Y4078506D02*
X3893602D01*
X3874931Y4070772D01*
X3860640Y4056482D01*
X3852907Y4037811D01*
Y4017601D01*
X3860640Y3998930D01*
X3874931Y3984640D01*
X3893602Y3976906D01*
X3913811D01*
X3932483Y3984640D01*
X3946773Y3998930D01*
X3954507Y4017601D01*
Y4037811D01*
X3946773Y4056482D01*
X3932483Y4070772D01*
X3913811Y4078506D01*
D02*
G37*
G36*
X3713811D02*
X3693602D01*
X3674931Y4070772D01*
X3660640Y4056482D01*
X3652907Y4037811D01*
Y4017601D01*
X3660640Y3998930D01*
X3674931Y3984640D01*
X3693602Y3976906D01*
X3713811D01*
X3732483Y3984640D01*
X3746773Y3998930D01*
X3754507Y4017601D01*
Y4037811D01*
X3746773Y4056482D01*
X3732483Y4070772D01*
X3713811Y4078506D01*
D02*
G37*
G36*
X1113810D02*
X1093601D01*
X1074929Y4070772D01*
X1060639Y4056482D01*
X1052905Y4037811D01*
Y4017601D01*
X1060639Y3998930D01*
X1074929Y3984640D01*
X1093601Y3976906D01*
X1113810D01*
X1132481Y3984640D01*
X1146771Y3998930D01*
X1154505Y4017601D01*
Y4037811D01*
X1146771Y4056482D01*
X1132481Y4070772D01*
X1113810Y4078506D01*
D02*
G37*
G36*
X913810D02*
X893600D01*
X874929Y4070772D01*
X860639Y4056482D01*
X852905Y4037811D01*
Y4017601D01*
X860639Y3998930D01*
X874929Y3984640D01*
X893600Y3976906D01*
X913810D01*
X932481Y3984640D01*
X946771Y3998930D01*
X954505Y4017601D01*
Y4037811D01*
X946771Y4056482D01*
X932481Y4070772D01*
X913810Y4078506D01*
D02*
G37*
G36*
X713810D02*
X693600D01*
X674929Y4070772D01*
X660639Y4056482D01*
X652905Y4037811D01*
Y4017601D01*
X660639Y3998930D01*
X674929Y3984640D01*
X693600Y3976906D01*
X713810D01*
X732481Y3984640D01*
X746771Y3998930D01*
X754505Y4017601D01*
Y4037811D01*
X746771Y4056482D01*
X732481Y4070772D01*
X713810Y4078506D01*
D02*
G37*
G36*
X113809D02*
X93600D01*
X74929Y4070772D01*
X60638Y4056482D01*
X52905Y4037811D01*
Y4017601D01*
X60638Y3998930D01*
X74929Y3984640D01*
X93600Y3976906D01*
X113809D01*
X132481Y3984640D01*
X146771Y3998930D01*
X154505Y4017601D01*
Y4037811D01*
X146771Y4056482D01*
X132481Y4070772D01*
X113809Y4078506D01*
D02*
G37*
G36*
X2530644Y4067741D02*
X2510435D01*
X2491764Y4060007D01*
X2477473Y4045717D01*
X2469740Y4027045D01*
Y4006836D01*
X2477473Y3988165D01*
X2491764Y3973874D01*
X2510435Y3966141D01*
X2530644D01*
X2549315Y3973874D01*
X2563606Y3988165D01*
X2571340Y4006836D01*
Y4027045D01*
X2563606Y4045717D01*
X2549315Y4060007D01*
X2530644Y4067741D01*
D02*
G37*
G36*
X3120105Y4060800D02*
X3099895D01*
X3081224Y4053066D01*
X3066934Y4038776D01*
X3059200Y4020105D01*
Y3999895D01*
X3066934Y3981224D01*
X3081224Y3966934D01*
X3099895Y3959200D01*
X3120105D01*
X3138776Y3966934D01*
X3153066Y3981224D01*
X3160800Y3999895D01*
Y4020105D01*
X3153066Y4038776D01*
X3138776Y4053066D01*
X3120105Y4060800D01*
D02*
G37*
G36*
X2313810Y4078506D02*
X2293601D01*
X2274930Y4070772D01*
X2260640Y4056482D01*
X2252906Y4037811D01*
Y4017601D01*
X2260640Y3998930D01*
X2274930Y3984640D01*
X2293601Y3976906D01*
X2313810D01*
X2319200Y3973304D01*
Y3969895D01*
X2326934Y3951224D01*
X2341224Y3936934D01*
X2359895Y3929200D01*
X2380105D01*
X2398776Y3936934D01*
X2413066Y3951224D01*
X2420800Y3969895D01*
Y3990105D01*
X2413066Y4008776D01*
X2398776Y4023066D01*
X2380105Y4030800D01*
X2359896D01*
X2354506Y4034401D01*
Y4037811D01*
X2346772Y4056482D01*
X2332482Y4070772D01*
X2313810Y4078506D01*
D02*
G37*
G36*
X442900Y4056900D02*
X237100D01*
Y3851100D01*
X442900D01*
Y4056900D01*
D02*
G37*
G36*
X4063765Y3897140D02*
X4043555D01*
X4024884Y3889406D01*
X4010594Y3875116D01*
X4002860Y3856445D01*
Y3836235D01*
X4005132Y3830751D01*
X4008630Y3806799D01*
X4001837Y3790400D01*
X3994701Y3790400D01*
X3994701Y3790400D01*
X3994616Y3790400D01*
X3980000D01*
Y3739600D01*
X4015560D01*
X4015560Y3779643D01*
X4029657Y3791189D01*
X4053255Y3795540D01*
X4063765D01*
X4082436Y3803274D01*
X4096726Y3817564D01*
X4104460Y3836235D01*
Y3856445D01*
X4096726Y3875116D01*
X4082436Y3889406D01*
X4063765Y3897140D01*
D02*
G37*
G36*
X5313812Y3878506D02*
X5293603D01*
X5274932Y3870772D01*
X5260641Y3856482D01*
X5252907Y3837810D01*
Y3817601D01*
X5260641Y3798930D01*
X5274932Y3784640D01*
X5293603Y3776906D01*
X5313812D01*
X5332483Y3784640D01*
X5346774Y3798930D01*
X5354507Y3817601D01*
Y3837810D01*
X5346774Y3856482D01*
X5332483Y3870772D01*
X5313812Y3878506D01*
D02*
G37*
G36*
X113809D02*
X93600D01*
X74929Y3870772D01*
X60638Y3856482D01*
X52905Y3837810D01*
Y3817601D01*
X60638Y3798930D01*
X74929Y3784640D01*
X93600Y3776906D01*
X113809D01*
X132481Y3784640D01*
X146771Y3798930D01*
X154505Y3817601D01*
Y3837810D01*
X146771Y3856482D01*
X132481Y3870772D01*
X113809Y3878506D01*
D02*
G37*
G36*
X1155400Y3777780D02*
X1104600D01*
Y3742220D01*
X1155400D01*
Y3777780D01*
D02*
G37*
G36*
X1480105Y3800800D02*
X1459895D01*
X1441224Y3793066D01*
X1426934Y3778776D01*
X1419200Y3760105D01*
Y3739895D01*
X1426934Y3721224D01*
X1441224Y3706934D01*
X1459895Y3699200D01*
X1480105D01*
X1498776Y3706934D01*
X1513066Y3721224D01*
X1520800Y3739895D01*
Y3760105D01*
X1513066Y3778776D01*
X1498776Y3793066D01*
X1480105Y3800800D01*
D02*
G37*
G36*
X3047780Y3660400D02*
X3012220D01*
Y3609600D01*
X3047780D01*
Y3660400D01*
D02*
G37*
G36*
X353547Y3802900D02*
X326453D01*
X300282Y3795888D01*
X276818Y3782340D01*
X257660Y3763182D01*
X244113Y3739718D01*
X237100Y3713547D01*
Y3686453D01*
X244113Y3660282D01*
X257660Y3636818D01*
X276818Y3617660D01*
X300282Y3604112D01*
X326453Y3597100D01*
X353547D01*
X379718Y3604112D01*
X403182Y3617660D01*
X422341Y3636818D01*
X435888Y3660282D01*
X442900Y3686453D01*
Y3713547D01*
X435888Y3739718D01*
X422341Y3763182D01*
X403182Y3782340D01*
X379718Y3795888D01*
X353547Y3802900D01*
D02*
G37*
G36*
X4313812Y3678506D02*
X4293602D01*
X4274931Y3670772D01*
X4260641Y3656482D01*
X4252907Y3637810D01*
Y3617601D01*
X4260641Y3598930D01*
X4274931Y3584640D01*
X4293602Y3576906D01*
X4313812D01*
X4332483Y3584640D01*
X4346773Y3598930D01*
X4354507Y3617601D01*
Y3637810D01*
X4346773Y3656482D01*
X4332483Y3670772D01*
X4313812Y3678506D01*
D02*
G37*
G36*
X2513811D02*
X2493601D01*
X2474930Y3670772D01*
X2460640Y3656482D01*
X2452906Y3637810D01*
Y3617601D01*
X2460640Y3598930D01*
X2474930Y3584640D01*
X2493601Y3576906D01*
X2513811D01*
X2532482Y3584640D01*
X2546772Y3598930D01*
X2554506Y3617601D01*
Y3637810D01*
X2546772Y3656482D01*
X2532482Y3670772D01*
X2513811Y3678506D01*
D02*
G37*
G36*
X113809D02*
X93600D01*
X74929Y3670772D01*
X60638Y3656482D01*
X52905Y3637810D01*
Y3617601D01*
X60638Y3598930D01*
X74929Y3584640D01*
X93600Y3576906D01*
X113809D01*
X132481Y3584640D01*
X146771Y3598930D01*
X154505Y3617601D01*
Y3637810D01*
X146771Y3656482D01*
X132481Y3670772D01*
X113809Y3678506D01*
D02*
G37*
G36*
X1838004Y3670800D02*
X1817795D01*
X1799124Y3663066D01*
X1784833Y3648776D01*
X1777100Y3630105D01*
Y3609895D01*
X1784833Y3591224D01*
X1799124Y3576934D01*
X1817795Y3569200D01*
X1838004D01*
X1856675Y3576934D01*
X1870966Y3591224D01*
X1878700Y3609895D01*
Y3630105D01*
X1870966Y3648776D01*
X1856675Y3663066D01*
X1838004Y3670800D01*
D02*
G37*
G36*
X2887605Y3658300D02*
X2867395D01*
X2848724Y3650566D01*
X2834434Y3636276D01*
X2826700Y3617605D01*
Y3597395D01*
X2834434Y3578724D01*
X2848724Y3564434D01*
X2867395Y3556700D01*
X2887605D01*
X2906276Y3564434D01*
X2920566Y3578724D01*
X2928300Y3597395D01*
Y3617605D01*
X2920566Y3636276D01*
X2906276Y3650566D01*
X2887605Y3658300D01*
D02*
G37*
G36*
X4700056Y3655752D02*
X4679847D01*
X4661176Y3648018D01*
X4646885Y3633728D01*
X4639152Y3615056D01*
Y3594847D01*
X4646885Y3576176D01*
X4661176Y3561885D01*
X4679847Y3554152D01*
X4700056D01*
X4718727Y3561885D01*
X4733018Y3576176D01*
X4740752Y3594847D01*
Y3615056D01*
X4733018Y3633728D01*
X4718727Y3648018D01*
X4700056Y3655752D01*
D02*
G37*
G36*
X2001240Y3629791D02*
X1981030D01*
X1962359Y3622057D01*
X1948069Y3607767D01*
X1940335Y3589096D01*
Y3568886D01*
X1948069Y3550215D01*
X1962359Y3535925D01*
X1981030Y3528191D01*
X2001240D01*
X2019911Y3535925D01*
X2034201Y3550215D01*
X2041935Y3568886D01*
Y3589096D01*
X2034201Y3607767D01*
X2019911Y3622057D01*
X2001240Y3629791D01*
D02*
G37*
G36*
X5125105Y3599717D02*
X5104895D01*
X5086224Y3591984D01*
X5071934Y3577693D01*
X5064200Y3559022D01*
Y3538813D01*
X5071934Y3520142D01*
X5086224Y3505851D01*
X5104895Y3498117D01*
X5125105D01*
X5143776Y3505851D01*
X5158066Y3520142D01*
X5165800Y3538813D01*
Y3559022D01*
X5158066Y3577693D01*
X5143776Y3591984D01*
X5125105Y3599717D01*
D02*
G37*
G36*
X5782900Y3702900D02*
X5577100D01*
Y3497100D01*
X5782900D01*
Y3702900D01*
D02*
G37*
G36*
X4548720Y3595428D02*
X4528511D01*
X4509840Y3587694D01*
X4495549Y3573404D01*
X4487816Y3554733D01*
Y3534524D01*
X4495549Y3515852D01*
X4509840Y3501562D01*
X4528511Y3493828D01*
X4548720D01*
X4567391Y3501562D01*
X4581682Y3515852D01*
X4589416Y3534524D01*
Y3554733D01*
X4581682Y3573404D01*
X4567391Y3587694D01*
X4548720Y3595428D01*
D02*
G37*
G36*
X3120604Y3560300D02*
X3100395D01*
X3081724Y3552566D01*
X3067434Y3538276D01*
X3059700Y3519605D01*
Y3499396D01*
X3067434Y3480724D01*
X3081724Y3466434D01*
X3100395Y3458700D01*
X3120604D01*
X3139276Y3466434D01*
X3153566Y3480724D01*
X3161300Y3499396D01*
Y3519605D01*
X3153566Y3538276D01*
X3139276Y3552566D01*
X3120604Y3560300D01*
D02*
G37*
G36*
X1840105Y3520000D02*
X1819895D01*
X1801224Y3512266D01*
X1786934Y3497976D01*
X1779200Y3479305D01*
Y3459095D01*
X1786934Y3440424D01*
X1801224Y3426134D01*
X1819895Y3418400D01*
X1840105D01*
X1858776Y3426134D01*
X1873066Y3440424D01*
X1880800Y3459095D01*
Y3479305D01*
X1873066Y3497976D01*
X1858776Y3512266D01*
X1840105Y3520000D01*
D02*
G37*
G36*
X1570105D02*
X1549895D01*
X1531224Y3512266D01*
X1516934Y3497976D01*
X1509200Y3479305D01*
Y3459095D01*
X1516934Y3440424D01*
X1531224Y3426134D01*
X1549895Y3418400D01*
X1570105D01*
X1588776Y3426134D01*
X1603066Y3440424D01*
X1610800Y3459095D01*
Y3479305D01*
X1603066Y3497976D01*
X1588776Y3512266D01*
X1570105Y3520000D01*
D02*
G37*
G36*
X313809Y3478506D02*
X293600D01*
X274929Y3470772D01*
X260639Y3456482D01*
X252905Y3437810D01*
Y3417601D01*
X260639Y3398930D01*
X274929Y3384639D01*
X293600Y3376906D01*
X313809D01*
X332481Y3384639D01*
X346771Y3398930D01*
X354505Y3417601D01*
Y3437810D01*
X346771Y3456482D01*
X332481Y3470772D01*
X313809Y3478506D01*
D02*
G37*
G36*
X113809D02*
X93600D01*
X74929Y3470772D01*
X60638Y3456482D01*
X52905Y3437810D01*
Y3417601D01*
X60638Y3398930D01*
X74929Y3384639D01*
X93600Y3376906D01*
X113809D01*
X132481Y3384639D01*
X146771Y3398930D01*
X154505Y3417601D01*
Y3437810D01*
X146771Y3456482D01*
X132481Y3470772D01*
X113809Y3478506D01*
D02*
G37*
G36*
X4415105Y3462978D02*
X4394895D01*
X4376224Y3455244D01*
X4361934Y3440953D01*
X4354200Y3422282D01*
Y3402073D01*
X4361934Y3383402D01*
X4376224Y3369111D01*
X4394895Y3361378D01*
X4415105D01*
X4433776Y3369111D01*
X4448066Y3383402D01*
X4455800Y3402073D01*
Y3422282D01*
X4448066Y3440953D01*
X4433776Y3455244D01*
X4415105Y3462978D01*
D02*
G37*
G36*
X4700443Y3418317D02*
X4680392D01*
X4661868Y3410644D01*
X4647691Y3396467D01*
X4640018Y3377942D01*
Y3357892D01*
X4640113Y3357662D01*
X4620672Y3338222D01*
X4620443Y3338317D01*
X4600392D01*
X4581868Y3330644D01*
X4567691Y3316467D01*
X4560018Y3297942D01*
Y3277892D01*
X4567691Y3259368D01*
X4581868Y3245190D01*
X4600392Y3237517D01*
X4620443D01*
X4620672Y3237613D01*
X4640113Y3218172D01*
X4640018Y3217942D01*
Y3197892D01*
X4647691Y3179368D01*
X4661868Y3165190D01*
X4680392Y3157517D01*
X4700443D01*
X4718967Y3165190D01*
X4733144Y3179368D01*
X4740818Y3197892D01*
Y3217942D01*
X4740722Y3218172D01*
X4760163Y3237613D01*
X4760393Y3237517D01*
X4780443D01*
X4798967Y3245190D01*
X4813145Y3259368D01*
X4820818Y3277892D01*
Y3297942D01*
X4813145Y3316467D01*
X4798967Y3330644D01*
X4780443Y3338317D01*
X4760393D01*
X4760163Y3338222D01*
X4740722Y3357662D01*
X4740818Y3357892D01*
Y3377942D01*
X4733144Y3396467D01*
X4718967Y3410644D01*
X4700443Y3418317D01*
D02*
G37*
G36*
X3950105Y3430800D02*
X3929895D01*
X3911224Y3423066D01*
X3896934Y3408776D01*
X3889200Y3390105D01*
Y3369895D01*
X3896934Y3351224D01*
X3911224Y3336934D01*
X3929895Y3329200D01*
X3950105D01*
X3968776Y3336934D01*
X3983066Y3351224D01*
X3990800Y3369895D01*
Y3390105D01*
X3983066Y3408776D01*
X3968776Y3423066D01*
X3950105Y3430800D01*
D02*
G37*
G36*
X4080105Y3350800D02*
X4059895D01*
X4041224Y3343066D01*
X4026934Y3328776D01*
X4019200Y3310105D01*
Y3289895D01*
X4026934Y3271224D01*
X4041224Y3256934D01*
X4059895Y3249200D01*
X4080105D01*
X4098776Y3256934D01*
X4113066Y3271224D01*
X4120800Y3289895D01*
Y3310105D01*
X4113066Y3328776D01*
X4098776Y3343066D01*
X4080105Y3350800D01*
D02*
G37*
G36*
X5693547Y3448900D02*
X5666453D01*
X5640282Y3441887D01*
X5616818Y3428340D01*
X5597660Y3409182D01*
X5584113Y3385718D01*
X5577100Y3359547D01*
Y3332453D01*
X5584113Y3306282D01*
X5597660Y3282818D01*
X5616818Y3263659D01*
X5640282Y3250112D01*
X5666453Y3243100D01*
X5693547D01*
X5719718Y3250112D01*
X5743182Y3263659D01*
X5762341Y3282818D01*
X5775888Y3306282D01*
X5782900Y3332453D01*
Y3359547D01*
X5775888Y3385718D01*
X5762341Y3409182D01*
X5743182Y3428340D01*
X5719718Y3441887D01*
X5693547Y3448900D01*
D02*
G37*
G36*
X5513812Y3278506D02*
X5493603D01*
X5474932Y3270772D01*
X5460641Y3256481D01*
X5452908Y3237810D01*
Y3217601D01*
X5460641Y3198930D01*
X5474932Y3184639D01*
X5493603Y3176906D01*
X5513812D01*
X5532483Y3184639D01*
X5546774Y3198930D01*
X5554508Y3217601D01*
Y3237810D01*
X5546774Y3256481D01*
X5532483Y3270772D01*
X5513812Y3278506D01*
D02*
G37*
G36*
X313809D02*
X293600D01*
X274929Y3270772D01*
X260639Y3256481D01*
X252905Y3237810D01*
Y3217601D01*
X260639Y3198930D01*
X274929Y3184639D01*
X293600Y3176906D01*
X313809D01*
X332481Y3184639D01*
X346771Y3198930D01*
X354505Y3217601D01*
Y3237810D01*
X346771Y3256481D01*
X332481Y3270772D01*
X313809Y3278506D01*
D02*
G37*
G36*
X113809D02*
X93600D01*
X74929Y3270772D01*
X60638Y3256481D01*
X52905Y3237810D01*
Y3217601D01*
X60638Y3198930D01*
X74929Y3184639D01*
X93600Y3176906D01*
X113809D01*
X132481Y3184639D01*
X146771Y3198930D01*
X154505Y3217601D01*
Y3237810D01*
X146771Y3256481D01*
X132481Y3270772D01*
X113809Y3278506D01*
D02*
G37*
G36*
X5007605Y3460800D02*
X4987395D01*
X4968724Y3453066D01*
X4954434Y3438776D01*
X4946700Y3420105D01*
Y3399895D01*
X4954434Y3381224D01*
X4968724Y3366934D01*
X4987395Y3359200D01*
X5007605D01*
X5014146Y3361910D01*
X5028134Y3342710D01*
X5029066Y3340597D01*
X5021553Y3322457D01*
Y3302248D01*
X5029287Y3283577D01*
X5033917Y3278946D01*
X5042937Y3267683D01*
X5034164Y3245693D01*
X5026652Y3227556D01*
Y3207347D01*
X5034385Y3188676D01*
X5048676Y3174385D01*
X5067347Y3166652D01*
X5087556D01*
X5106228Y3174385D01*
X5120518Y3188676D01*
X5128252Y3207347D01*
Y3227556D01*
X5120518Y3246227D01*
X5115887Y3250858D01*
X5106867Y3262121D01*
X5115641Y3284112D01*
X5123153Y3302248D01*
Y3322457D01*
X5115419Y3341129D01*
X5101129Y3355419D01*
X5082457Y3363153D01*
X5062248D01*
X5055706Y3360443D01*
X5041719Y3379643D01*
X5040786Y3381756D01*
X5048300Y3399895D01*
Y3420105D01*
X5040566Y3438776D01*
X5026276Y3453066D01*
X5007605Y3460800D01*
D02*
G37*
G36*
X2440105Y3370800D02*
X2419895D01*
X2401224Y3363066D01*
X2386934Y3348776D01*
X2379200Y3330105D01*
Y3309895D01*
X2386934Y3291224D01*
X2401224Y3276934D01*
X2414374Y3271487D01*
X2421212Y3252983D01*
X2421958Y3243800D01*
X2416934Y3238776D01*
X2409200Y3220105D01*
Y3199895D01*
X2416934Y3181224D01*
X2431224Y3166934D01*
X2449895Y3159200D01*
X2470105D01*
X2488776Y3166934D01*
X2503066Y3181224D01*
X2510800Y3199895D01*
Y3220105D01*
X2503066Y3238776D01*
X2488776Y3253066D01*
X2475626Y3258513D01*
X2468788Y3277017D01*
X2468042Y3286200D01*
X2473066Y3291224D01*
X2480800Y3309895D01*
Y3330105D01*
X2473066Y3348776D01*
X2458776Y3363066D01*
X2440105Y3370800D01*
D02*
G37*
G36*
X2830105Y3180800D02*
X2809895D01*
X2791224Y3173066D01*
X2776934Y3158776D01*
X2769200Y3140105D01*
Y3119895D01*
X2776934Y3101224D01*
X2791224Y3086934D01*
X2809895Y3079200D01*
X2830105D01*
X2848776Y3086934D01*
X2863066Y3101224D01*
X2870800Y3119895D01*
Y3140105D01*
X2863066Y3158776D01*
X2848776Y3173066D01*
X2830105Y3180800D01*
D02*
G37*
G36*
X3913811Y3278506D02*
X3893602D01*
X3874931Y3270772D01*
X3860640Y3256481D01*
X3852907Y3237810D01*
Y3217601D01*
X3860640Y3198930D01*
X3874931Y3184639D01*
X3893602Y3176906D01*
X3909200D01*
Y3159895D01*
X3916934Y3141224D01*
X3931224Y3126934D01*
X3949895Y3119200D01*
X3963227Y3119200D01*
X3972604Y3094836D01*
X3971224Y3093066D01*
X3968223Y3090065D01*
X3956934Y3078776D01*
X3932482Y3070772D01*
X3913811Y3078505D01*
X3893602D01*
X3874931Y3070772D01*
X3860640Y3056481D01*
X3852907Y3037810D01*
Y3017601D01*
X3860640Y2998929D01*
X3874931Y2984639D01*
X3893602Y2976905D01*
X3913811D01*
X3932483Y2984639D01*
X3946773Y2998929D01*
X3971224Y3006934D01*
X3989895Y2999200D01*
X4010105D01*
X4028776Y3006934D01*
X4043066Y3021224D01*
X4050800Y3039895D01*
Y3060105D01*
X4043066Y3078776D01*
X4028776Y3093066D01*
X4010105Y3100800D01*
X3996773Y3100800D01*
X3987396Y3125164D01*
X3988776Y3126934D01*
X3991777Y3129935D01*
X4003066Y3141224D01*
X4010800Y3159895D01*
Y3180105D01*
X4003066Y3198776D01*
X3988776Y3213066D01*
X3970105Y3220800D01*
X3954507D01*
Y3237810D01*
X3946773Y3256481D01*
X3932483Y3270772D01*
X3913811Y3278506D01*
D02*
G37*
G36*
X4560105Y3080173D02*
X4539895D01*
X4521224Y3072440D01*
X4506934Y3058149D01*
X4499200Y3039478D01*
Y3019269D01*
X4506934Y3000598D01*
X4521224Y2986307D01*
X4539895Y2978573D01*
X4560105D01*
X4578776Y2986307D01*
X4593066Y3000598D01*
X4600800Y3019269D01*
Y3039478D01*
X4593066Y3058149D01*
X4578776Y3072440D01*
X4560105Y3080173D01*
D02*
G37*
G36*
X5713812Y3078505D02*
X5693603D01*
X5674932Y3070772D01*
X5660641Y3056481D01*
X5652908Y3037810D01*
Y3017601D01*
X5660641Y2998929D01*
X5674932Y2984639D01*
X5693603Y2976905D01*
X5713812D01*
X5732484Y2984639D01*
X5746774Y2998929D01*
X5754508Y3017601D01*
Y3037810D01*
X5746774Y3056481D01*
X5732484Y3070772D01*
X5713812Y3078505D01*
D02*
G37*
G36*
X3713811D02*
X3693602D01*
X3674931Y3070772D01*
X3660640Y3056481D01*
X3652907Y3037810D01*
Y3017601D01*
X3660640Y2998929D01*
X3674931Y2984639D01*
X3693602Y2976905D01*
X3713811D01*
X3732483Y2984639D01*
X3746773Y2998929D01*
X3754507Y3017601D01*
Y3037810D01*
X3746773Y3056481D01*
X3732483Y3070772D01*
X3713811Y3078505D01*
D02*
G37*
G36*
X713810D02*
X693600D01*
X674929Y3070772D01*
X660639Y3056481D01*
X652905Y3037810D01*
Y3017601D01*
X660639Y2998929D01*
X674929Y2984639D01*
X693600Y2976905D01*
X713810D01*
X732481Y2984639D01*
X746771Y2998929D01*
X754505Y3017601D01*
Y3037810D01*
X746771Y3056481D01*
X732481Y3070772D01*
X713810Y3078505D01*
D02*
G37*
G36*
X313809D02*
X293600D01*
X274929Y3070772D01*
X260639Y3056481D01*
X252905Y3037810D01*
Y3017601D01*
X260639Y2998929D01*
X274929Y2984639D01*
X293600Y2976905D01*
X313809D01*
X332481Y2984639D01*
X346771Y2998929D01*
X354505Y3017601D01*
Y3037810D01*
X346771Y3056481D01*
X332481Y3070772D01*
X313809Y3078505D01*
D02*
G37*
G36*
X113809D02*
X93600D01*
X74929Y3070772D01*
X60638Y3056481D01*
X52905Y3037810D01*
Y3017601D01*
X60638Y2998929D01*
X74929Y2984639D01*
X93600Y2976905D01*
X113809D01*
X132481Y2984639D01*
X146771Y2998929D01*
X154505Y3017601D01*
Y3037810D01*
X146771Y3056481D01*
X132481Y3070772D01*
X113809Y3078505D01*
D02*
G37*
G36*
X5107703Y3065899D02*
X5087494D01*
X5068823Y3058165D01*
X5054532Y3043875D01*
X5046799Y3025203D01*
Y3004994D01*
X5054532Y2986323D01*
X5068823Y2972032D01*
X5087494Y2964299D01*
X5107703D01*
X5126375Y2972032D01*
X5140665Y2986323D01*
X5148399Y3004994D01*
Y3025203D01*
X5140665Y3043875D01*
X5126375Y3058165D01*
X5107703Y3065899D01*
D02*
G37*
G36*
X5418756Y2991951D02*
X5398546D01*
X5379875Y2984217D01*
X5365585Y2969927D01*
X5357851Y2951256D01*
Y2931046D01*
X5365585Y2912375D01*
X5379875Y2898085D01*
X5398546Y2890351D01*
X5418756D01*
X5437427Y2898085D01*
X5451717Y2912375D01*
X5459451Y2931046D01*
Y2951256D01*
X5451717Y2969927D01*
X5437427Y2984217D01*
X5418756Y2991951D01*
D02*
G37*
G36*
X4240105Y3010800D02*
X4219895D01*
X4201224Y3003066D01*
X4186934Y2988776D01*
X4179200Y2970105D01*
Y2949895D01*
X4186934Y2931224D01*
X4201224Y2916934D01*
X4199262Y2890254D01*
X4199200Y2890105D01*
Y2869895D01*
X4206934Y2851224D01*
X4221224Y2836934D01*
X4239895Y2829200D01*
X4260105D01*
X4278776Y2836934D01*
X4293066Y2851224D01*
X4300800Y2869895D01*
Y2890105D01*
X4293066Y2908776D01*
X4278776Y2923066D01*
X4280738Y2949746D01*
X4280800Y2949895D01*
Y2970105D01*
X4273066Y2988776D01*
X4258776Y3003066D01*
X4240105Y3010800D01*
D02*
G37*
G36*
X5713812Y2878505D02*
X5693603D01*
X5674932Y2870771D01*
X5660641Y2856481D01*
X5652908Y2837810D01*
Y2817601D01*
X5660641Y2798929D01*
X5674932Y2784639D01*
X5693603Y2776905D01*
X5713812D01*
X5732484Y2784639D01*
X5746774Y2798929D01*
X5754508Y2817601D01*
Y2837810D01*
X5746774Y2856481D01*
X5732484Y2870771D01*
X5713812Y2878505D01*
D02*
G37*
G36*
X5313812D02*
X5293603D01*
X5274932Y2870771D01*
X5260641Y2856481D01*
X5252907Y2837810D01*
Y2817601D01*
X5260641Y2798929D01*
X5274932Y2784639D01*
X5293603Y2776905D01*
X5313812D01*
X5332483Y2784639D01*
X5346774Y2798929D01*
X5354507Y2817601D01*
Y2837810D01*
X5346774Y2856481D01*
X5332483Y2870771D01*
X5313812Y2878505D01*
D02*
G37*
G36*
X5113812D02*
X5093603D01*
X5074931Y2870771D01*
X5060641Y2856481D01*
X5052907Y2837810D01*
Y2817601D01*
X5060641Y2798929D01*
X5074931Y2784639D01*
X5093603Y2776905D01*
X5113812D01*
X5132483Y2784639D01*
X5146774Y2798929D01*
X5154507Y2817601D01*
Y2837810D01*
X5146774Y2856481D01*
X5132483Y2870771D01*
X5113812Y2878505D01*
D02*
G37*
G36*
X4113811D02*
X4093602D01*
X4074931Y2870771D01*
X4060641Y2856481D01*
X4052907Y2837810D01*
Y2817601D01*
X4060641Y2798929D01*
X4074931Y2784639D01*
X4093602Y2776905D01*
X4113811D01*
X4132483Y2784639D01*
X4146773Y2798929D01*
X4154507Y2817601D01*
Y2837810D01*
X4146773Y2856481D01*
X4132483Y2870771D01*
X4113811Y2878505D01*
D02*
G37*
G36*
X3913811D02*
X3893602D01*
X3874931Y2870771D01*
X3860640Y2856481D01*
X3852907Y2837810D01*
Y2817601D01*
X3860640Y2798929D01*
X3874931Y2784639D01*
X3893602Y2776905D01*
X3913811D01*
X3932483Y2784639D01*
X3946773Y2798929D01*
X3954507Y2817601D01*
Y2837810D01*
X3946773Y2856481D01*
X3932483Y2870771D01*
X3913811Y2878505D01*
D02*
G37*
G36*
X3713811D02*
X3693602D01*
X3674931Y2870771D01*
X3660640Y2856481D01*
X3652907Y2837810D01*
Y2817601D01*
X3660640Y2798929D01*
X3674931Y2784639D01*
X3693602Y2776905D01*
X3713811D01*
X3732483Y2784639D01*
X3746773Y2798929D01*
X3754507Y2817601D01*
Y2837810D01*
X3746773Y2856481D01*
X3732483Y2870771D01*
X3713811Y2878505D01*
D02*
G37*
G36*
X3513811D02*
X3493602D01*
X3474931Y2870771D01*
X3460640Y2856481D01*
X3452906Y2837810D01*
Y2817601D01*
X3460640Y2798929D01*
X3474931Y2784639D01*
X3493602Y2776905D01*
X3513811D01*
X3532482Y2784639D01*
X3546773Y2798929D01*
X3554506Y2817601D01*
Y2837810D01*
X3546773Y2856481D01*
X3532482Y2870771D01*
X3513811Y2878505D01*
D02*
G37*
G36*
X713810D02*
X693600D01*
X674929Y2870771D01*
X660639Y2856481D01*
X652905Y2837810D01*
Y2817601D01*
X660639Y2798929D01*
X674929Y2784639D01*
X693600Y2776905D01*
X713810D01*
X732481Y2784639D01*
X746771Y2798929D01*
X754505Y2817601D01*
Y2837810D01*
X746771Y2856481D01*
X732481Y2870771D01*
X713810Y2878505D01*
D02*
G37*
G36*
X2335105Y2865800D02*
X2314895D01*
X2296224Y2858066D01*
X2281934Y2843776D01*
X2274200Y2825105D01*
Y2804895D01*
X2281934Y2786224D01*
X2296224Y2771934D01*
X2314895Y2764200D01*
X2335105D01*
X2353776Y2771934D01*
X2368066Y2786224D01*
X2375800Y2804895D01*
Y2825105D01*
X2368066Y2843776D01*
X2353776Y2858066D01*
X2335105Y2865800D01*
D02*
G37*
G36*
X2060105Y2770800D02*
X2039895D01*
X2021224Y2763066D01*
X2006934Y2748776D01*
X1999200Y2730105D01*
Y2709895D01*
X2006934Y2691224D01*
X2021224Y2676934D01*
X2039895Y2669200D01*
X2060105D01*
X2078776Y2676934D01*
X2093066Y2691224D01*
X2100800Y2709895D01*
Y2730105D01*
X2093066Y2748776D01*
X2078776Y2763066D01*
X2060105Y2770800D01*
D02*
G37*
G36*
X2613547Y3042900D02*
X2586453D01*
X2560282Y3035888D01*
X2536818Y3022340D01*
X2517659Y3003182D01*
X2504112Y2979718D01*
X2497100Y2953547D01*
Y2926453D01*
X2504112Y2900282D01*
X2517659Y2876818D01*
X2536818Y2857660D01*
X2560282Y2844112D01*
X2586453Y2837100D01*
X2613547D01*
X2628918Y2841219D01*
X2650546Y2826283D01*
X2652906Y2822397D01*
Y2817601D01*
X2660640Y2798929D01*
X2674930Y2784639D01*
X2688777Y2778904D01*
X2693601Y2776905D01*
X2692395Y2753300D01*
X2688302Y2751605D01*
X2673724Y2745566D01*
X2659434Y2731276D01*
X2651700Y2712605D01*
Y2692395D01*
X2659434Y2673724D01*
X2673724Y2659434D01*
X2692395Y2651700D01*
X2712605D01*
X2731276Y2659434D01*
X2745566Y2673724D01*
X2753300Y2692395D01*
Y2712605D01*
X2745566Y2731276D01*
X2731276Y2745566D01*
X2717429Y2751302D01*
X2712605Y2753300D01*
X2713811Y2776905D01*
X2717904Y2778601D01*
X2732482Y2784639D01*
X2746772Y2798929D01*
X2754506Y2817601D01*
Y2837810D01*
X2746772Y2856481D01*
X2732482Y2870771D01*
X2713811Y2878505D01*
X2712644D01*
X2702707Y2891419D01*
X2696858Y2903906D01*
X2702900Y2926453D01*
Y2953547D01*
X2695887Y2979718D01*
X2682340Y3003182D01*
X2663182Y3022340D01*
X2639718Y3035888D01*
X2613547Y3042900D01*
D02*
G37*
G36*
X2440105Y2750800D02*
X2419895D01*
X2401224Y2743066D01*
X2386934Y2728776D01*
X2379200Y2710105D01*
Y2689895D01*
X2386934Y2671224D01*
X2401224Y2656934D01*
X2419895Y2649200D01*
X2440105D01*
X2458776Y2656934D01*
X2473066Y2671224D01*
X2480800Y2689895D01*
Y2710105D01*
X2473066Y2728776D01*
X2458776Y2743066D01*
X2440105Y2750800D01*
D02*
G37*
G36*
X3670105Y2740800D02*
X3649895D01*
X3631224Y2733066D01*
X3616934Y2718776D01*
X3609200Y2700105D01*
Y2679895D01*
X3616934Y2661224D01*
X3631224Y2646934D01*
X3649895Y2639200D01*
X3670105D01*
X3688776Y2646934D01*
X3703066Y2661224D01*
X3710800Y2679895D01*
Y2700105D01*
X3703066Y2718776D01*
X3688776Y2733066D01*
X3670105Y2740800D01*
D02*
G37*
G36*
X5432672Y2723367D02*
X5412463D01*
X5393791Y2715633D01*
X5379501Y2701343D01*
X5371767Y2682672D01*
Y2662463D01*
X5379501Y2643791D01*
X5393791Y2629501D01*
X5412463Y2621767D01*
X5432672D01*
X5451343Y2629501D01*
X5465633Y2643791D01*
X5473367Y2662463D01*
Y2682672D01*
X5465633Y2701343D01*
X5451343Y2715633D01*
X5432672Y2723367D01*
D02*
G37*
G36*
X4915704Y2715399D02*
X4895494D01*
X4876823Y2707665D01*
X4862533Y2693375D01*
X4854799Y2674704D01*
Y2654494D01*
X4862533Y2635823D01*
X4876823Y2621533D01*
X4895494Y2613799D01*
X4915704D01*
X4934375Y2621533D01*
X4948665Y2635823D01*
X4956399Y2654494D01*
Y2674704D01*
X4948665Y2693375D01*
X4934375Y2707665D01*
X4915704Y2715399D01*
D02*
G37*
G36*
X242500Y2710000D02*
X82500D01*
Y2545000D01*
X242500D01*
Y2581399D01*
X267900Y2591668D01*
X274929Y2584639D01*
X293600Y2576905D01*
X313809D01*
X332481Y2584639D01*
X336099Y2588257D01*
X363770Y2586272D01*
X366183Y2584475D01*
X378724Y2571934D01*
X397395Y2564200D01*
X417605D01*
X436276Y2571934D01*
X450566Y2586224D01*
X458300Y2604895D01*
Y2625105D01*
X450566Y2643776D01*
X436276Y2658066D01*
X417605Y2665800D01*
X397395D01*
X378724Y2658066D01*
X375106Y2654448D01*
X347435Y2656434D01*
X345021Y2658231D01*
X332481Y2670771D01*
X313809Y2678505D01*
X293600D01*
X274929Y2670771D01*
X267900Y2663742D01*
X242500Y2674012D01*
Y2710000D01*
D02*
G37*
G36*
X113809Y2478505D02*
X93600D01*
X74929Y2470771D01*
X60638Y2456481D01*
X52905Y2437810D01*
Y2417600D01*
X60638Y2398929D01*
X74929Y2384639D01*
X93600Y2376905D01*
X113809D01*
X132481Y2384639D01*
X146771Y2398929D01*
X154505Y2417600D01*
Y2437810D01*
X146771Y2456481D01*
X132481Y2470771D01*
X113809Y2478505D01*
D02*
G37*
G36*
X1070105Y2350800D02*
X1049895D01*
X1031224Y2343066D01*
X1016934Y2328776D01*
X1009200Y2310105D01*
Y2289895D01*
X1016934Y2271224D01*
X1031224Y2256934D01*
X1049895Y2249200D01*
X1070105D01*
X1088776Y2256934D01*
X1103066Y2271224D01*
X1110800Y2289895D01*
Y2310105D01*
X1103066Y2328776D01*
X1088776Y2343066D01*
X1070105Y2350800D01*
D02*
G37*
G36*
X3670105Y2330800D02*
X3649895D01*
X3631224Y2323066D01*
X3616934Y2308776D01*
X3609200Y2290105D01*
Y2269895D01*
X3616934Y2251224D01*
X3631224Y2236934D01*
X3649895Y2229200D01*
X3670105D01*
X3688776Y2236934D01*
X3703066Y2251224D01*
X3710800Y2269895D01*
Y2290105D01*
X3703066Y2308776D01*
X3688776Y2323066D01*
X3670105Y2330800D01*
D02*
G37*
G36*
X5513812Y2278505D02*
X5493603D01*
X5474932Y2270771D01*
X5460641Y2256481D01*
X5452908Y2237810D01*
Y2217600D01*
X5460641Y2198929D01*
X5474932Y2184639D01*
X5493603Y2176905D01*
X5513812D01*
X5532483Y2184639D01*
X5546774Y2198929D01*
X5554508Y2217600D01*
Y2237810D01*
X5546774Y2256481D01*
X5532483Y2270771D01*
X5513812Y2278505D01*
D02*
G37*
G36*
X113809D02*
X93600D01*
X74929Y2270771D01*
X60638Y2256481D01*
X52905Y2237810D01*
Y2217600D01*
X60638Y2198929D01*
X74929Y2184639D01*
X93600Y2176905D01*
X113809D01*
X132481Y2184639D01*
X146771Y2198929D01*
X154505Y2217600D01*
Y2237810D01*
X146771Y2256481D01*
X132481Y2270771D01*
X113809Y2278505D01*
D02*
G37*
G36*
X1390105Y2270800D02*
X1369895D01*
X1351224Y2263066D01*
X1336934Y2248776D01*
X1329200Y2230105D01*
Y2209895D01*
X1336934Y2191224D01*
X1351224Y2176934D01*
X1369895Y2169200D01*
X1390105D01*
X1408776Y2176934D01*
X1423066Y2191224D01*
X1430800Y2209895D01*
Y2230105D01*
X1423066Y2248776D01*
X1408776Y2263066D01*
X1390105Y2270800D01*
D02*
G37*
G36*
X890105Y2230800D02*
X869895D01*
X851224Y2223066D01*
X836934Y2208776D01*
X829200Y2190105D01*
Y2169895D01*
X836934Y2151224D01*
X851224Y2136934D01*
X869895Y2129200D01*
X890105D01*
X908776Y2136934D01*
X923066Y2151224D01*
X930800Y2169895D01*
Y2190105D01*
X923066Y2208776D01*
X908776Y2223066D01*
X890105Y2230800D01*
D02*
G37*
G36*
X1572605Y2200800D02*
X1552395D01*
X1533724Y2193066D01*
X1519434Y2178776D01*
X1511700Y2160105D01*
Y2139895D01*
X1519434Y2121224D01*
X1533724Y2106934D01*
X1552395Y2099200D01*
X1572605D01*
X1591276Y2106934D01*
X1605566Y2121224D01*
X1613300Y2139895D01*
Y2160105D01*
X1605566Y2178776D01*
X1591276Y2193066D01*
X1572605Y2200800D01*
D02*
G37*
G36*
X1090105D02*
X1069895D01*
X1051224Y2193066D01*
X1036934Y2178776D01*
X1029200Y2160105D01*
Y2139895D01*
X1036934Y2121224D01*
X1051224Y2106934D01*
X1069895Y2099200D01*
X1090105D01*
X1108776Y2106934D01*
X1123066Y2121224D01*
X1130800Y2139895D01*
Y2160105D01*
X1123066Y2178776D01*
X1108776Y2193066D01*
X1090105Y2200800D01*
D02*
G37*
G36*
X560105Y2320800D02*
X539895D01*
X521224Y2313066D01*
X506934Y2298776D01*
X499200Y2280105D01*
Y2259895D01*
X506934Y2241224D01*
X513158Y2235000D01*
X506934Y2228776D01*
X499200Y2210105D01*
Y2189895D01*
X506934Y2171224D01*
X511589Y2166568D01*
X518381Y2150000D01*
X511589Y2133432D01*
X506934Y2128776D01*
X499200Y2110105D01*
Y2089895D01*
X506934Y2071224D01*
X521224Y2056934D01*
X539895Y2049200D01*
X560105D01*
X578776Y2056934D01*
X593066Y2071224D01*
X600800Y2089895D01*
Y2110105D01*
X593066Y2128776D01*
X588411Y2133432D01*
X581618Y2150000D01*
X588411Y2166568D01*
X593066Y2171224D01*
X600800Y2189895D01*
Y2210105D01*
X593066Y2228776D01*
X586842Y2235000D01*
X593066Y2241224D01*
X600800Y2259895D01*
Y2280105D01*
X593066Y2298776D01*
X578776Y2313066D01*
X560105Y2320800D01*
D02*
G37*
G36*
X5513812Y2078505D02*
X5493603D01*
X5474932Y2070771D01*
X5460641Y2056481D01*
X5452908Y2037809D01*
Y2017600D01*
X5460641Y1998929D01*
X5474932Y1984639D01*
X5493603Y1976905D01*
X5513812D01*
X5532483Y1984639D01*
X5546774Y1998929D01*
X5554508Y2017600D01*
Y2037809D01*
X5546774Y2056481D01*
X5532483Y2070771D01*
X5513812Y2078505D01*
D02*
G37*
G36*
X4113811D02*
X4093602D01*
X4074931Y2070771D01*
X4060641Y2056481D01*
X4052907Y2037809D01*
Y2017600D01*
X4060641Y1998929D01*
X4074931Y1984639D01*
X4093602Y1976905D01*
X4113811D01*
X4132483Y1984639D01*
X4146773Y1998929D01*
X4154507Y2017600D01*
Y2037809D01*
X4146773Y2056481D01*
X4132483Y2070771D01*
X4113811Y2078505D01*
D02*
G37*
G36*
X3913811D02*
X3893602D01*
X3874931Y2070771D01*
X3860640Y2056481D01*
X3852907Y2037809D01*
Y2017600D01*
X3860640Y1998929D01*
X3874931Y1984639D01*
X3893602Y1976905D01*
X3913811D01*
X3932483Y1984639D01*
X3946773Y1998929D01*
X3954507Y2017600D01*
Y2037809D01*
X3946773Y2056481D01*
X3932483Y2070771D01*
X3913811Y2078505D01*
D02*
G37*
G36*
X3713811D02*
X3693602D01*
X3674931Y2070771D01*
X3660640Y2056481D01*
X3652907Y2037809D01*
Y2017600D01*
X3660640Y1998929D01*
X3674931Y1984639D01*
X3693602Y1976905D01*
X3713811D01*
X3732483Y1984639D01*
X3746773Y1998929D01*
X3754507Y2017600D01*
Y2037809D01*
X3746773Y2056481D01*
X3732483Y2070771D01*
X3713811Y2078505D01*
D02*
G37*
G36*
X3513811D02*
X3493602D01*
X3474931Y2070771D01*
X3460640Y2056481D01*
X3452906Y2037809D01*
Y2017600D01*
X3460640Y1998929D01*
X3474931Y1984639D01*
X3493602Y1976905D01*
X3513811D01*
X3532482Y1984639D01*
X3546773Y1998929D01*
X3554506Y2017600D01*
Y2037809D01*
X3546773Y2056481D01*
X3532482Y2070771D01*
X3513811Y2078505D01*
D02*
G37*
G36*
X3313811D02*
X3293602D01*
X3274930Y2070771D01*
X3260640Y2056481D01*
X3252906Y2037809D01*
Y2017600D01*
X3260640Y1998929D01*
X3274930Y1984639D01*
X3293602Y1976905D01*
X3313811D01*
X3332482Y1984639D01*
X3346773Y1998929D01*
X3354506Y2017600D01*
Y2037809D01*
X3346773Y2056481D01*
X3332482Y2070771D01*
X3313811Y2078505D01*
D02*
G37*
G36*
X2913811D02*
X2893602D01*
X2874930Y2070771D01*
X2860640Y2056481D01*
X2852906Y2037809D01*
Y2017600D01*
X2860640Y1998929D01*
X2874930Y1984639D01*
X2893602Y1976905D01*
X2913811D01*
X2932482Y1984639D01*
X2946772Y1998929D01*
X2954506Y2017600D01*
Y2037809D01*
X2946772Y2056481D01*
X2932482Y2070771D01*
X2913811Y2078505D01*
D02*
G37*
G36*
X113809D02*
X93600D01*
X74929Y2070771D01*
X60638Y2056481D01*
X52905Y2037809D01*
Y2017600D01*
X60638Y1998929D01*
X74929Y1984639D01*
X93600Y1976905D01*
X113809D01*
X132481Y1984639D01*
X146771Y1998929D01*
X154505Y2017600D01*
Y2037809D01*
X146771Y2056481D01*
X132481Y2070771D01*
X113809Y2078505D01*
D02*
G37*
G36*
X1394605Y2078300D02*
X1374395D01*
X1355724Y2070566D01*
X1341434Y2056276D01*
X1333700Y2037605D01*
Y2017395D01*
X1341434Y1998724D01*
X1355724Y1984434D01*
X1374395Y1976700D01*
X1394605D01*
X1413276Y1984434D01*
X1427566Y1998724D01*
X1435300Y2017395D01*
Y2037605D01*
X1427566Y2056276D01*
X1413276Y2070566D01*
X1394605Y2078300D01*
D02*
G37*
G36*
X3113811Y2078505D02*
X3093602D01*
X3074930Y2070771D01*
X3060640Y2056481D01*
X3052906Y2037809D01*
Y2017600D01*
X3060640Y1998929D01*
X3074930Y1984639D01*
X3088002Y1979224D01*
X3091415Y1957868D01*
X3090817Y1952659D01*
X3076934Y1938776D01*
X3069200Y1920104D01*
Y1899895D01*
X3076934Y1881224D01*
X3091224Y1866934D01*
X3109895Y1859200D01*
X3130104D01*
X3148776Y1866934D01*
X3163066Y1881224D01*
X3170800Y1899895D01*
Y1920104D01*
X3163066Y1938776D01*
X3148776Y1953066D01*
X3135704Y1958480D01*
X3132760Y1976905D01*
X3132291Y1979836D01*
X3132890Y1985046D01*
X3146772Y1998929D01*
X3154506Y2017600D01*
Y2037809D01*
X3146772Y2056481D01*
X3132482Y2070771D01*
X3113811Y2078505D01*
D02*
G37*
G36*
X1394605Y1928300D02*
X1374395D01*
X1355724Y1920566D01*
X1341434Y1906276D01*
X1333700Y1887605D01*
Y1867395D01*
X1341434Y1848724D01*
X1355724Y1834434D01*
X1374395Y1826700D01*
X1394605D01*
X1413276Y1834434D01*
X1427566Y1848724D01*
X1435300Y1867395D01*
Y1887605D01*
X1427566Y1906276D01*
X1413276Y1920566D01*
X1394605Y1928300D01*
D02*
G37*
G36*
X4113811Y1878505D02*
X4093602D01*
X4074931Y1870771D01*
X4060641Y1856481D01*
X4052907Y1837809D01*
Y1817600D01*
X4060641Y1798929D01*
X4074931Y1784639D01*
X4093602Y1776905D01*
X4113811D01*
X4132483Y1784639D01*
X4146773Y1798929D01*
X4154507Y1817600D01*
Y1837809D01*
X4146773Y1856481D01*
X4132483Y1870771D01*
X4113811Y1878505D01*
D02*
G37*
G36*
X3913811D02*
X3893602D01*
X3874931Y1870771D01*
X3860640Y1856481D01*
X3852907Y1837809D01*
Y1817600D01*
X3860640Y1798929D01*
X3874931Y1784639D01*
X3893602Y1776905D01*
X3913811D01*
X3932483Y1784639D01*
X3946773Y1798929D01*
X3954507Y1817600D01*
Y1837809D01*
X3946773Y1856481D01*
X3932483Y1870771D01*
X3913811Y1878505D01*
D02*
G37*
G36*
X3713811D02*
X3693602D01*
X3674931Y1870771D01*
X3660640Y1856481D01*
X3652907Y1837809D01*
Y1817600D01*
X3660640Y1798929D01*
X3674931Y1784639D01*
X3693602Y1776905D01*
X3713811D01*
X3732483Y1784639D01*
X3746773Y1798929D01*
X3754507Y1817600D01*
Y1837809D01*
X3746773Y1856481D01*
X3732483Y1870771D01*
X3713811Y1878505D01*
D02*
G37*
G36*
X3513811D02*
X3493602D01*
X3474931Y1870771D01*
X3460640Y1856481D01*
X3452906Y1837809D01*
Y1817600D01*
X3460640Y1798929D01*
X3474931Y1784639D01*
X3493602Y1776905D01*
X3513811D01*
X3532482Y1784639D01*
X3546773Y1798929D01*
X3554506Y1817600D01*
Y1837809D01*
X3546773Y1856481D01*
X3532482Y1870771D01*
X3513811Y1878505D01*
D02*
G37*
G36*
X113809D02*
X93600D01*
X74929Y1870771D01*
X60638Y1856481D01*
X52905Y1837809D01*
Y1817600D01*
X60638Y1798929D01*
X74929Y1784639D01*
X93600Y1776905D01*
X113809D01*
X132481Y1784639D01*
X146771Y1798929D01*
X154505Y1817600D01*
Y1837809D01*
X146771Y1856481D01*
X132481Y1870771D01*
X113809Y1878505D01*
D02*
G37*
G36*
X2915105Y1855800D02*
X2894895D01*
X2876224Y1848066D01*
X2861934Y1833776D01*
X2854200Y1815105D01*
Y1794895D01*
X2861934Y1776224D01*
X2876224Y1761934D01*
X2894895Y1754200D01*
X2915105D01*
X2933776Y1761934D01*
X2948066Y1776224D01*
X2955800Y1794895D01*
Y1815105D01*
X2948066Y1833776D01*
X2933776Y1848066D01*
X2915105Y1855800D01*
D02*
G37*
G36*
X4113811Y1678505D02*
X4093602D01*
X4074931Y1670771D01*
X4060641Y1656481D01*
X4052907Y1637809D01*
Y1617600D01*
X4060641Y1598929D01*
X4074931Y1584638D01*
X4093602Y1576905D01*
X4113811D01*
X4132483Y1584638D01*
X4146773Y1598929D01*
X4154507Y1617600D01*
Y1637809D01*
X4146773Y1656481D01*
X4132483Y1670771D01*
X4113811Y1678505D01*
D02*
G37*
G36*
X3913811D02*
X3893602D01*
X3874931Y1670771D01*
X3860640Y1656481D01*
X3852907Y1637809D01*
Y1617600D01*
X3860640Y1598929D01*
X3874931Y1584638D01*
X3893602Y1576905D01*
X3913811D01*
X3932483Y1584638D01*
X3946773Y1598929D01*
X3954507Y1617600D01*
Y1637809D01*
X3946773Y1656481D01*
X3932483Y1670771D01*
X3913811Y1678505D01*
D02*
G37*
G36*
X3713811D02*
X3693602D01*
X3674931Y1670771D01*
X3660640Y1656481D01*
X3652907Y1637809D01*
Y1617600D01*
X3660640Y1598929D01*
X3674931Y1584638D01*
X3693602Y1576905D01*
X3713811D01*
X3732483Y1584638D01*
X3746773Y1598929D01*
X3754507Y1617600D01*
Y1637809D01*
X3746773Y1656481D01*
X3732483Y1670771D01*
X3713811Y1678505D01*
D02*
G37*
G36*
X3513811D02*
X3493602D01*
X3474931Y1670771D01*
X3460640Y1656481D01*
X3452906Y1637809D01*
Y1617600D01*
X3460640Y1598929D01*
X3474931Y1584638D01*
X3493602Y1576905D01*
X3513811D01*
X3532482Y1584638D01*
X3546773Y1598929D01*
X3554506Y1617600D01*
Y1637809D01*
X3546773Y1656481D01*
X3532482Y1670771D01*
X3513811Y1678505D01*
D02*
G37*
G36*
X2913811D02*
X2893602D01*
X2874930Y1670771D01*
X2860640Y1656481D01*
X2852906Y1637809D01*
Y1617600D01*
X2860640Y1598929D01*
X2874930Y1584638D01*
X2893602Y1576905D01*
X2913811D01*
X2932482Y1584638D01*
X2946772Y1598929D01*
X2954506Y1617600D01*
Y1637809D01*
X2946772Y1656481D01*
X2932482Y1670771D01*
X2913811Y1678505D01*
D02*
G37*
G36*
X113809D02*
X93600D01*
X74929Y1670771D01*
X60638Y1656481D01*
X52905Y1637809D01*
Y1617600D01*
X60638Y1598929D01*
X74929Y1584638D01*
X93600Y1576905D01*
X113809D01*
X132481Y1584638D01*
X146771Y1598929D01*
X154505Y1617600D01*
Y1637809D01*
X146771Y1656481D01*
X132481Y1670771D01*
X113809Y1678505D01*
D02*
G37*
G36*
X1990104Y1710800D02*
X1969895D01*
X1951224Y1703066D01*
X1936934Y1688776D01*
X1929200Y1670105D01*
Y1649895D01*
X1929895Y1630800D01*
X1911224Y1623066D01*
X1896934Y1608776D01*
X1889200Y1590105D01*
Y1569895D01*
X1896934Y1551224D01*
X1911224Y1536934D01*
X1929895Y1529200D01*
X1950105D01*
X1968776Y1536934D01*
X1983066Y1551224D01*
X1990800Y1569895D01*
Y1590105D01*
X1990105Y1609200D01*
X2008776Y1616934D01*
X2023066Y1631224D01*
X2030800Y1649895D01*
Y1670105D01*
X2023066Y1688776D01*
X2008776Y1703066D01*
X1990104Y1710800D01*
D02*
G37*
G36*
X3070105Y1510800D02*
X3049896D01*
X3031224Y1503066D01*
X3016934Y1488776D01*
X3009200Y1470105D01*
Y1449895D01*
X3016934Y1431224D01*
X3031224Y1416934D01*
X3049896Y1409200D01*
X3070105D01*
X3088776Y1416934D01*
X3103066Y1431224D01*
X3110800Y1449895D01*
Y1470105D01*
X3103066Y1488776D01*
X3088776Y1503066D01*
X3070105Y1510800D01*
D02*
G37*
G36*
X4113811Y1478505D02*
X4093602D01*
X4074931Y1470771D01*
X4060641Y1456480D01*
X4052907Y1437809D01*
Y1417600D01*
X4060641Y1398929D01*
X4074931Y1384638D01*
X4093602Y1376905D01*
X4113811D01*
X4132483Y1384638D01*
X4146773Y1398929D01*
X4154507Y1417600D01*
Y1437809D01*
X4146773Y1456480D01*
X4132483Y1470771D01*
X4113811Y1478505D01*
D02*
G37*
G36*
X3913811D02*
X3893602D01*
X3874931Y1470771D01*
X3860640Y1456480D01*
X3852907Y1437809D01*
Y1417600D01*
X3860640Y1398929D01*
X3874931Y1384638D01*
X3893602Y1376905D01*
X3913811D01*
X3932483Y1384638D01*
X3946773Y1398929D01*
X3954507Y1417600D01*
Y1437809D01*
X3946773Y1456480D01*
X3932483Y1470771D01*
X3913811Y1478505D01*
D02*
G37*
G36*
X3713811D02*
X3693602D01*
X3674931Y1470771D01*
X3660640Y1456480D01*
X3652907Y1437809D01*
Y1417600D01*
X3660640Y1398929D01*
X3674931Y1384638D01*
X3693602Y1376905D01*
X3713811D01*
X3732483Y1384638D01*
X3746773Y1398929D01*
X3754507Y1417600D01*
Y1437809D01*
X3746773Y1456480D01*
X3732483Y1470771D01*
X3713811Y1478505D01*
D02*
G37*
G36*
X2513811D02*
X2493601D01*
X2474930Y1470771D01*
X2460640Y1456480D01*
X2452906Y1437809D01*
Y1417600D01*
X2460640Y1398929D01*
X2474930Y1384638D01*
X2493601Y1376905D01*
X2513811D01*
X2532482Y1384638D01*
X2546772Y1398929D01*
X2554506Y1417600D01*
Y1437809D01*
X2546772Y1456480D01*
X2532482Y1470771D01*
X2513811Y1478505D01*
D02*
G37*
G36*
X1913810D02*
X1893601D01*
X1874930Y1470771D01*
X1860639Y1456480D01*
X1852906Y1437809D01*
Y1417600D01*
X1860639Y1398929D01*
X1874930Y1384638D01*
X1893601Y1376905D01*
X1913810D01*
X1932482Y1384638D01*
X1946772Y1398929D01*
X1954506Y1417600D01*
Y1437809D01*
X1946772Y1456480D01*
X1932482Y1470771D01*
X1913810Y1478505D01*
D02*
G37*
G36*
X1772605Y1585800D02*
X1752395D01*
X1733724Y1578066D01*
X1719434Y1563776D01*
X1711700Y1545105D01*
Y1524895D01*
X1719434Y1506224D01*
X1723797Y1501861D01*
X1716650Y1485147D01*
X1711232Y1478505D01*
X1693601D01*
X1674930Y1470771D01*
X1660639Y1456480D01*
X1652906Y1437809D01*
Y1417600D01*
X1660639Y1398929D01*
X1674930Y1384638D01*
X1693601Y1376905D01*
X1713810D01*
X1732481Y1384638D01*
X1746772Y1398929D01*
X1754506Y1417600D01*
Y1437809D01*
X1746772Y1456480D01*
X1742408Y1460844D01*
X1749555Y1477558D01*
X1754973Y1484200D01*
X1772605D01*
X1791276Y1491934D01*
X1805566Y1506224D01*
X1813300Y1524895D01*
Y1545105D01*
X1805566Y1563776D01*
X1791276Y1578066D01*
X1772605Y1585800D01*
D02*
G37*
G36*
X1513810Y1478505D02*
X1493601D01*
X1474929Y1470771D01*
X1460639Y1456480D01*
X1452905Y1437809D01*
Y1417600D01*
X1460639Y1398929D01*
X1474929Y1384638D01*
X1493601Y1376905D01*
X1513810D01*
X1532481Y1384638D01*
X1546772Y1398929D01*
X1554505Y1417600D01*
Y1437809D01*
X1546772Y1456480D01*
X1532481Y1470771D01*
X1513810Y1478505D01*
D02*
G37*
G36*
X113809D02*
X93600D01*
X74929Y1470771D01*
X60638Y1456480D01*
X52905Y1437809D01*
Y1417600D01*
X60638Y1398929D01*
X74929Y1384638D01*
X93600Y1376905D01*
X113809D01*
X132481Y1384638D01*
X146771Y1398929D01*
X154505Y1417600D01*
Y1437809D01*
X146771Y1456480D01*
X132481Y1470771D01*
X113809Y1478505D01*
D02*
G37*
G36*
X2925105Y1475800D02*
X2904895D01*
X2886224Y1468066D01*
X2871934Y1453776D01*
X2864200Y1435105D01*
Y1414895D01*
X2871934Y1396224D01*
X2886224Y1381934D01*
X2904895Y1374200D01*
X2925105D01*
X2943776Y1381934D01*
X2958066Y1396224D01*
X2965800Y1414895D01*
Y1435105D01*
X2958066Y1453776D01*
X2943776Y1468066D01*
X2925105Y1475800D01*
D02*
G37*
G36*
X550105Y1950800D02*
X529895D01*
X511224Y1943066D01*
X496934Y1928776D01*
X489200Y1910105D01*
Y1889895D01*
X496934Y1871224D01*
X501590Y1866568D01*
X508382Y1850000D01*
X501590Y1833432D01*
X496934Y1828776D01*
X489200Y1810105D01*
Y1789895D01*
X496934Y1771224D01*
X501589Y1766568D01*
X508381Y1750000D01*
X501589Y1733432D01*
X496933Y1728776D01*
X489200Y1710105D01*
Y1689896D01*
X496933Y1671224D01*
X501589Y1666568D01*
X508381Y1650000D01*
X501589Y1633432D01*
X496933Y1628776D01*
X489200Y1610105D01*
Y1589895D01*
X496933Y1571224D01*
X511224Y1556934D01*
X529895Y1549200D01*
X550104D01*
X552379Y1550142D01*
X566677Y1529153D01*
X566885Y1528658D01*
X559200Y1510105D01*
Y1489895D01*
X566934Y1471224D01*
X581224Y1456934D01*
X599895Y1449200D01*
X619200Y1430104D01*
Y1409895D01*
X626934Y1391224D01*
X641224Y1376934D01*
X645678Y1375089D01*
X646934Y1368776D01*
X639200Y1350104D01*
Y1329895D01*
X646934Y1311224D01*
X661224Y1296934D01*
X679895Y1289200D01*
X700105D01*
X718776Y1296934D01*
X733066Y1311224D01*
X740800Y1329895D01*
Y1350104D01*
X733066Y1368776D01*
X718776Y1383066D01*
X714322Y1384911D01*
X713066Y1391224D01*
X720800Y1409895D01*
Y1430105D01*
X713066Y1448776D01*
X698776Y1463066D01*
X680105Y1470800D01*
X660800Y1489896D01*
Y1510105D01*
X653066Y1528776D01*
X638776Y1543066D01*
X620104Y1550800D01*
X599895D01*
X597621Y1549858D01*
X583323Y1570848D01*
X583115Y1571342D01*
X590800Y1589895D01*
Y1610105D01*
X583066Y1628776D01*
X578410Y1633432D01*
X571618Y1650000D01*
X578410Y1666568D01*
X583066Y1671224D01*
X590800Y1689896D01*
Y1710105D01*
X583066Y1728776D01*
X578410Y1733432D01*
X571618Y1750000D01*
X578411Y1766568D01*
X583066Y1771224D01*
X590800Y1789895D01*
Y1810105D01*
X583066Y1828776D01*
X578410Y1833432D01*
X571618Y1850000D01*
X578410Y1866568D01*
X583066Y1871224D01*
X590800Y1889895D01*
Y1910105D01*
X583066Y1928776D01*
X568776Y1943066D01*
X550105Y1950800D01*
D02*
G37*
G36*
X1450105Y1300800D02*
X1429895D01*
X1411224Y1293066D01*
X1396934Y1278776D01*
X1389200Y1260105D01*
Y1239895D01*
X1396934Y1221224D01*
X1411224Y1206934D01*
X1429895Y1199200D01*
X1450105D01*
X1468776Y1206934D01*
X1483066Y1221224D01*
X1490800Y1239895D01*
Y1260105D01*
X1483066Y1278776D01*
X1468776Y1293066D01*
X1450105Y1300800D01*
D02*
G37*
G36*
X4113811Y1278504D02*
X4093602D01*
X4074931Y1270771D01*
X4060641Y1256480D01*
X4052907Y1237809D01*
Y1217600D01*
X4060641Y1198929D01*
X4074931Y1184638D01*
X4093602Y1176904D01*
X4113811D01*
X4132483Y1184638D01*
X4146773Y1198929D01*
X4154507Y1217600D01*
Y1237809D01*
X4146773Y1256480D01*
X4132483Y1270771D01*
X4113811Y1278504D01*
D02*
G37*
G36*
X3913811D02*
X3893602D01*
X3874931Y1270771D01*
X3860640Y1256480D01*
X3852907Y1237809D01*
Y1217600D01*
X3860640Y1198929D01*
X3874931Y1184638D01*
X3893602Y1176904D01*
X3913811D01*
X3932483Y1184638D01*
X3946773Y1198929D01*
X3954507Y1217600D01*
Y1237809D01*
X3946773Y1256480D01*
X3932483Y1270771D01*
X3913811Y1278504D01*
D02*
G37*
G36*
X3513811D02*
X3493602D01*
X3474931Y1270771D01*
X3460640Y1256480D01*
X3452906Y1237809D01*
Y1217600D01*
X3460640Y1198929D01*
X3474931Y1184638D01*
X3493602Y1176904D01*
X3513811D01*
X3532482Y1184638D01*
X3546773Y1198929D01*
X3554506Y1217600D01*
Y1237809D01*
X3546773Y1256480D01*
X3532482Y1270771D01*
X3513811Y1278504D01*
D02*
G37*
G36*
X1913810D02*
X1893601D01*
X1874930Y1270771D01*
X1860639Y1256480D01*
X1852906Y1237809D01*
Y1217600D01*
X1860639Y1198929D01*
X1874930Y1184638D01*
X1893601Y1176904D01*
X1913810D01*
X1932482Y1184638D01*
X1946772Y1198929D01*
X1954506Y1217600D01*
Y1237809D01*
X1946772Y1256480D01*
X1932482Y1270771D01*
X1913810Y1278504D01*
D02*
G37*
G36*
X1713810D02*
X1693601D01*
X1674930Y1270771D01*
X1660639Y1256480D01*
X1652906Y1237809D01*
Y1217600D01*
X1660639Y1198929D01*
X1674930Y1184638D01*
X1693601Y1176904D01*
X1713810D01*
X1732481Y1184638D01*
X1746772Y1198929D01*
X1754506Y1217600D01*
Y1237809D01*
X1746772Y1256480D01*
X1732481Y1270771D01*
X1713810Y1278504D01*
D02*
G37*
G36*
X113809D02*
X93600D01*
X74929Y1270771D01*
X60638Y1256480D01*
X52905Y1237809D01*
Y1217600D01*
X60638Y1198929D01*
X74929Y1184638D01*
X93600Y1176904D01*
X113809D01*
X132481Y1184638D01*
X146771Y1198929D01*
X154505Y1217600D01*
Y1237809D01*
X146771Y1256480D01*
X132481Y1270771D01*
X113809Y1278504D01*
D02*
G37*
G36*
X2913811D02*
X2893602D01*
X2874930Y1270771D01*
X2860640Y1256480D01*
X2852906Y1237809D01*
Y1217600D01*
X2854425Y1213934D01*
X2858410Y1197083D01*
X2841725Y1183273D01*
X2841224Y1183066D01*
X2826934Y1168776D01*
X2819200Y1150104D01*
Y1129895D01*
X2826934Y1111224D01*
X2841224Y1096934D01*
X2859896Y1089200D01*
X2880105D01*
X2898776Y1096934D01*
X2913067Y1111224D01*
X2920800Y1129895D01*
Y1150104D01*
X2919282Y1153770D01*
X2915297Y1170621D01*
X2931982Y1184431D01*
X2932482Y1184638D01*
X2946772Y1198929D01*
X2954506Y1217600D01*
Y1237809D01*
X2946772Y1256480D01*
X2932482Y1270771D01*
X2913811Y1278504D01*
D02*
G37*
G36*
X5513812Y1078504D02*
X5493603D01*
X5474932Y1070771D01*
X5460641Y1056480D01*
X5452908Y1037809D01*
Y1017600D01*
X5460641Y998928D01*
X5474932Y984638D01*
X5493603Y976904D01*
X5513812D01*
X5532483Y984638D01*
X5546774Y998928D01*
X5554508Y1017600D01*
Y1037809D01*
X5546774Y1056480D01*
X5532483Y1070771D01*
X5513812Y1078504D01*
D02*
G37*
G36*
X4113811D02*
X4093602D01*
X4074931Y1070771D01*
X4060641Y1056480D01*
X4052907Y1037809D01*
Y1017600D01*
X4060641Y998928D01*
X4074931Y984638D01*
X4093602Y976904D01*
X4113811D01*
X4132483Y984638D01*
X4146773Y998928D01*
X4154507Y1017600D01*
Y1037809D01*
X4146773Y1056480D01*
X4132483Y1070771D01*
X4113811Y1078504D01*
D02*
G37*
G36*
X3713811D02*
X3693602D01*
X3674931Y1070771D01*
X3660640Y1056480D01*
X3652907Y1037809D01*
Y1017600D01*
X3660640Y998928D01*
X3674931Y984638D01*
X3693602Y976904D01*
X3713811D01*
X3732483Y984638D01*
X3746773Y998928D01*
X3754507Y1017600D01*
Y1037809D01*
X3746773Y1056480D01*
X3732483Y1070771D01*
X3713811Y1078504D01*
D02*
G37*
G36*
X1113810D02*
X1093601D01*
X1074929Y1070771D01*
X1060639Y1056480D01*
X1052905Y1037809D01*
Y1017600D01*
X1060639Y998928D01*
X1074929Y984638D01*
X1093601Y976904D01*
X1113810D01*
X1132481Y984638D01*
X1146771Y998928D01*
X1154505Y1017600D01*
Y1037809D01*
X1146771Y1056480D01*
X1132481Y1070771D01*
X1113810Y1078504D01*
D02*
G37*
G36*
X113809D02*
X93600D01*
X74929Y1070771D01*
X60638Y1056480D01*
X52905Y1037809D01*
Y1017600D01*
X60638Y998928D01*
X74929Y984638D01*
X93600Y976904D01*
X113809D01*
X132481Y984638D01*
X146771Y998928D01*
X154505Y1017600D01*
Y1037809D01*
X146771Y1056480D01*
X132481Y1070771D01*
X113809Y1078504D01*
D02*
G37*
G36*
X2980104Y900801D02*
X2959895D01*
X2941223Y893067D01*
X2926933Y878777D01*
X2919199Y860105D01*
Y839896D01*
X2926933Y821225D01*
X2941223Y806934D01*
X2959895Y799201D01*
X2980104D01*
X2998775Y806934D01*
X3013066Y821225D01*
X3020799Y839896D01*
Y860105D01*
X3013066Y878777D01*
X2998775Y893067D01*
X2980104Y900801D01*
D02*
G37*
G36*
X3913811Y878504D02*
X3893602D01*
X3874931Y870770D01*
X3860640Y856480D01*
X3852907Y837809D01*
Y817600D01*
X3860640Y798928D01*
X3874931Y784638D01*
X3893602Y776904D01*
X3913811D01*
X3932483Y784638D01*
X3946773Y798928D01*
X3954507Y817600D01*
Y837809D01*
X3946773Y856480D01*
X3932483Y870770D01*
X3913811Y878504D01*
D02*
G37*
G36*
X113809D02*
X93600D01*
X74929Y870770D01*
X60638Y856480D01*
X52905Y837809D01*
Y817600D01*
X60638Y798928D01*
X74929Y784638D01*
X93600Y776904D01*
X113809D01*
X132481Y784638D01*
X146771Y798928D01*
X154505Y817600D01*
Y837809D01*
X146771Y856480D01*
X132481Y870770D01*
X113809Y878504D01*
D02*
G37*
G36*
X5295000Y2297500D02*
X4282500D01*
Y745000D01*
X5295000D01*
Y2297500D01*
D02*
G37*
G36*
X3145104Y825800D02*
X3124895D01*
X3106224Y818066D01*
X3091934Y803776D01*
X3084200Y785105D01*
Y764896D01*
X3091934Y746224D01*
X3106224Y731934D01*
X3124895Y724200D01*
X3145104D01*
X3163776Y731934D01*
X3178066Y746224D01*
X3185800Y764896D01*
Y785105D01*
X3178066Y803776D01*
X3163776Y818066D01*
X3145104Y825800D01*
D02*
G37*
G36*
X2398104Y808800D02*
X2377895D01*
X2359224Y801066D01*
X2344934Y786776D01*
X2337200Y768104D01*
Y747895D01*
X2344934Y729224D01*
X2359224Y714934D01*
X2377895Y707200D01*
X2398104D01*
X2416776Y714934D01*
X2431066Y729224D01*
X2438800Y747895D01*
Y768104D01*
X2431066Y786776D01*
X2416776Y801066D01*
X2398104Y808800D01*
D02*
G37*
G36*
X1113810Y878504D02*
X1093601D01*
X1074929Y870770D01*
X1060639Y856480D01*
X1052905Y837809D01*
Y817600D01*
X1060639Y798928D01*
X1074929Y784638D01*
X1067993Y760018D01*
X1067200Y758104D01*
Y737895D01*
X1074934Y719224D01*
X1089224Y704934D01*
X1107895Y697200D01*
X1128104D01*
X1146776Y704934D01*
X1161066Y719224D01*
X1168800Y737895D01*
Y758104D01*
X1161066Y776776D01*
X1146776Y791066D01*
X1153712Y815686D01*
X1154505Y817600D01*
Y837809D01*
X1146771Y856480D01*
X1132481Y870770D01*
X1113810Y878504D01*
D02*
G37*
G36*
X3513811D02*
X3493602D01*
X3474931Y870770D01*
X3460640Y856480D01*
X3452906Y837809D01*
Y817600D01*
X3460640Y798928D01*
X3474931Y784638D01*
X3493602Y776904D01*
X3499141D01*
X3509662Y751504D01*
X3506934Y748776D01*
X3499200Y730105D01*
Y709895D01*
X3506934Y691224D01*
X3521224Y676934D01*
X3539895Y669200D01*
X3560105D01*
X3578776Y676934D01*
X3593066Y691224D01*
X3600800Y709895D01*
Y730105D01*
X3593066Y748776D01*
X3578776Y763066D01*
X3560105Y770800D01*
X3554566D01*
X3544044Y796200D01*
X3546773Y798928D01*
X3554506Y817600D01*
Y837809D01*
X3546773Y856480D01*
X3532482Y870770D01*
X3513811Y878504D01*
D02*
G37*
G36*
X4830105Y710800D02*
X4809895D01*
X4791224Y703066D01*
X4776934Y688776D01*
X4769200Y670105D01*
Y649895D01*
X4776934Y631224D01*
X4791224Y616934D01*
X4809895Y609200D01*
X4830105D01*
X4848776Y616934D01*
X4863066Y631224D01*
X4870800Y649895D01*
Y670105D01*
X4863066Y688776D01*
X4848776Y703066D01*
X4830105Y710800D01*
D02*
G37*
G36*
X390104Y560800D02*
X369895D01*
X351224Y553066D01*
X336934Y538776D01*
X329200Y520105D01*
Y499896D01*
X336934Y481224D01*
X351224Y466934D01*
X369895Y459200D01*
X390104D01*
X408776Y466934D01*
X423066Y481224D01*
X430800Y499896D01*
Y520105D01*
X423066Y538776D01*
X408776Y553066D01*
X390104Y560800D01*
D02*
G37*
G36*
X113809Y678504D02*
X93600D01*
X74929Y670770D01*
X60638Y656480D01*
X52905Y637809D01*
Y617599D01*
X60638Y598928D01*
X74929Y584638D01*
X85160Y580400D01*
X82500Y555000D01*
X82500D01*
Y390000D01*
X242500D01*
Y555000D01*
X127301D01*
X122249Y580400D01*
X132481Y584638D01*
X146771Y598928D01*
X154505Y617599D01*
Y637809D01*
X146771Y656480D01*
X132481Y670770D01*
X113809Y678504D01*
D02*
G37*
G36*
X5050105Y490800D02*
X5029895D01*
X5011224Y483066D01*
X4996934Y468776D01*
X4989200Y450105D01*
Y429895D01*
X4996934Y411224D01*
X5011224Y396934D01*
X5029895Y389200D01*
X5050105D01*
X5068776Y396934D01*
X5083066Y411224D01*
X5090800Y429895D01*
Y450105D01*
X5083066Y468776D01*
X5068776Y483066D01*
X5050105Y490800D01*
D02*
G37*
G36*
X3770105Y420799D02*
X3749895D01*
X3731224Y413065D01*
X3716934Y398775D01*
X3709200Y380104D01*
Y359895D01*
X3716934Y341223D01*
X3731224Y326933D01*
X3749895Y319199D01*
X3770105D01*
X3788776Y326933D01*
X3803066Y341223D01*
X3810800Y359895D01*
Y380104D01*
X3803066Y398775D01*
X3788776Y413065D01*
X3770105Y420799D01*
D02*
G37*
G36*
X1270105Y400800D02*
X1249895D01*
X1231224Y393066D01*
X1216934Y378776D01*
X1209200Y360105D01*
Y339895D01*
X1216934Y321224D01*
X1231224Y306934D01*
X1249895Y299200D01*
X1270105D01*
X1288776Y306934D01*
X1303066Y321224D01*
X1310800Y339895D01*
Y360105D01*
X1303066Y378776D01*
X1288776Y393066D01*
X1270105Y400800D01*
D02*
G37*
G36*
X2398104Y390800D02*
X2377895D01*
X2359224Y383066D01*
X2344934Y368776D01*
X2337200Y350105D01*
Y329895D01*
X2344934Y311224D01*
X2359224Y296934D01*
X2377895Y289200D01*
X2398104D01*
X2416776Y296934D01*
X2431066Y311224D01*
X2438800Y329895D01*
Y350105D01*
X2431066Y368776D01*
X2416776Y383066D01*
X2398104Y390800D01*
D02*
G37*
G36*
X5713812Y278504D02*
X5693603D01*
X5674932Y270770D01*
X5660641Y256480D01*
X5652908Y237809D01*
X5651262Y236546D01*
X5627547Y242900D01*
X5600453D01*
X5579908Y237395D01*
X5571496Y237532D01*
X5549162Y250714D01*
X5546774Y256480D01*
X5532483Y270770D01*
X5513812Y278504D01*
X5493603D01*
X5474932Y270770D01*
X5460641Y256480D01*
X5455017Y242900D01*
X5257100D01*
Y37100D01*
X5462900D01*
Y163483D01*
X5488300Y179100D01*
X5493603Y176904D01*
X5511100Y153547D01*
Y126453D01*
X5518112Y100282D01*
X5531659Y76818D01*
X5550818Y57660D01*
X5574282Y44112D01*
X5600453Y37100D01*
X5627547D01*
X5653718Y44112D01*
X5677182Y57660D01*
X5696340Y76818D01*
X5709887Y100282D01*
X5716900Y126453D01*
Y153547D01*
X5711462Y173841D01*
X5713813Y176904D01*
X5732484Y184638D01*
X5746774Y198928D01*
X5754508Y217599D01*
Y237809D01*
X5746774Y256480D01*
X5732484Y270770D01*
X5713812Y278504D01*
D02*
G37*
G36*
X1513810D02*
X1493601D01*
X1474929Y270770D01*
X1460639Y256480D01*
X1455662Y244464D01*
X1435002Y233286D01*
X1427505Y231391D01*
X1419718Y235888D01*
X1393547Y242900D01*
X1366453D01*
X1340282Y235888D01*
X1316818Y222340D01*
X1297659Y203182D01*
X1284112Y179718D01*
X1277100Y153547D01*
Y126453D01*
X1284112Y100282D01*
X1297659Y76818D01*
X1316818Y57660D01*
X1340282Y44112D01*
X1366453Y37100D01*
X1393547D01*
X1419718Y44112D01*
X1443182Y57660D01*
X1462340Y76818D01*
X1475887Y100282D01*
X1482900Y126453D01*
Y147050D01*
X1502611Y167280D01*
X1510004Y166818D01*
X1531100Y153547D01*
Y126453D01*
X1538112Y100282D01*
X1551659Y76818D01*
X1570818Y57660D01*
X1594282Y44112D01*
X1620453Y37100D01*
X1647547D01*
X1673718Y44112D01*
X1697182Y57660D01*
X1716340Y76818D01*
X1729887Y100282D01*
X1736900Y126453D01*
Y153547D01*
X1729887Y179718D01*
X1716340Y203182D01*
X1697182Y222340D01*
X1673718Y235888D01*
X1647547Y242900D01*
X1620453D01*
X1594282Y235888D01*
X1579905Y227587D01*
X1557008Y236802D01*
X1556807Y236949D01*
X1553383Y240519D01*
X1546772Y256480D01*
X1532481Y270770D01*
X1513810Y278504D01*
D02*
G37*
G36*
X2313810D02*
X2293601D01*
X2274930Y270770D01*
X2260640Y256480D01*
X2252906Y237809D01*
Y217599D01*
X2260640Y198928D01*
X2274930Y184638D01*
X2293601Y176904D01*
X2313810D01*
X2332482Y184638D01*
X2346772Y198928D01*
X2354506Y217599D01*
Y237809D01*
X2346772Y256480D01*
X2332482Y270770D01*
X2313810Y278504D01*
D02*
G37*
G36*
X713810D02*
X693600D01*
X674929Y270770D01*
X660639Y256480D01*
X652905Y237809D01*
Y217599D01*
X660639Y198928D01*
X674929Y184638D01*
X693600Y176904D01*
X713810D01*
X732481Y184638D01*
X746771Y198928D01*
X754505Y217599D01*
Y237809D01*
X746771Y256480D01*
X732481Y270770D01*
X713810Y278504D01*
D02*
G37*
G36*
X513809D02*
X493600D01*
X474929Y270770D01*
X460639Y256480D01*
X452905Y237809D01*
Y217599D01*
X460639Y198928D01*
X474929Y184638D01*
X493600Y176904D01*
X513809D01*
X532481Y184638D01*
X546771Y198928D01*
X554505Y217599D01*
Y237809D01*
X546771Y256480D01*
X532481Y270770D01*
X513809Y278504D01*
D02*
G37*
G36*
X4186900Y252900D02*
X3981100D01*
Y47100D01*
X4186900D01*
Y252900D01*
D02*
G37*
G36*
X3843547D02*
X3816453D01*
X3790282Y245887D01*
X3766818Y232340D01*
X3747660Y213182D01*
X3734112Y189718D01*
X3727100Y163547D01*
Y136453D01*
X3734112Y110282D01*
X3747660Y86818D01*
X3766818Y67660D01*
X3790282Y54112D01*
X3816453Y47100D01*
X3843547D01*
X3869718Y54112D01*
X3893182Y67660D01*
X3912340Y86818D01*
X3925888Y110282D01*
X3932900Y136453D01*
Y163547D01*
X3925888Y189718D01*
X3912340Y213182D01*
X3893182Y232340D01*
X3869718Y245887D01*
X3843547Y252900D01*
D02*
G37*
G36*
X3589547D02*
X3562453D01*
X3536282Y245887D01*
X3512818Y232340D01*
X3493660Y213182D01*
X3480112Y189718D01*
X3473100Y163547D01*
Y136453D01*
X3480112Y110282D01*
X3493660Y86818D01*
X3512818Y67660D01*
X3536282Y54112D01*
X3562453Y47100D01*
X3589547D01*
X3615718Y54112D01*
X3639182Y67660D01*
X3658340Y86818D01*
X3671887Y110282D01*
X3678900Y136453D01*
Y163547D01*
X3671887Y189718D01*
X3658340Y213182D01*
X3639182Y232340D01*
X3615718Y245887D01*
X3589547Y252900D01*
D02*
G37*
G36*
X3335547D02*
X3308453D01*
X3282282Y245887D01*
X3258818Y232340D01*
X3239660Y213182D01*
X3226112Y189718D01*
X3219100Y163547D01*
Y136453D01*
X3226112Y110282D01*
X3239660Y86818D01*
X3258818Y67660D01*
X3282282Y54112D01*
X3308453Y47100D01*
X3335547D01*
X3361718Y54112D01*
X3385182Y67660D01*
X3404340Y86818D01*
X3417887Y110282D01*
X3424900Y136453D01*
Y163547D01*
X3417887Y189718D01*
X3404340Y213182D01*
X3385182Y232340D01*
X3361718Y245887D01*
X3335547Y252900D01*
D02*
G37*
G36*
X3081547D02*
X3054453D01*
X3028282Y245887D01*
X3004818Y232340D01*
X2985660Y213182D01*
X2972112Y189718D01*
X2965100Y163547D01*
Y136453D01*
X2972112Y110282D01*
X2985660Y86818D01*
X3004818Y67660D01*
X3028282Y54112D01*
X3054453Y47100D01*
X3081547D01*
X3107718Y54112D01*
X3131182Y67660D01*
X3150340Y86818D01*
X3163887Y110282D01*
X3170900Y136453D01*
Y163547D01*
X3163887Y189718D01*
X3150340Y213182D01*
X3131182Y232340D01*
X3107718Y245887D01*
X3081547Y252900D01*
D02*
G37*
G36*
X5186899Y242900D02*
X4981100D01*
Y37100D01*
X5186899D01*
Y242900D01*
D02*
G37*
G36*
X4843547D02*
X4816452D01*
X4790282Y235888D01*
X4766817Y222340D01*
X4747659Y203182D01*
X4734112Y179718D01*
X4727100Y153547D01*
Y126453D01*
X4734112Y100282D01*
X4747659Y76818D01*
X4766817Y57660D01*
X4790282Y44112D01*
X4816452Y37100D01*
X4843547D01*
X4869717Y44112D01*
X4893181Y57660D01*
X4912340Y76818D01*
X4925887Y100282D01*
X4932899Y126453D01*
Y153547D01*
X4925887Y179718D01*
X4912340Y203182D01*
X4893181Y222340D01*
X4869717Y235888D01*
X4843547Y242900D01*
D02*
G37*
G36*
X4676900D02*
X4471100D01*
Y37100D01*
X4676900D01*
Y242900D01*
D02*
G37*
G36*
X4333547D02*
X4306453D01*
X4280282Y235888D01*
X4256818Y222340D01*
X4237660Y203182D01*
X4224112Y179718D01*
X4217100Y153547D01*
Y126453D01*
X4224112Y100282D01*
X4237660Y76818D01*
X4256818Y57660D01*
X4280282Y44112D01*
X4306453Y37100D01*
X4333547D01*
X4359718Y44112D01*
X4383182Y57660D01*
X4402340Y76818D01*
X4415888Y100282D01*
X4422900Y126453D01*
Y153547D01*
X4415888Y179718D01*
X4402340Y203182D01*
X4383182Y222340D01*
X4359718Y235888D01*
X4333547Y242900D01*
D02*
G37*
G36*
X2155547D02*
X2128453D01*
X2102282Y235888D01*
X2078818Y222340D01*
X2059659Y203182D01*
X2046112Y179718D01*
X2039100Y153547D01*
Y126453D01*
X2046112Y100282D01*
X2059659Y76818D01*
X2078818Y57660D01*
X2102282Y44112D01*
X2128453Y37100D01*
X2155547D01*
X2181718Y44112D01*
X2205182Y57660D01*
X2224340Y76818D01*
X2237887Y100282D01*
X2244900Y126453D01*
Y153547D01*
X2237887Y179718D01*
X2224340Y203182D01*
X2205182Y222340D01*
X2181718Y235888D01*
X2155547Y242900D01*
D02*
G37*
G36*
X1850105Y330800D02*
X1829895D01*
X1811224Y323066D01*
X1796934Y308776D01*
X1789200Y290105D01*
Y269895D01*
X1796934Y251224D01*
X1808515Y239643D01*
X1811227Y236765D01*
X1811715Y209238D01*
X1805659Y203182D01*
X1792112Y179718D01*
X1785100Y153547D01*
Y126453D01*
X1792112Y100282D01*
X1805659Y76818D01*
X1824818Y57660D01*
X1848282Y44112D01*
X1874453Y37100D01*
X1901547D01*
X1927718Y44112D01*
X1951182Y57660D01*
X1970340Y76818D01*
X1983887Y100282D01*
X1990900Y126453D01*
Y153547D01*
X1983887Y179718D01*
X1970340Y203182D01*
X1951182Y222340D01*
X1927718Y235888D01*
X1906555Y241558D01*
X1896184Y254842D01*
X1890139Y268300D01*
X1890800Y269895D01*
Y290105D01*
X1883066Y308776D01*
X1868776Y323066D01*
X1850105Y330800D01*
D02*
G37*
G36*
X1139547Y242900D02*
X1112453D01*
X1086282Y235888D01*
X1062818Y222340D01*
X1043659Y203182D01*
X1030112Y179718D01*
X1023100Y153547D01*
Y126453D01*
X1030112Y100282D01*
X1043659Y76818D01*
X1062818Y57660D01*
X1086282Y44112D01*
X1112453Y37100D01*
X1139547D01*
X1165718Y44112D01*
X1189182Y57660D01*
X1208340Y76818D01*
X1221887Y100282D01*
X1228900Y126453D01*
Y153547D01*
X1221887Y179718D01*
X1208340Y203182D01*
X1189182Y222340D01*
X1165718Y235888D01*
X1139547Y242900D01*
D02*
G37*
%LPD*%
D48*
X3783000Y4925000D02*
D03*
X4574000Y140000D02*
D03*
X2854000Y2940000D02*
D03*
X872000Y140000D02*
D03*
X4084000Y150000D02*
D03*
X5360000Y140000D02*
D03*
X5083999D02*
D03*
X3276000Y4920000D02*
D03*
X2754000D02*
D03*
D49*
X5614000Y140000D02*
D03*
X4829999D02*
D03*
X340000Y3700000D02*
D03*
X3068000Y150000D02*
D03*
X1126000Y140000D02*
D03*
X4037000Y4925000D02*
D03*
X4291000D02*
D03*
X4545000D02*
D03*
X4799000D02*
D03*
X1634000Y140000D02*
D03*
X1380000D02*
D03*
X1888000D02*
D03*
X3576000Y150000D02*
D03*
X3322000D02*
D03*
X3830000D02*
D03*
X5680000Y3346000D02*
D03*
X2600000Y2940000D02*
D03*
X2142000Y140000D02*
D03*
X2500000Y4920000D02*
D03*
X3530000D02*
D03*
X4320000Y140000D02*
D03*
D50*
X5680000Y3600000D02*
D03*
X340000Y3954000D02*
D03*
D51*
X703705Y4627706D02*
D03*
X407500Y2615000D02*
D03*
X5115000Y3548917D02*
D03*
X2010000Y4040000D02*
D03*
X4550000Y3029373D02*
D03*
X3960000Y3170000D02*
D03*
X4532918Y4252918D02*
D03*
X1384500Y1877500D02*
D03*
X4000000Y3050000D02*
D03*
X1384500Y2027500D02*
D03*
X4905599Y2664599D02*
D03*
X4230000Y2960000D02*
D03*
X4250000Y2880000D02*
D03*
X3940000Y3380000D02*
D03*
X4070000Y3300000D02*
D03*
X4689952Y3604952D02*
D03*
X103705Y2027705D02*
D03*
Y3027705D02*
D03*
Y1227704D02*
D03*
Y627704D02*
D03*
Y2227705D02*
D03*
Y827704D02*
D03*
Y1427705D02*
D03*
Y1827705D02*
D03*
Y1627705D02*
D03*
Y1027704D02*
D03*
Y3227706D02*
D03*
X4960000Y4160000D02*
D03*
X103705Y2427705D02*
D03*
X3120000Y1910000D02*
D03*
X2905000Y1805000D02*
D03*
X3135000Y775000D02*
D03*
X3550000Y720000D02*
D03*
X3060000Y1460000D02*
D03*
X2915000Y1425000D02*
D03*
X2969999Y850001D02*
D03*
X2653500Y4073002D02*
D03*
X2180000Y4070000D02*
D03*
X2370000Y3980000D02*
D03*
X2820000Y3130000D02*
D03*
X2460000Y3210000D02*
D03*
X2430000Y3320000D02*
D03*
X1360000Y4359999D02*
D03*
X1470000Y3750000D02*
D03*
X1827900Y3620000D02*
D03*
X2325000Y2815000D02*
D03*
X2430000Y2700000D02*
D03*
X2870000Y1140000D02*
D03*
X2388000Y758000D02*
D03*
Y340000D02*
D03*
X550000Y2270000D02*
D03*
Y2200000D02*
D03*
X1118000Y748000D02*
D03*
X550000Y2100000D02*
D03*
X540000Y1900000D02*
D03*
X380000Y510000D02*
D03*
X1762500Y1535000D02*
D03*
X1562500Y2150000D02*
D03*
X1060000Y2300000D02*
D03*
X3110000Y4010000D02*
D03*
X3110500Y3509500D02*
D03*
X5040000Y440000D02*
D03*
X4820000Y660000D02*
D03*
X3760000Y369999D02*
D03*
X3660000Y2690000D02*
D03*
Y2280000D02*
D03*
X5480417Y4535418D02*
D03*
X4997500Y3410000D02*
D03*
X2520540Y4016941D02*
D03*
X303705Y4827706D02*
D03*
X503705D02*
D03*
X703705Y4027706D02*
D03*
X903705D02*
D03*
X303705Y3027705D02*
D03*
X703705Y4227706D02*
D03*
X903705Y4427706D02*
D03*
Y4227706D02*
D03*
X303705Y2627705D02*
D03*
X703705Y4827706D02*
D03*
X503705Y4627706D02*
D03*
X303705Y3427706D02*
D03*
X903705Y4627706D02*
D03*
Y4827706D02*
D03*
X503705Y4427706D02*
D03*
X303705Y4627706D02*
D03*
Y3227706D02*
D03*
X703705Y3027705D02*
D03*
Y2827705D02*
D03*
X103705Y4827706D02*
D03*
Y3427706D02*
D03*
Y4227706D02*
D03*
X303705Y4427706D02*
D03*
X503705Y227704D02*
D03*
X103705Y4027706D02*
D03*
X703705Y227704D02*
D03*
Y4427706D02*
D03*
X503705Y4227706D02*
D03*
X303705D02*
D03*
X103705Y3827706D02*
D03*
Y3627706D02*
D03*
X3503706Y2027705D02*
D03*
Y2827705D02*
D03*
X3703707Y1027704D02*
D03*
Y1427705D02*
D03*
Y1627705D02*
D03*
Y1827705D02*
D03*
Y2027705D02*
D03*
Y2827705D02*
D03*
Y3027705D02*
D03*
Y4027706D02*
D03*
Y4227706D02*
D03*
Y4427706D02*
D03*
X3903707Y827704D02*
D03*
Y1227704D02*
D03*
Y1427705D02*
D03*
Y1627705D02*
D03*
Y1827705D02*
D03*
Y2027705D02*
D03*
Y2827705D02*
D03*
Y3027705D02*
D03*
Y3227706D02*
D03*
Y4027706D02*
D03*
Y4227706D02*
D03*
Y4427706D02*
D03*
Y4627706D02*
D03*
X4103707Y1027704D02*
D03*
Y1227704D02*
D03*
Y1427705D02*
D03*
Y1627705D02*
D03*
Y1827705D02*
D03*
Y2027705D02*
D03*
Y2827705D02*
D03*
X4303707Y3627706D02*
D03*
Y4627706D02*
D03*
X4703707Y4427706D02*
D03*
Y4627706D02*
D03*
X4903707D02*
D03*
Y4827706D02*
D03*
X5103707Y2827705D02*
D03*
Y4427706D02*
D03*
Y4627706D02*
D03*
Y4827706D02*
D03*
X5303707Y2827705D02*
D03*
Y3827706D02*
D03*
Y4427706D02*
D03*
Y4627706D02*
D03*
Y4827706D02*
D03*
X5503708Y227704D02*
D03*
Y1027704D02*
D03*
Y2027705D02*
D03*
Y2227705D02*
D03*
Y3227706D02*
D03*
Y4627706D02*
D03*
Y4827706D02*
D03*
X5703708Y227704D02*
D03*
Y827704D02*
D03*
Y2827705D02*
D03*
Y3027705D02*
D03*
Y4227706D02*
D03*
Y4827706D02*
D03*
X4538616Y3544628D02*
D03*
X1991135Y3578991D02*
D03*
X4405000Y3412178D02*
D03*
X1560000Y3469200D02*
D03*
X1830000D02*
D03*
X1703706Y1227704D02*
D03*
X3103706Y4627706D02*
D03*
X2903706Y1227704D02*
D03*
X2303706Y4627706D02*
D03*
X3103706Y4427706D02*
D03*
X1703706Y4627706D02*
D03*
X1903706Y1227704D02*
D03*
X2903706Y1627705D02*
D03*
X1903706Y1427705D02*
D03*
X1103705Y4827706D02*
D03*
X2103706Y4227706D02*
D03*
X1303705Y4627706D02*
D03*
X2103706Y4827706D02*
D03*
X1703706D02*
D03*
X1503705D02*
D03*
X2903706D02*
D03*
X1103705Y827704D02*
D03*
X3103706Y2027705D02*
D03*
X1103705Y4627706D02*
D03*
X3303706Y2027705D02*
D03*
X2303706Y4227706D02*
D03*
X1303705Y4427706D02*
D03*
X2103706Y4627706D02*
D03*
X1503705Y227704D02*
D03*
X5627917Y4262917D02*
D03*
X2303706Y4027706D02*
D03*
X3503706Y1827705D02*
D03*
X2303706Y4427706D02*
D03*
X1303705Y4827706D02*
D03*
X2703706Y2827705D02*
D03*
X1903706Y4627706D02*
D03*
X2303706Y227704D02*
D03*
X2103706Y4427706D02*
D03*
X2303706Y4827706D02*
D03*
X3503706Y1627705D02*
D03*
X2903706Y4627706D02*
D03*
X1703706Y1427705D02*
D03*
X1103705Y1027704D02*
D03*
X2503706Y3627706D02*
D03*
X3503706Y1227704D02*
D03*
X1503705Y4627706D02*
D03*
X2903706Y2027705D02*
D03*
X2503706Y1427705D02*
D03*
X1903706Y4827706D02*
D03*
X1503705Y1427705D02*
D03*
X2703706Y227704D02*
D03*
X1103705Y4027706D02*
D03*
Y4227706D02*
D03*
X3103706Y4827706D02*
D03*
X3503706Y827704D02*
D03*
X1103705Y4427706D02*
D03*
X1703706Y3227706D02*
D03*
Y3027705D02*
D03*
Y2827705D02*
D03*
X1503705Y3227706D02*
D03*
Y3027705D02*
D03*
Y2827705D02*
D03*
X1303705Y3227706D02*
D03*
Y3027705D02*
D03*
Y2827705D02*
D03*
X1103705Y3227706D02*
D03*
Y3027705D02*
D03*
Y2827705D02*
D03*
X2050000Y2720000D02*
D03*
X1220000Y1660000D02*
D03*
X1380000Y2220000D02*
D03*
X2340000Y3400000D02*
D03*
X3120000Y3700000D02*
D03*
X2990000Y4420000D02*
D03*
X4110000Y2980000D02*
D03*
X4830000Y3010000D02*
D03*
X3450000Y3620000D02*
D03*
X4053660Y3846340D02*
D03*
X4163660Y4046340D02*
D03*
X5160000Y3890000D02*
D03*
X4300000Y4100000D02*
D03*
X5072353Y3312353D02*
D03*
X5077452Y3217452D02*
D03*
X5408651Y2941151D02*
D03*
X5097599Y3015099D02*
D03*
X4690000Y4300000D02*
D03*
X4687500Y4187500D02*
D03*
X4410418Y3241217D02*
D03*
X5422567Y2672567D02*
D03*
X3052000Y1638000D02*
D03*
X3070000Y1270000D02*
D03*
X3090500Y1150000D02*
D03*
X2425000Y1927500D02*
D03*
X650000Y2000000D02*
D03*
X2327500Y1442500D02*
D03*
X2412500Y1250000D02*
D03*
X2265001Y815001D02*
D03*
X1506520Y1800000D02*
D03*
X610000Y1100000D02*
D03*
X610000Y1200000D02*
D03*
X2702500Y2702500D02*
D03*
X2877500Y3607500D02*
D03*
X540000Y1600000D02*
D03*
X1840000Y280000D02*
D03*
X670000Y1420000D02*
D03*
X610000Y1500000D02*
D03*
X690000Y1340000D02*
D03*
X540000Y1700000D02*
D03*
X1440000Y1250000D02*
D03*
X540000Y1800000D02*
D03*
X880000Y2180000D02*
D03*
X1080000Y2150000D02*
D03*
X1980000Y1660000D02*
D03*
X1260000Y350000D02*
D03*
X1940000Y1580000D02*
D03*
D52*
X2575000Y0D02*
D03*
X5875000Y600000D02*
D03*
Y4500000D02*
D03*
X0D02*
D03*
D53*
X4690418Y3207917D02*
D03*
X4770418Y3287917D02*
D03*
X4690418D02*
D03*
Y3367917D02*
D03*
X4610417Y3287917D02*
D03*
%TF.MD5,eda04796304934569665cee4830e20df*%
M02*
