%TF.GenerationSoftware,Altium Limited,Altium Designer,25.7.1 (20)*%
G04 Layer_Color=8388736*
%FSLAX45Y45*%
%MOMM*%
%TF.SameCoordinates,3376FABF-9249-4748-A69B-BDD9C5401F70*%
%TF.FilePolarity,Negative*%
%TF.FileFunction,Soldermask,Top*%
%TF.Part,Single*%
G01*
G75*
%TA.AperFunction,SMDPad,CuDef*%
%ADD13R,0.80000X0.90000*%
%ADD14R,0.52000X0.52000*%
%ADD15R,1.98120X0.55880*%
%ADD17R,1.35000X0.95000*%
%ADD18R,1.00620X1.10506*%
%ADD19R,0.90000X0.75000*%
%ADD20R,0.67248X0.71535*%
%ADD24R,0.52000X0.52000*%
%ADD26R,0.70000X0.65000*%
%ADD27R,0.66040X0.50800*%
G04:AMPARAMS|DCode=28|XSize=0.91029mm|YSize=0.33213mm|CornerRadius=0.16607mm|HoleSize=0mm|Usage=FLASHONLY|Rotation=180.000|XOffset=0mm|YOffset=0mm|HoleType=Round|Shape=RoundedRectangle|*
%AMROUNDEDRECTD28*
21,1,0.91029,0.00000,0,0,180.0*
21,1,0.57816,0.33213,0,0,180.0*
1,1,0.33213,-0.28908,0.00000*
1,1,0.33213,0.28908,0.00000*
1,1,0.33213,0.28908,0.00000*
1,1,0.33213,-0.28908,0.00000*
%
%ADD28ROUNDEDRECTD28*%
%ADD29R,0.50800X0.66040*%
%ADD32R,0.81213X0.65872*%
%ADD33R,0.60000X0.50000*%
G04:AMPARAMS|DCode=34|XSize=1.143mm|YSize=1.0922mm|CornerRadius=0mm|HoleSize=0mm|Usage=FLASHONLY|Rotation=45.000|XOffset=0mm|YOffset=0mm|HoleType=Round|Shape=Rectangle|*
%AMROTATEDRECTD34*
4,1,4,-0.01796,-0.79026,-0.79026,-0.01796,0.01796,0.79026,0.79026,0.01796,-0.01796,-0.79026,0.0*
%
%ADD34ROTATEDRECTD34*%

%ADD35R,0.91029X0.33213*%
%ADD37R,0.58684X1.35872*%
%ADD38R,0.98000X3.40000*%
G04:AMPARAMS|DCode=41|XSize=1.35872mm|YSize=0.58684mm|CornerRadius=0.29342mm|HoleSize=0mm|Usage=FLASHONLY|Rotation=90.000|XOffset=0mm|YOffset=0mm|HoleType=Round|Shape=RoundedRectangle|*
%AMROUNDEDRECTD41*
21,1,1.35872,0.00000,0,0,90.0*
21,1,0.77188,0.58684,0,0,90.0*
1,1,0.58684,0.00000,0.38594*
1,1,0.58684,0.00000,-0.38594*
1,1,0.58684,0.00000,-0.38594*
1,1,0.58684,0.00000,0.38594*
%
%ADD41ROUNDEDRECTD41*%
%ADD43R,0.65872X0.81213*%
%ADD44R,0.70000X0.65000*%
%TA.AperFunction,NonConductor*%
%ADD81C,0.75000*%
%ADD82R,0.12500X0.75000*%
%TA.AperFunction,SMDPad,CuDef*%
G04:AMPARAMS|DCode=83|XSize=3.4032mm|YSize=1.8032mm|CornerRadius=0.5016mm|HoleSize=0mm|Usage=FLASHONLY|Rotation=90.000|XOffset=0mm|YOffset=0mm|HoleType=Round|Shape=RoundedRectangle|*
%AMROUNDEDRECTD83*
21,1,3.40320,0.80000,0,0,90.0*
21,1,2.40000,1.80320,0,0,90.0*
1,1,1.00320,0.40000,1.20000*
1,1,1.00320,0.40000,-1.20000*
1,1,1.00320,-0.40000,-1.20000*
1,1,1.00320,-0.40000,1.20000*
%
%ADD83ROUNDEDRECTD83*%
G04:AMPARAMS|DCode=84|XSize=0.8032mm|YSize=1.6532mm|CornerRadius=0.1526mm|HoleSize=0mm|Usage=FLASHONLY|Rotation=180.000|XOffset=0mm|YOffset=0mm|HoleType=Round|Shape=RoundedRectangle|*
%AMROUNDEDRECTD84*
21,1,0.80320,1.34800,0,0,180.0*
21,1,0.49800,1.65320,0,0,180.0*
1,1,0.30520,-0.24900,0.67400*
1,1,0.30520,0.24900,0.67400*
1,1,0.30520,0.24900,-0.67400*
1,1,0.30520,-0.24900,-0.67400*
%
%ADD84ROUNDEDRECTD84*%
%ADD85R,1.10320X1.00320*%
%ADD86R,1.00320X1.15320*%
%ADD87R,1.00320X1.10320*%
G04:AMPARAMS|DCode=88|XSize=3.4032mm|YSize=1.8032mm|CornerRadius=0.5016mm|HoleSize=0mm|Usage=FLASHONLY|Rotation=180.000|XOffset=0mm|YOffset=0mm|HoleType=Round|Shape=RoundedRectangle|*
%AMROUNDEDRECTD88*
21,1,3.40320,0.80000,0,0,180.0*
21,1,2.40000,1.80320,0,0,180.0*
1,1,1.00320,-1.20000,0.40000*
1,1,1.00320,1.20000,0.40000*
1,1,1.00320,1.20000,-0.40000*
1,1,1.00320,-1.20000,-0.40000*
%
%ADD88ROUNDEDRECTD88*%
G04:AMPARAMS|DCode=89|XSize=3.4032mm|YSize=1.8032mm|CornerRadius=0.1976mm|HoleSize=0mm|Usage=FLASHONLY|Rotation=180.000|XOffset=0mm|YOffset=0mm|HoleType=Round|Shape=RoundedRectangle|*
%AMROUNDEDRECTD89*
21,1,3.40320,1.40800,0,0,180.0*
21,1,3.00800,1.80320,0,0,180.0*
1,1,0.39520,-1.50400,0.70400*
1,1,0.39520,1.50400,0.70400*
1,1,0.39520,1.50400,-0.70400*
1,1,0.39520,-1.50400,-0.70400*
%
%ADD89ROUNDEDRECTD89*%
%ADD90R,1.00320X1.20320*%
%ADD91R,0.80320X0.75320*%
%ADD92R,1.20320X1.60320*%
%ADD93R,1.05320X0.90320*%
%ADD94R,0.90320X1.05320*%
%TA.AperFunction,ComponentPad*%
%ADD95R,1.71120X1.71120*%
%ADD96R,1.75320X1.75320*%
%ADD97C,1.75320*%
%ADD98R,1.75320X1.75320*%
%ADD99C,1.71120*%
G36*
X1877832Y3884238D02*
X1879239Y3882832D01*
X1880000Y3880994D01*
X1880000Y3880000D01*
X1880000Y3865000D01*
X1880000Y3864005D01*
X1879239Y3862167D01*
X1877832Y3860761D01*
X1875994Y3859999D01*
X1875000Y3860000D01*
X1845000D01*
Y3834999D01*
X1875000Y3834999D01*
Y3834999D01*
X1875994D01*
X1877832Y3834238D01*
X1879238Y3832832D01*
X1880000Y3830994D01*
Y3829999D01*
X1880000Y3814999D01*
Y3814999D01*
X1880000Y3814005D01*
X1879239Y3812167D01*
X1877832Y3810760D01*
X1875994Y3809999D01*
X1875000Y3809999D01*
X1825000Y3810000D01*
X1825000D01*
X1824005Y3809999D01*
X1822167Y3810760D01*
X1820761Y3812167D01*
X1820000Y3814005D01*
X1820000Y3814999D01*
X1820000Y3879999D01*
X1819999Y3880994D01*
X1820761Y3882832D01*
X1822167Y3884238D01*
X1824005Y3885000D01*
X1825000Y3884999D01*
X1875000Y3885000D01*
Y3884999D01*
X1875994Y3885000D01*
X1877832Y3884238D01*
D02*
G37*
G36*
X1595000Y3884999D02*
X1595994D01*
X1597832Y3884238D01*
X1599238Y3882831D01*
X1600000Y3880994D01*
Y3879999D01*
X1600000Y3880000D01*
X1600000Y3814999D01*
X1600000Y3814005D01*
X1599239Y3812167D01*
X1597832Y3810760D01*
X1595994Y3809999D01*
X1595000Y3810000D01*
X1545000Y3809999D01*
X1544005Y3809999D01*
X1542167Y3810760D01*
X1540761Y3812167D01*
X1539999Y3814005D01*
X1540000Y3814999D01*
X1540000D01*
Y3829999D01*
Y3830994D01*
X1540761Y3832832D01*
X1542168Y3834238D01*
X1544005Y3834999D01*
X1545000D01*
X1545000Y3834999D01*
X1575000D01*
Y3860000D01*
X1545000D01*
X1544005Y3859999D01*
X1542167Y3860761D01*
X1540761Y3862167D01*
X1539999Y3864005D01*
X1540000Y3865000D01*
X1540000D01*
Y3879999D01*
Y3880994D01*
X1540761Y3882831D01*
X1542168Y3884238D01*
X1544005Y3884999D01*
X1545000D01*
X1545000Y3885000D01*
X1595000Y3884999D01*
D02*
G37*
G36*
X1770332Y3939239D02*
X1771739Y3937832D01*
X1772500Y3935994D01*
Y3935000D01*
Y3810000D01*
Y3809005D01*
X1771739Y3807167D01*
X1770332Y3805761D01*
X1768494Y3805000D01*
X1751505D01*
X1749668Y3805761D01*
X1748261Y3807167D01*
X1747500Y3809005D01*
Y3810000D01*
Y3935000D01*
Y3935994D01*
X1748261Y3937832D01*
X1749668Y3939239D01*
X1751505Y3940000D01*
X1768494D01*
X1770332Y3939239D01*
D02*
G37*
G36*
X1670332D02*
X1671739Y3937832D01*
X1672500Y3935994D01*
Y3935000D01*
Y3810000D01*
Y3809005D01*
X1671739Y3807167D01*
X1670332Y3805761D01*
X1668494Y3805000D01*
X1651505D01*
X1649668Y3805761D01*
X1648261Y3807167D01*
X1647500Y3809005D01*
Y3810000D01*
Y3935000D01*
Y3935994D01*
X1648261Y3937832D01*
X1649668Y3939239D01*
X1651505Y3940000D01*
X1668494D01*
X1670332Y3939239D01*
D02*
G37*
G36*
X1720332D02*
X1721738Y3937832D01*
X1722500Y3935994D01*
Y3935000D01*
Y3775000D01*
Y3774005D01*
X1721738Y3772167D01*
X1720332Y3770761D01*
X1718494Y3770000D01*
X1701505D01*
X1699668Y3770761D01*
X1698261Y3772167D01*
X1697500Y3774005D01*
Y3775000D01*
X1697500Y3934999D01*
Y3935994D01*
X1698261Y3937832D01*
X1699667Y3939238D01*
X1701505Y3939999D01*
X1702500D01*
X1702500Y3940000D01*
X1718494D01*
X1720332Y3939239D01*
D02*
G37*
G36*
X1880664Y3788477D02*
X1883477Y3785664D01*
X1885000Y3781989D01*
Y3780000D01*
Y3765000D01*
Y3763011D01*
X1883477Y3759335D01*
X1880664Y3756522D01*
X1876989Y3755000D01*
X1823011D01*
X1819335Y3756522D01*
X1816522Y3759335D01*
X1815000Y3763011D01*
Y3765000D01*
Y3780000D01*
Y3781989D01*
X1816522Y3785664D01*
X1819335Y3788477D01*
X1823011Y3790000D01*
X1876989D01*
X1880664Y3788477D01*
D02*
G37*
G36*
X1600664D02*
X1603477Y3785664D01*
X1605000Y3781989D01*
Y3780000D01*
Y3765000D01*
Y3763011D01*
X1603477Y3759335D01*
X1600664Y3756522D01*
X1596989Y3755000D01*
X1543011D01*
X1539335Y3756522D01*
X1536522Y3759335D01*
X1535000Y3763011D01*
Y3765000D01*
Y3780000D01*
Y3781989D01*
X1536522Y3785664D01*
X1539335Y3788477D01*
X1543011Y3790000D01*
X1596989D01*
X1600664Y3788477D01*
D02*
G37*
G36*
X1875000Y3740000D02*
X1876989D01*
X1880664Y3738477D01*
X1883477Y3735664D01*
X1885000Y3731989D01*
Y3730000D01*
Y3715000D01*
Y3713010D01*
X1883477Y3709335D01*
X1880664Y3706522D01*
X1876989Y3705000D01*
X1823011D01*
X1819335Y3706522D01*
X1816522Y3709335D01*
X1815000Y3713010D01*
Y3715000D01*
Y3730000D01*
Y3731989D01*
X1816522Y3735664D01*
X1819335Y3738477D01*
X1823011Y3740000D01*
X1825000D01*
Y3740000D01*
X1875000Y3740000D01*
D02*
G37*
G36*
X1595000D02*
X1596989D01*
X1600664Y3738477D01*
X1603477Y3735664D01*
X1605000Y3731989D01*
Y3730000D01*
Y3715000D01*
Y3713010D01*
X1603477Y3709335D01*
X1600664Y3706522D01*
X1596989Y3705000D01*
X1543011D01*
X1539335Y3706522D01*
X1536522Y3709335D01*
X1535000Y3713010D01*
Y3715000D01*
Y3730000D01*
Y3731989D01*
X1536522Y3735664D01*
X1539335Y3738477D01*
X1543011Y3740000D01*
X1545000D01*
Y3740000D01*
X1595000Y3740000D01*
D02*
G37*
G36*
X1798164Y3713477D02*
X1800977Y3710664D01*
X1802500Y3706989D01*
Y3705000D01*
Y3655000D01*
Y3653010D01*
X1800977Y3649335D01*
X1798164Y3646522D01*
X1794489Y3645000D01*
X1775511D01*
X1771835Y3646522D01*
X1769022Y3649335D01*
X1767500Y3653010D01*
Y3655000D01*
Y3705000D01*
Y3706989D01*
X1769022Y3710664D01*
X1771835Y3713477D01*
X1775511Y3715000D01*
X1794489D01*
X1798164Y3713477D01*
D02*
G37*
G36*
X1748164D02*
X1750977Y3710664D01*
X1752500Y3706989D01*
Y3705000D01*
Y3655000D01*
Y3653010D01*
X1750977Y3649335D01*
X1748164Y3646522D01*
X1744489Y3645000D01*
X1725511D01*
X1721835Y3646522D01*
X1719022Y3649335D01*
X1717500Y3653010D01*
Y3655000D01*
Y3705000D01*
Y3706989D01*
X1719022Y3710664D01*
X1721835Y3713477D01*
X1725511Y3715000D01*
X1744489D01*
X1748164Y3713477D01*
D02*
G37*
G36*
X1698164D02*
X1700977Y3710664D01*
X1702500Y3706989D01*
Y3705000D01*
Y3655000D01*
Y3653010D01*
X1700977Y3649335D01*
X1698164Y3646522D01*
X1694489Y3645000D01*
X1675510D01*
X1671835Y3646522D01*
X1669022Y3649335D01*
X1667500Y3653010D01*
Y3655000D01*
Y3705000D01*
Y3706989D01*
X1669022Y3710664D01*
X1671835Y3713477D01*
X1675510Y3715000D01*
X1694489D01*
X1698164Y3713477D01*
D02*
G37*
G36*
X1648164D02*
X1650977Y3710664D01*
X1652500Y3706989D01*
Y3705000D01*
Y3655000D01*
Y3653010D01*
X1650977Y3649335D01*
X1648164Y3646522D01*
X1644489Y3645000D01*
X1625511D01*
X1621835Y3646522D01*
X1619022Y3649335D01*
X1617500Y3653010D01*
Y3655000D01*
Y3705000D01*
Y3706989D01*
X1619022Y3710664D01*
X1621835Y3713477D01*
X1625511Y3715000D01*
X1644489D01*
X1648164Y3713477D01*
D02*
G37*
D13*
X5040499Y3867500D02*
D03*
X4489999Y3880000D02*
D03*
X5040499Y3367500D02*
D03*
X4489999Y3380000D02*
D03*
X4910499Y3527500D02*
D03*
Y3697500D02*
D03*
X4349999Y3540000D02*
D03*
Y3710000D02*
D03*
X4489999Y3550000D02*
D03*
X5040499Y3537500D02*
D03*
Y3697500D02*
D03*
X4489999Y3710000D02*
D03*
D14*
X4829999Y3350000D02*
D03*
X4269999Y3390000D02*
D03*
X2510000Y3260000D02*
D03*
X2590000D02*
D03*
X4349999Y3390000D02*
D03*
X4909999Y3350000D02*
D03*
D15*
X3261300Y4017500D02*
D03*
Y3509500D02*
D03*
X2778700Y4017500D02*
D03*
Y3763500D02*
D03*
X3261300Y3255500D02*
D03*
Y3636500D02*
D03*
X2778700D02*
D03*
Y4144500D02*
D03*
Y3890500D02*
D03*
Y3509500D02*
D03*
Y3382500D02*
D03*
Y3255500D02*
D03*
X3261300Y3382500D02*
D03*
Y3763500D02*
D03*
Y3890500D02*
D03*
Y4144500D02*
D03*
D17*
X3690000Y3615000D02*
D03*
X2530000Y3915000D02*
D03*
Y3765000D02*
D03*
X3690000Y3765000D02*
D03*
D18*
X2180000Y3980057D02*
D03*
X1360000Y4240057D02*
D03*
Y4099943D02*
D03*
X2180000Y3839943D02*
D03*
D19*
X2010000Y3965000D02*
D03*
X1360000Y3725000D02*
D03*
Y3845000D02*
D03*
X2010000D02*
D03*
D20*
X2000000Y3630000D02*
D03*
X1640000Y3462143D02*
D03*
X2000000Y3725713D02*
D03*
X1640000Y3557856D02*
D03*
D24*
X1770000Y3470000D02*
D03*
Y3550000D02*
D03*
X5339999Y4850000D02*
D03*
Y4930000D02*
D03*
X3770000Y4700000D02*
D03*
Y4620000D02*
D03*
D26*
X1760000Y2920000D02*
D03*
X1630000D02*
D03*
D27*
X3835880Y3370000D02*
D03*
X3724120D02*
D03*
D28*
X3680000Y3190000D02*
D03*
X3840184D02*
D03*
X4700092Y3215000D02*
D03*
Y3150000D02*
D03*
Y3085000D02*
D03*
X4539908D02*
D03*
Y3150000D02*
D03*
X3680000Y3125000D02*
D03*
Y3255000D02*
D03*
X3840184D02*
D03*
D29*
X3540000Y3013240D02*
D03*
X3850000Y3585880D02*
D03*
X3580000Y3365880D02*
D03*
X3540000Y3125000D02*
D03*
X1130000Y3815880D02*
D03*
Y3704120D02*
D03*
X3850000Y3474120D02*
D03*
X3580000Y3254120D02*
D03*
D32*
X4789999Y3562329D02*
D03*
X4211499Y3583159D02*
D03*
Y3718500D02*
D03*
X4789999Y3697671D02*
D03*
D33*
X2410000Y3400000D02*
D03*
X4909999Y2870000D02*
D03*
X4349999Y2880000D02*
D03*
X2410000Y3500000D02*
D03*
X4909999Y2970000D02*
D03*
X4349999Y2980000D02*
D03*
D34*
X1871339Y3191339D02*
D03*
X2088661Y3408661D02*
D03*
D35*
X4539908Y3215000D02*
D03*
X3840184Y3125000D02*
D03*
D37*
X818500Y3647329D02*
D03*
D38*
X1838500Y4220000D02*
D03*
X1601500D02*
D03*
D41*
X910000Y3832671D02*
D03*
X1001500Y3647329D02*
D03*
D43*
X4788170Y3867500D02*
D03*
X4652828D02*
D03*
X4215341Y3850000D02*
D03*
X4079999D02*
D03*
D44*
X4909999Y3207500D02*
D03*
Y3072500D02*
D03*
X4349999Y3217500D02*
D03*
Y3082500D02*
D03*
D81*
X2775000Y0D02*
G03*
X2375000Y0I-200000J0D01*
G01*
X0Y4300000D02*
G03*
X0Y4700000I0J200000D01*
G01*
X5875000D02*
G03*
X5875000Y4300000I0J-200000D01*
G01*
Y800000D02*
G03*
X5875000Y400000I0J-200000D01*
G01*
D82*
X2143750Y3720000D02*
D03*
D83*
X4922000Y2490000D02*
D03*
X3652000D02*
D03*
X4922000Y552000D02*
D03*
X3652000D02*
D03*
X2382000Y2490000D02*
D03*
X1112000D02*
D03*
X2382000Y552000D02*
D03*
X1112000D02*
D03*
X1620000Y2490000D02*
D03*
X858000Y552000D02*
D03*
X1874000D02*
D03*
X1366000D02*
D03*
X1620000D02*
D03*
X2128000D02*
D03*
X3906000D02*
D03*
X604000Y2490000D02*
D03*
X858000D02*
D03*
X1366000D02*
D03*
X1874000D02*
D03*
X2128000D02*
D03*
X2636000D02*
D03*
X2890000D02*
D03*
X3144000D02*
D03*
X3398000D02*
D03*
X3906000D02*
D03*
X4160000D02*
D03*
X4414000D02*
D03*
X4668000D02*
D03*
X5176000D02*
D03*
X5430000D02*
D03*
Y552000D02*
D03*
X5176000D02*
D03*
X4668000D02*
D03*
X4414000D02*
D03*
X4160000D02*
D03*
X3398000D02*
D03*
X3144000D02*
D03*
X2890000D02*
D03*
X2636000D02*
D03*
X604000D02*
D03*
D84*
X5040999Y4055000D02*
D03*
X4465499Y4052501D02*
D03*
X4659999Y4055000D02*
D03*
X4786999D02*
D03*
X4913999D02*
D03*
X4786999Y4600000D02*
D03*
X4913999D02*
D03*
X5040999D02*
D03*
X4659999D02*
D03*
X4084499Y4597501D02*
D03*
Y4052501D02*
D03*
X4211499D02*
D03*
X4338499D02*
D03*
X4211499Y4597501D02*
D03*
X4338499D02*
D03*
X4465499D02*
D03*
D85*
X3500000Y3637500D02*
D03*
X2530000Y3377500D02*
D03*
X2370000Y3892500D02*
D03*
Y3767500D02*
D03*
X2530000Y3502500D02*
D03*
X3500000Y3762500D02*
D03*
D86*
X2735000Y3130000D02*
D03*
X2605000D02*
D03*
D87*
X1755000Y2750000D02*
D03*
X1630000D02*
D03*
D88*
X5487000Y1775000D02*
D03*
Y1267000D02*
D03*
D89*
Y1521000D02*
D03*
D90*
X4175000Y310000D02*
D03*
X4325000D02*
D03*
D91*
X2185000Y3720000D02*
D03*
X2100000D02*
D03*
D92*
X3530000Y4530000D02*
D03*
X2500000D02*
D03*
X2760000D02*
D03*
X3270000D02*
D03*
Y4790000D02*
D03*
X3530000D02*
D03*
X2500000D02*
D03*
X2760000D02*
D03*
D93*
X3770000Y4372500D02*
D03*
Y4487500D02*
D03*
X3930000D02*
D03*
Y4372500D02*
D03*
X5190000Y4710000D02*
D03*
Y4595000D02*
D03*
D94*
X5027499Y4760000D02*
D03*
X4912499D02*
D03*
D95*
X5530000Y3910000D02*
D03*
D96*
X4136000Y4930000D02*
D03*
X4574000Y140000D02*
D03*
X2854000Y2940000D02*
D03*
X872000Y140000D02*
D03*
X4084000Y150000D02*
D03*
X5360000Y140000D02*
D03*
X5083999D02*
D03*
X3276000Y4920000D02*
D03*
X2754000D02*
D03*
D97*
X5614000Y140000D02*
D03*
X4829999D02*
D03*
X3068000Y150000D02*
D03*
X1000000Y3240000D02*
D03*
X1126000Y140000D02*
D03*
X1634000D02*
D03*
X1380000D02*
D03*
X1888000D02*
D03*
X3576000Y150000D02*
D03*
X3322000D02*
D03*
X3830000D02*
D03*
X5425000Y4550000D02*
D03*
X2600000Y2940000D02*
D03*
X2142000Y140000D02*
D03*
X5152000Y4930000D02*
D03*
X4898000D02*
D03*
X4644000D02*
D03*
X4390000D02*
D03*
X2500000Y4920000D02*
D03*
X3530000D02*
D03*
X4320000Y140000D02*
D03*
D98*
X5425000Y4296000D02*
D03*
X1000000Y3494000D02*
D03*
D99*
X5530000Y3410000D02*
D03*
Y3660000D02*
D03*
%TF.MD5,2738746db2dfc2a677797d07ba9faf53*%
M02*
