%TF.GenerationSoftware,Altium Limited,Altium Designer,25.7.1 (20)*%
G04 Layer_Physical_Order=3*
G04 Layer_Color=16440176*
%FSLAX45Y45*%
%MOMM*%
%TF.SameCoordinates,3376FABF-9249-4748-A69B-BDD9C5401F70*%
%TF.FilePolarity,Positive*%
%TF.FileFunction,Copper,L3,Inr,Signal*%
%TF.Part,Single*%
G01*
G75*
%TA.AperFunction,ComponentPad*%
%ADD51R,1.55000X1.55000*%
%ADD52C,1.55000*%
%ADD53R,1.55000X1.55000*%
%ADD54C,1.50800*%
%TA.AperFunction,ViaPad*%
%ADD55C,0.50800*%
G36*
X4920000Y3120000D02*
X4480000D01*
X4280000Y2920000D01*
Y235725D01*
X4256818Y222340D01*
X4237660Y203182D01*
X4224112Y179718D01*
X4217100Y153547D01*
Y126453D01*
X4224112Y100282D01*
X4237660Y76818D01*
X4249078Y65400D01*
X4238556Y40000D01*
X4209359D01*
X4186900Y47100D01*
X4186900Y65400D01*
Y252900D01*
X3981100D01*
Y65400D01*
X3981100Y47100D01*
X3958641Y40000D01*
X3896075D01*
X3889268Y65400D01*
X3893182Y67660D01*
X3912340Y86818D01*
X3925888Y110282D01*
X3932900Y136453D01*
Y163547D01*
X3925888Y189718D01*
X3912340Y213182D01*
X3893182Y232340D01*
X3869718Y245887D01*
X3843547Y252900D01*
X3816453D01*
X3790282Y245887D01*
X3766818Y232340D01*
X3747660Y213182D01*
X3734112Y189718D01*
X3727100Y163547D01*
Y136453D01*
X3734112Y110282D01*
X3747660Y86818D01*
X3766818Y67660D01*
X3770732Y65400D01*
X3763925Y40000D01*
X3642075D01*
X3635268Y65400D01*
X3639182Y67660D01*
X3658340Y86818D01*
X3671887Y110282D01*
X3678900Y136453D01*
Y163547D01*
X3671887Y189718D01*
X3658340Y213182D01*
X3639182Y232340D01*
X3615718Y245887D01*
X3589547Y252900D01*
X3562453D01*
X3536282Y245887D01*
X3512818Y232340D01*
X3493660Y213182D01*
X3480112Y189718D01*
X3473100Y163547D01*
Y136453D01*
X3480112Y110282D01*
X3493660Y86818D01*
X3512818Y67660D01*
X3516732Y65400D01*
X3509925Y40000D01*
X3388075D01*
X3381268Y65400D01*
X3385182Y67660D01*
X3404340Y86818D01*
X3417887Y110282D01*
X3424900Y136453D01*
Y163547D01*
X3417887Y189718D01*
X3404340Y213182D01*
X3385182Y232340D01*
X3361718Y245887D01*
X3335547Y252900D01*
X3308453D01*
X3282282Y245887D01*
X3258818Y232340D01*
X3239660Y213182D01*
X3226112Y189718D01*
X3219100Y163547D01*
Y136453D01*
X3226112Y110282D01*
X3239660Y86818D01*
X3258818Y67660D01*
X3262732Y65400D01*
X3255925Y40000D01*
X3134075D01*
X3127268Y65400D01*
X3131182Y67660D01*
X3150340Y86818D01*
X3163887Y110282D01*
X3170900Y136453D01*
Y163547D01*
X3163887Y189718D01*
X3150340Y213182D01*
X3131182Y232340D01*
X3107718Y245887D01*
X3081547Y252900D01*
X3054453D01*
X3028282Y245887D01*
X3004818Y232340D01*
X2985660Y213182D01*
X2972112Y189718D01*
X2965100Y163547D01*
Y136453D01*
X2972112Y110282D01*
X2985660Y86818D01*
X3004818Y67660D01*
X3008732Y65400D01*
X3001925Y40000D01*
X2781015D01*
X2777003Y60168D01*
X2776387Y61090D01*
Y62199D01*
X2761383Y98421D01*
X2760600Y99205D01*
X2760383Y100292D01*
X2738601Y132891D01*
X2737679Y133507D01*
X2737255Y134531D01*
X2709532Y162255D01*
X2708507Y162679D01*
X2707891Y163601D01*
X2675292Y185383D01*
X2674205Y185599D01*
X2673421Y186383D01*
X2637199Y201387D01*
X2636090D01*
X2635168Y202003D01*
X2596715Y209652D01*
X2595628Y209435D01*
X2594603Y209860D01*
X2555397D01*
X2554372Y209435D01*
X2553285Y209652D01*
X2514832Y202003D01*
X2513910Y201387D01*
X2512801D01*
X2476579Y186383D01*
X2475795Y185599D01*
X2474708Y185383D01*
X2442109Y163601D01*
X2441493Y162679D01*
X2440469Y162255D01*
X2412745Y134532D01*
X2412321Y133507D01*
X2411399Y132891D01*
X2389617Y100292D01*
X2389401Y99205D01*
X2388617Y98421D01*
X2373613Y62199D01*
Y61090D01*
X2372997Y60168D01*
X2368986Y40000D01*
X2223443D01*
X2212922Y65400D01*
X2224340Y76818D01*
X2237887Y100282D01*
X2244900Y126453D01*
Y153547D01*
X2237887Y179718D01*
X2224340Y203182D01*
X2205182Y222340D01*
X2181718Y235888D01*
X2155547Y242900D01*
X2128453D01*
X2102282Y235888D01*
X2078818Y222340D01*
X2059659Y203182D01*
X2046112Y179718D01*
X2039100Y153547D01*
Y126453D01*
X2046112Y100282D01*
X2059659Y76818D01*
X2071077Y65400D01*
X2060556Y40000D01*
X1969443D01*
X1958922Y65400D01*
X1970340Y76818D01*
X1983887Y100282D01*
X1990900Y126453D01*
Y153547D01*
X1983887Y179718D01*
X1970340Y203182D01*
X1951182Y222340D01*
X1927718Y235888D01*
X1906555Y241558D01*
X1896184Y254842D01*
X1890139Y268300D01*
X1890800Y269895D01*
Y290105D01*
X1883066Y308776D01*
X1868776Y323066D01*
X1850105Y330800D01*
X1829895D01*
X1811224Y323066D01*
X1796934Y308776D01*
X1789200Y290105D01*
Y269895D01*
X1796934Y251224D01*
X1808515Y239643D01*
X1811227Y236765D01*
X1811715Y209238D01*
X1805659Y203182D01*
X1792112Y179718D01*
X1785100Y153547D01*
Y126453D01*
X1792112Y100282D01*
X1805659Y76818D01*
X1817077Y65400D01*
X1806556Y40000D01*
X1715443D01*
X1704922Y65400D01*
X1716340Y76818D01*
X1729887Y100282D01*
X1736900Y126453D01*
Y153547D01*
X1729887Y179718D01*
X1716340Y203182D01*
X1697182Y222340D01*
X1673718Y235888D01*
X1647547Y242900D01*
X1620453D01*
X1594282Y235888D01*
X1570818Y222340D01*
X1551659Y203182D01*
X1538112Y179718D01*
X1531100Y153547D01*
Y126453D01*
X1538112Y100282D01*
X1551659Y76818D01*
X1563077Y65400D01*
X1552556Y40000D01*
X1461443D01*
X1450922Y65400D01*
X1462340Y76818D01*
X1475887Y100282D01*
X1482900Y126453D01*
Y153547D01*
X1475887Y179718D01*
X1462340Y203182D01*
X1443182Y222340D01*
X1419718Y235888D01*
X1393547Y242900D01*
X1366453D01*
X1340282Y235888D01*
X1316818Y222340D01*
X1297659Y203182D01*
X1284112Y179718D01*
X1277100Y153547D01*
Y126453D01*
X1284112Y100282D01*
X1297659Y76818D01*
X1309077Y65400D01*
X1298556Y40000D01*
X1207443D01*
X1196922Y65400D01*
X1208340Y76818D01*
X1221887Y100282D01*
X1228900Y126453D01*
Y153547D01*
X1221887Y179718D01*
X1208340Y203182D01*
X1189182Y222340D01*
X1165718Y235888D01*
X1139547Y242900D01*
X1112453D01*
X1086282Y235888D01*
X1062818Y222340D01*
X1043659Y203182D01*
X1030112Y179718D01*
X1023100Y153547D01*
Y126453D01*
X1030112Y100282D01*
X1043659Y76818D01*
X1055077Y65400D01*
X1044556Y40000D01*
X760000D01*
X600000Y200000D01*
Y1389874D01*
X625400Y1394927D01*
X626934Y1391224D01*
X641224Y1376934D01*
X645678Y1375089D01*
X646934Y1368776D01*
X639200Y1350104D01*
Y1329895D01*
X646934Y1311224D01*
X661224Y1296934D01*
X679895Y1289200D01*
X700105D01*
X718776Y1296934D01*
X733066Y1311224D01*
X740800Y1329895D01*
Y1350104D01*
X733066Y1368776D01*
X718776Y1383066D01*
X714322Y1384911D01*
X713066Y1391224D01*
X720800Y1409895D01*
Y1430105D01*
X713066Y1448776D01*
X698776Y1463066D01*
X680105Y1470800D01*
X660800Y1489896D01*
Y1510105D01*
X653066Y1528776D01*
X638776Y1543066D01*
X620104Y1550800D01*
X600000D01*
Y2087965D01*
X600800Y2089895D01*
Y2110105D01*
X600000Y2112036D01*
Y2187964D01*
X600800Y2189895D01*
Y2210105D01*
X600000Y2212035D01*
Y2257964D01*
X600800Y2259895D01*
Y2280105D01*
X600000Y2282036D01*
Y3640000D01*
X1770487D01*
X1777100Y3630105D01*
Y3609895D01*
X1784833Y3591224D01*
X1799124Y3576934D01*
X1817795Y3569200D01*
X1838004D01*
X1856675Y3576934D01*
X1870966Y3591224D01*
X1878700Y3609895D01*
Y3630105D01*
X1885312Y3640000D01*
X2328158D01*
X2341224Y3626934D01*
X2359895Y3619200D01*
X2380105D01*
X2398776Y3626934D01*
X2411842Y3640000D01*
X2488158D01*
X2501224Y3626934D01*
X2519895Y3619200D01*
X2540105D01*
X2558776Y3626934D01*
X2571842Y3640000D01*
X3488638D01*
X3497359Y3614600D01*
X3489234Y3606476D01*
X3481500Y3587804D01*
Y3567595D01*
X3489234Y3548924D01*
X3503524Y3534634D01*
X3522196Y3526900D01*
X3542405D01*
X3561076Y3534634D01*
X3575366Y3548924D01*
X3583100Y3567595D01*
Y3587804D01*
X3575366Y3606476D01*
X3567242Y3614600D01*
X3575962Y3640000D01*
X3852237D01*
X3858775Y3630558D01*
X3865204Y3614600D01*
X3859200Y3600105D01*
Y3579895D01*
X3861982Y3573180D01*
X3847249Y3547879D01*
X3847102Y3547780D01*
X3824600D01*
Y3512220D01*
X3875400D01*
Y3521853D01*
X3899895Y3539200D01*
X3900800Y3539200D01*
X3920105D01*
X3938776Y3546934D01*
X3953066Y3561224D01*
X3960800Y3579895D01*
Y3600105D01*
X3954796Y3614600D01*
X3961225Y3630558D01*
X3967763Y3640000D01*
X4589948D01*
X4609200Y3620104D01*
Y3599895D01*
X4616934Y3581224D01*
X4631224Y3566934D01*
X4649895Y3559200D01*
X4670105D01*
X4688776Y3566934D01*
X4703066Y3581224D01*
X4710800Y3599895D01*
Y3620104D01*
X4730052Y3640000D01*
X4920000D01*
Y3120000D01*
D02*
G37*
G36*
X5783304Y5084789D02*
X5804083Y5076182D01*
X5822784Y5063687D01*
X5838688Y5047783D01*
X5851182Y5029083D01*
X5859789Y5008304D01*
X5864177Y4986245D01*
Y4730983D01*
X5853285Y4709652D01*
X5814831Y4702003D01*
X5813910Y4701387D01*
X5812801D01*
X5776579Y4686383D01*
X5775795Y4685599D01*
X5774707Y4685383D01*
X5742108Y4663601D01*
X5741492Y4662679D01*
X5740468Y4662255D01*
X5712745Y4634532D01*
X5712321Y4633507D01*
X5711399Y4632891D01*
X5689617Y4600292D01*
X5689400Y4599205D01*
X5688617Y4598421D01*
X5673613Y4562199D01*
Y4561090D01*
X5672997Y4560168D01*
X5665348Y4521715D01*
X5665564Y4520628D01*
X5665140Y4519603D01*
Y4480397D01*
X5665564Y4479372D01*
X5665348Y4478285D01*
X5672997Y4439832D01*
X5673613Y4438910D01*
Y4437801D01*
X5688617Y4401579D01*
X5689400Y4400795D01*
X5689617Y4399707D01*
X5711399Y4367109D01*
X5712321Y4366493D01*
X5712745Y4365469D01*
X5740468Y4337745D01*
X5741493Y4337321D01*
X5742108Y4336399D01*
X5774708Y4314617D01*
X5775795Y4314401D01*
X5776579Y4313617D01*
X5812801Y4298613D01*
X5813910D01*
X5814831Y4297997D01*
X5853285Y4290348D01*
X5864177Y4269017D01*
Y830983D01*
X5853285Y809652D01*
X5814831Y802003D01*
X5813910Y801387D01*
X5812801D01*
X5776579Y786383D01*
X5775795Y785600D01*
X5774707Y785383D01*
X5742108Y763601D01*
X5741492Y762679D01*
X5740468Y762255D01*
X5712745Y734532D01*
X5712321Y733507D01*
X5711399Y732892D01*
X5689617Y700292D01*
X5689400Y699205D01*
X5688617Y698421D01*
X5673613Y662199D01*
Y661090D01*
X5672997Y660169D01*
X5665348Y621715D01*
X5665564Y620628D01*
X5665140Y619604D01*
Y580397D01*
X5665564Y579372D01*
X5665348Y578285D01*
X5672997Y539832D01*
X5673613Y538910D01*
Y537801D01*
X5688617Y501579D01*
X5689400Y500796D01*
X5689617Y499708D01*
X5711399Y467109D01*
X5712321Y466493D01*
X5712745Y465469D01*
X5740468Y437745D01*
X5741493Y437321D01*
X5742108Y436399D01*
X5774708Y414617D01*
X5775795Y414401D01*
X5776579Y413617D01*
X5812801Y398613D01*
X5813910D01*
X5814831Y397997D01*
X5853285Y390348D01*
X5864177Y369018D01*
Y113754D01*
X5859789Y91695D01*
X5851182Y70916D01*
X5838687Y52216D01*
X5822783Y36312D01*
X5804083Y23817D01*
X5783304Y15210D01*
X5761246Y10823D01*
X4299240D01*
X4296098Y12822D01*
X4287344Y32770D01*
X4295740Y39970D01*
X4306453Y37100D01*
X4333547D01*
X4359718Y44112D01*
X4383182Y57660D01*
X4402340Y76818D01*
X4415888Y100282D01*
X4422900Y126453D01*
Y153547D01*
X4415888Y179718D01*
X4402340Y203182D01*
X4383182Y222340D01*
X4359718Y235888D01*
X4333547Y242900D01*
X4306453D01*
X4305898Y243326D01*
Y745000D01*
X5295000D01*
Y2297500D01*
X4305898D01*
Y2909273D01*
X4490727Y3094103D01*
X4920000D01*
X4929911Y3096074D01*
X4938312Y3101688D01*
X4943926Y3110090D01*
X4945898Y3120000D01*
Y3640000D01*
X4943926Y3649911D01*
X4938312Y3658312D01*
X4929911Y3663926D01*
X4920000Y3665898D01*
X4730052D01*
X4729840Y3665856D01*
X4729626Y3665894D01*
X4724884Y3664870D01*
X4720141Y3663926D01*
X4719961Y3663806D01*
X4719749Y3663760D01*
X4715762Y3661000D01*
X4711740Y3658313D01*
X4688776Y3653066D01*
X4670105Y3660800D01*
X4649895D01*
X4631224Y3653066D01*
X4608260Y3658313D01*
X4604233Y3661003D01*
X4600251Y3663760D01*
X4600039Y3663806D01*
X4599859Y3663926D01*
X4595110Y3664871D01*
X4590374Y3665894D01*
X4590161Y3665855D01*
X4589948Y3665898D01*
X3967763D01*
X3965470Y3665441D01*
X3963133Y3665480D01*
X3960563Y3664465D01*
X3957853Y3663926D01*
X3955909Y3662628D01*
X3953734Y3661769D01*
X3951748Y3659847D01*
X3949451Y3658312D01*
X3948152Y3656369D01*
X3946472Y3654743D01*
X3939934Y3645301D01*
X3938785Y3642653D01*
X3937203Y3640236D01*
X3929389Y3636954D01*
X3920105Y3640800D01*
X3899895D01*
X3890611Y3636954D01*
X3882797Y3640236D01*
X3881215Y3642653D01*
X3880066Y3645301D01*
X3873528Y3654743D01*
X3871848Y3656368D01*
X3870549Y3658312D01*
X3868251Y3659848D01*
X3866266Y3661769D01*
X3864091Y3662627D01*
X3862147Y3663926D01*
X3859437Y3664465D01*
X3856867Y3665480D01*
X3854530Y3665441D01*
X3852237Y3665898D01*
X3575962D01*
X3575164Y3665739D01*
X3574358Y3665848D01*
X3570234Y3664758D01*
X3566052Y3663926D01*
X3565375Y3663475D01*
X3564588Y3663266D01*
X3561195Y3660682D01*
X3557650Y3658312D01*
X3557198Y3657636D01*
X3556550Y3657143D01*
X3554406Y3653457D01*
X3552036Y3649911D01*
X3551877Y3649112D01*
X3551468Y3648409D01*
X3545728Y3631690D01*
X3518873D01*
X3513133Y3648409D01*
X3512723Y3649112D01*
X3512565Y3649911D01*
X3510195Y3653457D01*
X3508050Y3657143D01*
X3507403Y3657636D01*
X3506951Y3658312D01*
X3503405Y3660682D01*
X3500012Y3663266D01*
X3499225Y3663475D01*
X3498549Y3663926D01*
X3494366Y3664758D01*
X3490243Y3665848D01*
X3489437Y3665739D01*
X3488638Y3665898D01*
X2580800D01*
Y3680105D01*
X2573066Y3698776D01*
X2558776Y3713066D01*
X2540105Y3720800D01*
X2519895D01*
X2501224Y3713066D01*
X2486934Y3698776D01*
X2479200Y3680105D01*
Y3665898D01*
X2420800D01*
Y3680105D01*
X2413066Y3698776D01*
X2398776Y3713066D01*
X2380105Y3720800D01*
X2359895D01*
X2341224Y3713066D01*
X2326934Y3698776D01*
X2319200Y3680105D01*
Y3665898D01*
X1885312D01*
X1882810Y3665400D01*
X1880260D01*
X1877903Y3664424D01*
X1875401Y3663926D01*
X1873280Y3662509D01*
X1870924Y3661533D01*
X1869120Y3659730D01*
X1866999Y3658312D01*
X1865582Y3656191D01*
X1863779Y3654388D01*
X1857167Y3644493D01*
X1856191Y3642136D01*
X1854773Y3640015D01*
X1854276Y3637513D01*
X1853300Y3635157D01*
Y3632606D01*
X1852802Y3630105D01*
Y3615047D01*
X1849011Y3605894D01*
X1842006Y3598889D01*
X1832853Y3595098D01*
X1822946D01*
X1813793Y3598889D01*
X1806788Y3605894D01*
X1802997Y3615047D01*
Y3630105D01*
X1802500Y3632606D01*
Y3635157D01*
X1801523Y3637513D01*
X1801026Y3640015D01*
X1799609Y3642136D01*
X1798632Y3644493D01*
X1792020Y3654388D01*
X1790217Y3656191D01*
X1788800Y3658312D01*
X1786679Y3659730D01*
X1784875Y3661533D01*
X1782519Y3662509D01*
X1780398Y3663926D01*
X1777896Y3664424D01*
X1775540Y3665400D01*
X1772989D01*
X1770487Y3665898D01*
X600000D01*
X590089Y3663926D01*
X581688Y3658312D01*
X576074Y3649911D01*
X574102Y3640000D01*
Y2282036D01*
X574902Y2278014D01*
Y2261986D01*
X574102Y2257965D01*
Y2212035D01*
X574902Y2208014D01*
Y2191985D01*
X574102Y2187965D01*
Y2112036D01*
X574902Y2108015D01*
Y2091986D01*
X574102Y2087965D01*
Y1868353D01*
X550104Y1850800D01*
X529895D01*
X511224Y1843066D01*
X496934Y1828776D01*
X489200Y1810105D01*
Y1789895D01*
X496934Y1771224D01*
X501589Y1766568D01*
X508381Y1750000D01*
X501589Y1733432D01*
X496933Y1728776D01*
X489200Y1710105D01*
Y1689896D01*
X496933Y1671224D01*
X501589Y1666568D01*
X508381Y1650000D01*
X501589Y1633432D01*
X496933Y1628776D01*
X489200Y1610105D01*
Y1589895D01*
X496933Y1571224D01*
X511224Y1556934D01*
X529895Y1549200D01*
X550104D01*
X553237Y1548197D01*
X565624Y1525614D01*
X559200Y1510105D01*
Y1489895D01*
X566934Y1471224D01*
X581224Y1456934D01*
X599895Y1449200D01*
X605824Y1443335D01*
X597550Y1415792D01*
X594948Y1415274D01*
X592591Y1414298D01*
X590089Y1413801D01*
X587969Y1412384D01*
X585612Y1411407D01*
X583809Y1409604D01*
X581688Y1408187D01*
X580271Y1406066D01*
X578467Y1404262D01*
X577491Y1401906D01*
X576074Y1399785D01*
X575576Y1397283D01*
X574600Y1394927D01*
Y1392376D01*
X574102Y1389874D01*
Y1235945D01*
X566934Y1228776D01*
X559200Y1210105D01*
Y1189896D01*
X566934Y1171224D01*
X574102Y1164055D01*
Y1135945D01*
X566934Y1128776D01*
X559200Y1110105D01*
Y1089895D01*
X566934Y1071224D01*
X574102Y1064056D01*
Y200000D01*
X576074Y190089D01*
X581688Y181687D01*
X727152Y36223D01*
X716631Y10823D01*
X113754D01*
X91696Y15210D01*
X70916Y23817D01*
X52216Y36312D01*
X36312Y52217D01*
X23817Y70916D01*
X15210Y91696D01*
X12500Y105321D01*
Y4267896D01*
X21715Y4290348D01*
X60168Y4297997D01*
X61090Y4298613D01*
X62199D01*
X98421Y4313616D01*
X99205Y4314400D01*
X100292Y4314616D01*
X132891Y4336399D01*
X133507Y4337321D01*
X134531Y4337745D01*
X162255Y4365468D01*
X162679Y4366492D01*
X163601Y4367108D01*
X185383Y4399707D01*
X185599Y4400795D01*
X186383Y4401579D01*
X201387Y4437801D01*
Y4438909D01*
X202003Y4439831D01*
X209652Y4478284D01*
X209435Y4479372D01*
X209860Y4480396D01*
Y4519603D01*
X209435Y4520627D01*
X209652Y4521715D01*
X202003Y4560168D01*
X201387Y4561090D01*
Y4562198D01*
X186383Y4598420D01*
X185599Y4599204D01*
X185383Y4600292D01*
X163601Y4632891D01*
X162679Y4633507D01*
X162255Y4634531D01*
X134532Y4662254D01*
X133507Y4662679D01*
X132891Y4663600D01*
X100292Y4685383D01*
X99205Y4685599D01*
X98421Y4686383D01*
X62199Y4701386D01*
X61090D01*
X60168Y4702002D01*
X21715Y4709651D01*
X12500Y4732103D01*
Y4994679D01*
X15210Y5008304D01*
X23817Y5029083D01*
X36312Y5047784D01*
X52217Y5063688D01*
X70916Y5076182D01*
X91696Y5084789D01*
X113754Y5089177D01*
X5761245D01*
X5783304Y5084789D01*
D02*
G37*
G36*
X3097722Y221755D02*
X3115281Y211617D01*
X3129617Y197281D01*
X3139755Y179722D01*
X3145002Y160137D01*
Y139863D01*
X3139755Y120278D01*
X3129617Y102719D01*
X3115280Y88383D01*
X3114319Y87828D01*
X3113035Y86702D01*
X3111503Y85946D01*
X3109268Y83398D01*
X3106722Y81165D01*
X3105967Y79634D01*
X3104840Y78349D01*
X3103751Y75140D01*
X3102253Y72102D01*
X3102141Y70398D01*
X3101592Y68780D01*
X3101814Y65400D01*
X3101592Y62019D01*
X3102141Y60402D01*
X3102253Y58697D01*
X3108275Y36223D01*
X3104316Y24096D01*
X3097586Y14710D01*
X3097368Y14443D01*
X3093231Y10823D01*
X3042769D01*
X3038632Y14443D01*
X3038414Y14710D01*
X3031684Y24096D01*
X3027725Y36223D01*
X3033747Y58697D01*
X3033859Y60402D01*
X3034408Y62019D01*
X3034186Y65400D01*
X3034408Y68780D01*
X3033859Y70398D01*
X3033747Y72102D01*
X3032249Y75140D01*
X3031160Y78349D01*
X3030033Y79634D01*
X3029278Y81165D01*
X3026732Y83398D01*
X3024497Y85946D01*
X3022965Y86702D01*
X3021681Y87828D01*
X3020720Y88383D01*
X3006383Y102719D01*
X2996245Y120278D01*
X2990998Y139863D01*
Y160137D01*
X2996245Y179722D01*
X3006383Y197281D01*
X3020719Y211617D01*
X3038278Y221755D01*
X3057863Y227002D01*
X3078137D01*
X3097722Y221755D01*
D02*
G37*
G36*
X1155722Y211755D02*
X1173280Y201617D01*
X1187617Y187281D01*
X1197755Y169722D01*
X1203002Y150137D01*
Y129863D01*
X1197755Y110278D01*
X1187617Y92719D01*
X1178610Y83712D01*
X1172996Y75310D01*
X1171025Y65400D01*
X1172996Y55489D01*
X1172996Y55489D01*
X1180976Y36223D01*
X1173180Y18822D01*
X1165842Y10823D01*
X1086157D01*
X1078819Y18822D01*
X1071023Y36223D01*
X1079004Y55489D01*
X1080975Y65400D01*
X1079004Y75310D01*
X1073390Y83712D01*
X1064383Y92719D01*
X1054245Y110278D01*
X1048997Y129863D01*
Y150137D01*
X1054245Y169722D01*
X1064383Y187281D01*
X1078719Y201617D01*
X1096278Y211755D01*
X1115862Y217002D01*
X1136137D01*
X1155722Y211755D01*
D02*
G37*
%LPC*%
G36*
X2010105Y3600800D02*
X1989895D01*
X1971224Y3593066D01*
X1956934Y3578776D01*
X1949200Y3560105D01*
Y3539895D01*
X1956934Y3521224D01*
X1971224Y3506934D01*
X1989895Y3499200D01*
X2010105D01*
X2028776Y3506934D01*
X2043066Y3521224D01*
X2050800Y3539895D01*
Y3560105D01*
X2043066Y3578776D01*
X2028776Y3593066D01*
X2010105Y3600800D01*
D02*
G37*
G36*
X3700105Y3590800D02*
X3679896D01*
X3661224Y3583066D01*
X3646934Y3568776D01*
X3639200Y3550105D01*
Y3529896D01*
X3646934Y3511224D01*
X3661224Y3496934D01*
X3679896Y3489200D01*
X3700105D01*
X3718776Y3496934D01*
X3733066Y3511224D01*
X3740800Y3529896D01*
Y3550105D01*
X3733066Y3568776D01*
X3718776Y3583066D01*
X3700105Y3590800D01*
D02*
G37*
G36*
X3120604Y3560300D02*
X3100395D01*
X3081724Y3552566D01*
X3067434Y3538276D01*
X3059700Y3519605D01*
Y3499396D01*
X3067434Y3480724D01*
X3081724Y3466434D01*
X3100395Y3458700D01*
X3120604D01*
X3139276Y3466434D01*
X3153566Y3480724D01*
X3161300Y3499396D01*
Y3519605D01*
X3153566Y3538276D01*
X3139276Y3552566D01*
X3120604Y3560300D01*
D02*
G37*
G36*
X1840105Y3520800D02*
X1819895D01*
X1801224Y3513066D01*
X1786934Y3498776D01*
X1779200Y3480105D01*
Y3459895D01*
X1786934Y3441224D01*
X1801224Y3426934D01*
X1819895Y3419200D01*
X1840105D01*
X1858776Y3426934D01*
X1873066Y3441224D01*
X1880800Y3459895D01*
Y3480105D01*
X1873066Y3498776D01*
X1858776Y3513066D01*
X1840105Y3520800D01*
D02*
G37*
G36*
X1102900Y3596900D02*
X897100D01*
Y3391100D01*
X1102900D01*
Y3596900D01*
D02*
G37*
G36*
X1663810Y3378506D02*
X1643601D01*
X1624929Y3370772D01*
X1620274Y3366116D01*
X1603705Y3359324D01*
X1587137Y3366116D01*
X1582481Y3370772D01*
X1563810Y3378506D01*
X1543601D01*
X1524929Y3370772D01*
X1520274Y3366116D01*
X1503705Y3359324D01*
X1487137Y3366116D01*
X1482481Y3370772D01*
X1463810Y3378506D01*
X1443601D01*
X1424929Y3370772D01*
X1420274Y3366116D01*
X1403705Y3359324D01*
X1387137Y3366116D01*
X1382481Y3370772D01*
X1363810Y3378506D01*
X1343601D01*
X1324929Y3370772D01*
X1320273Y3366116D01*
X1303705Y3359324D01*
X1287137Y3366116D01*
X1282481Y3370772D01*
X1263810Y3378506D01*
X1243601D01*
X1224929Y3370772D01*
X1210639Y3356481D01*
X1202905Y3337810D01*
Y3317601D01*
X1208578Y3303906D01*
X1201290Y3286609D01*
X1195142Y3278506D01*
X1193601D01*
X1174929Y3270772D01*
X1160639Y3256481D01*
X1152905Y3237810D01*
Y3217601D01*
X1160639Y3198930D01*
X1174929Y3184639D01*
X1193601Y3176906D01*
X1195142D01*
X1201290Y3168802D01*
X1208578Y3151505D01*
X1202905Y3137810D01*
Y3117601D01*
X1208578Y3103906D01*
X1201290Y3086609D01*
X1195142Y3078505D01*
X1193601D01*
X1174929Y3070772D01*
X1160639Y3056481D01*
X1152905Y3037810D01*
Y3017601D01*
X1160639Y2998929D01*
X1174929Y2984639D01*
X1193601Y2976905D01*
X1213810D01*
X1232481Y2984639D01*
X1237137Y2989295D01*
X1253705Y2996087D01*
X1270274Y2989295D01*
X1274929Y2984639D01*
X1293601Y2976905D01*
X1313810D01*
X1332481Y2984639D01*
X1337137Y2989295D01*
X1353705Y2996087D01*
X1370274Y2989295D01*
X1374929Y2984639D01*
X1393601Y2976905D01*
X1413810D01*
X1432481Y2984639D01*
X1437137Y2989295D01*
X1453705Y2996087D01*
X1470274Y2989295D01*
X1474929Y2984639D01*
X1493601Y2976905D01*
X1513810D01*
X1532481Y2984639D01*
X1537137Y2989295D01*
X1553706Y2996087D01*
X1570274Y2989295D01*
X1574930Y2984639D01*
X1593601Y2976905D01*
X1613810D01*
X1632481Y2984639D01*
X1637137Y2989295D01*
X1653706Y2996087D01*
X1670274Y2989295D01*
X1674930Y2984639D01*
X1693601Y2976905D01*
X1713810D01*
X1732481Y2984639D01*
X1737137Y2989295D01*
X1753706Y2996087D01*
X1770274Y2989295D01*
X1774930Y2984639D01*
X1783457Y2981107D01*
X1791100Y2955127D01*
X1790816Y2952659D01*
X1786934Y2948776D01*
X1779200Y2930105D01*
Y2909895D01*
X1786934Y2891224D01*
X1801224Y2876934D01*
X1819895Y2869200D01*
X1840105D01*
X1858776Y2876934D01*
X1873066Y2891224D01*
X1880800Y2909895D01*
Y2930105D01*
X1873066Y2948776D01*
X1868246Y2953596D01*
X1865961Y2983102D01*
X1867360Y2987003D01*
X1870017Y2989400D01*
X1870274Y2989295D01*
X1874930Y2984639D01*
X1893601Y2976905D01*
X1913810D01*
X1932482Y2984639D01*
X1946772Y2998929D01*
X1954506Y3017601D01*
Y3037810D01*
X1946772Y3056481D01*
X1932482Y3070772D01*
X1913810Y3078505D01*
X1893601D01*
X1874930Y3070772D01*
X1870274Y3066116D01*
X1853705Y3059324D01*
X1837137Y3066116D01*
X1832481Y3070772D01*
X1813810Y3078505D01*
X1812269D01*
X1806120Y3086609D01*
X1798833Y3103906D01*
X1804505Y3117601D01*
Y3137810D01*
X1796772Y3156481D01*
X1782481Y3170772D01*
X1763810Y3178505D01*
X1762269D01*
X1756120Y3186609D01*
X1748833Y3203906D01*
X1754506Y3217601D01*
Y3237810D01*
X1746772Y3256481D01*
X1732481Y3270772D01*
X1713810Y3278506D01*
X1712269D01*
X1706120Y3286609D01*
X1698833Y3303906D01*
X1704505Y3317601D01*
Y3337810D01*
X1696772Y3356481D01*
X1682481Y3370772D01*
X1663810Y3378506D01*
D02*
G37*
G36*
X2320105Y3450800D02*
X2299895D01*
X2281224Y3443066D01*
X2266934Y3428776D01*
X2259200Y3410105D01*
Y3389895D01*
X2266934Y3371224D01*
X2281224Y3356934D01*
X2299895Y3349200D01*
X2320105D01*
X2338776Y3356934D01*
X2353066Y3371224D01*
X2360800Y3389895D01*
Y3410105D01*
X2353066Y3428776D01*
X2338776Y3443066D01*
X2320105Y3450800D01*
D02*
G37*
G36*
X4200105Y3440800D02*
X4179895D01*
X4161224Y3433066D01*
X4146934Y3418776D01*
X4139200Y3400105D01*
Y3379895D01*
X4146934Y3361224D01*
X4161224Y3346934D01*
X4179895Y3339200D01*
X4200105D01*
X4218776Y3346934D01*
X4233066Y3361224D01*
X4240800Y3379895D01*
Y3400105D01*
X4233066Y3418776D01*
X4218776Y3433066D01*
X4200105Y3440800D01*
D02*
G37*
G36*
X2650105Y3430800D02*
X2629895D01*
X2611224Y3423066D01*
X2596934Y3408776D01*
X2589200Y3390105D01*
Y3369895D01*
X2596934Y3351224D01*
X2611224Y3336934D01*
X2629895Y3329200D01*
X2650105D01*
X2668776Y3336934D01*
X2683066Y3351224D01*
X2690800Y3369895D01*
Y3390105D01*
X2683066Y3408776D01*
X2668776Y3423066D01*
X2650105Y3430800D01*
D02*
G37*
G36*
X3485985Y3416680D02*
X3465775D01*
X3447104Y3408946D01*
X3432814Y3394656D01*
X3425080Y3375985D01*
Y3355775D01*
X3432814Y3337104D01*
X3447104Y3322814D01*
X3465775Y3315080D01*
X3485985D01*
X3504656Y3322814D01*
X3518946Y3337104D01*
X3526680Y3355775D01*
Y3375985D01*
X3518946Y3394656D01*
X3504656Y3408946D01*
X3485985Y3416680D01*
D02*
G37*
G36*
X3605400Y3327780D02*
X3554600D01*
Y3292220D01*
X3605400D01*
Y3327780D01*
D02*
G37*
G36*
X3797780Y3395400D02*
X3762220D01*
Y3350393D01*
X3759861D01*
X3741190Y3342660D01*
X3726900Y3328369D01*
X3719166Y3309698D01*
Y3289489D01*
X3726900Y3270817D01*
X3741190Y3256527D01*
X3759861Y3248793D01*
X3780071D01*
X3798742Y3256527D01*
X3813032Y3270817D01*
X3820766Y3289489D01*
Y3309698D01*
X3813032Y3328369D01*
X3797780Y3344600D01*
Y3395400D01*
D02*
G37*
G36*
X4830105Y3340800D02*
X4809895D01*
X4791224Y3333066D01*
X4776934Y3318776D01*
X4769200Y3300105D01*
Y3279895D01*
X4776934Y3261224D01*
X4791224Y3246934D01*
X4809895Y3239200D01*
X4830105D01*
X4848776Y3246934D01*
X4863066Y3261224D01*
X4870800Y3279895D01*
Y3300105D01*
X4863066Y3318776D01*
X4848776Y3333066D01*
X4830105Y3340800D01*
D02*
G37*
G36*
X4610105Y3320800D02*
X4589895D01*
X4571224Y3313066D01*
X4556934Y3298776D01*
X4549200Y3280105D01*
Y3259895D01*
X4556934Y3241224D01*
X4571224Y3226934D01*
X4589895Y3219200D01*
X4610105D01*
X4628776Y3226934D01*
X4643066Y3241224D01*
X4650800Y3259895D01*
Y3280105D01*
X4643066Y3298776D01*
X4628776Y3313066D01*
X4610105Y3320800D01*
D02*
G37*
G36*
X3410105Y3310800D02*
X3389895D01*
X3371224Y3303066D01*
X3356934Y3288776D01*
X3349200Y3270105D01*
Y3249895D01*
X3356934Y3231224D01*
X3371224Y3216934D01*
X3389895Y3209200D01*
X3410105D01*
X3428776Y3216934D01*
X3443066Y3231224D01*
X3450800Y3249895D01*
Y3270105D01*
X3443066Y3288776D01*
X3428776Y3303066D01*
X3410105Y3310800D01*
D02*
G37*
G36*
X4220105Y3300800D02*
X4199895D01*
X4181224Y3293066D01*
X4166934Y3278776D01*
X4159200Y3260105D01*
Y3239895D01*
X4166934Y3221224D01*
X4181224Y3206934D01*
X4199895Y3199200D01*
X4220105D01*
X4238776Y3206934D01*
X4253066Y3221224D01*
X4254600Y3224927D01*
X4260800Y3239895D01*
Y3260105D01*
X4253066Y3278776D01*
X4238776Y3293066D01*
X4220105Y3300800D01*
D02*
G37*
G36*
X1984490Y3424826D02*
X1855175Y3295510D01*
X1975510Y3175174D01*
X2104826Y3304490D01*
X1984490Y3424826D01*
D02*
G37*
G36*
X2440105Y3370800D02*
X2419895D01*
X2401224Y3363066D01*
X2386934Y3348776D01*
X2379200Y3330105D01*
Y3309895D01*
X2386934Y3291224D01*
X2401224Y3276934D01*
X2414374Y3271487D01*
X2421212Y3252983D01*
X2421958Y3243800D01*
X2416934Y3238776D01*
X2409200Y3220105D01*
Y3199895D01*
X2416934Y3181224D01*
X2431224Y3166934D01*
X2449895Y3159200D01*
X2470105D01*
X2488776Y3166934D01*
X2503066Y3181224D01*
X2510800Y3199895D01*
Y3220105D01*
X2503066Y3238776D01*
X2488776Y3253066D01*
X2475626Y3258513D01*
X2468788Y3277017D01*
X2468042Y3286200D01*
X2473066Y3291224D01*
X2480800Y3309895D01*
Y3330105D01*
X2473066Y3348776D01*
X2458776Y3363066D01*
X2440105Y3370800D01*
D02*
G37*
G36*
X1013547Y3342900D02*
X986453D01*
X960282Y3335888D01*
X936818Y3322341D01*
X917660Y3303182D01*
X904112Y3279718D01*
X897100Y3253547D01*
Y3226453D01*
X904112Y3200282D01*
X917660Y3176818D01*
X936818Y3157660D01*
X960282Y3144113D01*
X986453Y3137100D01*
X1013547D01*
X1039718Y3144113D01*
X1063182Y3157660D01*
X1082340Y3176818D01*
X1095888Y3200282D01*
X1102900Y3226453D01*
Y3253547D01*
X1095888Y3279718D01*
X1082340Y3303182D01*
X1063182Y3322341D01*
X1039718Y3335888D01*
X1013547Y3342900D01*
D02*
G37*
G36*
X2830105Y3180800D02*
X2809895D01*
X2791224Y3173066D01*
X2776934Y3158776D01*
X2769200Y3140105D01*
Y3119895D01*
X2776934Y3101224D01*
X2791224Y3086934D01*
X2809895Y3079200D01*
X2830105D01*
X2848776Y3086934D01*
X2863066Y3101224D01*
X2870800Y3119895D01*
Y3140105D01*
X2863066Y3158776D01*
X2848776Y3173066D01*
X2830105Y3180800D01*
D02*
G37*
G36*
X3620105Y3175800D02*
X3599895D01*
X3581224Y3168066D01*
X3566934Y3153776D01*
X3559200Y3135105D01*
Y3114895D01*
X3560275Y3112300D01*
X3543303Y3086900D01*
X3514600D01*
Y3051340D01*
X3565400D01*
Y3063088D01*
X3567635Y3065750D01*
X3590800Y3077967D01*
X3599895Y3074200D01*
X3620105D01*
X3638776Y3081934D01*
X3653066Y3096224D01*
X3660800Y3114895D01*
Y3135105D01*
X3653066Y3153776D01*
X3638776Y3168066D01*
X3620105Y3175800D01*
D02*
G37*
G36*
X2613547Y3042900D02*
X2586453D01*
X2560282Y3035888D01*
X2536818Y3022340D01*
X2517659Y3003182D01*
X2504112Y2979718D01*
X2497100Y2953547D01*
Y2926453D01*
X2504112Y2900282D01*
X2517659Y2876818D01*
X2536818Y2857660D01*
X2560282Y2844112D01*
X2586453Y2837100D01*
X2613547D01*
X2639718Y2844112D01*
X2663182Y2857660D01*
X2682340Y2876818D01*
X2695887Y2900282D01*
X2702900Y2926453D01*
Y2953547D01*
X2695887Y2979718D01*
X2682340Y3003182D01*
X2663182Y3022340D01*
X2639718Y3035888D01*
X2613547Y3042900D01*
D02*
G37*
G36*
X2335105Y2865800D02*
X2314895D01*
X2296224Y2858066D01*
X2281934Y2843776D01*
X2274200Y2825105D01*
Y2804895D01*
X2281934Y2786224D01*
X2296224Y2771934D01*
X2314895Y2764200D01*
X2335105D01*
X2353776Y2771934D01*
X2368066Y2786224D01*
X2375800Y2804895D01*
Y2825105D01*
X2368066Y2843776D01*
X2353776Y2858066D01*
X2335105Y2865800D01*
D02*
G37*
G36*
X1840105Y2800800D02*
X1819895D01*
X1801224Y2793066D01*
X1786934Y2778776D01*
X1779200Y2760105D01*
Y2739895D01*
X1786934Y2721224D01*
X1801224Y2706934D01*
X1819895Y2699200D01*
X1840105D01*
X1858776Y2706934D01*
X1873066Y2721224D01*
X1880800Y2739895D01*
Y2760105D01*
X1873066Y2778776D01*
X1858776Y2793066D01*
X1840105Y2800800D01*
D02*
G37*
G36*
X2055105Y2785800D02*
X2034895D01*
X2016224Y2778066D01*
X2001934Y2763776D01*
X1994200Y2745104D01*
Y2724895D01*
X2001934Y2706224D01*
X2016224Y2691934D01*
X2034895Y2684200D01*
X2055105D01*
X2073776Y2691934D01*
X2088066Y2706224D01*
X2095800Y2724895D01*
Y2745104D01*
X2088066Y2763776D01*
X2073776Y2778066D01*
X2055105Y2785800D01*
D02*
G37*
G36*
X2440105Y2750800D02*
X2419895D01*
X2401224Y2743066D01*
X2386934Y2728776D01*
X2379200Y2710105D01*
Y2689895D01*
X2386934Y2671224D01*
X2401224Y2656934D01*
X2419895Y2649200D01*
X2440105D01*
X2458776Y2656934D01*
X2473066Y2671224D01*
X2480800Y2689895D01*
Y2710105D01*
X2473066Y2728776D01*
X2458776Y2743066D01*
X2440105Y2750800D01*
D02*
G37*
G36*
X3670105Y2740800D02*
X3649895D01*
X3631224Y2733066D01*
X3616934Y2718776D01*
X3609200Y2700105D01*
Y2679895D01*
X3616934Y2661224D01*
X3631224Y2646934D01*
X3649895Y2639200D01*
X3670105D01*
X3688776Y2646934D01*
X3703066Y2661224D01*
X3710800Y2679895D01*
Y2700105D01*
X3703066Y2718776D01*
X3688776Y2733066D01*
X3670105Y2740800D01*
D02*
G37*
G36*
X1070105Y2350800D02*
X1049895D01*
X1031224Y2343066D01*
X1016934Y2328776D01*
X1009200Y2310105D01*
Y2289895D01*
X1016934Y2271224D01*
X1031224Y2256934D01*
X1049895Y2249200D01*
X1070105D01*
X1088776Y2256934D01*
X1103066Y2271224D01*
X1110800Y2289895D01*
Y2310105D01*
X1103066Y2328776D01*
X1088776Y2343066D01*
X1070105Y2350800D01*
D02*
G37*
G36*
X3670105Y2330800D02*
X3649895D01*
X3631224Y2323066D01*
X3616934Y2308776D01*
X3609200Y2290105D01*
Y2269895D01*
X3616934Y2251224D01*
X3631224Y2236934D01*
X3649895Y2229200D01*
X3670105D01*
X3688776Y2236934D01*
X3703066Y2251224D01*
X3710800Y2269895D01*
Y2290105D01*
X3703066Y2308776D01*
X3688776Y2323066D01*
X3670105Y2330800D01*
D02*
G37*
G36*
X890105Y2230800D02*
X869895D01*
X851224Y2223066D01*
X836934Y2208776D01*
X829200Y2190105D01*
Y2169895D01*
X836934Y2151224D01*
X851224Y2136934D01*
X869895Y2129200D01*
X890105D01*
X908776Y2136934D01*
X923066Y2151224D01*
X930800Y2169895D01*
Y2190105D01*
X923066Y2208776D01*
X908776Y2223066D01*
X890105Y2230800D01*
D02*
G37*
G36*
X1572605Y2200800D02*
X1552395D01*
X1533724Y2193066D01*
X1519434Y2178776D01*
X1511700Y2160105D01*
Y2139895D01*
X1519434Y2121224D01*
X1533724Y2106934D01*
X1552395Y2099200D01*
X1572605D01*
X1591276Y2106934D01*
X1605566Y2121224D01*
X1613300Y2139895D01*
Y2160105D01*
X1605566Y2178776D01*
X1591276Y2193066D01*
X1572605Y2200800D01*
D02*
G37*
G36*
X1090105D02*
X1069895D01*
X1051224Y2193066D01*
X1036934Y2178776D01*
X1029200Y2160105D01*
Y2139895D01*
X1036934Y2121224D01*
X1051224Y2106934D01*
X1069895Y2099200D01*
X1090105D01*
X1108776Y2106934D01*
X1123066Y2121224D01*
X1130800Y2139895D01*
Y2160105D01*
X1123066Y2178776D01*
X1108776Y2193066D01*
X1090105Y2200800D01*
D02*
G37*
G36*
X1375105Y2078300D02*
X1354895D01*
X1336224Y2070566D01*
X1321934Y2056276D01*
X1314200Y2037605D01*
Y2017395D01*
X1321934Y1998724D01*
X1336224Y1984434D01*
X1354895Y1976700D01*
X1375105D01*
X1393776Y1984434D01*
X1408066Y1998724D01*
X1415800Y2017395D01*
Y2037605D01*
X1408066Y2056276D01*
X1393776Y2070566D01*
X1375105Y2078300D01*
D02*
G37*
G36*
X3130104Y1960800D02*
X3109895D01*
X3091224Y1953066D01*
X3076934Y1938776D01*
X3069200Y1920104D01*
Y1899895D01*
X3076934Y1881224D01*
X3091224Y1866934D01*
X3109895Y1859200D01*
X3130104D01*
X3148776Y1866934D01*
X3163066Y1881224D01*
X3170800Y1899895D01*
Y1920104D01*
X3163066Y1938776D01*
X3148776Y1953066D01*
X3130104Y1960800D01*
D02*
G37*
G36*
X2988801Y1928497D02*
X2968592D01*
X2949920Y1920763D01*
X2935630Y1906473D01*
X2927896Y1887802D01*
Y1877994D01*
X2919324Y1863121D01*
X2905288Y1855800D01*
X2902105D01*
X2890469Y1861869D01*
X2879496Y1876914D01*
Y1887802D01*
X2871763Y1906473D01*
X2857472Y1920763D01*
X2838801Y1928497D01*
X2818592D01*
X2799920Y1920763D01*
X2785630Y1906473D01*
X2777896Y1887802D01*
Y1867593D01*
X2785630Y1848921D01*
X2799920Y1834631D01*
X2818592Y1826897D01*
X2831592D01*
X2843227Y1820828D01*
X2854200Y1805783D01*
Y1794895D01*
X2861934Y1776224D01*
X2876224Y1761934D01*
X2894895Y1754200D01*
X2915105D01*
X2933776Y1761934D01*
X2948066Y1776224D01*
X2955800Y1794895D01*
Y1804703D01*
X2964372Y1819576D01*
X2978408Y1826897D01*
X2988801D01*
X3007472Y1834631D01*
X3021763Y1848921D01*
X3029496Y1867593D01*
Y1887802D01*
X3021763Y1906473D01*
X3007472Y1920763D01*
X2988801Y1928497D01*
D02*
G37*
G36*
X4188801D02*
X4168591D01*
X4149920Y1920763D01*
X4135630Y1906473D01*
X4127896Y1887802D01*
Y1867593D01*
X4135630Y1848921D01*
X4149920Y1834631D01*
X4168591Y1826897D01*
X4188801D01*
X4207472Y1834631D01*
X4221762Y1848921D01*
X4229496Y1867593D01*
Y1887802D01*
X4221762Y1906473D01*
X4207472Y1920763D01*
X4188801Y1928497D01*
D02*
G37*
G36*
X4038801D02*
X4018591D01*
X3999920Y1920763D01*
X3985630Y1906473D01*
X3977896Y1887802D01*
Y1867593D01*
X3985630Y1848921D01*
X3999920Y1834631D01*
X4018591Y1826897D01*
X4038801D01*
X4057472Y1834631D01*
X4071762Y1848921D01*
X4079496Y1867593D01*
Y1887802D01*
X4071762Y1906473D01*
X4057472Y1920763D01*
X4038801Y1928497D01*
D02*
G37*
G36*
X3888801D02*
X3868591D01*
X3849920Y1920763D01*
X3835630Y1906473D01*
X3827896Y1887802D01*
Y1867593D01*
X3835630Y1848921D01*
X3849920Y1834631D01*
X3868591Y1826897D01*
X3888801D01*
X3907472Y1834631D01*
X3921762Y1848921D01*
X3929496Y1867593D01*
Y1887802D01*
X3921762Y1906473D01*
X3907472Y1920763D01*
X3888801Y1928497D01*
D02*
G37*
G36*
X3738801D02*
X3718591D01*
X3699920Y1920763D01*
X3685630Y1906473D01*
X3677896Y1887802D01*
Y1867593D01*
X3685630Y1848921D01*
X3699920Y1834631D01*
X3718591Y1826897D01*
X3738801D01*
X3757472Y1834631D01*
X3771762Y1848921D01*
X3779496Y1867593D01*
Y1887802D01*
X3771762Y1906473D01*
X3757472Y1920763D01*
X3738801Y1928497D01*
D02*
G37*
G36*
X3588801D02*
X3568592D01*
X3549920Y1920763D01*
X3535630Y1906473D01*
X3527896Y1887802D01*
Y1867593D01*
X3535630Y1848921D01*
X3549920Y1834631D01*
X3568592Y1826897D01*
X3588801D01*
X3607472Y1834631D01*
X3621762Y1848921D01*
X3629496Y1867593D01*
Y1887802D01*
X3621762Y1906473D01*
X3607472Y1920763D01*
X3588801Y1928497D01*
D02*
G37*
G36*
X3438801D02*
X3418592D01*
X3399920Y1920763D01*
X3385630Y1906473D01*
X3377896Y1887802D01*
Y1867593D01*
X3385630Y1848921D01*
X3399920Y1834631D01*
X3418592Y1826897D01*
X3438801D01*
X3457472Y1834631D01*
X3471762Y1848921D01*
X3479496Y1867593D01*
Y1887802D01*
X3471762Y1906473D01*
X3457472Y1920763D01*
X3438801Y1928497D01*
D02*
G37*
G36*
X1375105Y1928300D02*
X1354895D01*
X1336224Y1920566D01*
X1321934Y1906276D01*
X1314200Y1887605D01*
Y1867395D01*
X1321934Y1848724D01*
X1336224Y1834434D01*
X1354895Y1826700D01*
X1375105D01*
X1393776Y1834434D01*
X1408066Y1848724D01*
X1415800Y1867395D01*
Y1887605D01*
X1408066Y1906276D01*
X1393776Y1920566D01*
X1375105Y1928300D01*
D02*
G37*
G36*
X4113801Y1778497D02*
X4093592D01*
X4074920Y1770764D01*
X4060630Y1756473D01*
X4052896Y1737802D01*
Y1717593D01*
X4060630Y1698921D01*
X4074920Y1684631D01*
X4093592Y1676897D01*
X4113801D01*
X4132472Y1684631D01*
X4146762Y1698921D01*
X4154496Y1717593D01*
Y1737802D01*
X4146762Y1756473D01*
X4132472Y1770764D01*
X4113801Y1778497D01*
D02*
G37*
G36*
X3963801D02*
X3943592D01*
X3924920Y1770764D01*
X3910630Y1756473D01*
X3902896Y1737802D01*
Y1717593D01*
X3910630Y1698921D01*
X3924920Y1684631D01*
X3943592Y1676897D01*
X3963801D01*
X3982472Y1684631D01*
X3996762Y1698921D01*
X4004496Y1717593D01*
Y1737802D01*
X3996762Y1756473D01*
X3982472Y1770764D01*
X3963801Y1778497D01*
D02*
G37*
G36*
X3813801D02*
X3793592D01*
X3774920Y1770764D01*
X3760630Y1756473D01*
X3752896Y1737802D01*
Y1717593D01*
X3760630Y1698921D01*
X3774920Y1684631D01*
X3793592Y1676897D01*
X3813801D01*
X3832472Y1684631D01*
X3846762Y1698921D01*
X3854496Y1717593D01*
Y1737802D01*
X3846762Y1756473D01*
X3832472Y1770764D01*
X3813801Y1778497D01*
D02*
G37*
G36*
X3663801D02*
X3643592D01*
X3624920Y1770764D01*
X3610630Y1756473D01*
X3602896Y1737802D01*
Y1717593D01*
X3610630Y1698921D01*
X3624920Y1684631D01*
X3643592Y1676897D01*
X3663801D01*
X3682472Y1684631D01*
X3696762Y1698921D01*
X3704496Y1717593D01*
Y1737802D01*
X3696762Y1756473D01*
X3682472Y1770764D01*
X3663801Y1778497D01*
D02*
G37*
G36*
X3513801D02*
X3493592D01*
X3474920Y1770764D01*
X3460630Y1756473D01*
X3452896Y1737802D01*
Y1717593D01*
X3460630Y1698921D01*
X3474920Y1684631D01*
X3493592Y1676897D01*
X3513801D01*
X3532472Y1684631D01*
X3546763Y1698921D01*
X3554496Y1717593D01*
Y1737802D01*
X3546763Y1756473D01*
X3532472Y1770764D01*
X3513801Y1778497D01*
D02*
G37*
G36*
X2463801D02*
X2443592D01*
X2424921Y1770764D01*
X2410630Y1756473D01*
X2402897Y1737802D01*
Y1717593D01*
X2410630Y1698921D01*
X2424921Y1684631D01*
X2443592Y1676897D01*
X2463801D01*
X2482473Y1684631D01*
X2496763Y1698921D01*
X2504497Y1717593D01*
Y1737802D01*
X2496763Y1756473D01*
X2482473Y1770764D01*
X2463801Y1778497D01*
D02*
G37*
G36*
X2313801D02*
X2293592D01*
X2274921Y1770764D01*
X2260630Y1756473D01*
X2252897Y1737802D01*
Y1717593D01*
X2260630Y1698921D01*
X2274921Y1684631D01*
X2293592Y1676897D01*
X2313801D01*
X2332473Y1684631D01*
X2346763Y1698921D01*
X2354497Y1717593D01*
Y1737802D01*
X2346763Y1756473D01*
X2332473Y1770764D01*
X2313801Y1778497D01*
D02*
G37*
G36*
X1990104Y1710800D02*
X1969895D01*
X1951224Y1703066D01*
X1936934Y1688776D01*
X1929200Y1670105D01*
Y1649895D01*
X1929895Y1630800D01*
X1911224Y1623066D01*
X1896934Y1608776D01*
X1889200Y1590105D01*
Y1569895D01*
X1896934Y1551224D01*
X1911224Y1536934D01*
X1929895Y1529200D01*
X1950105D01*
X1968776Y1536934D01*
X1983066Y1551224D01*
X1990800Y1569895D01*
Y1590105D01*
X1990105Y1609200D01*
X2008776Y1616934D01*
X2023066Y1631224D01*
X2030800Y1649895D01*
Y1670105D01*
X2023066Y1688776D01*
X2008776Y1703066D01*
X1990104Y1710800D01*
D02*
G37*
G36*
X4188801Y1628497D02*
X4168591D01*
X4149920Y1620764D01*
X4135630Y1606473D01*
X4127896Y1587802D01*
Y1567593D01*
X4135630Y1548921D01*
X4149920Y1534631D01*
X4168591Y1526897D01*
X4188801D01*
X4207472Y1534631D01*
X4221762Y1548921D01*
X4229496Y1567593D01*
Y1587802D01*
X4221762Y1606473D01*
X4207472Y1620764D01*
X4188801Y1628497D01*
D02*
G37*
G36*
X4038801D02*
X4018591D01*
X3999920Y1620764D01*
X3985630Y1606473D01*
X3977896Y1587802D01*
Y1567593D01*
X3985630Y1548921D01*
X3999920Y1534631D01*
X4018591Y1526897D01*
X4038801D01*
X4057472Y1534631D01*
X4071762Y1548921D01*
X4079496Y1567593D01*
Y1587802D01*
X4071762Y1606473D01*
X4057472Y1620764D01*
X4038801Y1628497D01*
D02*
G37*
G36*
X3888801D02*
X3868591D01*
X3849920Y1620764D01*
X3835630Y1606473D01*
X3827896Y1587802D01*
Y1567593D01*
X3835630Y1548921D01*
X3849920Y1534631D01*
X3868591Y1526897D01*
X3888801D01*
X3907472Y1534631D01*
X3921762Y1548921D01*
X3929496Y1567593D01*
Y1587802D01*
X3921762Y1606473D01*
X3907472Y1620764D01*
X3888801Y1628497D01*
D02*
G37*
G36*
X3738801D02*
X3718591D01*
X3699920Y1620764D01*
X3685630Y1606473D01*
X3677896Y1587802D01*
Y1567593D01*
X3685630Y1548921D01*
X3699920Y1534631D01*
X3718591Y1526897D01*
X3738801D01*
X3757472Y1534631D01*
X3771762Y1548921D01*
X3779496Y1567593D01*
Y1587802D01*
X3771762Y1606473D01*
X3757472Y1620764D01*
X3738801Y1628497D01*
D02*
G37*
G36*
X3588801D02*
X3568592D01*
X3549920Y1620764D01*
X3535630Y1606473D01*
X3527896Y1587802D01*
Y1567593D01*
X3535630Y1548921D01*
X3549920Y1534631D01*
X3568592Y1526897D01*
X3588801D01*
X3607472Y1534631D01*
X3621762Y1548921D01*
X3629496Y1567593D01*
Y1587802D01*
X3621762Y1606473D01*
X3607472Y1620764D01*
X3588801Y1628497D01*
D02*
G37*
G36*
X3438801D02*
X3418592D01*
X3399920Y1620764D01*
X3385630Y1606473D01*
X3377896Y1587802D01*
Y1567593D01*
X3385630Y1548921D01*
X3399920Y1534631D01*
X3418592Y1526897D01*
X3438801D01*
X3457472Y1534631D01*
X3471762Y1548921D01*
X3479496Y1567593D01*
Y1587802D01*
X3471762Y1606473D01*
X3457472Y1620764D01*
X3438801Y1628497D01*
D02*
G37*
G36*
X1772605Y1585800D02*
X1752395D01*
X1733724Y1578066D01*
X1719434Y1563776D01*
X1711700Y1545105D01*
Y1524895D01*
X1719434Y1506224D01*
X1733724Y1491934D01*
X1752395Y1484200D01*
X1772605D01*
X1791276Y1491934D01*
X1805566Y1506224D01*
X1813300Y1524895D01*
Y1545105D01*
X1805566Y1563776D01*
X1791276Y1578066D01*
X1772605Y1585800D01*
D02*
G37*
G36*
X1315006Y1525701D02*
X1294796D01*
X1276125Y1517967D01*
X1261835Y1503677D01*
X1254101Y1485006D01*
Y1464796D01*
X1261835Y1446125D01*
X1276125Y1431835D01*
X1294796Y1424101D01*
X1315006D01*
X1333677Y1431835D01*
X1347967Y1446125D01*
X1355701Y1464796D01*
Y1485006D01*
X1347967Y1503677D01*
X1333677Y1517967D01*
X1315006Y1525701D01*
D02*
G37*
G36*
X3070105Y1510800D02*
X3049896D01*
X3031224Y1503066D01*
X3016934Y1488776D01*
X3009200Y1470105D01*
Y1449895D01*
X3016934Y1431224D01*
X3031224Y1416934D01*
X3049896Y1409200D01*
X3070105D01*
X3088776Y1416934D01*
X3103066Y1431224D01*
X3110800Y1449895D01*
Y1470105D01*
X3103066Y1488776D01*
X3088776Y1503066D01*
X3070105Y1510800D01*
D02*
G37*
G36*
X4113801Y1478497D02*
X4093592D01*
X4074920Y1470764D01*
X4060630Y1456473D01*
X4052896Y1437802D01*
Y1417593D01*
X4060630Y1398922D01*
X4074920Y1384631D01*
X4093592Y1376897D01*
X4113801D01*
X4132472Y1384631D01*
X4146762Y1398922D01*
X4154496Y1417593D01*
Y1437802D01*
X4146762Y1456473D01*
X4132472Y1470764D01*
X4113801Y1478497D01*
D02*
G37*
G36*
X3963801D02*
X3943592D01*
X3924920Y1470764D01*
X3910630Y1456473D01*
X3902896Y1437802D01*
Y1417593D01*
X3910630Y1398922D01*
X3924920Y1384631D01*
X3943592Y1376897D01*
X3963801D01*
X3982472Y1384631D01*
X3996762Y1398922D01*
X4004496Y1417593D01*
Y1437802D01*
X3996762Y1456473D01*
X3982472Y1470764D01*
X3963801Y1478497D01*
D02*
G37*
G36*
X3813801D02*
X3793592D01*
X3774920Y1470764D01*
X3760630Y1456473D01*
X3752896Y1437802D01*
Y1417593D01*
X3760630Y1398922D01*
X3774920Y1384631D01*
X3793592Y1376897D01*
X3813801D01*
X3832472Y1384631D01*
X3846762Y1398922D01*
X3854496Y1417593D01*
Y1437802D01*
X3846762Y1456473D01*
X3832472Y1470764D01*
X3813801Y1478497D01*
D02*
G37*
G36*
X3663801D02*
X3643592D01*
X3624920Y1470764D01*
X3610630Y1456473D01*
X3602896Y1437802D01*
Y1417593D01*
X3610630Y1398922D01*
X3624920Y1384631D01*
X3643592Y1376897D01*
X3663801D01*
X3682472Y1384631D01*
X3696762Y1398922D01*
X3704496Y1417593D01*
Y1437802D01*
X3696762Y1456473D01*
X3682472Y1470764D01*
X3663801Y1478497D01*
D02*
G37*
G36*
X2463801D02*
X2443592D01*
X2424921Y1470764D01*
X2410630Y1456473D01*
X2402897Y1437802D01*
Y1417593D01*
X2410630Y1398922D01*
X2424921Y1384631D01*
X2443592Y1376897D01*
X2463801D01*
X2482473Y1384631D01*
X2496763Y1398922D01*
X2504497Y1417593D01*
Y1437802D01*
X2496763Y1456473D01*
X2482473Y1470764D01*
X2463801Y1478497D01*
D02*
G37*
G36*
X2925105Y1475800D02*
X2904895D01*
X2886224Y1468066D01*
X2871934Y1453776D01*
X2864200Y1435105D01*
Y1414895D01*
X2871934Y1396224D01*
X2886224Y1381934D01*
X2904895Y1374200D01*
X2925105D01*
X2943776Y1381934D01*
X2958066Y1396224D01*
X2965800Y1414895D01*
Y1435105D01*
X2958066Y1453776D01*
X2943776Y1468066D01*
X2925105Y1475800D01*
D02*
G37*
G36*
X4188801Y1328497D02*
X4168591D01*
X4149920Y1320764D01*
X4135630Y1306473D01*
X4127896Y1287802D01*
Y1267593D01*
X4135630Y1248922D01*
X4149920Y1234631D01*
X4168591Y1226897D01*
X4188801D01*
X4207472Y1234631D01*
X4221762Y1248922D01*
X4229496Y1267593D01*
Y1287802D01*
X4221762Y1306473D01*
X4207472Y1320764D01*
X4188801Y1328497D01*
D02*
G37*
G36*
X4038801D02*
X4018591D01*
X3999920Y1320764D01*
X3985630Y1306473D01*
X3977896Y1287802D01*
Y1267593D01*
X3985630Y1248922D01*
X3999920Y1234631D01*
X4018591Y1226897D01*
X4038801D01*
X4057472Y1234631D01*
X4071762Y1248922D01*
X4079496Y1267593D01*
Y1287802D01*
X4071762Y1306473D01*
X4057472Y1320764D01*
X4038801Y1328497D01*
D02*
G37*
G36*
X3888801D02*
X3868591D01*
X3849920Y1320764D01*
X3835630Y1306473D01*
X3827896Y1287802D01*
Y1267593D01*
X3835630Y1248922D01*
X3849920Y1234631D01*
X3868591Y1226897D01*
X3888801D01*
X3907472Y1234631D01*
X3921762Y1248922D01*
X3929496Y1267593D01*
Y1287802D01*
X3921762Y1306473D01*
X3907472Y1320764D01*
X3888801Y1328497D01*
D02*
G37*
G36*
X3738801D02*
X3718591D01*
X3699920Y1320764D01*
X3685630Y1306473D01*
X3677896Y1287802D01*
Y1267593D01*
X3685630Y1248922D01*
X3699920Y1234631D01*
X3718591Y1226897D01*
X3738801D01*
X3757472Y1234631D01*
X3771762Y1248922D01*
X3779496Y1267593D01*
Y1287802D01*
X3771762Y1306473D01*
X3757472Y1320764D01*
X3738801Y1328497D01*
D02*
G37*
G36*
X3438801D02*
X3418592D01*
X3399920Y1320764D01*
X3385630Y1306473D01*
X3377896Y1287802D01*
Y1267593D01*
X3385630Y1248922D01*
X3399920Y1234631D01*
X3418592Y1226897D01*
X3438801D01*
X3457472Y1234631D01*
X3471762Y1248922D01*
X3479496Y1267593D01*
Y1287802D01*
X3471762Y1306473D01*
X3457472Y1320764D01*
X3438801Y1328497D01*
D02*
G37*
G36*
X2988801D02*
X2968592D01*
X2949920Y1320764D01*
X2935630Y1306473D01*
X2927896Y1287802D01*
Y1267593D01*
X2935630Y1248922D01*
X2949920Y1234631D01*
X2968592Y1226897D01*
X2988801D01*
X3007472Y1234631D01*
X3021763Y1248922D01*
X3029496Y1267593D01*
Y1287802D01*
X3021763Y1306473D01*
X3007472Y1320764D01*
X2988801Y1328497D01*
D02*
G37*
G36*
X2838801D02*
X2818592D01*
X2799920Y1320764D01*
X2785630Y1306473D01*
X2777896Y1287802D01*
Y1267593D01*
X2785630Y1248922D01*
X2799920Y1234631D01*
X2818592Y1226897D01*
X2838801D01*
X2857472Y1234631D01*
X2871763Y1248922D01*
X2879496Y1267593D01*
Y1287802D01*
X2871763Y1306473D01*
X2857472Y1320764D01*
X2838801Y1328497D01*
D02*
G37*
G36*
X1450105Y1300800D02*
X1429895D01*
X1411224Y1293066D01*
X1396934Y1278776D01*
X1389200Y1260105D01*
Y1239895D01*
X1396934Y1221224D01*
X1411224Y1206934D01*
X1429895Y1199200D01*
X1450105D01*
X1468776Y1206934D01*
X1483066Y1221224D01*
X1490800Y1239895D01*
Y1260105D01*
X1483066Y1278776D01*
X1468776Y1293066D01*
X1450105Y1300800D01*
D02*
G37*
G36*
X2880105Y1190800D02*
X2859896D01*
X2841224Y1183066D01*
X2826934Y1168776D01*
X2819200Y1150104D01*
Y1129895D01*
X2826934Y1111224D01*
X2841224Y1096934D01*
X2859896Y1089200D01*
X2880105D01*
X2898776Y1096934D01*
X2913067Y1111224D01*
X2920800Y1129895D01*
Y1150104D01*
X2913067Y1168776D01*
X2898776Y1183066D01*
X2880105Y1190800D01*
D02*
G37*
G36*
X4113801Y1178498D02*
X4093592D01*
X4074920Y1170764D01*
X4060630Y1156473D01*
X4052896Y1137802D01*
Y1117593D01*
X4060630Y1098922D01*
X4074920Y1084631D01*
X4093592Y1076898D01*
X4113801D01*
X4132472Y1084631D01*
X4146762Y1098922D01*
X4154496Y1117593D01*
Y1137802D01*
X4146762Y1156473D01*
X4132472Y1170764D01*
X4113801Y1178498D01*
D02*
G37*
G36*
X3963801D02*
X3943592D01*
X3924920Y1170764D01*
X3910630Y1156473D01*
X3902896Y1137802D01*
Y1117593D01*
X3910630Y1098922D01*
X3924920Y1084631D01*
X3943592Y1076898D01*
X3963801D01*
X3982472Y1084631D01*
X3996762Y1098922D01*
X4004496Y1117593D01*
Y1137802D01*
X3996762Y1156473D01*
X3982472Y1170764D01*
X3963801Y1178498D01*
D02*
G37*
G36*
X3663801D02*
X3643592D01*
X3624920Y1170764D01*
X3610630Y1156473D01*
X3602896Y1137802D01*
Y1117593D01*
X3610630Y1098922D01*
X3624920Y1084631D01*
X3643592Y1076898D01*
X3663801D01*
X3682472Y1084631D01*
X3696762Y1098922D01*
X3704496Y1117593D01*
Y1137802D01*
X3696762Y1156473D01*
X3682472Y1170764D01*
X3663801Y1178498D01*
D02*
G37*
G36*
X2980104Y900801D02*
X2959895D01*
X2941223Y893067D01*
X2926933Y878777D01*
X2919199Y860105D01*
Y839896D01*
X2926933Y821225D01*
X2941223Y806934D01*
X2959895Y799201D01*
X2980104D01*
X2998775Y806934D01*
X3013066Y821225D01*
X3020799Y839896D01*
Y860105D01*
X3013066Y878777D01*
X2998775Y893067D01*
X2980104Y900801D01*
D02*
G37*
G36*
X3145104Y825800D02*
X3124895D01*
X3106224Y818066D01*
X3091934Y803776D01*
X3084200Y785105D01*
Y764896D01*
X3091934Y746224D01*
X3106224Y731934D01*
X3124895Y724200D01*
X3145104D01*
X3163776Y731934D01*
X3178066Y746224D01*
X3185800Y764896D01*
Y785105D01*
X3178066Y803776D01*
X3163776Y818066D01*
X3145104Y825800D01*
D02*
G37*
G36*
X2398104Y808800D02*
X2377895D01*
X2359224Y801066D01*
X2344934Y786776D01*
X2337200Y768104D01*
Y747895D01*
X2344934Y729224D01*
X2359224Y714934D01*
X2377895Y707200D01*
X2398104D01*
X2416776Y714934D01*
X2431066Y729224D01*
X2438800Y747895D01*
Y768104D01*
X2431066Y786776D01*
X2416776Y801066D01*
X2398104Y808800D01*
D02*
G37*
G36*
X1128104Y798800D02*
X1107895D01*
X1089224Y791066D01*
X1074934Y776776D01*
X1067200Y758104D01*
Y737895D01*
X1074934Y719224D01*
X1089224Y704934D01*
X1107895Y697200D01*
X1128104D01*
X1146776Y704934D01*
X1161066Y719224D01*
X1168800Y737895D01*
Y758104D01*
X1161066Y776776D01*
X1146776Y791066D01*
X1128104Y798800D01*
D02*
G37*
G36*
X3560105Y770800D02*
X3539895D01*
X3521224Y763066D01*
X3506934Y748776D01*
X3499200Y730105D01*
Y709895D01*
X3506934Y691224D01*
X3521224Y676934D01*
X3539895Y669200D01*
X3560105D01*
X3578776Y676934D01*
X3593066Y691224D01*
X3600800Y709895D01*
Y730105D01*
X3593066Y748776D01*
X3578776Y763066D01*
X3560105Y770800D01*
D02*
G37*
G36*
X3770105Y420799D02*
X3749895D01*
X3731224Y413065D01*
X3716934Y398775D01*
X3709200Y380104D01*
Y359895D01*
X3716934Y341223D01*
X3731224Y326933D01*
X3749895Y319199D01*
X3770105D01*
X3788776Y326933D01*
X3803066Y341223D01*
X3810800Y359895D01*
Y380104D01*
X3803066Y398775D01*
X3788776Y413065D01*
X3770105Y420799D01*
D02*
G37*
G36*
X1270105Y400800D02*
X1249895D01*
X1231224Y393066D01*
X1216934Y378776D01*
X1209200Y360105D01*
Y339895D01*
X1216934Y321224D01*
X1231224Y306934D01*
X1249895Y299200D01*
X1270105D01*
X1288776Y306934D01*
X1303066Y321224D01*
X1310800Y339895D01*
Y360105D01*
X1303066Y378776D01*
X1288776Y393066D01*
X1270105Y400800D01*
D02*
G37*
G36*
X2398104Y390800D02*
X2377895D01*
X2359224Y383066D01*
X2344934Y368776D01*
X2337200Y350105D01*
Y329895D01*
X2344934Y311224D01*
X2359224Y296934D01*
X2377895Y289200D01*
X2398104D01*
X2416776Y296934D01*
X2431066Y311224D01*
X2438800Y329895D01*
Y350105D01*
X2431066Y368776D01*
X2416776Y383066D01*
X2398104Y390800D01*
D02*
G37*
%LPD*%
G36*
X1029722Y3311755D02*
X1047281Y3301617D01*
X1061617Y3287281D01*
X1071755Y3269722D01*
X1077002Y3250138D01*
Y3229863D01*
X1071755Y3210278D01*
X1061617Y3192720D01*
X1047281Y3178383D01*
X1029722Y3168245D01*
X1010137Y3162998D01*
X989863D01*
X970278Y3168245D01*
X952719Y3178383D01*
X938383Y3192720D01*
X928245Y3210279D01*
X922998Y3229863D01*
Y3250138D01*
X928245Y3269722D01*
X938383Y3287281D01*
X952719Y3301617D01*
X970278Y3311755D01*
X989863Y3317003D01*
X1010137D01*
X1029722Y3311755D01*
D02*
G37*
%LPC*%
G36*
X5165547Y5032900D02*
X5138453D01*
X5112282Y5025888D01*
X5088818Y5012340D01*
X5069659Y4993182D01*
X5056112Y4969718D01*
X5049100Y4943547D01*
Y4916453D01*
X5056112Y4890282D01*
X5069659Y4866818D01*
X5088818Y4847660D01*
X5112282Y4834113D01*
X5138453Y4827100D01*
X5165547D01*
X5191718Y4834113D01*
X5215182Y4847660D01*
X5234340Y4866818D01*
X5247887Y4890282D01*
X5254900Y4916453D01*
Y4943547D01*
X5247887Y4969718D01*
X5234340Y4993182D01*
X5215182Y5012340D01*
X5191718Y5025888D01*
X5165547Y5032900D01*
D02*
G37*
G36*
X4911547D02*
X4884453D01*
X4858282Y5025888D01*
X4834818Y5012340D01*
X4815659Y4993182D01*
X4802112Y4969718D01*
X4795100Y4943547D01*
Y4916453D01*
X4802112Y4890282D01*
X4815659Y4866818D01*
X4834818Y4847660D01*
X4858282Y4834113D01*
X4884453Y4827100D01*
X4911547D01*
X4937718Y4834113D01*
X4961182Y4847660D01*
X4980340Y4866818D01*
X4993887Y4890282D01*
X5000900Y4916453D01*
Y4943547D01*
X4993887Y4969718D01*
X4980340Y4993182D01*
X4961182Y5012340D01*
X4937718Y5025888D01*
X4911547Y5032900D01*
D02*
G37*
G36*
X4657547D02*
X4630453D01*
X4604282Y5025888D01*
X4580818Y5012340D01*
X4561659Y4993182D01*
X4548112Y4969718D01*
X4541100Y4943547D01*
Y4916453D01*
X4548112Y4890282D01*
X4561659Y4866818D01*
X4580818Y4847660D01*
X4604282Y4834113D01*
X4630453Y4827100D01*
X4657547D01*
X4683718Y4834113D01*
X4707182Y4847660D01*
X4726340Y4866818D01*
X4739887Y4890282D01*
X4746900Y4916453D01*
Y4943547D01*
X4739887Y4969718D01*
X4726340Y4993182D01*
X4707182Y5012340D01*
X4683718Y5025888D01*
X4657547Y5032900D01*
D02*
G37*
G36*
X4403547D02*
X4376453D01*
X4350282Y5025888D01*
X4326818Y5012340D01*
X4307659Y4993182D01*
X4294112Y4969718D01*
X4287100Y4943547D01*
Y4916453D01*
X4294112Y4890282D01*
X4307659Y4866818D01*
X4326818Y4847660D01*
X4350282Y4834113D01*
X4376453Y4827100D01*
X4403547D01*
X4429718Y4834113D01*
X4453182Y4847660D01*
X4472340Y4866818D01*
X4485887Y4890282D01*
X4492900Y4916453D01*
Y4943547D01*
X4485887Y4969718D01*
X4472340Y4993182D01*
X4453182Y5012340D01*
X4429718Y5025888D01*
X4403547Y5032900D01*
D02*
G37*
G36*
X3543547Y5022900D02*
X3516453D01*
X3490282Y5015888D01*
X3466818Y5002341D01*
X3447660Y4983182D01*
X3434113Y4959718D01*
X3427100Y4933547D01*
Y4906453D01*
X3434113Y4880282D01*
X3447660Y4856818D01*
X3466818Y4837660D01*
X3490282Y4824113D01*
X3516453Y4817100D01*
X3543547D01*
X3569718Y4824113D01*
X3593182Y4837660D01*
X3612341Y4856818D01*
X3625888Y4880282D01*
X3632900Y4906453D01*
Y4933547D01*
X3625888Y4959718D01*
X3612341Y4983182D01*
X3593182Y5002341D01*
X3569718Y5015888D01*
X3543547Y5022900D01*
D02*
G37*
G36*
X3378900D02*
X3173100D01*
Y4817100D01*
X3378900D01*
Y5022900D01*
D02*
G37*
G36*
X2856900D02*
X2651100D01*
Y4817100D01*
X2856900D01*
Y5022900D01*
D02*
G37*
G36*
X2513547D02*
X2486453D01*
X2460282Y5015888D01*
X2436818Y5002341D01*
X2417660Y4983182D01*
X2404113Y4959718D01*
X2397100Y4933547D01*
Y4906453D01*
X2404113Y4880282D01*
X2417660Y4856818D01*
X2436818Y4837660D01*
X2460282Y4824113D01*
X2486453Y4817100D01*
X2513547D01*
X2539718Y4824113D01*
X2563182Y4837660D01*
X2582341Y4856818D01*
X2595888Y4880282D01*
X2602900Y4906453D01*
Y4933547D01*
X2595888Y4959718D01*
X2582341Y4983182D01*
X2563182Y5002341D01*
X2539718Y5015888D01*
X2513547Y5022900D01*
D02*
G37*
G36*
X3877780Y4695400D02*
X3842220D01*
Y4644600D01*
X3877780D01*
Y4695400D01*
D02*
G37*
G36*
Y4605400D02*
X3842220D01*
Y4554600D01*
X3877780D01*
Y4605400D01*
D02*
G37*
G36*
X4635670Y4564100D02*
X4615460D01*
X4596789Y4556366D01*
X4582499Y4542076D01*
X4574765Y4523404D01*
Y4503195D01*
X4582499Y4484524D01*
X4596789Y4470234D01*
X4615460Y4462500D01*
X4635670D01*
X4654341Y4470234D01*
X4668631Y4484524D01*
X4676365Y4503195D01*
Y4523404D01*
X4668631Y4542076D01*
X4654341Y4556366D01*
X4635670Y4564100D01*
D02*
G37*
G36*
X5438547Y4652900D02*
X5411453D01*
X5385282Y4645888D01*
X5361818Y4632340D01*
X5342660Y4613182D01*
X5329113Y4589718D01*
X5322100Y4563547D01*
Y4536453D01*
X5329113Y4510282D01*
X5342660Y4486818D01*
X5361818Y4467660D01*
X5385282Y4454113D01*
X5411453Y4447100D01*
X5438547D01*
X5464718Y4454113D01*
X5488182Y4467660D01*
X5507341Y4486818D01*
X5520888Y4510282D01*
X5527900Y4536453D01*
Y4563547D01*
X5520888Y4589718D01*
X5507341Y4613182D01*
X5488182Y4632340D01*
X5464718Y4645888D01*
X5438547Y4652900D01*
D02*
G37*
G36*
X4050105Y4510800D02*
X4029895D01*
X4011224Y4503066D01*
X3996934Y4488776D01*
X3989200Y4470105D01*
Y4449895D01*
X3996934Y4431224D01*
X4011224Y4416934D01*
X4029895Y4409200D01*
X4050105D01*
X4068776Y4416934D01*
X4083066Y4431224D01*
X4090800Y4449895D01*
Y4470105D01*
X4083066Y4488776D01*
X4068776Y4503066D01*
X4050105Y4510800D01*
D02*
G37*
G36*
X4341905Y4399000D02*
X4321695D01*
X4303024Y4391266D01*
X4288734Y4376976D01*
X4281000Y4358304D01*
Y4338095D01*
X4288734Y4319424D01*
X4303024Y4305134D01*
X4321695Y4297400D01*
X4341905D01*
X4360576Y4305134D01*
X4374866Y4319424D01*
X4382600Y4338095D01*
Y4358304D01*
X4374866Y4376976D01*
X4360576Y4391266D01*
X4341905Y4399000D01*
D02*
G37*
G36*
X5527900Y4398900D02*
X5322100D01*
Y4193100D01*
X5527900D01*
Y4398900D01*
D02*
G37*
G36*
X4250105Y4230800D02*
X4229895D01*
X4211224Y4223066D01*
X4196934Y4208776D01*
X4189200Y4190105D01*
Y4169895D01*
X4196934Y4151224D01*
X4211224Y4136934D01*
X4229895Y4129200D01*
X4250105D01*
X4268776Y4136934D01*
X4283066Y4151224D01*
X4290800Y4169895D01*
Y4190105D01*
X4283066Y4208776D01*
X4268776Y4223066D01*
X4250105Y4230800D01*
D02*
G37*
G36*
X2936605Y3899041D02*
X2916395D01*
X2897724Y3891307D01*
X2883434Y3877017D01*
X2875700Y3858345D01*
Y3838136D01*
X2883434Y3819465D01*
X2897724Y3805175D01*
X2916395Y3797441D01*
X2936605D01*
X2955276Y3805175D01*
X2969566Y3819465D01*
X2977300Y3838136D01*
Y3858345D01*
X2969566Y3877017D01*
X2955276Y3891307D01*
X2936605Y3899041D01*
D02*
G37*
G36*
X1155400Y3777780D02*
X1104600D01*
Y3742220D01*
X1155400D01*
Y3777780D01*
D02*
G37*
G36*
X5240105Y3820800D02*
X5219895D01*
X5201224Y3813066D01*
X5186934Y3798776D01*
X5179200Y3780105D01*
Y3759895D01*
X5186934Y3741224D01*
X5201224Y3726934D01*
X5219895Y3719200D01*
X5240105D01*
X5258776Y3726934D01*
X5273066Y3741224D01*
X5280800Y3759895D01*
Y3780105D01*
X5273066Y3798776D01*
X5258776Y3813066D01*
X5240105Y3820800D01*
D02*
G37*
G36*
X5543270Y3760800D02*
X5516729D01*
X5491092Y3753931D01*
X5468107Y3740660D01*
X5449340Y3721892D01*
X5436069Y3698907D01*
X5429200Y3673271D01*
Y3646730D01*
X5436069Y3621093D01*
X5449340Y3598108D01*
X5468107Y3579340D01*
X5491092Y3566070D01*
X5516729Y3559200D01*
X5543270D01*
X5568907Y3566070D01*
X5591892Y3579340D01*
X5610660Y3598108D01*
X5623930Y3621093D01*
X5630800Y3646730D01*
Y3673271D01*
X5623930Y3698907D01*
X5610660Y3721892D01*
X5591892Y3740660D01*
X5568907Y3753931D01*
X5543270Y3760800D01*
D02*
G37*
G36*
X5170105Y3610800D02*
X5149895D01*
X5131224Y3603066D01*
X5116934Y3588776D01*
X5109200Y3570105D01*
Y3549895D01*
X5116934Y3531224D01*
X5123268Y3524890D01*
X5111437Y3500800D01*
X5099895D01*
X5081224Y3493066D01*
X5066934Y3478776D01*
X5059200Y3460105D01*
Y3439895D01*
X5066934Y3421224D01*
X5081224Y3406934D01*
X5099895Y3399200D01*
X5120105D01*
X5138776Y3406934D01*
X5153066Y3421224D01*
X5160800Y3439895D01*
Y3460105D01*
X5153066Y3478776D01*
X5146732Y3485110D01*
X5158563Y3509200D01*
X5170105D01*
X5188776Y3516934D01*
X5203066Y3531224D01*
X5210800Y3549895D01*
Y3570105D01*
X5203066Y3588776D01*
X5188776Y3603066D01*
X5170105Y3610800D01*
D02*
G37*
G36*
X5543270Y3510800D02*
X5516729D01*
X5491092Y3503931D01*
X5468107Y3490660D01*
X5449340Y3471892D01*
X5436069Y3448907D01*
X5429200Y3423271D01*
Y3396730D01*
X5436069Y3371093D01*
X5449340Y3348108D01*
X5468107Y3329340D01*
X5491092Y3316070D01*
X5516729Y3309200D01*
X5543270D01*
X5568907Y3316070D01*
X5591892Y3329340D01*
X5610660Y3348108D01*
X5623930Y3371093D01*
X5630800Y3396730D01*
Y3423271D01*
X5623930Y3448907D01*
X5610660Y3471892D01*
X5591892Y3490660D01*
X5568907Y3503931D01*
X5543270Y3510800D01*
D02*
G37*
G36*
X4710196Y3060892D02*
X4689987D01*
X4671316Y3053158D01*
X4657025Y3038868D01*
X4649292Y3020196D01*
Y2999987D01*
X4657025Y2981316D01*
X4671316Y2967026D01*
X4689987Y2959292D01*
X4710196D01*
X4728868Y2967026D01*
X4743158Y2981316D01*
X4750892Y2999987D01*
Y3020196D01*
X4743158Y3038868D01*
X4728868Y3053158D01*
X4710196Y3060892D01*
D02*
G37*
G36*
X5020105Y2960800D02*
X4999895D01*
X4981224Y2953066D01*
X4966934Y2938776D01*
X4959200Y2920105D01*
Y2899895D01*
X4966934Y2881224D01*
X4981224Y2866934D01*
X4999895Y2859200D01*
X5020105D01*
X5038776Y2866934D01*
X5053066Y2881224D01*
X5060800Y2899895D01*
Y2920105D01*
X5053066Y2938776D01*
X5038776Y2953066D01*
X5020105Y2960800D01*
D02*
G37*
G36*
X4830105D02*
X4809895D01*
X4791224Y2953066D01*
X4776934Y2938776D01*
X4769200Y2920105D01*
Y2899895D01*
X4776934Y2881224D01*
X4791224Y2866934D01*
X4809895Y2859200D01*
X4830105D01*
X4848776Y2866934D01*
X4863066Y2881224D01*
X4870800Y2899895D01*
Y2920105D01*
X4863066Y2938776D01*
X4848776Y2953066D01*
X4830105Y2960800D01*
D02*
G37*
G36*
X5446104Y2744800D02*
X5425895D01*
X5407224Y2737066D01*
X5392934Y2722776D01*
X5385200Y2704105D01*
Y2683896D01*
X5392934Y2665224D01*
X5407224Y2650934D01*
X5425895Y2643200D01*
X5446104D01*
X5464776Y2650934D01*
X5479066Y2665224D01*
X5486800Y2683896D01*
Y2704105D01*
X5479066Y2722776D01*
X5464776Y2737066D01*
X5446104Y2744800D01*
D02*
G37*
G36*
X242500Y2710000D02*
X82500D01*
Y2545000D01*
X242500D01*
Y2710000D01*
D02*
G37*
G36*
Y555000D02*
X82500D01*
Y390000D01*
X242500D01*
Y555000D01*
D02*
G37*
G36*
X5462900Y242900D02*
X5257100D01*
Y37100D01*
X5462900D01*
Y242900D01*
D02*
G37*
G36*
X5186899D02*
X4981100D01*
Y37100D01*
X5186899D01*
Y242900D01*
D02*
G37*
%LPD*%
D51*
X4136000Y4930000D02*
D03*
X4574000Y140000D02*
D03*
X2854000Y2940000D02*
D03*
X872000Y140000D02*
D03*
X4084000Y150000D02*
D03*
X5360000Y140000D02*
D03*
X5083999D02*
D03*
X3276000Y4920000D02*
D03*
X2754000D02*
D03*
D52*
X5614000Y140000D02*
D03*
X4829999D02*
D03*
X3068000Y150000D02*
D03*
X1000000Y3240000D02*
D03*
X1126000Y140000D02*
D03*
X1634000D02*
D03*
X1380000D02*
D03*
X1888000D02*
D03*
X3576000Y150000D02*
D03*
X3322000D02*
D03*
X3830000D02*
D03*
X5425000Y4550000D02*
D03*
X2600000Y2940000D02*
D03*
X2142000Y140000D02*
D03*
X5152000Y4930000D02*
D03*
X4898000D02*
D03*
X4644000D02*
D03*
X4390000D02*
D03*
X2500000Y4920000D02*
D03*
X3530000D02*
D03*
X4320000Y140000D02*
D03*
D53*
X5425000Y4296000D02*
D03*
X1000000Y3494000D02*
D03*
D54*
X5530000Y3910000D02*
D03*
Y3410000D02*
D03*
Y3660000D02*
D03*
D55*
X2425000Y1927500D02*
D03*
X2412500Y1250000D02*
D03*
X2327500Y1442500D02*
D03*
X1762500Y1535000D02*
D03*
X1562500Y2150000D02*
D03*
X1365000Y2027500D02*
D03*
Y1877500D02*
D03*
X4178696Y1877697D02*
D03*
X4103696Y1727697D02*
D03*
X4178696Y1577697D02*
D03*
X4103696Y1427697D02*
D03*
X4178696Y1277697D02*
D03*
X4103696Y1127698D02*
D03*
X4028696Y1877697D02*
D03*
X3953696Y1727697D02*
D03*
X4028696Y1577697D02*
D03*
X3953696Y1427697D02*
D03*
X4028696Y1277697D02*
D03*
X3953696Y1127698D02*
D03*
X3878696Y1877697D02*
D03*
X3803696Y1727697D02*
D03*
X3878696Y1577697D02*
D03*
X3803696Y1427697D02*
D03*
X3878696Y1277697D02*
D03*
X3728696Y1877697D02*
D03*
X3653696Y1727697D02*
D03*
X3728696Y1577697D02*
D03*
X3653696Y1427697D02*
D03*
X3728696Y1277697D02*
D03*
X3653696Y1127698D02*
D03*
X3578696Y1877697D02*
D03*
X3503696Y1727697D02*
D03*
X3578696Y1577697D02*
D03*
X3428696Y1877697D02*
D03*
Y1577697D02*
D03*
Y1277697D02*
D03*
X2978696Y1877697D02*
D03*
Y1277697D02*
D03*
X2828696Y1877697D02*
D03*
Y1277697D02*
D03*
X2453697Y1727697D02*
D03*
Y1427697D02*
D03*
X2303697Y1727697D02*
D03*
X5803708Y4827706D02*
D03*
Y2827705D02*
D03*
X5703708Y227704D02*
D03*
X5603708Y4827706D02*
D03*
Y2427705D02*
D03*
X5503708Y2227705D02*
D03*
X5603708Y2027705D02*
D03*
X5503708Y1027704D02*
D03*
X5603708Y827704D02*
D03*
Y427704D02*
D03*
X5503708Y227704D02*
D03*
X5403708Y2027705D02*
D03*
X3003706Y4827706D02*
D03*
X2203706D02*
D03*
X2003706D02*
D03*
X1903706Y4627706D02*
D03*
X1803706Y4827706D02*
D03*
X1703706Y4627706D02*
D03*
X1603705Y4827706D02*
D03*
X1503705Y4627706D02*
D03*
X1403705Y4827706D02*
D03*
X1303705Y4627706D02*
D03*
X1403705Y4427706D02*
D03*
X1203705Y4827706D02*
D03*
X1103705Y4627706D02*
D03*
X1203705Y4427706D02*
D03*
X1103705Y4227706D02*
D03*
X1203705Y4027706D02*
D03*
X1003705Y4827706D02*
D03*
X903705Y4627706D02*
D03*
X1003705Y4427706D02*
D03*
X903705Y4227706D02*
D03*
X1003705Y4027706D02*
D03*
X803705Y4827706D02*
D03*
X703705Y4627706D02*
D03*
X803705Y4427706D02*
D03*
X703705Y4227706D02*
D03*
X803705Y4027706D02*
D03*
X703705Y3827706D02*
D03*
X603705Y4827706D02*
D03*
X503705Y4627706D02*
D03*
X603705Y4427706D02*
D03*
X503705Y4227706D02*
D03*
X603705Y4027706D02*
D03*
X503705Y3827706D02*
D03*
Y3427706D02*
D03*
Y3027705D02*
D03*
Y227704D02*
D03*
X403705Y4827706D02*
D03*
X303705Y4627706D02*
D03*
X403705Y4427706D02*
D03*
X303705Y4227706D02*
D03*
X403705Y4027706D02*
D03*
X303705Y3827706D02*
D03*
X403705Y3627706D02*
D03*
X303705Y3427706D02*
D03*
X403705Y3227706D02*
D03*
X303705Y3027705D02*
D03*
X403705Y2827705D02*
D03*
X303705Y2627705D02*
D03*
X403705Y427704D02*
D03*
X203705Y4827706D02*
D03*
X103705Y4227706D02*
D03*
X203705Y4027706D02*
D03*
X103705Y3827706D02*
D03*
X203705Y3627706D02*
D03*
X103705Y3427706D02*
D03*
X203705Y3227706D02*
D03*
X103705Y3027705D02*
D03*
X203705Y2427705D02*
D03*
X103705Y2227705D02*
D03*
X203705Y2027705D02*
D03*
X103705Y1827705D02*
D03*
X203705Y1627705D02*
D03*
X103705Y1427705D02*
D03*
X203705Y1227704D02*
D03*
X103705Y1027704D02*
D03*
X203705Y827704D02*
D03*
X103705Y627704D02*
D03*
X1060000Y2300000D02*
D03*
X1830000Y3470000D02*
D03*
X5016000Y4411700D02*
D03*
X4419299Y4103500D02*
D03*
X5103130Y4146870D02*
D03*
X1830000Y2750000D02*
D03*
X5380000Y4020000D02*
D03*
X5130000Y3870000D02*
D03*
X4514684Y3805800D02*
D03*
X4260000Y4460000D02*
D03*
X3110000Y4010000D02*
D03*
X3690000Y3540000D02*
D03*
X4190000Y3390000D02*
D03*
X3532300Y3577700D02*
D03*
X3110500Y3509500D02*
D03*
X5110000Y3240000D02*
D03*
X4930000Y2690000D02*
D03*
X4820000Y3290000D02*
D03*
X5040000Y440000D02*
D03*
X4820000Y660000D02*
D03*
X3760000Y369999D02*
D03*
X3660000Y2690000D02*
D03*
Y2280000D02*
D03*
X3120000Y1910000D02*
D03*
X2905000Y1805000D02*
D03*
X3135000Y775000D02*
D03*
X3550000Y720000D02*
D03*
X3060000Y1460000D02*
D03*
X2915000Y1425000D02*
D03*
X2969999Y850001D02*
D03*
X2653500Y4073002D02*
D03*
X2530000Y4000000D02*
D03*
X2180000Y4070000D02*
D03*
X2370000Y3980000D02*
D03*
X2010000Y4040000D02*
D03*
X2820000Y3130000D02*
D03*
X2000000Y3550000D02*
D03*
X2460000Y3210000D02*
D03*
X2430000Y3320000D02*
D03*
X1360000Y4359999D02*
D03*
X1470000Y3750000D02*
D03*
X1827900Y3620000D02*
D03*
X2325000Y2815000D02*
D03*
X2430000Y2700000D02*
D03*
X1830000Y2920000D02*
D03*
X2870000Y1140000D02*
D03*
X2388000Y758000D02*
D03*
Y340000D02*
D03*
X550000Y2270000D02*
D03*
Y2200000D02*
D03*
X1118000Y748000D02*
D03*
X550000Y2100000D02*
D03*
X540000Y1900000D02*
D03*
X380000Y510000D02*
D03*
X1506520Y1800000D02*
D03*
X5110000Y3450000D02*
D03*
X4740000D02*
D03*
X4259199Y3499921D02*
D03*
X4649121Y3330879D02*
D03*
X3760092Y3190000D02*
D03*
X3052000Y1638000D02*
D03*
X3070000Y1270000D02*
D03*
X3090500Y1150000D02*
D03*
X1553705Y2827705D02*
D03*
X1353705D02*
D03*
X1253705D02*
D03*
X1453705D02*
D03*
X1503705Y2727705D02*
D03*
X1303705D02*
D03*
X1203705D02*
D03*
X1403705D02*
D03*
X1153705Y2827705D02*
D03*
X1053705D02*
D03*
X1103705Y2727705D02*
D03*
X1003705D02*
D03*
X650000Y2000000D02*
D03*
X2265001Y815001D02*
D03*
X1257500Y1667500D02*
D03*
X610000Y1100000D02*
D03*
X610000Y1200000D02*
D03*
X540000Y1600000D02*
D03*
X1840000Y280000D02*
D03*
X670000Y1420000D02*
D03*
X610000Y1500000D02*
D03*
X690000Y1340000D02*
D03*
X540000Y1700000D02*
D03*
X1440000Y1250000D02*
D03*
X540000Y1800000D02*
D03*
X4660000Y3610000D02*
D03*
X4210000Y3250000D02*
D03*
X1903706Y3027705D02*
D03*
X1803706D02*
D03*
X1703706Y3227706D02*
D03*
X1753705Y3127705D02*
D03*
X1703706Y3027705D02*
D03*
X1653705Y3327706D02*
D03*
X1603705Y3227706D02*
D03*
X1653705Y3127705D02*
D03*
X1603705Y3027705D02*
D03*
X1553705Y3327706D02*
D03*
X1503705Y3227706D02*
D03*
X1553705Y3127705D02*
D03*
X1503705Y3027705D02*
D03*
X1453705Y3327706D02*
D03*
X1403705Y3227706D02*
D03*
X1453705Y3127705D02*
D03*
X1403705Y3027705D02*
D03*
X1353705Y3327706D02*
D03*
X1303705Y3227706D02*
D03*
X1353705Y3127705D02*
D03*
X1303705Y3027705D02*
D03*
X1253705Y3327706D02*
D03*
X1203705Y3227706D02*
D03*
X1253705Y3127705D02*
D03*
X1203705Y3027705D02*
D03*
X4625565Y4513300D02*
D03*
X4331800Y4348200D02*
D03*
X2530000Y3670000D02*
D03*
X3475880Y3365880D02*
D03*
X4040000Y4460000D02*
D03*
X2045000Y2735000D02*
D03*
X3910000Y3590000D02*
D03*
X3400000Y3260000D02*
D03*
X2370000Y3670000D02*
D03*
X2310000Y3400000D02*
D03*
X4600000Y3270000D02*
D03*
X4240000Y4180000D02*
D03*
X1304901Y1474901D02*
D03*
X5160000Y3560000D02*
D03*
X880000Y2180000D02*
D03*
X1080000Y2150000D02*
D03*
X5010000Y2910000D02*
D03*
X4820000D02*
D03*
X1980000Y1660000D02*
D03*
X1260000Y350000D02*
D03*
X3610000Y3125000D02*
D03*
X5436000Y2694000D02*
D03*
X1940000Y1580000D02*
D03*
X5230000Y3770000D02*
D03*
X2926500Y3848241D02*
D03*
X2640000Y3380000D02*
D03*
X4700092Y3010092D02*
D03*
X3769966Y3299593D02*
D03*
%TF.MD5,e1f8dc2eb1748ebcd46d6d8a0a48a7f5*%
M02*
