%TF.GenerationSoftware,Altium Limited,Altium Designer,25.7.1 (20)*%
G04 Layer_Color=65535*
%FSLAX45Y45*%
%MOMM*%
%TF.SameCoordinates,3376FABF-9249-4748-A69B-BDD9C5401F70*%
%TF.FilePolarity,Positive*%
%TF.FileFunction,Legend,Top*%
%TF.Part,Single*%
G01*
G75*
%TA.AperFunction,NonConductor*%
%ADD72C,0.25400*%
%ADD73C,0.20000*%
%ADD74C,0.25000*%
%ADD75C,0.60000*%
%ADD76C,0.12000*%
%ADD77C,0.12700*%
%ADD78C,0.17000*%
%ADD79C,0.15240*%
G36*
X3385760Y3401550D02*
X3411160D01*
Y3363450D01*
X3385760D01*
Y3401550D01*
D02*
G37*
D72*
X1937700Y3475000D02*
G03*
X1937700Y3475000I-12700J0D01*
G01*
D73*
X5730000Y4180000D02*
G03*
X5730000Y4180000I-10000J0D01*
G01*
X2637500Y3730000D02*
Y3950000D01*
X4600499Y4167500D02*
X5100499D01*
X4600499Y4487500D02*
X5100499D01*
X4600499Y4167500D02*
Y4487500D01*
X5100499Y4167500D02*
Y4487500D01*
X4515000Y3282500D02*
X4725000D01*
X4515000Y3017500D02*
X4725000D01*
X1505000Y4005000D02*
X1935000D01*
X1505000D02*
Y4435000D01*
X1935000D01*
Y4005000D02*
Y4435000D01*
X1926376Y3594233D02*
Y3761480D01*
X1545000Y3655000D02*
Y3672500D01*
Y3927500D02*
Y3935000D01*
X1815000D02*
X1875000D01*
X1545000D02*
X1605000D01*
X1875000Y3655000D02*
Y3672500D01*
Y3927500D02*
Y3935000D01*
X1835000Y3655000D02*
X1875000D01*
X1545000D02*
X1585000D01*
X1927500Y3817500D02*
Y3992500D01*
X2270310Y3784690D02*
Y4035310D01*
X2089690Y3784690D02*
Y4035310D01*
X1833500Y3460000D02*
Y3560000D01*
X1706500Y3460000D02*
Y3560000D01*
X1566376Y3426376D02*
Y3593623D01*
X1450310Y4044690D02*
Y4295310D01*
X1269690Y4044690D02*
Y4295310D01*
X1442500Y3697500D02*
Y3872500D01*
X1276900Y3698300D02*
Y3873300D01*
X1605000Y2847500D02*
X1785000D01*
X1605000Y2992500D02*
X1785000D01*
X1505000Y2920000D02*
X1555000D01*
X1530000Y2895000D02*
Y2945000D01*
X4865499Y3610000D02*
Y3615000D01*
X4955499Y3610000D02*
Y3615000D01*
X4126499Y3550223D02*
Y3751436D01*
X4242999Y3326500D02*
X4376999D01*
X4242999Y3453500D02*
X4376999D01*
X4304999Y3622500D02*
Y3627500D01*
X4394999Y3622500D02*
Y3627500D01*
X4534999Y3462500D02*
Y3467500D01*
X4444999Y3462500D02*
Y3467500D01*
X5085499Y3450000D02*
Y3455000D01*
X4995500Y3450000D02*
Y3455000D01*
X4802999Y3286500D02*
X4936999D01*
X4802999Y3413500D02*
X4936999D01*
X4704999Y3529393D02*
Y3730607D01*
X5085499Y3780000D02*
Y3785000D01*
X4995500Y3780000D02*
Y3785000D01*
X4619892Y3952500D02*
X4821106D01*
X4534999Y3792500D02*
Y3797500D01*
X4444999Y3792500D02*
Y3797500D01*
X4047063Y3935000D02*
X4248276D01*
X4832499Y3052500D02*
X4837499D01*
X4982499D02*
X4987499D01*
Y3227500D01*
X4832499D02*
X4837499D01*
X4982499D02*
X4987499D01*
X4832499Y3052500D02*
Y3227500D01*
X4842499Y2870000D02*
Y2970000D01*
X4977499Y2870000D02*
Y2970000D01*
X4282499Y2880000D02*
Y2980000D01*
X4417499Y2880000D02*
Y2980000D01*
X4272499Y3062500D02*
X4277499D01*
X4422499D02*
X4427499D01*
Y3237500D01*
X4272499D02*
X4277499D01*
X4422499D02*
X4427499D01*
X4272499Y3062500D02*
Y3237500D01*
X3655092Y3057500D02*
X3865092D01*
X3798267Y3579467D02*
Y3799467D01*
X3582500Y3580000D02*
Y3800000D01*
X5276499Y4823000D02*
Y4957000D01*
X5403499Y4823000D02*
Y4957000D01*
X4024999Y4165001D02*
X4524999D01*
X4024999Y4485001D02*
X4524999D01*
X4024999Y4165001D02*
Y4485001D01*
X4524999Y4165001D02*
Y4485001D01*
X3833500Y4593000D02*
Y4727000D01*
X3706500Y4593000D02*
Y4727000D01*
X1055000Y3752765D02*
Y3805000D01*
X765000D02*
X843158D01*
X976842D02*
X1055000D01*
X765000Y3752765D02*
Y3805000D01*
D74*
X4587499Y4055000D02*
G03*
X4587499Y4055000I-12500J0D01*
G01*
X4462500Y3290000D02*
G03*
X4462500Y3290000I-12500J0D01*
G01*
X1902500Y4490000D02*
G03*
X1902500Y4490000I-12500J0D01*
G01*
X1502500Y3610000D02*
G03*
X1502500Y3610000I-12500J0D01*
G01*
X3942500Y3030000D02*
G03*
X3942500Y3030000I-12500J0D01*
G01*
X4011999Y4052501D02*
G03*
X4011999Y4052501I-12500J0D01*
G01*
D75*
X4730499Y4267500D02*
G03*
X4730499Y4267500I-30000J0D01*
G01*
X4154999Y4265001D02*
G03*
X4154999Y4265001I-30000J0D01*
G01*
D76*
X722500Y471000D02*
X747500D01*
X5294500Y2571000D02*
X5319500D01*
X3008500Y471000D02*
X3033500D01*
X722500Y2571000D02*
X747500D01*
X5294500Y471000D02*
X5319500D01*
X1992500Y2571000D02*
X2017500D01*
X4786500D02*
X4811500D01*
X2246500D02*
X2271500D01*
X2246500Y471000D02*
X2271500D01*
X3516500D02*
X3541500D01*
X1230500D02*
X1255500D01*
X976500Y2571000D02*
X1001500D01*
X4532500Y471000D02*
X4557500D01*
X1484500D02*
X1509500D01*
X4278500D02*
X4303500D01*
X5040500Y2571000D02*
X5065500D01*
X1738500Y471000D02*
X1763500D01*
X1992500D02*
X2017500D01*
X2500500D02*
X2525500D01*
X4786500D02*
X4811500D01*
X3262500Y2571000D02*
X3287500D01*
X4024500Y471000D02*
X4049500D01*
X1738500Y2571000D02*
X1763500D01*
X4024500D02*
X4049500D01*
X3262500Y471000D02*
X3287500D01*
X1230500Y2571000D02*
X1255500D01*
X3008500D02*
X3033500D01*
X4532500D02*
X4557500D01*
X2754500D02*
X2779500D01*
X3770500Y471000D02*
X3795500D01*
X3516500Y2571000D02*
X3541500D01*
X3770500D02*
X3795500D01*
X2500500D02*
X2525500D01*
X5040500Y471000D02*
X5065500D01*
X976500D02*
X1001500D01*
X2754500D02*
X2779500D01*
X4278500Y2571000D02*
X4303500D01*
X1484500D02*
X1509500D01*
X467000D02*
X497000D01*
X467000Y471000D02*
X497000D01*
X5537000D02*
X5567000D01*
X467000D02*
Y2571000D01*
X5537000D02*
X5567000D01*
D77*
X5289000Y3183500D02*
Y4136500D01*
Y3183500D02*
X5772000D01*
Y4136500D01*
X5289000D02*
X5772000D01*
D78*
X705000Y4635000D02*
X735000Y4605000D01*
Y4665000D01*
X705000Y4635000D02*
X735000Y4665000D01*
X2270000Y3690000D02*
Y3750000D01*
X2240000Y3720000D02*
X2270000Y3750000D01*
X2240000Y3720000D02*
X2270000Y3690000D01*
X2191710Y3015016D02*
Y3114984D01*
X2241694D01*
X2258355Y3098322D01*
Y3065000D01*
X2241694Y3048339D01*
X2191710D01*
X2225032D02*
X2258355Y3015016D01*
X2291677Y3098322D02*
X2308339Y3114984D01*
X2341661D01*
X2358322Y3098322D01*
Y3081661D01*
X2341661Y3065000D01*
X2325000D01*
X2341661D01*
X2358322Y3048339D01*
Y3031677D01*
X2341661Y3015016D01*
X2308339D01*
X2291677Y3031677D01*
X2441629Y3015016D02*
Y3114984D01*
X2391645Y3065000D01*
X2458290D01*
X5659983Y4204194D02*
X5593338D01*
X5560016Y4237516D01*
X5593338Y4270839D01*
X5659983D01*
X5609999D01*
Y4204194D01*
X5659983Y4304161D02*
X5560016D01*
X5593338Y4337484D01*
X5560016Y4370806D01*
X5659983D01*
X5759984Y2903371D02*
X5660016D01*
Y2953355D01*
X5676677Y2970016D01*
X5710000D01*
X5726661Y2953355D01*
Y2903371D01*
Y2936694D02*
X5759984Y2970016D01*
X5660016Y3003339D02*
X5726661D01*
X5759984Y3036661D01*
X5726661Y3069984D01*
X5660016D01*
X5759984Y3103307D02*
Y3136629D01*
Y3119968D01*
X5660016D01*
X5676677Y3103307D01*
X697000Y4523645D02*
X763645Y4457000D01*
X697000D02*
X763645Y4523645D01*
X697000Y4490322D02*
X763645D01*
X730322Y4457000D02*
Y4523645D01*
X2496677Y4073338D02*
X2480016Y4056677D01*
Y4023355D01*
X2496677Y4006693D01*
X2563322D01*
X2579984Y4023355D01*
Y4056677D01*
X2563322Y4073338D01*
X2496677Y4106661D02*
X2480016Y4123322D01*
Y4156645D01*
X2496677Y4173306D01*
X2513339D01*
X2530000Y4156645D01*
Y4139984D01*
Y4156645D01*
X2546661Y4173306D01*
X2563322D01*
X2579984Y4156645D01*
Y4123322D01*
X2563322Y4106661D01*
X3041661Y2999984D02*
X3008339D01*
X3025000D01*
Y2900016D01*
X3041661Y2916677D01*
X330200Y2827928D02*
Y2744621D01*
X346861Y2727960D01*
X380184D01*
X396845Y2744621D01*
Y2827928D01*
X430168D02*
X496813D01*
Y2811266D01*
X430168Y2744621D01*
Y2727960D01*
X4836694Y4379984D02*
Y4296677D01*
X4853355Y4280016D01*
X4886678D01*
X4903339Y4296677D01*
Y4379984D01*
X4936661Y4363322D02*
X4953323Y4379984D01*
X4986645D01*
X5003306Y4363322D01*
Y4346661D01*
X4986645Y4330000D01*
X4969984D01*
X4986645D01*
X5003306Y4313339D01*
Y4296677D01*
X4986645Y4280016D01*
X4953323D01*
X4936661Y4296677D01*
X4620000Y2866678D02*
Y2933323D01*
X4603339Y2949984D01*
X4570016D01*
X4553355Y2933323D01*
Y2866678D01*
X4570016Y2850016D01*
X4603339D01*
X4586677Y2883339D02*
X4620000Y2850016D01*
X4603339D02*
X4620000Y2866678D01*
X4653323Y2850016D02*
X4686645D01*
X4669984D01*
Y2949984D01*
X4653323Y2933323D01*
X3826710Y260016D02*
Y359984D01*
X3876694D01*
X3893355Y343322D01*
Y310000D01*
X3876694Y293339D01*
X3826710D01*
X3860032D02*
X3893355Y260016D01*
X3926677Y343322D02*
X3943339Y359984D01*
X3976661D01*
X3993322Y343322D01*
Y326661D01*
X3976661Y310000D01*
X3960000D01*
X3976661D01*
X3993322Y293339D01*
Y276677D01*
X3976661Y260016D01*
X3943339D01*
X3926677Y276677D01*
X4093290Y359984D02*
X4026645D01*
Y310000D01*
X4059968Y326661D01*
X4076629D01*
X4093290Y310000D01*
Y276677D01*
X4076629Y260016D01*
X4043307D01*
X4026645Y276677D01*
X5310855Y338322D02*
X5294194Y354984D01*
X5260871D01*
X5244210Y338322D01*
Y321661D01*
X5260871Y305000D01*
X5294194D01*
X5310855Y288339D01*
Y271677D01*
X5294194Y255016D01*
X5260871D01*
X5244210Y271677D01*
X5344178Y354984D02*
Y255016D01*
X5377500Y288339D01*
X5410823Y255016D01*
Y354984D01*
X5510790Y255016D02*
X5444145D01*
X5510790Y321661D01*
Y338322D01*
X5494129Y354984D01*
X5460807D01*
X5444145Y338322D01*
X5030016D02*
X5013355Y354984D01*
X4980032D01*
X4963371Y338322D01*
Y321661D01*
X4980032Y305000D01*
X5013355D01*
X5030016Y288339D01*
Y271677D01*
X5013355Y255016D01*
X4980032D01*
X4963371Y271677D01*
X5063339Y354984D02*
Y255016D01*
X5096661Y288339D01*
X5129984Y255016D01*
Y354984D01*
X5163307Y255016D02*
X5196629D01*
X5179968D01*
Y354984D01*
X5163307Y338322D01*
X893532Y341653D02*
X876871Y358314D01*
X843548D01*
X826887Y341653D01*
Y324992D01*
X843548Y308331D01*
X876871D01*
X893532Y291669D01*
Y275008D01*
X876871Y258347D01*
X843548D01*
X826887Y275008D01*
X926855Y358314D02*
Y258347D01*
X976839D01*
X993500Y275008D01*
Y341653D01*
X976839Y358314D01*
X926855D01*
X1026822Y241685D02*
X1093467D01*
X1193435Y341653D02*
X1176774Y358314D01*
X1143452D01*
X1126790Y341653D01*
Y275008D01*
X1143452Y258347D01*
X1176774D01*
X1193435Y275008D01*
X1226758Y258347D02*
Y324992D01*
X1260081Y358314D01*
X1293403Y324992D01*
Y258347D01*
Y308331D01*
X1226758D01*
X1326726Y258347D02*
Y358314D01*
X1376710D01*
X1393371Y341653D01*
Y308331D01*
X1376710Y291669D01*
X1326726D01*
X1360048D02*
X1393371Y258347D01*
X1426694Y358314D02*
Y258347D01*
X1476678D01*
X1493339Y275008D01*
Y341653D01*
X1476678Y358314D01*
X1426694D01*
X1526661Y241685D02*
X1593306D01*
X1626629Y258347D02*
Y358314D01*
X1676613D01*
X1693274Y341653D01*
Y308331D01*
X1676613Y291669D01*
X1626629D01*
X1659952D02*
X1693274Y258347D01*
X1793242Y358314D02*
X1726597D01*
Y258347D01*
X1793242D01*
X1726597Y308331D02*
X1759920D01*
X1826565Y258347D02*
Y324992D01*
X1859887Y358314D01*
X1893210Y324992D01*
Y258347D01*
Y308331D01*
X1826565D01*
X1926533Y358314D02*
Y258347D01*
X1976516D01*
X1993178Y275008D01*
Y341653D01*
X1976516Y358314D01*
X1926533D01*
X2093145D02*
X2026500D01*
Y258347D01*
X2093145D01*
X2026500Y308331D02*
X2059823D01*
X2126468Y258347D02*
Y358314D01*
X2176452D01*
X2193113Y341653D01*
Y308331D01*
X2176452Y291669D01*
X2126468D01*
X2159791D02*
X2193113Y258347D01*
X3890016Y4766710D02*
Y4833355D01*
Y4800032D01*
X3989984D01*
Y4866678D02*
X3890016D01*
Y4916661D01*
X3906677Y4933323D01*
X3940000D01*
X3956661Y4916661D01*
Y4866678D01*
Y4900000D02*
X3989984Y4933323D01*
X3906677Y5033290D02*
X3890016Y5016629D01*
Y4983307D01*
X3906677Y4966645D01*
X3923339D01*
X3940000Y4983307D01*
Y5016629D01*
X3956661Y5033290D01*
X3973323D01*
X3989984Y5016629D01*
Y4983307D01*
X3973323Y4966645D01*
X1646694Y4599984D02*
Y4500016D01*
X1713339D01*
X1796645D02*
Y4599984D01*
X1746661Y4550000D01*
X1813307D01*
X2086710Y3560016D02*
Y3659984D01*
X2136693D01*
X2153355Y3643322D01*
Y3610000D01*
X2136693Y3593339D01*
X2086710D01*
X2120032D02*
X2153355Y3560016D01*
X2186677Y3643322D02*
X2203339Y3659984D01*
X2236661D01*
X2253322Y3643322D01*
Y3626661D01*
X2236661Y3610000D01*
X2220000D01*
X2236661D01*
X2253322Y3593339D01*
Y3576677D01*
X2236661Y3560016D01*
X2203339D01*
X2186677Y3576677D01*
X2286645Y3643322D02*
X2303307Y3659984D01*
X2336629D01*
X2353290Y3643322D01*
Y3576677D01*
X2336629Y3560016D01*
X2303307D01*
X2286645Y3576677D01*
Y3643322D01*
X396694Y4369984D02*
Y4286677D01*
X413355Y4270016D01*
X446678D01*
X463339Y4286677D01*
Y4369984D01*
X546645Y4270016D02*
Y4369984D01*
X496661Y4320000D01*
X563306D01*
X2523339Y3653323D02*
X2506677Y3669984D01*
X2473355D01*
X2456694Y3653323D01*
Y3586678D01*
X2473355Y3570016D01*
X2506677D01*
X2523339Y3586678D01*
X2623306Y3669984D02*
X2589984Y3653323D01*
X2556661Y3620000D01*
Y3586678D01*
X2573323Y3570016D01*
X2606645D01*
X2623306Y3586678D01*
Y3603339D01*
X2606645Y3620000D01*
X2556661D01*
X2336678Y4090000D02*
X2320016Y4073339D01*
Y4040016D01*
X2336678Y4023355D01*
X2403323D01*
X2419984Y4040016D01*
Y4073339D01*
X2403323Y4090000D01*
X2419984Y4123323D02*
Y4156645D01*
Y4139984D01*
X2320016D01*
X2336678Y4123323D01*
X2006677Y4161685D02*
X1990016Y4145024D01*
Y4111701D01*
X2006677Y4095040D01*
X2073322D01*
X2089984Y4111701D01*
Y4145024D01*
X2073322Y4161685D01*
X2089984Y4195008D02*
Y4228330D01*
Y4211669D01*
X1990016D01*
X2006677Y4195008D01*
X1990016Y4344959D02*
X2006677Y4311637D01*
X2040000Y4278314D01*
X2073322D01*
X2089984Y4294976D01*
Y4328298D01*
X2073322Y4344959D01*
X2056661D01*
X2040000Y4328298D01*
Y4278314D01*
X2176677Y4161685D02*
X2160016Y4145024D01*
Y4111702D01*
X2176677Y4095040D01*
X2243322D01*
X2259984Y4111702D01*
Y4145024D01*
X2243322Y4161685D01*
X2259984Y4195008D02*
Y4228331D01*
Y4211670D01*
X2160016D01*
X2176677Y4195008D01*
X2160016Y4278315D02*
Y4344960D01*
X2176677D01*
X2243322Y4278315D01*
X2259984D01*
X405040Y4590016D02*
Y4689984D01*
X455024D01*
X471685Y4673323D01*
Y4640000D01*
X455024Y4623339D01*
X405040D01*
X438363D02*
X471685Y4590016D01*
X505008D02*
X538331D01*
X521670D01*
Y4689984D01*
X505008Y4673323D01*
X654960Y4689984D02*
X621637Y4673323D01*
X588315Y4640000D01*
Y4606678D01*
X604976Y4590016D01*
X638298D01*
X654960Y4606678D01*
Y4623339D01*
X638298Y4640000D01*
X588315D01*
X2221685Y3253322D02*
X2205024Y3269984D01*
X2171702D01*
X2155040Y3253322D01*
Y3186677D01*
X2171702Y3170016D01*
X2205024D01*
X2221685Y3186677D01*
X2255008Y3170016D02*
X2288331D01*
X2271670D01*
Y3269984D01*
X2255008Y3253322D01*
X2338315D02*
X2354976Y3269984D01*
X2388298D01*
X2404960Y3253322D01*
Y3186677D01*
X2388298Y3170016D01*
X2354976D01*
X2338315Y3186677D01*
Y3253322D01*
X2324984Y3383355D02*
X2225016D01*
Y3433339D01*
X2241678Y3450000D01*
X2275000D01*
X2291661Y3433339D01*
Y3383355D01*
Y3416677D02*
X2324984Y3450000D01*
Y3483323D02*
Y3516645D01*
Y3499984D01*
X2225016D01*
X2241678Y3483323D01*
X1566677Y3181686D02*
X1550016Y3165025D01*
Y3131702D01*
X1566677Y3115041D01*
X1633322D01*
X1649984Y3131702D01*
Y3165025D01*
X1633322Y3181686D01*
X1649984Y3215009D02*
Y3248331D01*
Y3231670D01*
X1550016D01*
X1566677Y3215009D01*
Y3298315D02*
X1550016Y3314976D01*
Y3348299D01*
X1566677Y3364960D01*
X1583339D01*
X1600000Y3348299D01*
X1616661Y3364960D01*
X1633322D01*
X1649984Y3348299D01*
Y3314976D01*
X1633322Y3298315D01*
X1616661D01*
X1600000Y3314976D01*
X1583339Y3298315D01*
X1566677D01*
X1600000Y3314976D02*
Y3348299D01*
X1489984Y3266710D02*
X1390016D01*
Y3316694D01*
X1406677Y3333355D01*
X1440000D01*
X1456661Y3316694D01*
Y3266710D01*
Y3300032D02*
X1489984Y3333355D01*
Y3433323D02*
Y3366678D01*
X1423339Y3433323D01*
X1406677D01*
X1390016Y3416661D01*
Y3383339D01*
X1406677Y3366678D01*
X1473322Y3466645D02*
X1489984Y3483307D01*
Y3516629D01*
X1473322Y3533290D01*
X1406677D01*
X1390016Y3516629D01*
Y3483307D01*
X1406677Y3466645D01*
X1423339D01*
X1440000Y3483307D01*
Y3533290D01*
X1316678Y4421685D02*
X1300016Y4405024D01*
Y4371702D01*
X1316678Y4355040D01*
X1383323D01*
X1399984Y4371702D01*
Y4405024D01*
X1383323Y4421685D01*
X1399984Y4455008D02*
Y4488331D01*
Y4471669D01*
X1300016D01*
X1316678Y4455008D01*
X1399984Y4604960D02*
Y4538315D01*
X1333339Y4604960D01*
X1316678D01*
X1300016Y4588298D01*
Y4554976D01*
X1316678Y4538315D01*
X1256677Y3443355D02*
X1240016Y3426694D01*
Y3393371D01*
X1256677Y3376710D01*
X1323322D01*
X1339983Y3393371D01*
Y3426694D01*
X1323322Y3443355D01*
X1339983Y3543323D02*
Y3476678D01*
X1273338Y3543323D01*
X1256677D01*
X1240016Y3526661D01*
Y3493339D01*
X1256677Y3476678D01*
Y3576645D02*
X1240016Y3593307D01*
Y3626629D01*
X1256677Y3643290D01*
X1273338D01*
X1289999Y3626629D01*
Y3609968D01*
Y3626629D01*
X1306661Y3643290D01*
X1323322D01*
X1339983Y3626629D01*
Y3593307D01*
X1323322Y3576645D01*
X470016Y4513322D02*
X453355Y4529984D01*
X420032D01*
X403371Y4513322D01*
Y4446677D01*
X420032Y4430016D01*
X453355D01*
X470016Y4446677D01*
X503339Y4430016D02*
Y4529984D01*
X553323D01*
X569984Y4513322D01*
Y4480000D01*
X553323Y4463339D01*
X503339D01*
X536661D02*
X569984Y4430016D01*
X603307D02*
X636629D01*
X619968D01*
Y4529984D01*
X603307Y4513322D01*
X1899185Y2958323D02*
X1882524Y2974984D01*
X1849202D01*
X1832540Y2958323D01*
Y2891677D01*
X1849202Y2875016D01*
X1882524D01*
X1899185Y2891677D01*
X1932508Y2875016D02*
X1965831D01*
X1949170D01*
Y2974984D01*
X1932508Y2958323D01*
X2015815Y2891677D02*
X2032476Y2875016D01*
X2065799D01*
X2082460Y2891677D01*
Y2958323D01*
X2065799Y2974984D01*
X2032476D01*
X2015815Y2958323D01*
Y2941661D01*
X2032476Y2925000D01*
X2082460D01*
X1983355Y2803323D02*
X1966694Y2819984D01*
X1933371D01*
X1916710Y2803323D01*
Y2736678D01*
X1933371Y2720016D01*
X1966694D01*
X1983355Y2736678D01*
X2083322Y2720016D02*
X2016677D01*
X2083322Y2786661D01*
Y2803323D01*
X2066661Y2819984D01*
X2033339D01*
X2016677Y2803323D01*
X2116645D02*
X2133307Y2819984D01*
X2166629D01*
X2183290Y2803323D01*
Y2736678D01*
X2166629Y2720016D01*
X2133307D01*
X2116645Y2736678D01*
Y2803323D01*
X5019984Y1616710D02*
X4920016D01*
Y1666694D01*
X4936677Y1683355D01*
X4970000D01*
X4986661Y1666694D01*
Y1616710D01*
Y1650033D02*
X5019984Y1683355D01*
X4936677Y1716678D02*
X4920016Y1733339D01*
Y1766662D01*
X4936677Y1783323D01*
X4953339D01*
X4970000Y1766662D01*
Y1750000D01*
Y1766662D01*
X4986661Y1783323D01*
X5003322D01*
X5019984Y1766662D01*
Y1733339D01*
X5003322Y1716678D01*
Y1816646D02*
X5019984Y1833307D01*
Y1866629D01*
X5003322Y1883291D01*
X4936677D01*
X4920016Y1866629D01*
Y1833307D01*
X4936677Y1816646D01*
X4953339D01*
X4970000Y1833307D01*
Y1883291D01*
X4059983Y1685040D02*
X3960016D01*
Y1735024D01*
X3976677Y1751685D01*
X4010000D01*
X4026661Y1735024D01*
Y1685040D01*
Y1718363D02*
X4059983Y1751685D01*
Y1785008D02*
Y1818331D01*
Y1801669D01*
X3960016D01*
X3976677Y1785008D01*
X3960016Y1934960D02*
Y1868315D01*
X4010000D01*
X3993338Y1901637D01*
Y1918298D01*
X4010000Y1934960D01*
X4043322D01*
X4059983Y1918298D01*
Y1884976D01*
X4043322Y1868315D01*
X4133339Y1573322D02*
X4116678Y1589984D01*
X4083355D01*
X4066694Y1573322D01*
Y1506677D01*
X4083355Y1490016D01*
X4116678D01*
X4133339Y1506677D01*
X4166661Y1573322D02*
X4183323Y1589984D01*
X4216645D01*
X4233306Y1573322D01*
Y1556661D01*
X4216645Y1540000D01*
X4233306Y1523339D01*
Y1506677D01*
X4216645Y1490016D01*
X4183323D01*
X4166661Y1506677D01*
Y1523339D01*
X4183323Y1540000D01*
X4166661Y1556661D01*
Y1573322D01*
X4183323Y1540000D02*
X4216645D01*
X4239984Y1666710D02*
X4140016D01*
Y1716694D01*
X4156677Y1733355D01*
X4190000D01*
X4206661Y1716694D01*
Y1666710D01*
Y1700032D02*
X4239984Y1733355D01*
Y1816662D02*
X4140016D01*
X4190000Y1766678D01*
Y1833323D01*
X4239984Y1933291D02*
Y1866645D01*
X4173339Y1933291D01*
X4156677D01*
X4140016Y1916629D01*
Y1883307D01*
X4156677Y1866645D01*
X4409984Y1486709D02*
X4310016D01*
Y1536693D01*
X4326677Y1553355D01*
X4360000D01*
X4376661Y1536693D01*
Y1486709D01*
Y1520032D02*
X4409984Y1553355D01*
Y1636661D02*
X4310016D01*
X4360000Y1586677D01*
Y1653322D01*
X4326677Y1686645D02*
X4310016Y1703306D01*
Y1736629D01*
X4326677Y1753290D01*
X4393322D01*
X4409984Y1736629D01*
Y1703306D01*
X4393322Y1686645D01*
X4326677D01*
X5179983Y1446710D02*
X5080015D01*
Y1496693D01*
X5096677Y1513355D01*
X5129999D01*
X5146661Y1496693D01*
Y1446710D01*
Y1480032D02*
X5179983Y1513355D01*
X5096677Y1546677D02*
X5080015Y1563339D01*
Y1596661D01*
X5096677Y1613322D01*
X5113338D01*
X5129999Y1596661D01*
Y1580000D01*
Y1596661D01*
X5146661Y1613322D01*
X5163322D01*
X5179983Y1596661D01*
Y1563339D01*
X5163322Y1546677D01*
X5096677Y1646645D02*
X5080015Y1663307D01*
Y1696629D01*
X5096677Y1713290D01*
X5113338D01*
X5129999Y1696629D01*
Y1679968D01*
Y1696629D01*
X5146661Y1713290D01*
X5163322D01*
X5179983Y1696629D01*
Y1663307D01*
X5163322Y1646645D01*
X4913339Y1523323D02*
X4896678Y1539984D01*
X4863355D01*
X4846694Y1523323D01*
Y1456678D01*
X4863355Y1440016D01*
X4896678D01*
X4913339Y1456678D01*
X4946661Y1539984D02*
X5013306D01*
Y1523323D01*
X4946661Y1456678D01*
Y1440016D01*
X4849984Y1651702D02*
X4750016D01*
Y1701686D01*
X4766678Y1718347D01*
X4800000D01*
X4816661Y1701686D01*
Y1651702D01*
Y1685024D02*
X4849984Y1718347D01*
Y1751670D02*
Y1784992D01*
Y1768331D01*
X4750016D01*
X4766678Y1751670D01*
X4849984Y1834976D02*
Y1868299D01*
Y1851637D01*
X4750016D01*
X4766678Y1834976D01*
X5189984Y1816709D02*
X5090016D01*
Y1866693D01*
X5106677Y1883354D01*
X5140000D01*
X5156661Y1866693D01*
Y1816709D01*
Y1850032D02*
X5189984Y1883354D01*
X5106677Y1916677D02*
X5090016Y1933339D01*
Y1966661D01*
X5106677Y1983322D01*
X5123338D01*
X5140000Y1966661D01*
Y1950000D01*
Y1966661D01*
X5156661Y1983322D01*
X5173322D01*
X5189984Y1966661D01*
Y1933339D01*
X5173322Y1916677D01*
X5106677Y2016645D02*
X5090016Y2033306D01*
Y2066629D01*
X5106677Y2083290D01*
X5123338D01*
X5140000Y2066629D01*
X5156661Y2083290D01*
X5173322D01*
X5189984Y2066629D01*
Y2033306D01*
X5173322Y2016645D01*
X5156661D01*
X5140000Y2033306D01*
X5123338Y2016645D01*
X5106677D01*
X5140000Y2033306D02*
Y2066629D01*
X4676693Y1970016D02*
Y2069984D01*
X4726677D01*
X4743338Y2053323D01*
Y2020000D01*
X4726677Y2003339D01*
X4676693D01*
X4710016D02*
X4743338Y1970016D01*
X4776661Y2069984D02*
X4843306D01*
Y2053323D01*
X4776661Y1986678D01*
Y1970016D01*
X4409984Y1853371D02*
X4310016D01*
Y1903355D01*
X4326677Y1920016D01*
X4360000D01*
X4376661Y1903355D01*
Y1853371D01*
Y1886694D02*
X4409984Y1920016D01*
Y2003323D02*
X4310016D01*
X4360000Y1953339D01*
Y2019984D01*
X4409984Y2053307D02*
Y2086629D01*
Y2069968D01*
X4310016D01*
X4326677Y2053307D01*
X3815040Y2000016D02*
Y2099984D01*
X3865024D01*
X3881685Y2083322D01*
Y2050000D01*
X3865024Y2033339D01*
X3815040D01*
X3848363D02*
X3881685Y2000016D01*
X3915008D02*
X3948331D01*
X3931670D01*
Y2099984D01*
X3915008Y2083322D01*
X4064960Y2000016D02*
X3998315D01*
X4064960Y2066661D01*
Y2083322D01*
X4048298Y2099984D01*
X4014976D01*
X3998315Y2083322D01*
X5053355Y3189984D02*
Y3090016D01*
X5120000D01*
X5153323D02*
X5186645D01*
X5169984D01*
Y3189984D01*
X5153323Y3173323D01*
X5066694Y2870016D02*
Y2969984D01*
X5116678D01*
X5133339Y2953323D01*
Y2920000D01*
X5116678Y2903339D01*
X5066694D01*
X5100016D02*
X5133339Y2870016D01*
X5233307D02*
X5166661D01*
X5233307Y2936661D01*
Y2953323D01*
X5216645Y2969984D01*
X5183323D01*
X5166661Y2953323D01*
X4056694Y2890016D02*
Y2989984D01*
X4106678D01*
X4123339Y2973322D01*
Y2940000D01*
X4106678Y2923339D01*
X4056694D01*
X4090016D02*
X4123339Y2890016D01*
X4223307Y2989984D02*
X4156661D01*
Y2940000D01*
X4189984Y2956661D01*
X4206645D01*
X4223307Y2940000D01*
Y2906677D01*
X4206645Y2890016D01*
X4173323D01*
X4156661Y2906677D01*
X4056694Y3134984D02*
Y3035016D01*
X4123339D01*
X4223307D02*
X4156661D01*
X4223307Y3101661D01*
Y3118322D01*
X4206645Y3134984D01*
X4173323D01*
X4156661Y3118322D01*
X2866694Y4389984D02*
Y4306677D01*
X2883355Y4290016D01*
X2916677D01*
X2933339Y4306677D01*
Y4389984D01*
X3033306Y4290016D02*
X2966661D01*
X3033306Y4356661D01*
Y4373322D01*
X3016645Y4389984D01*
X2983323D01*
X2966661Y4373322D01*
X2647500Y4305806D02*
X2714145Y4239161D01*
X2647500D02*
X2714145Y4305806D01*
X2647500Y4272484D02*
X2714145D01*
X2680822Y4239161D02*
Y4305806D01*
X3480822Y3228339D02*
X3414177D01*
X3397516Y3211678D01*
Y3178355D01*
X3414177Y3161694D01*
X3480822D01*
X3497484Y3178355D01*
Y3211678D01*
X3464161Y3195016D02*
X3497484Y3228339D01*
Y3211678D02*
X3480822Y3228339D01*
X3397516Y3261662D02*
Y3328307D01*
X3414177D01*
X3480822Y3261662D01*
X3497484D01*
X3733290Y3529984D02*
Y3430016D01*
X3683306D01*
X3666645Y3446677D01*
Y3480000D01*
X3683306Y3496661D01*
X3733290D01*
X3699967D02*
X3666645Y3529984D01*
X3566677D02*
X3633322D01*
X3566677Y3463339D01*
Y3446677D01*
X3583338Y3430016D01*
X3616661D01*
X3633322Y3446677D01*
X3533354Y3430016D02*
X3466709D01*
Y3446677D01*
X3533354Y3513322D01*
Y3529984D01*
X3486710Y2820016D02*
Y2919984D01*
X3536694D01*
X3553355Y2903323D01*
Y2870000D01*
X3536694Y2853339D01*
X3486710D01*
X3520032D02*
X3553355Y2820016D01*
X3653323D02*
X3586678D01*
X3653323Y2886661D01*
Y2903323D01*
X3636662Y2919984D01*
X3603339D01*
X3586678Y2903323D01*
X3686645D02*
X3703307Y2919984D01*
X3736629D01*
X3753290Y2903323D01*
Y2886661D01*
X3736629Y2870000D01*
X3753290Y2853339D01*
Y2836678D01*
X3736629Y2820016D01*
X3703307D01*
X3686645Y2836678D01*
Y2853339D01*
X3703307Y2870000D01*
X3686645Y2886661D01*
Y2903323D01*
X3703307Y2870000D02*
X3736629D01*
X4057484Y3191710D02*
X3957516D01*
Y3241694D01*
X3974177Y3258355D01*
X4007500D01*
X4024161Y3241694D01*
Y3191710D01*
Y3225032D02*
X4057484Y3258355D01*
Y3358322D02*
Y3291677D01*
X3990839Y3358322D01*
X3974177D01*
X3957516Y3341661D01*
Y3308339D01*
X3974177Y3291677D01*
X4057484Y3458290D02*
Y3391645D01*
X3990839Y3458290D01*
X3974177D01*
X3957516Y3441629D01*
Y3408307D01*
X3974177Y3391645D01*
X4059983Y3501710D02*
X3960016D01*
Y3551694D01*
X3976677Y3568355D01*
X4010000D01*
X4026661Y3551694D01*
Y3501710D01*
Y3535032D02*
X4059983Y3568355D01*
X3976677Y3601678D02*
X3960016Y3618339D01*
Y3651661D01*
X3976677Y3668323D01*
X3993338D01*
X4010000Y3651661D01*
Y3635000D01*
Y3651661D01*
X4026661Y3668323D01*
X4043322D01*
X4059983Y3651661D01*
Y3618339D01*
X4043322Y3601678D01*
X4059983Y3768290D02*
Y3701645D01*
X3993338Y3768290D01*
X3976677D01*
X3960016Y3751629D01*
Y3718307D01*
X3976677Y3701645D01*
X3476677Y3953339D02*
X3460016Y3936677D01*
Y3903355D01*
X3476677Y3886694D01*
X3543322D01*
X3559983Y3903355D01*
Y3936677D01*
X3543322Y3953339D01*
X3559983Y4053306D02*
Y3986661D01*
X3493338Y4053306D01*
X3476677D01*
X3460016Y4036645D01*
Y4003323D01*
X3476677Y3986661D01*
X3656677Y3983339D02*
X3640016Y3966678D01*
Y3933355D01*
X3656677Y3916694D01*
X3723322D01*
X3739984Y3933355D01*
Y3966678D01*
X3723322Y3983339D01*
X3739984Y4066645D02*
X3640016D01*
X3690000Y4016662D01*
Y4083307D01*
X3669984Y4165041D02*
X3570016D01*
Y4215025D01*
X3586677Y4231686D01*
X3620000D01*
X3636661Y4215025D01*
Y4165041D01*
Y4198363D02*
X3669984Y4231686D01*
Y4265008D02*
Y4298331D01*
Y4281670D01*
X3570016D01*
X3586677Y4265008D01*
X3669984Y4398299D02*
X3570016D01*
X3620000Y4348315D01*
Y4414960D01*
X3919984Y4035040D02*
X3820016D01*
Y4085024D01*
X3836677Y4101685D01*
X3870000D01*
X3886661Y4085024D01*
Y4035040D01*
Y4068363D02*
X3919984Y4101685D01*
Y4135008D02*
Y4168330D01*
Y4151669D01*
X3820016D01*
X3836677Y4135008D01*
Y4218314D02*
X3820016Y4234976D01*
Y4268298D01*
X3836677Y4284959D01*
X3853338D01*
X3870000Y4268298D01*
Y4251637D01*
Y4268298D01*
X3886661Y4284959D01*
X3903322D01*
X3919984Y4268298D01*
Y4234976D01*
X3903322Y4218314D01*
X4646694Y4710016D02*
Y4809984D01*
X4696677D01*
X4713339Y4793322D01*
Y4760000D01*
X4696677Y4743338D01*
X4646694D01*
X4680016D02*
X4713339Y4710016D01*
X4746661Y4793322D02*
X4763323Y4809984D01*
X4796645D01*
X4813306Y4793322D01*
Y4776661D01*
X4796645Y4760000D01*
X4813306Y4743338D01*
Y4726677D01*
X4796645Y4710016D01*
X4763323D01*
X4746661Y4726677D01*
Y4743338D01*
X4763323Y4760000D01*
X4746661Y4776661D01*
Y4793322D01*
X4763323Y4760000D02*
X4796645D01*
X5286694Y4660016D02*
Y4759984D01*
X5336677D01*
X5353339Y4743322D01*
Y4710000D01*
X5336677Y4693339D01*
X5286694D01*
X5320016D02*
X5353339Y4660016D01*
X5386661Y4676677D02*
X5403323Y4660016D01*
X5436645D01*
X5453306Y4676677D01*
Y4743322D01*
X5436645Y4759984D01*
X5403323D01*
X5386661Y4743322D01*
Y4726661D01*
X5403323Y4710000D01*
X5453306D01*
X5523339Y4913322D02*
X5506678Y4929984D01*
X5473355D01*
X5456694Y4913322D01*
Y4846677D01*
X5473355Y4830016D01*
X5506678D01*
X5523339Y4846677D01*
X5556661D02*
X5573323Y4830016D01*
X5606645D01*
X5623307Y4846677D01*
Y4913322D01*
X5606645Y4929984D01*
X5573323D01*
X5556661Y4913322D01*
Y4896661D01*
X5573323Y4880000D01*
X5623307D01*
X4236694Y4379984D02*
Y4296677D01*
X4253355Y4280016D01*
X4286677D01*
X4303339Y4296677D01*
Y4379984D01*
X4403306D02*
X4369984Y4363322D01*
X4336661Y4330000D01*
Y4296677D01*
X4353323Y4280016D01*
X4386645D01*
X4403306Y4296677D01*
Y4313339D01*
X4386645Y4330000D01*
X4336661D01*
X3656677Y4848347D02*
X3640016Y4831686D01*
Y4798363D01*
X3656677Y4781702D01*
X3723322D01*
X3739984Y4798363D01*
Y4831686D01*
X3723322Y4848347D01*
X3739984Y4881670D02*
Y4914992D01*
Y4898331D01*
X3640016D01*
X3656677Y4881670D01*
X3739984Y4964976D02*
Y4998299D01*
Y4981637D01*
X3640016D01*
X3656677Y4964976D01*
X2258346Y4558387D02*
X2241685Y4541726D01*
Y4508403D01*
X2258346Y4491742D01*
X2275008D01*
X2291669Y4508403D01*
Y4541726D01*
X2308330Y4558387D01*
X2324991D01*
X2341653Y4541726D01*
Y4508403D01*
X2324991Y4491742D01*
X2341653Y4591710D02*
X2241685D01*
Y4641694D01*
X2258346Y4658355D01*
X2291669D01*
X2308330Y4641694D01*
Y4591710D01*
X2241685Y4691677D02*
X2341653D01*
X2308330D01*
X2241685Y4758322D01*
X2291669Y4708339D01*
X2341653Y4758322D01*
X2358314Y4791645D02*
Y4858290D01*
X2241685Y4891613D02*
X2341653D01*
Y4958258D01*
X3048346Y4623387D02*
X3031685Y4606726D01*
Y4573403D01*
X3048346Y4556742D01*
X3065008D01*
X3081669Y4573403D01*
Y4606726D01*
X3098330Y4623387D01*
X3114991D01*
X3131653Y4606726D01*
Y4573403D01*
X3114991Y4556742D01*
X3131653Y4656710D02*
X3031685D01*
Y4706694D01*
X3048346Y4723355D01*
X3081669D01*
X3098330Y4706694D01*
Y4656710D01*
X3031685Y4756678D02*
X3131653D01*
X3098330D01*
X3031685Y4823323D01*
X3081669Y4773339D01*
X3131653Y4823323D01*
X3148314Y4856645D02*
Y4923290D01*
X3131653Y4956613D02*
X3031685D01*
Y5006597D01*
X3048346Y5023258D01*
X3081669D01*
X3098330Y5006597D01*
Y4956613D01*
Y4989936D02*
X3131653Y5023258D01*
X4503355Y352484D02*
Y252516D01*
X4553339D01*
X4570000Y269178D01*
Y335823D01*
X4553339Y352484D01*
X4503355D01*
X4603323Y252516D02*
X4636645D01*
X4619984D01*
Y352484D01*
X4603323Y335823D01*
X849677Y3457000D02*
Y3523645D01*
X816355Y3490322D02*
X883000D01*
X1070016Y4136629D02*
X1169984D01*
Y4086645D01*
X1153323Y4069984D01*
X1120000D01*
X1103339Y4086645D01*
Y4136629D01*
Y4103306D02*
X1070016Y4069984D01*
X1153323Y4036661D02*
X1169984Y4020000D01*
Y3986677D01*
X1153323Y3970016D01*
X1136661D01*
X1120000Y3986677D01*
Y4003338D01*
Y3986677D01*
X1103339Y3970016D01*
X1086678D01*
X1070016Y3986677D01*
Y4020000D01*
X1086678Y4036661D01*
X1070016Y3936693D02*
Y3903371D01*
Y3920032D01*
X1169984D01*
X1153323Y3936693D01*
X813405Y4019701D02*
Y4086346D01*
X796744Y4103008D01*
X763421D01*
X746760Y4086346D01*
Y4019701D01*
X763421Y4003040D01*
X796744D01*
X780083Y4036363D02*
X813405Y4003040D01*
X796744D02*
X813405Y4019701D01*
X846728Y4086346D02*
X863389Y4103008D01*
X896712D01*
X913373Y4086346D01*
Y4069685D01*
X896712Y4053024D01*
X913373Y4036363D01*
Y4019701D01*
X896712Y4003040D01*
X863389D01*
X846728Y4019701D01*
Y4036363D01*
X863389Y4053024D01*
X846728Y4069685D01*
Y4086346D01*
X863389Y4053024D02*
X896712D01*
D79*
X1941385Y3115905D02*
X2164095Y3338615D01*
X1795905Y3261385D02*
X2018615Y3484095D01*
X2807910Y3186920D02*
X3232090D01*
X2807910Y4213080D02*
X3232090D01*
%TF.MD5,d34d0ea0eb888abd592778b94e396b2d*%
M02*
