%TF.GenerationSoftware,Altium Limited,Altium Designer,25.7.1 (20)*%
G04 Layer_Color=32896*
%FSLAX45Y45*%
%MOMM*%
%TF.SameCoordinates,3376FABF-9249-4748-A69B-BDD9C5401F70*%
%TF.FilePolarity,Positive*%
%TF.FileFunction,Legend,Bot*%
%TF.Part,Single*%
G01*
G75*
%TA.AperFunction,NonConductor*%
%ADD72C,0.25400*%
%ADD73C,0.20000*%
%ADD74C,0.25000*%
%ADD77C,0.12700*%
%ADD78C,0.17000*%
%ADD79C,0.15240*%
%ADD80C,0.12500*%
G36*
X5020680Y3878450D02*
X5046080D01*
Y3916550D01*
X5020680D01*
Y3878450D01*
D02*
G37*
D72*
X3810000Y4127451D02*
X3708433Y3975100D01*
Y4127451D02*
X3810000Y3975100D01*
X3556082D02*
X3657649D01*
X3556082Y4076667D01*
Y4102059D01*
X3581474Y4127451D01*
X3632257D01*
X3657649Y4102059D01*
D73*
X2275000Y1360001D02*
X2545000D01*
X2275000Y1140001D02*
X2545000D01*
X4770000Y2922500D02*
X4870000D01*
X4770000Y3057500D02*
X4870000D01*
X4440000D02*
X4540000D01*
X4440000Y2922500D02*
X4540000D01*
X2195000Y2972500D02*
Y2977500D01*
X2105000Y2972500D02*
Y2977500D01*
X2237500Y2780000D02*
X2242500D01*
X2237500Y2690000D02*
X2242500D01*
X4458624Y4159232D02*
Y4306480D01*
X4321376Y4159232D02*
Y4306480D01*
X5119393Y4105000D02*
X5320607D01*
X5119393Y3935000D02*
X5320607D01*
X4116376Y3701376D02*
X4263624D01*
X4116376Y3838624D02*
X4263624D01*
X2295000Y1820000D02*
X2565000D01*
X2295000Y2040000D02*
X2565000D01*
X3125000Y955000D02*
X3295000D01*
X3125000Y785000D02*
X3295000D01*
X3125000Y1375000D02*
X3295000D01*
X3125000Y1545000D02*
X3295000D01*
X3110000Y1925000D02*
X3280000D01*
X3110000Y1755000D02*
X3280000D01*
X940000Y2582500D02*
Y2680000D01*
X640000D02*
X712500D01*
X867500D02*
X940000D01*
X640000Y2582500D02*
Y2680000D01*
X5047500Y3287500D02*
Y3392500D01*
X5172500Y3287500D02*
Y3392500D01*
X1220233Y1580000D02*
X1499767D01*
Y2080000D01*
X1220233D02*
X1499767D01*
X1220233Y1580000D02*
Y2080000D01*
D74*
X2675000Y1390000D02*
G03*
X2675000Y1390000I-12500J0D01*
G01*
X2782500Y2025000D02*
G03*
X2782500Y2025000I-12500J0D01*
G01*
X912190Y1602500D02*
G03*
X912190Y1602500I-12500J0D01*
G01*
D77*
X2540001Y922501D02*
Y957501D01*
X2360000Y777501D02*
X2492500D01*
X2360000Y1017501D02*
Y1102501D01*
Y777501D02*
Y862501D01*
Y1102501D02*
X2492500D01*
X2560000Y1602500D02*
Y1637500D01*
X2380000Y1457500D02*
X2512500D01*
X2380000Y1697500D02*
Y1782500D01*
Y1457500D02*
Y1542500D01*
Y1782500D02*
X2512500D01*
D78*
X1991661Y1216678D02*
Y1283323D01*
X2008323Y1299984D01*
X2041645D01*
X2058307Y1283323D01*
Y1216678D01*
X2041645Y1200016D01*
X2008323D01*
X2024984Y1233339D02*
X1991661Y1200016D01*
X2008323D02*
X1991661Y1216678D01*
X1958339Y1283323D02*
X1941677Y1299984D01*
X1908355D01*
X1891694Y1283323D01*
Y1266661D01*
X1908355Y1250000D01*
X1925016D01*
X1908355D01*
X1891694Y1233339D01*
Y1216678D01*
X1908355Y1200016D01*
X1941677D01*
X1958339Y1216678D01*
X5143306Y2970016D02*
Y3069984D01*
X5093323D01*
X5076661Y3053323D01*
Y3020000D01*
X5093323Y3003339D01*
X5143306D01*
X5109984D02*
X5076661Y2970016D01*
X4976694Y3069984D02*
X5010016Y3053323D01*
X5043339Y3020000D01*
Y2986678D01*
X5026677Y2970016D01*
X4993355D01*
X4976694Y2986678D01*
Y3003339D01*
X4993355Y3020000D01*
X5043339D01*
X4670807Y3117516D02*
Y3217484D01*
X4620823D01*
X4604161Y3200822D01*
Y3167500D01*
X4620823Y3150839D01*
X4670807D01*
X4637484D02*
X4604161Y3117516D01*
X4570839Y3200822D02*
X4554177Y3217484D01*
X4520855D01*
X4504194Y3200822D01*
Y3184161D01*
X4520855Y3167500D01*
X4537516D01*
X4520855D01*
X4504194Y3150839D01*
Y3134177D01*
X4520855Y3117516D01*
X4554177D01*
X4570839Y3134177D01*
X522484Y3158340D02*
Y3125017D01*
Y3141679D01*
X439177D01*
X422516Y3125017D01*
Y3108356D01*
X439177Y3091695D01*
X422516Y3241647D02*
X522484D01*
X472500Y3191663D01*
Y3258308D01*
X197468Y1016647D02*
Y950002D01*
X147484D01*
X164145Y983324D01*
Y999986D01*
X147484Y1016647D01*
X114161D01*
X97500Y999986D01*
Y966663D01*
X114161Y950002D01*
X97500Y1116614D02*
Y1049969D01*
X164145Y1116614D01*
X180806D01*
X197468Y1099953D01*
Y1066631D01*
X180806Y1049969D01*
X97500Y1216582D02*
Y1149937D01*
X164145Y1216582D01*
X180806D01*
X197468Y1199921D01*
Y1166599D01*
X180806Y1149937D01*
X197468Y1249905D02*
Y1316550D01*
X180806D01*
X114161Y1249905D01*
X97500D01*
Y1349873D02*
Y1383195D01*
Y1366534D01*
X197468D01*
X180806Y1349873D01*
X97500Y1499824D02*
Y1433179D01*
X164145Y1499824D01*
X180806D01*
X197468Y1483163D01*
Y1449841D01*
X180806Y1433179D01*
Y1533147D02*
X197468Y1549808D01*
Y1583131D01*
X180806Y1599792D01*
X114161D01*
X97500Y1583131D01*
Y1549808D01*
X114161Y1533147D01*
X180806D01*
X197468Y1699760D02*
X180806Y1666437D01*
X147484Y1633115D01*
X114161D01*
X97500Y1649776D01*
Y1683099D01*
X114161Y1699760D01*
X130822D01*
X147484Y1683099D01*
Y1633115D01*
X114161Y1733083D02*
X97500Y1749744D01*
Y1783067D01*
X114161Y1799728D01*
X180806D01*
X197468Y1783067D01*
Y1749744D01*
X180806Y1733083D01*
X164145D01*
X147484Y1749744D01*
Y1799728D01*
X2197100Y3192780D02*
Y3292748D01*
X2147116D01*
X2130455Y3276086D01*
Y3242764D01*
X2147116Y3226103D01*
X2197100D01*
X2163777D02*
X2130455Y3192780D01*
X2097132Y3276086D02*
X2080471Y3292748D01*
X2047148D01*
X2030487Y3276086D01*
Y3259425D01*
X2047148Y3242764D01*
X2063810D01*
X2047148D01*
X2030487Y3226103D01*
Y3209441D01*
X2047148Y3192780D01*
X2080471D01*
X2097132Y3209441D01*
X1930519Y3292748D02*
X1963842Y3276086D01*
X1997164Y3242764D01*
Y3209441D01*
X1980503Y3192780D01*
X1947181D01*
X1930519Y3209441D01*
Y3226103D01*
X1947181Y3242764D01*
X1997164D01*
X2480790Y2832516D02*
Y2932484D01*
X2430806D01*
X2414145Y2915822D01*
Y2882500D01*
X2430806Y2865839D01*
X2480790D01*
X2447468D02*
X2414145Y2832516D01*
X2380823Y2915822D02*
X2364161Y2932484D01*
X2330839D01*
X2314177Y2915822D01*
Y2899161D01*
X2330839Y2882500D01*
X2347500D01*
X2330839D01*
X2314177Y2865839D01*
Y2849177D01*
X2330839Y2832516D01*
X2364161D01*
X2380823Y2849177D01*
X2280855Y2932484D02*
X2214210D01*
Y2915822D01*
X2280855Y2849177D01*
Y2832516D01*
X2441661Y616677D02*
Y683322D01*
X2458322Y699984D01*
X2491645D01*
X2508306Y683322D01*
Y616677D01*
X2491645Y600016D01*
X2458322D01*
X2474984Y633339D02*
X2441661Y600016D01*
X2458322D02*
X2441661Y616677D01*
X2341694Y699984D02*
X2408339D01*
Y650000D01*
X2375016Y666661D01*
X2358355D01*
X2341694Y650000D01*
Y616677D01*
X2358355Y600016D01*
X2391677D01*
X2408339Y616677D01*
X3933306Y4375016D02*
Y4474984D01*
X3883322D01*
X3866661Y4458323D01*
Y4425000D01*
X3883322Y4408339D01*
X3933306D01*
X3899984D02*
X3866661Y4375016D01*
X3783355D02*
Y4474984D01*
X3833339Y4425000D01*
X3766694D01*
X3974960Y4775016D02*
Y4874984D01*
X3924976D01*
X3908315Y4858323D01*
Y4825000D01*
X3924976Y4808339D01*
X3974960D01*
X3941637D02*
X3908315Y4775016D01*
X3874992D02*
X3841669D01*
X3858330D01*
Y4874984D01*
X3874992Y4858323D01*
X3791685D02*
X3775024Y4874984D01*
X3741701D01*
X3725040Y4858323D01*
Y4791677D01*
X3741701Y4775016D01*
X3775024D01*
X3791685Y4791677D01*
Y4858323D01*
X4366645Y4608323D02*
X4383306Y4624984D01*
X4416629D01*
X4433290Y4608323D01*
Y4541677D01*
X4416629Y4525016D01*
X4383306D01*
X4366645Y4541677D01*
X4266678Y4525016D02*
X4333323D01*
X4266678Y4591661D01*
Y4608323D01*
X4283339Y4624984D01*
X4316661D01*
X4333323Y4608323D01*
X4183371Y4525016D02*
Y4624984D01*
X4233355Y4575000D01*
X4166710D01*
X4741645Y4799984D02*
X4675000Y4700016D01*
Y4799984D02*
X4741645Y4700016D01*
X4641677D02*
X4608355D01*
X4625016D01*
Y4799984D01*
X4641677Y4783322D01*
X4166645Y4283322D02*
X4183306Y4299984D01*
X4216629D01*
X4233290Y4283322D01*
Y4216677D01*
X4216629Y4200016D01*
X4183306D01*
X4166645Y4216677D01*
X4066677Y4200016D02*
X4133322D01*
X4066677Y4266661D01*
Y4283322D01*
X4083339Y4299984D01*
X4116661D01*
X4133322Y4283322D01*
X3966710Y4200016D02*
X4033355D01*
X3966710Y4266661D01*
Y4283322D01*
X3983371Y4299984D01*
X4016693D01*
X4033355Y4283322D01*
X4808290Y4525016D02*
Y4624984D01*
X4758306D01*
X4741645Y4608323D01*
Y4575000D01*
X4758306Y4558339D01*
X4808290D01*
X4774968D02*
X4741645Y4525016D01*
X4658339D02*
Y4624984D01*
X4708323Y4575000D01*
X4641678D01*
X4558371Y4525016D02*
Y4624984D01*
X4608355Y4575000D01*
X4541710D01*
X5116645Y4608323D02*
X5133306Y4624984D01*
X5166629D01*
X5183290Y4608323D01*
Y4541677D01*
X5166629Y4525016D01*
X5133306D01*
X5116645Y4541677D01*
X5016678Y4525016D02*
X5083323D01*
X5016678Y4591661D01*
Y4608323D01*
X5033339Y4624984D01*
X5066661D01*
X5083323Y4608323D01*
X4916710Y4624984D02*
X4983355D01*
Y4575000D01*
X4950032Y4591661D01*
X4933371D01*
X4916710Y4575000D01*
Y4541677D01*
X4933371Y4525016D01*
X4966693D01*
X4983355Y4541677D01*
X5233290Y4150016D02*
Y4249984D01*
X5183306D01*
X5166645Y4233322D01*
Y4200000D01*
X5183306Y4183339D01*
X5233290D01*
X5199968D02*
X5166645Y4150016D01*
X5083339D02*
Y4249984D01*
X5133322Y4200000D01*
X5066677D01*
X5033355Y4233322D02*
X5016693Y4249984D01*
X4983371D01*
X4966710Y4233322D01*
Y4216661D01*
X4983371Y4200000D01*
X5000032D01*
X4983371D01*
X4966710Y4183339D01*
Y4166677D01*
X4983371Y4150016D01*
X5016693D01*
X5033355Y4166677D01*
X4758306Y3899984D02*
Y3816677D01*
X4741645Y3800016D01*
X4708323D01*
X4691661Y3816677D01*
Y3899984D01*
X4658339Y3883322D02*
X4641677Y3899984D01*
X4608355D01*
X4591694Y3883322D01*
Y3866661D01*
X4608355Y3850000D01*
X4591694Y3833339D01*
Y3816677D01*
X4608355Y3800016D01*
X4641677D01*
X4658339Y3816677D01*
Y3833339D01*
X4641677Y3850000D01*
X4658339Y3866661D01*
Y3883322D01*
X4641677Y3850000D02*
X4608355D01*
X4625000Y2816694D02*
X4691645Y2883339D01*
X4625000D02*
X4691645Y2816694D01*
X4625000Y2850016D02*
X4691645D01*
X4658322Y2883339D02*
Y2816694D01*
X4099984Y3983322D02*
X4116645Y3999984D01*
X4149968D01*
X4166629Y3983322D01*
Y3916677D01*
X4149968Y3900016D01*
X4116645D01*
X4099984Y3916677D01*
X4000016Y3900016D02*
X4066661D01*
X4000016Y3966661D01*
Y3983322D01*
X4016677Y3999984D01*
X4050000D01*
X4066661Y3983322D01*
X3966693Y3900016D02*
X3933371D01*
X3950032D01*
Y3999984D01*
X3966693Y3983322D01*
X2441661Y2116678D02*
Y2183323D01*
X2458322Y2199984D01*
X2491645D01*
X2508306Y2183323D01*
Y2116678D01*
X2491645Y2100016D01*
X2458322D01*
X2474984Y2133339D02*
X2441661Y2100016D01*
X2458322D02*
X2441661Y2116678D01*
X2358355Y2100016D02*
Y2199984D01*
X2408339Y2150000D01*
X2341694D01*
X2191661Y1716678D02*
Y1783323D01*
X2208322Y1799984D01*
X2241645D01*
X2258306Y1783323D01*
Y1716678D01*
X2241645Y1700016D01*
X2208322D01*
X2224984Y1733339D02*
X2191661Y1700016D01*
X2208322D02*
X2191661Y1716678D01*
X2091694Y1799984D02*
X2125016Y1783323D01*
X2158339Y1750000D01*
Y1716678D01*
X2141677Y1700016D01*
X2108355D01*
X2091694Y1716678D01*
Y1733339D01*
X2108355Y1750000D01*
X2158339D01*
X3008290Y1325016D02*
Y1424984D01*
X2958307D01*
X2941645Y1408323D01*
Y1375000D01*
X2958307Y1358339D01*
X3008290D01*
X2974968D02*
X2941645Y1325016D01*
X2841678D02*
X2908323D01*
X2841678Y1391661D01*
Y1408323D01*
X2858339Y1424984D01*
X2891661D01*
X2908323Y1408323D01*
X2741710Y1424984D02*
X2808355D01*
Y1375000D01*
X2775032Y1391661D01*
X2758371D01*
X2741710Y1375000D01*
Y1341678D01*
X2758371Y1325016D01*
X2791693D01*
X2808355Y1341678D01*
X3033290Y1850016D02*
Y1949984D01*
X2983306D01*
X2966645Y1933323D01*
Y1900000D01*
X2983306Y1883339D01*
X3033290D01*
X2999968D02*
X2966645Y1850016D01*
X2866678D02*
X2933323D01*
X2866678Y1916661D01*
Y1933323D01*
X2883339Y1949984D01*
X2916661D01*
X2933323Y1933323D01*
X2766710Y1949984D02*
X2800032Y1933323D01*
X2833355Y1900000D01*
Y1866677D01*
X2816693Y1850016D01*
X2783371D01*
X2766710Y1866677D01*
Y1883339D01*
X2783371Y1900000D01*
X2833355D01*
X2049984Y1666629D02*
X1950016D01*
Y1616645D01*
X1966678Y1599984D01*
X2000000D01*
X2016661Y1616645D01*
Y1666629D01*
Y1633306D02*
X2049984Y1599984D01*
Y1500016D02*
Y1566661D01*
X1983339Y1500016D01*
X1966678D01*
X1950016Y1516677D01*
Y1550000D01*
X1966678Y1566661D01*
X2049984Y1466693D02*
Y1433371D01*
Y1450032D01*
X1950016D01*
X1966678Y1466693D01*
X1999984Y1008291D02*
X1900016D01*
Y958307D01*
X1916677Y941646D01*
X1950000D01*
X1966661Y958307D01*
Y1008291D01*
Y974968D02*
X1999984Y941646D01*
Y841678D02*
Y908323D01*
X1933339Y841678D01*
X1916677D01*
X1900016Y858339D01*
Y891661D01*
X1916677Y908323D01*
Y808355D02*
X1900016Y791694D01*
Y758371D01*
X1916677Y741710D01*
X1983322D01*
X1999984Y758371D01*
Y791694D01*
X1983322Y808355D01*
X1916677D01*
X2958290Y650016D02*
Y749984D01*
X2908306D01*
X2891645Y733323D01*
Y700000D01*
X2908306Y683339D01*
X2958290D01*
X2924968D02*
X2891645Y650016D01*
X2791677D02*
X2858322D01*
X2791677Y716661D01*
Y733323D01*
X2808339Y749984D01*
X2841661D01*
X2858322Y733323D01*
X2708371Y650016D02*
Y749984D01*
X2758355Y700000D01*
X2691710D01*
X3008290Y1175016D02*
Y1274984D01*
X2958307D01*
X2941645Y1258323D01*
Y1225000D01*
X2958307Y1208339D01*
X3008290D01*
X2974968D02*
X2941645Y1175016D01*
X2841678D02*
X2908323D01*
X2841678Y1241661D01*
Y1258323D01*
X2858339Y1274984D01*
X2891661D01*
X2908323Y1258323D01*
X2808355D02*
X2791693Y1274984D01*
X2758371D01*
X2741710Y1258323D01*
Y1241661D01*
X2758371Y1225000D01*
X2775032D01*
X2758371D01*
X2741710Y1208339D01*
Y1191678D01*
X2758371Y1175016D01*
X2791693D01*
X2808355Y1191678D01*
X3658315Y908323D02*
X3674976Y924984D01*
X3708298D01*
X3724960Y908323D01*
Y841678D01*
X3708298Y825016D01*
X3674976D01*
X3658315Y841678D01*
X3624992Y825016D02*
X3591669D01*
X3608330D01*
Y924984D01*
X3624992Y908323D01*
X3475040Y924984D02*
X3541685D01*
Y875000D01*
X3508363Y891661D01*
X3491701D01*
X3475040Y875000D01*
Y841678D01*
X3491701Y825016D01*
X3525024D01*
X3541685Y841678D01*
X3649960Y1025016D02*
Y1124984D01*
X3599976D01*
X3583315Y1108322D01*
Y1075000D01*
X3599976Y1058338D01*
X3649960D01*
X3616637D02*
X3583315Y1025016D01*
X3549992D02*
X3516669D01*
X3533330D01*
Y1124984D01*
X3549992Y1108322D01*
X3466685D02*
X3450024Y1124984D01*
X3416702D01*
X3400040Y1108322D01*
Y1091661D01*
X3416702Y1075000D01*
X3400040Y1058338D01*
Y1041677D01*
X3416702Y1025016D01*
X3450024D01*
X3466685Y1041677D01*
Y1058338D01*
X3450024Y1075000D01*
X3466685Y1091661D01*
Y1108322D01*
X3450024Y1075000D02*
X3416702D01*
X3674960Y1225016D02*
Y1324984D01*
X3624976D01*
X3608315Y1308323D01*
Y1275000D01*
X3624976Y1258339D01*
X3674960D01*
X3641637D02*
X3608315Y1225016D01*
X3574992D02*
X3541669D01*
X3558330D01*
Y1324984D01*
X3574992Y1308323D01*
X3491685Y1241677D02*
X3475024Y1225016D01*
X3441702D01*
X3425040Y1241677D01*
Y1308323D01*
X3441702Y1324984D01*
X3475024D01*
X3491685Y1308323D01*
Y1291661D01*
X3475024Y1275000D01*
X3425040D01*
X3583315Y1483322D02*
X3599976Y1499984D01*
X3633298D01*
X3649960Y1483322D01*
Y1416677D01*
X3633298Y1400016D01*
X3599976D01*
X3583315Y1416677D01*
X3549992Y1400016D02*
X3516669D01*
X3533330D01*
Y1499984D01*
X3549992Y1483322D01*
X3416702Y1400016D02*
Y1499984D01*
X3466685Y1450000D01*
X3400040D01*
X3624960Y1600016D02*
Y1699984D01*
X3574976D01*
X3558315Y1683323D01*
Y1650000D01*
X3574976Y1633339D01*
X3624960D01*
X3591637D02*
X3558315Y1600016D01*
X3524992D02*
X3491669D01*
X3508331D01*
Y1699984D01*
X3524992Y1683323D01*
X3441686Y1699984D02*
X3375040D01*
Y1683323D01*
X3441686Y1616677D01*
Y1600016D01*
X3250595Y2087366D02*
X3267256Y2104028D01*
X3300579D01*
X3317240Y2087366D01*
Y2020721D01*
X3300579Y2004060D01*
X3267256D01*
X3250595Y2020721D01*
X3217272Y2004060D02*
X3183950D01*
X3200611D01*
Y2104028D01*
X3217272Y2087366D01*
X3133966D02*
X3117304Y2104028D01*
X3083982D01*
X3067321Y2087366D01*
Y2070705D01*
X3083982Y2054044D01*
X3100643D01*
X3083982D01*
X3067321Y2037383D01*
Y2020721D01*
X3083982Y2004060D01*
X3117304D01*
X3133966Y2020721D01*
X3065175Y388106D02*
X3081836Y404768D01*
X3115159D01*
X3131820Y388106D01*
Y371445D01*
X3115159Y354784D01*
X3081836D01*
X3065175Y338123D01*
Y321461D01*
X3081836Y304800D01*
X3115159D01*
X3131820Y321461D01*
X3031852Y304800D02*
X2998530D01*
X3015191D01*
Y404768D01*
X3031852Y388106D01*
X735995Y2869081D02*
Y2935726D01*
X752656Y2952388D01*
X785979D01*
X802640Y2935726D01*
Y2869081D01*
X785979Y2852420D01*
X752656D01*
X769317Y2885743D02*
X735995Y2852420D01*
X752656D02*
X735995Y2869081D01*
X702672D02*
X686011Y2852420D01*
X652688D01*
X636027Y2869081D01*
Y2935726D01*
X652688Y2952388D01*
X686011D01*
X702672Y2935726D01*
Y2919065D01*
X686011Y2902404D01*
X636027D01*
X5155595Y3570726D02*
X5172256Y3587388D01*
X5205579D01*
X5222240Y3570726D01*
Y3504081D01*
X5205579Y3487420D01*
X5172256D01*
X5155595Y3504081D01*
X5055627Y3587388D02*
X5122272D01*
Y3537404D01*
X5088950Y3554065D01*
X5072288D01*
X5055627Y3537404D01*
Y3504081D01*
X5072288Y3487420D01*
X5105611D01*
X5122272Y3504081D01*
X1788160Y2307228D02*
Y2223921D01*
X1771499Y2207260D01*
X1738176D01*
X1721515Y2223921D01*
Y2307228D01*
X1621547D02*
X1688192D01*
Y2257244D01*
X1654870Y2273905D01*
X1638208D01*
X1621547Y2257244D01*
Y2223921D01*
X1638208Y2207260D01*
X1671531D01*
X1688192Y2223921D01*
D79*
X462500Y200003D02*
Y538252D01*
Y2561752D02*
Y2899997D01*
X334250Y200003D02*
X462500D01*
X334250Y2899997D02*
X462500D01*
X582920Y593703D02*
X740400Y517503D01*
X582920Y593703D02*
X740400Y695303D01*
Y517503D02*
Y695303D01*
X4451720Y3072000D02*
X4868280D01*
X4451720Y4088000D02*
X4868280D01*
D80*
X2581250Y750000D02*
G03*
X2581250Y750000I-6250J0D01*
G01*
X2643750Y1452500D02*
G03*
X2643750Y1452500I-6250J0D01*
G01*
%TF.MD5,97c9ea27181de22f2870465995f3c852*%
M02*
