%TF.GenerationSoftware,Altium Limited,Altium Designer,25.7.1 (20)*%
G04 Layer_Color=0*
%FSLAX45Y45*%
%MOMM*%
%TF.SameCoordinates,C331EA04-0F80-4B25-860E-1567A5D6E8FC*%
%TF.FilePolarity,Positive*%
%TF.FileFunction,Plated,1,4,PTH,Drill*%
%TF.Part,Single*%
G01*
G75*
%TA.AperFunction,ComponentDrill*%
%ADD109C,0.90000*%
%ADD110C,0.90000*%
%TA.AperFunction,ViaDrill,NotFilled*%
%ADD111C,0.30000*%
%ADD112C,4.00000*%
%ADD113C,0.25600*%
%ADD114C,0.30800*%
D109*
X3783000Y4925000D02*
D03*
X5614000Y140000D02*
D03*
X4829999D02*
D03*
X4574000D02*
D03*
X3068000Y150000D02*
D03*
X1126000Y140000D02*
D03*
X2854000Y2940000D02*
D03*
X872000Y140000D02*
D03*
X4037000Y4925000D02*
D03*
X4291000D02*
D03*
X4545000D02*
D03*
X4799000D02*
D03*
X1634000Y140000D02*
D03*
X1380000D02*
D03*
X1888000D02*
D03*
X4084000Y150000D02*
D03*
X3576000D02*
D03*
X3322000D02*
D03*
X3830000D02*
D03*
X2600000Y2940000D02*
D03*
X5360000Y140000D02*
D03*
X5083999D02*
D03*
X2142000D02*
D03*
X3276000Y4920000D02*
D03*
X2754000D02*
D03*
X2500000D02*
D03*
X3530000D02*
D03*
X4320000Y140000D02*
D03*
D110*
X340000Y3700000D02*
D03*
X5680000Y3600000D02*
D03*
Y3346000D02*
D03*
X340000Y3954000D02*
D03*
D111*
X703705Y4627706D02*
D03*
X407500Y2615000D02*
D03*
X2010000Y4040000D02*
D03*
X4550000Y3029373D02*
D03*
X3960000Y3170000D02*
D03*
X4532918Y4252918D02*
D03*
X1384500Y1877500D02*
D03*
X4000000Y3050000D02*
D03*
X1384500Y2027500D02*
D03*
X4905599Y2664599D02*
D03*
X4230000Y2960000D02*
D03*
X4250000Y2880000D02*
D03*
X3940000Y3380000D02*
D03*
X4070000Y3300000D02*
D03*
X4689952Y3604952D02*
D03*
X103705Y2027705D02*
D03*
Y3027705D02*
D03*
Y1227704D02*
D03*
Y627704D02*
D03*
Y2227705D02*
D03*
Y827704D02*
D03*
Y1427705D02*
D03*
Y1827705D02*
D03*
Y1627705D02*
D03*
Y1027704D02*
D03*
Y3227706D02*
D03*
X4960000Y4160000D02*
D03*
X103705Y2427705D02*
D03*
X3120000Y1910000D02*
D03*
X2905000Y1805000D02*
D03*
X3135000Y775000D02*
D03*
X3550000Y720000D02*
D03*
X3060000Y1460000D02*
D03*
X2915000Y1425000D02*
D03*
X2969999Y850001D02*
D03*
X2653500Y4073002D02*
D03*
X2180000Y4070000D02*
D03*
X2370000Y3980000D02*
D03*
X2820000Y3130000D02*
D03*
X2460000Y3210000D02*
D03*
X2430000Y3320000D02*
D03*
X1360000Y4359999D02*
D03*
X1470000Y3750000D02*
D03*
X1827900Y3620000D02*
D03*
X2325000Y2815000D02*
D03*
X2430000Y2700000D02*
D03*
X2870000Y1140000D02*
D03*
X2388000Y758000D02*
D03*
Y340000D02*
D03*
X550000Y2270000D02*
D03*
Y2200000D02*
D03*
X1118000Y748000D02*
D03*
X550000Y2100000D02*
D03*
X540000Y1900000D02*
D03*
X380000Y510000D02*
D03*
X1762500Y1535000D02*
D03*
X1562500Y2150000D02*
D03*
X1060000Y2300000D02*
D03*
X3110000Y4010000D02*
D03*
X3110500Y3509500D02*
D03*
X5040000Y440000D02*
D03*
X4820000Y660000D02*
D03*
X3760000Y369999D02*
D03*
X3660000Y2690000D02*
D03*
Y2280000D02*
D03*
X5480417Y4535418D02*
D03*
X4997500Y3410000D02*
D03*
X2520540Y4016941D02*
D03*
X303705Y4827706D02*
D03*
X503705D02*
D03*
X703705Y4027706D02*
D03*
X903705D02*
D03*
X303705Y3027705D02*
D03*
X703705Y4227706D02*
D03*
X903705Y4427706D02*
D03*
Y4227706D02*
D03*
X303705Y2627705D02*
D03*
X703705Y4827706D02*
D03*
X503705Y4627706D02*
D03*
X303705Y3427706D02*
D03*
X903705Y4627706D02*
D03*
Y4827706D02*
D03*
X503705Y4427706D02*
D03*
X303705Y4627706D02*
D03*
Y3227706D02*
D03*
X703705Y3027705D02*
D03*
Y2827705D02*
D03*
X103705Y4827706D02*
D03*
Y3427706D02*
D03*
Y4227706D02*
D03*
X303705Y4427706D02*
D03*
X503705Y227704D02*
D03*
X103705Y4027706D02*
D03*
X703705Y227704D02*
D03*
Y4427706D02*
D03*
X503705Y4227706D02*
D03*
X303705D02*
D03*
X103705Y3827706D02*
D03*
Y3627706D02*
D03*
X3503706Y2027705D02*
D03*
Y2827705D02*
D03*
X3703707Y1027704D02*
D03*
Y1427705D02*
D03*
Y1627705D02*
D03*
Y1827705D02*
D03*
Y2027705D02*
D03*
Y2827705D02*
D03*
Y3027705D02*
D03*
Y4027706D02*
D03*
Y4227706D02*
D03*
Y4427706D02*
D03*
X3903707Y827704D02*
D03*
Y1227704D02*
D03*
Y1427705D02*
D03*
Y1627705D02*
D03*
Y1827705D02*
D03*
Y2027705D02*
D03*
Y2827705D02*
D03*
Y3027705D02*
D03*
Y3227706D02*
D03*
Y4027706D02*
D03*
Y4227706D02*
D03*
Y4427706D02*
D03*
Y4627706D02*
D03*
X4103707Y1027704D02*
D03*
Y1227704D02*
D03*
Y1427705D02*
D03*
Y1627705D02*
D03*
Y1827705D02*
D03*
Y2027705D02*
D03*
Y2827705D02*
D03*
X4303707Y3627706D02*
D03*
Y4627706D02*
D03*
X4703707Y4427706D02*
D03*
Y4627706D02*
D03*
X4903707D02*
D03*
Y4827706D02*
D03*
X5103707Y2827705D02*
D03*
Y4427706D02*
D03*
Y4627706D02*
D03*
Y4827706D02*
D03*
X5303707Y2827705D02*
D03*
Y3827706D02*
D03*
Y4427706D02*
D03*
Y4627706D02*
D03*
Y4827706D02*
D03*
X5503708Y227704D02*
D03*
Y1027704D02*
D03*
Y2027705D02*
D03*
Y2227705D02*
D03*
Y3227706D02*
D03*
Y4627706D02*
D03*
Y4827706D02*
D03*
X5703708Y227704D02*
D03*
Y827704D02*
D03*
Y2827705D02*
D03*
Y3027705D02*
D03*
Y4227706D02*
D03*
Y4827706D02*
D03*
X4538616Y3544628D02*
D03*
X1991135Y3578991D02*
D03*
X4405000Y3412178D02*
D03*
X1560000Y3469200D02*
D03*
X1830000D02*
D03*
X1703706Y1227704D02*
D03*
X3103706Y4627706D02*
D03*
X2903706Y1227704D02*
D03*
X2303706Y4627706D02*
D03*
X3103706Y4427706D02*
D03*
X1703706Y4627706D02*
D03*
X1903706Y1227704D02*
D03*
X2903706Y1627705D02*
D03*
X1903706Y1427705D02*
D03*
X1103705Y4827706D02*
D03*
X2103706Y4227706D02*
D03*
X1303705Y4627706D02*
D03*
X2103706Y4827706D02*
D03*
X1703706D02*
D03*
X1503705D02*
D03*
X2903706D02*
D03*
X1103705Y827704D02*
D03*
X3103706Y2027705D02*
D03*
X1103705Y4627706D02*
D03*
X3303706Y2027705D02*
D03*
X2303706Y4227706D02*
D03*
X1303705Y4427706D02*
D03*
X2103706Y4627706D02*
D03*
X1503705Y227704D02*
D03*
X5627917Y4262917D02*
D03*
X2303706Y4027706D02*
D03*
X3503706Y1827705D02*
D03*
X2303706Y4427706D02*
D03*
X1303705Y4827706D02*
D03*
X2703706Y2827705D02*
D03*
X1903706Y4627706D02*
D03*
X2303706Y227704D02*
D03*
X2103706Y4427706D02*
D03*
X2303706Y4827706D02*
D03*
X3503706Y1627705D02*
D03*
X2903706Y4627706D02*
D03*
X1703706Y1427705D02*
D03*
X1103705Y1027704D02*
D03*
X2503706Y3627706D02*
D03*
X3503706Y1227704D02*
D03*
X1503705Y4627706D02*
D03*
X2903706Y2027705D02*
D03*
X2503706Y1427705D02*
D03*
X1903706Y4827706D02*
D03*
X1503705Y1427705D02*
D03*
X2703706Y227704D02*
D03*
X1103705Y4027706D02*
D03*
Y4227706D02*
D03*
X3103706Y4827706D02*
D03*
X3503706Y827704D02*
D03*
X1103705Y4427706D02*
D03*
X1703706Y3227706D02*
D03*
Y3027705D02*
D03*
Y2827705D02*
D03*
X1503705Y3227706D02*
D03*
Y3027705D02*
D03*
Y2827705D02*
D03*
X1303705Y3227706D02*
D03*
Y3027705D02*
D03*
Y2827705D02*
D03*
X1103705Y3227706D02*
D03*
Y3027705D02*
D03*
Y2827705D02*
D03*
X2050000Y2720000D02*
D03*
X1220000Y1660000D02*
D03*
X1380000Y2220000D02*
D03*
X2340000Y3400000D02*
D03*
X3120000Y3700000D02*
D03*
X2990000Y4420000D02*
D03*
X4110000Y2980000D02*
D03*
X4830000Y3010000D02*
D03*
X3450000Y3620000D02*
D03*
X4053660Y3846340D02*
D03*
X4163660Y4046340D02*
D03*
X5160000Y3890000D02*
D03*
X4300000Y4100000D02*
D03*
X5072353Y3312353D02*
D03*
X5077452Y3217452D02*
D03*
X5408651Y2941151D02*
D03*
X5097599Y3015099D02*
D03*
X4690000Y4300000D02*
D03*
X4687500Y4187500D02*
D03*
X4410418Y3241217D02*
D03*
X5422567Y2672567D02*
D03*
X3052000Y1638000D02*
D03*
X3070000Y1270000D02*
D03*
X3090500Y1150000D02*
D03*
X2425000Y1927500D02*
D03*
X650000Y2000000D02*
D03*
X2327500Y1442500D02*
D03*
X2412500Y1250000D02*
D03*
X2265001Y815001D02*
D03*
X1506520Y1800000D02*
D03*
X610000Y1100000D02*
D03*
X610000Y1200000D02*
D03*
X2702500Y2702500D02*
D03*
X2877500Y3607500D02*
D03*
X540000Y1600000D02*
D03*
X1840000Y280000D02*
D03*
X670000Y1420000D02*
D03*
X610000Y1500000D02*
D03*
X690000Y1340000D02*
D03*
X540000Y1700000D02*
D03*
X1440000Y1250000D02*
D03*
X540000Y1800000D02*
D03*
X880000Y2180000D02*
D03*
X1080000Y2150000D02*
D03*
X1980000Y1660000D02*
D03*
X1260000Y350000D02*
D03*
X1940000Y1580000D02*
D03*
D112*
X2575000Y0D02*
D03*
X5875000Y600000D02*
D03*
Y4500000D02*
D03*
X0D02*
D03*
D113*
X5115000Y3548917D02*
D03*
D114*
X4690418Y3207917D02*
D03*
X4770418Y3287917D02*
D03*
X4690418D02*
D03*
Y3367917D02*
D03*
X4610417Y3287917D02*
D03*
%TF.MD5,ee9b2223fab69520d9135f5dcb174950*%
M02*
